%TF.GenerationSoftware,KiCad,Pcbnew,10.0.1*%
%TF.CreationDate,2026-07-17T15:57:41-06:00*%
%TF.ProjectId,clickwheel,636c6963-6b77-4686-9565-6c2e6b696361,rev?*%
%TF.SameCoordinates,Original*%
%TF.FileFunction,Copper,L1,Top*%
%TF.FilePolarity,Positive*%
%FSLAX46Y46*%
G04 Gerber Fmt 4.6, Leading zero omitted, Abs format (unit mm)*
G04 Created by KiCad (PCBNEW 10.0.1) date 2026-07-17 15:57:41*
%MOMM*%
%LPD*%
G01*
G04 APERTURE LIST*
%TA.AperFunction,ViaPad*%
%ADD10C,0.600000*%
%TD*%
%TA.AperFunction,Conductor*%
%ADD11C,0.200000*%
%TD*%
G04 APERTURE END LIST*
D10*
%TO.N,GND*%
X119283565Y-90479965D03*
X107803415Y-77145615D03*
X118465600Y-86182200D03*
%TO.N,unconnected-(J1-Pin_1-Pad1)*%
X103784400Y-68148200D03*
%TO.N,unconnected-(J1-Pin_2-Pad2)*%
X122634600Y-73754600D03*
%TO.N,unconnected-(J1-Pin_3-Pad3)*%
X115036600Y-74015600D03*
%TO.N,unconnected-(J1-Pin_4-Pad4)*%
X122634600Y-75754600D03*
%TO.N,unconnected-(J1-Pin_5-Pad5)*%
X116633199Y-85306872D03*
%TO.N,unconnected-(J1-Pin_6-Pad6)*%
X122634600Y-77754600D03*
%TO.N,unconnected-(J1-Pin_7-Pad7)*%
X106019600Y-94665800D03*
%TO.N,unconnected-(J1-Pin_8-Pad8)*%
X95064661Y-92006340D03*
X89465485Y-88680216D03*
X122631200Y-79756000D03*
%TO.N,unconnected-(J1-Pin_9-Pad9)*%
X122634600Y-80754600D03*
%TO.N,unconnected-(J1-Pin_10-Pad10)*%
X122634600Y-81754600D03*
X124790200Y-81754600D03*
X90093800Y-81407000D03*
%TO.N,unconnected-(J1-Pin_11-Pad11)*%
X122634600Y-82754600D03*
X96113600Y-75158600D03*
X98542798Y-85980128D03*
%TO.N,unconnected-(J1-Pin_12-Pad12)*%
X122634600Y-83754600D03*
%TD*%
%TO.N,GND*%
D11*
X119283565Y-87669365D02*
X118465600Y-86851400D01*
X119283565Y-90479965D02*
X119283565Y-87669365D01*
X118465600Y-86851400D02*
X118465600Y-86182200D01*
%TO.N,unconnected-(J1-Pin_1-Pad1)*%
X103784400Y-68148200D02*
X103860600Y-68224400D01*
%TO.N,unconnected-(J1-Pin_2-Pad2)*%
X122634600Y-73754600D02*
X121989200Y-73754600D01*
X118211600Y-69977000D02*
X110972600Y-69977000D01*
X121989200Y-73754600D02*
X118211600Y-69977000D01*
%TO.N,unconnected-(J1-Pin_4-Pad4)*%
X122634600Y-75754600D02*
X120155600Y-75754600D01*
X120155600Y-75754600D02*
X117297200Y-78613000D01*
%TO.N,unconnected-(J1-Pin_5-Pad5)*%
X116633199Y-85306872D02*
X116633199Y-85525401D01*
X116633199Y-85525401D02*
X116459000Y-85699600D01*
%TO.N,unconnected-(J1-Pin_6-Pad6)*%
X117830600Y-80645000D02*
X117830600Y-89103200D01*
X122634600Y-77754600D02*
X120721000Y-77754600D01*
X120721000Y-77754600D02*
X117830600Y-80645000D01*
X115544600Y-91389200D02*
X112547400Y-91389200D01*
X117830600Y-89103200D02*
X115544600Y-91389200D01*
%TO.N,unconnected-(J1-Pin_8-Pad8)*%
X95902860Y-92006340D02*
X96164400Y-91744800D01*
X92786200Y-69596000D02*
X90488969Y-71893231D01*
X112420400Y-68072000D02*
X111226600Y-68072000D01*
X107857634Y-66192400D02*
X107057814Y-65392580D01*
X90220800Y-74574400D02*
X88163400Y-76631800D01*
X107057814Y-65392580D02*
X107004934Y-65379600D01*
X100584000Y-65379600D02*
X99191206Y-66772394D01*
X88163400Y-76631800D02*
X88163400Y-85992748D01*
X107004934Y-65379600D02*
X100584000Y-65379600D01*
X90488969Y-71893231D02*
X90220800Y-72258776D01*
X125593400Y-68316400D02*
X112664800Y-68316400D01*
X96466124Y-66772394D02*
X93642518Y-69596000D01*
X111226600Y-68072000D02*
X109347000Y-66192400D01*
X89448901Y-88696800D02*
X89465485Y-88680216D01*
X109347000Y-66192400D02*
X107857634Y-66192400D01*
X88163400Y-85992748D02*
X89433400Y-87262748D01*
X122631200Y-79756000D02*
X126390400Y-79756000D01*
X89433400Y-87262748D02*
X89433400Y-88696800D01*
X126390400Y-79756000D02*
X127177800Y-78968600D01*
X93642518Y-69596000D02*
X92786200Y-69596000D01*
X112664800Y-68316400D02*
X112420400Y-68072000D01*
X127177800Y-78968600D02*
X127177800Y-69900800D01*
X89433400Y-88696800D02*
X89448901Y-88696800D01*
X99191206Y-66772394D02*
X96466124Y-66772394D01*
X127177800Y-69900800D02*
X125593400Y-68316400D01*
X90220800Y-72258776D02*
X90220800Y-74574400D01*
X95064661Y-92006340D02*
X95902860Y-92006340D01*
%TO.N,unconnected-(J1-Pin_9-Pad9)*%
X122634600Y-80754600D02*
X126373000Y-80754600D01*
X108667299Y-96799400D02*
X98821093Y-96799400D01*
X127228600Y-81610200D02*
X127228600Y-92481400D01*
X95224600Y-95123000D02*
X91871800Y-91770200D01*
X109177567Y-96613233D02*
X108667299Y-96799400D01*
X110925169Y-94865631D02*
X109177567Y-96613233D01*
X113588800Y-93980000D02*
X112703169Y-94865631D01*
X98821093Y-96799400D02*
X98219734Y-96588258D01*
X126373000Y-80754600D02*
X127228600Y-81610200D01*
X96754476Y-95123000D02*
X95224600Y-95123000D01*
X98219734Y-96588258D02*
X96754476Y-95123000D01*
X127228600Y-92481400D02*
X125730000Y-93980000D01*
X125730000Y-93980000D02*
X113588800Y-93980000D01*
X112703169Y-94865631D02*
X110925169Y-94865631D01*
X91871800Y-91770200D02*
X91871800Y-88417400D01*
%TO.N,unconnected-(J1-Pin_10-Pad10)*%
X124790200Y-81754600D02*
X122634600Y-81754600D01*
%TO.N,unconnected-(J1-Pin_11-Pad11)*%
X93903800Y-92760800D02*
X93903800Y-91151398D01*
X113423115Y-93580000D02*
X112537483Y-94465631D01*
X93903800Y-91151398D02*
X98542798Y-86512400D01*
X98056762Y-95859600D02*
X96920162Y-94723000D01*
X126365000Y-83464400D02*
X126339600Y-83489800D01*
X95866000Y-94723000D02*
X93903800Y-92760800D01*
X126339600Y-92202000D02*
X124961600Y-93580000D01*
X124961600Y-93580000D02*
X113423115Y-93580000D01*
X122634600Y-82754600D02*
X125655200Y-82754600D01*
X109365514Y-95859600D02*
X98056762Y-95859600D01*
X125655200Y-82754600D02*
X126365000Y-83464400D01*
X98542798Y-85980128D02*
X98542798Y-86512400D01*
X126339600Y-83489800D02*
X126339600Y-92202000D01*
X96920162Y-94723000D02*
X95866000Y-94723000D01*
X112537483Y-94465631D02*
X110759484Y-94465631D01*
X110759484Y-94465631D02*
X109365514Y-95859600D01*
%TO.N,unconnected-(J1-Pin_12-Pad12)*%
X105232200Y-87858600D02*
X106273600Y-88900000D01*
X111087485Y-93414315D02*
X113023115Y-93414315D01*
X97307400Y-78130400D02*
X97307400Y-83896201D01*
X114292629Y-92144800D02*
X119827129Y-92144800D01*
X106273600Y-88900000D02*
X106273600Y-91313000D01*
X109042200Y-95459600D02*
X111087485Y-93414315D01*
X107162600Y-94869000D02*
X107753200Y-95459600D01*
X107162600Y-92202000D02*
X107162600Y-94869000D01*
X119827129Y-92144800D02*
X122634600Y-89337329D01*
X107753200Y-95459600D02*
X109042200Y-95459600D01*
X99060000Y-73202800D02*
X99060000Y-76377800D01*
X122634600Y-89337329D02*
X122634600Y-83754600D01*
X113023115Y-93414315D02*
X114292629Y-92144800D01*
X101269799Y-87858600D02*
X105232200Y-87858600D01*
X97307400Y-83896201D02*
X101269799Y-87858600D01*
X99060000Y-76377800D02*
X97307400Y-78130400D01*
X106273600Y-91313000D02*
X107162600Y-92202000D01*
X99441000Y-72821800D02*
X99060000Y-73202800D01*
%TD*%
%TA.AperFunction,Conductor*%
%TO.N,unconnected-(J1-Pin_7-Pad7)*%
G36*
X102152604Y-88639523D02*
G01*
X102176718Y-88642101D01*
X102177528Y-88642153D01*
X102177781Y-88642205D01*
X102202282Y-88647407D01*
X102202339Y-88647419D01*
X102218189Y-88650666D01*
X102254378Y-88658080D01*
X102306548Y-88668383D01*
X102353226Y-88677259D01*
X102358821Y-88678323D01*
X102394808Y-88684900D01*
X102411101Y-88687879D01*
X102463479Y-88697070D01*
X102515920Y-88705890D01*
X102568423Y-88714338D01*
X102609343Y-88720624D01*
X102621054Y-88722424D01*
X102650120Y-88726678D01*
X102673601Y-88730116D01*
X102726271Y-88737445D01*
X102778992Y-88744400D01*
X102790373Y-88745819D01*
X102831743Y-88750980D01*
X102884548Y-88757186D01*
X102890781Y-88757873D01*
X102937433Y-88763021D01*
X102988659Y-88768306D01*
X102989205Y-88768370D01*
X102989878Y-88768435D01*
X102990774Y-88768524D01*
X102992384Y-88768690D01*
X102992986Y-88768733D01*
X102995657Y-88768990D01*
X102995665Y-88768993D01*
X102995666Y-88768991D01*
X103043265Y-88773562D01*
X103096234Y-88778269D01*
X103149235Y-88782600D01*
X103202265Y-88786555D01*
X103255323Y-88790135D01*
X103308404Y-88793338D01*
X103361507Y-88796164D01*
X103394225Y-88797673D01*
X103414455Y-88798606D01*
X103414611Y-88798614D01*
X103414760Y-88798619D01*
X103467766Y-88800687D01*
X103520917Y-88802384D01*
X103574078Y-88803703D01*
X103627248Y-88804646D01*
X103680422Y-88805211D01*
X103733600Y-88805400D01*
X103786778Y-88805211D01*
X103839952Y-88804646D01*
X103893122Y-88803703D01*
X103946283Y-88802384D01*
X103999434Y-88800687D01*
X104052495Y-88798617D01*
X104052498Y-88798617D01*
X104052513Y-88798616D01*
X104052572Y-88798614D01*
X104052615Y-88798612D01*
X104052641Y-88798611D01*
X104068869Y-88797862D01*
X104105693Y-88796164D01*
X104158796Y-88793338D01*
X104211877Y-88790135D01*
X104264935Y-88786555D01*
X104317965Y-88782600D01*
X104370966Y-88778269D01*
X104423935Y-88773562D01*
X104476870Y-88768479D01*
X104529767Y-88763021D01*
X104582624Y-88757189D01*
X104582626Y-88757188D01*
X104582651Y-88757186D01*
X104582791Y-88757169D01*
X104583068Y-88757139D01*
X104592309Y-88756119D01*
X104593091Y-88755958D01*
X104635456Y-88750980D01*
X104662874Y-88747559D01*
X104662874Y-88747562D01*
X104662885Y-88747557D01*
X104681075Y-88745289D01*
X104688155Y-88744407D01*
X104688520Y-88744358D01*
X104740929Y-88737445D01*
X104793599Y-88730116D01*
X104822735Y-88725850D01*
X104846145Y-88722424D01*
X104850537Y-88721749D01*
X104898777Y-88714338D01*
X104951280Y-88705890D01*
X105003721Y-88697070D01*
X105056099Y-88687879D01*
X105093020Y-88681130D01*
X105105225Y-88678899D01*
X105106469Y-88678672D01*
X105140835Y-88677243D01*
X105162063Y-88679322D01*
X105218378Y-88699307D01*
X105223585Y-88702751D01*
X105242859Y-88718494D01*
X105468272Y-88943907D01*
X105489041Y-88971467D01*
X105505287Y-89000775D01*
X105517655Y-89032995D01*
X105668338Y-89685669D01*
X105670719Y-89699525D01*
X105672303Y-89713427D01*
X105673100Y-89727465D01*
X105673100Y-91226330D01*
X105673099Y-91226348D01*
X105673099Y-91349961D01*
X105667201Y-91370046D01*
X105714023Y-91544786D01*
X105734262Y-91579841D01*
X105734263Y-91579841D01*
X105742958Y-91594901D01*
X105742959Y-91594904D01*
X105742960Y-91594904D01*
X105755022Y-91615796D01*
X105755022Y-91615798D01*
X105793067Y-91681695D01*
X105793077Y-91681711D01*
X105793081Y-91681717D01*
X105793085Y-91681722D01*
X105913914Y-91802551D01*
X105913959Y-91802594D01*
X106192575Y-92081210D01*
X106213344Y-92108770D01*
X106229590Y-92138078D01*
X106241958Y-92170298D01*
X106557338Y-93536351D01*
X106559719Y-93550207D01*
X106561303Y-93564109D01*
X106562100Y-93578147D01*
X106562100Y-94789939D01*
X106562099Y-94789943D01*
X106562099Y-94811838D01*
X106562099Y-94840774D01*
X106562099Y-94897380D01*
X106557074Y-94932324D01*
X106552669Y-94947322D01*
X106543031Y-94962316D01*
X106542414Y-94964420D01*
X106540757Y-94965855D01*
X106514898Y-95006090D01*
X106509369Y-95010881D01*
X106452190Y-95038819D01*
X106398115Y-95049498D01*
X106398116Y-95049499D01*
X106397788Y-95049564D01*
X106396844Y-95049747D01*
X106300557Y-95068053D01*
X106300249Y-95068111D01*
X106299897Y-95068177D01*
X106299343Y-95068280D01*
X106202786Y-95085931D01*
X106202064Y-95086061D01*
X106201798Y-95086108D01*
X106201656Y-95086132D01*
X106104941Y-95103105D01*
X106104939Y-95103095D01*
X106104061Y-95103257D01*
X106007087Y-95119565D01*
X106006843Y-95119605D01*
X106006250Y-95119703D01*
X106006011Y-95119742D01*
X105909212Y-95135318D01*
X105908766Y-95135389D01*
X105908397Y-95135447D01*
X105907971Y-95135513D01*
X105811124Y-95150391D01*
X105810789Y-95150442D01*
X105810305Y-95150515D01*
X105809773Y-95150594D01*
X105712908Y-95164774D01*
X105712310Y-95164860D01*
X105712112Y-95164888D01*
X105711839Y-95164927D01*
X105614369Y-95178490D01*
X105614187Y-95178463D01*
X105613502Y-95178608D01*
X105516193Y-95191445D01*
X105515799Y-95191496D01*
X105515356Y-95191553D01*
X105514879Y-95191614D01*
X105417618Y-95203745D01*
X105417199Y-95203796D01*
X105416630Y-95203865D01*
X105416175Y-95203919D01*
X105319180Y-95215318D01*
X105318876Y-95215354D01*
X105318450Y-95215403D01*
X105317880Y-95215467D01*
X105220306Y-95226233D01*
X105219984Y-95226268D01*
X105219724Y-95226296D01*
X105219175Y-95226354D01*
X105121731Y-95236409D01*
X105121148Y-95236468D01*
X105120518Y-95236530D01*
X105120224Y-95236558D01*
X105022977Y-95245895D01*
X105022488Y-95245941D01*
X105021912Y-95245994D01*
X105021527Y-95246029D01*
X104924117Y-95254686D01*
X104923615Y-95254730D01*
X104923037Y-95254779D01*
X104922661Y-95254810D01*
X104884580Y-95257921D01*
X104884581Y-95257922D01*
X104877750Y-95258481D01*
X104872695Y-95258791D01*
X104871181Y-95258852D01*
X104867645Y-95258997D01*
X104862591Y-95259100D01*
X102604608Y-95259100D01*
X102599557Y-95258997D01*
X102594924Y-95258808D01*
X102594504Y-95258791D01*
X102589466Y-95258482D01*
X102581291Y-95257814D01*
X102581289Y-95257814D01*
X102544496Y-95254807D01*
X102544053Y-95254770D01*
X102543514Y-95254724D01*
X102543081Y-95254686D01*
X102445671Y-95246029D01*
X102445286Y-95245994D01*
X102444710Y-95245941D01*
X102444221Y-95245895D01*
X102346974Y-95236558D01*
X102346680Y-95236530D01*
X102346160Y-95236478D01*
X102345997Y-95236462D01*
X102345532Y-95236415D01*
X102297909Y-95231501D01*
X102248023Y-95226354D01*
X102247474Y-95226296D01*
X102247214Y-95226268D01*
X102246892Y-95226233D01*
X102149318Y-95215467D01*
X102148748Y-95215403D01*
X102148322Y-95215354D01*
X102148018Y-95215318D01*
X102051023Y-95203919D01*
X102050568Y-95203865D01*
X102049999Y-95203796D01*
X102049998Y-95203795D01*
X102049580Y-95203745D01*
X101952319Y-95191614D01*
X101951842Y-95191553D01*
X101951399Y-95191496D01*
X101951005Y-95191445D01*
X101853697Y-95178608D01*
X101853260Y-95178549D01*
X101852825Y-95178490D01*
X101836934Y-95176278D01*
X101755358Y-95164927D01*
X101755086Y-95164888D01*
X101754888Y-95164860D01*
X101754290Y-95164774D01*
X101657425Y-95150594D01*
X101656893Y-95150515D01*
X101656409Y-95150442D01*
X101656074Y-95150391D01*
X101559227Y-95135513D01*
X101558801Y-95135447D01*
X101558432Y-95135389D01*
X101557986Y-95135318D01*
X101481580Y-95123023D01*
X101461076Y-95119724D01*
X101460284Y-95119593D01*
X101460111Y-95119565D01*
X101363138Y-95103257D01*
X101362268Y-95103107D01*
X101265542Y-95086132D01*
X101265400Y-95086108D01*
X101265134Y-95086061D01*
X101264412Y-95085931D01*
X101167855Y-95068280D01*
X101167301Y-95068177D01*
X101166949Y-95068111D01*
X101166641Y-95068053D01*
X101106042Y-95056532D01*
X101070423Y-95049760D01*
X101069909Y-95049661D01*
X101069400Y-95049562D01*
X101069406Y-95049528D01*
X101069048Y-95049493D01*
X101005075Y-95036859D01*
X100973038Y-95030531D01*
X100972677Y-95030459D01*
X100972184Y-95030360D01*
X100971911Y-95030305D01*
X100955796Y-95027003D01*
X100875755Y-95010605D01*
X100875327Y-95010516D01*
X100874766Y-95010399D01*
X100874334Y-95010308D01*
X100778898Y-94990050D01*
X100778452Y-94989955D01*
X100777906Y-94989837D01*
X100777493Y-94989747D01*
X100723945Y-94977983D01*
X100690898Y-94965579D01*
X100677196Y-94958060D01*
X100627907Y-94908575D01*
X100627209Y-94907291D01*
X100612155Y-94847161D01*
X100612202Y-94840774D01*
X100612216Y-94838820D01*
X100615390Y-94811844D01*
X102014799Y-88750340D01*
X102027549Y-88717438D01*
X102035217Y-88703810D01*
X102085239Y-88655043D01*
X102087360Y-88653919D01*
X102138853Y-88641229D01*
X102142305Y-88639911D01*
X102143813Y-88640007D01*
X102145880Y-88639497D01*
X102152604Y-88639523D01*
G37*
%TD.AperFunction*%
%TD*%
%TA.AperFunction,Conductor*%
%TO.N,unconnected-(J1-Pin_1-Pad1)*%
G36*
X103734164Y-67305402D02*
G01*
X103734401Y-67305402D01*
X103832490Y-67305750D01*
X103833187Y-67305755D01*
X103931779Y-67306803D01*
X103932354Y-67306811D01*
X104031018Y-67308559D01*
X104031495Y-67308570D01*
X104031577Y-67308572D01*
X104130261Y-67311021D01*
X104130970Y-67311041D01*
X104229467Y-67314185D01*
X104230149Y-67314209D01*
X104328735Y-67318056D01*
X104329420Y-67318085D01*
X104427668Y-67322616D01*
X104428502Y-67322657D01*
X104526682Y-67327883D01*
X104527091Y-67327906D01*
X104527602Y-67327935D01*
X104528003Y-67327958D01*
X104625897Y-67333866D01*
X104626213Y-67333886D01*
X104626418Y-67333899D01*
X104626823Y-67333925D01*
X104724930Y-67340543D01*
X104725529Y-67340586D01*
X104725926Y-67340615D01*
X104725922Y-67340662D01*
X104726111Y-67340628D01*
X104824041Y-67347933D01*
X104824911Y-67348000D01*
X104922767Y-67355997D01*
X104923026Y-67356019D01*
X104923374Y-67356048D01*
X104923607Y-67356068D01*
X104923755Y-67356081D01*
X105021938Y-67364806D01*
X105022535Y-67364861D01*
X105120741Y-67374290D01*
X105121289Y-67374345D01*
X105219128Y-67384439D01*
X105219339Y-67384462D01*
X105219989Y-67384531D01*
X105220419Y-67384577D01*
X105318110Y-67395357D01*
X105318882Y-67395445D01*
X105416702Y-67406942D01*
X105417121Y-67406992D01*
X105417233Y-67407006D01*
X105417234Y-67407006D01*
X105417290Y-67407012D01*
X105514986Y-67419197D01*
X105515305Y-67419238D01*
X105515780Y-67419299D01*
X105516082Y-67419338D01*
X105613621Y-67432207D01*
X105614260Y-67432293D01*
X105712055Y-67445901D01*
X105712671Y-67445989D01*
X105810082Y-67460250D01*
X105810869Y-67460368D01*
X105908201Y-67475320D01*
X105908504Y-67475368D01*
X105908909Y-67475432D01*
X105992723Y-67488918D01*
X106006123Y-67491075D01*
X106006987Y-67491217D01*
X106047773Y-67498075D01*
X106047775Y-67498076D01*
X106072457Y-67502227D01*
X106104166Y-67507560D01*
X106104213Y-67507568D01*
X106105065Y-67507716D01*
X106105066Y-67507715D01*
X106105072Y-67507716D01*
X106201782Y-67524687D01*
X106201998Y-67524725D01*
X106202568Y-67524828D01*
X106202574Y-67524829D01*
X106202771Y-67524865D01*
X106235435Y-67530836D01*
X106299628Y-67542571D01*
X106300209Y-67542679D01*
X106397269Y-67561133D01*
X106397786Y-67561233D01*
X106494507Y-67580336D01*
X106494955Y-67580425D01*
X106494981Y-67580431D01*
X106495348Y-67580506D01*
X106537559Y-67589153D01*
X106591601Y-67600225D01*
X106592129Y-67600335D01*
X106592429Y-67600398D01*
X106688730Y-67620840D01*
X106689183Y-67620937D01*
X106689660Y-67621041D01*
X106743255Y-67632816D01*
X106776298Y-67645218D01*
X106790002Y-67652738D01*
X106839272Y-67702187D01*
X106839970Y-67703470D01*
X106855043Y-67763651D01*
X106854981Y-67771991D01*
X106851806Y-67798963D01*
X105452401Y-73860451D01*
X105452401Y-73860452D01*
X105439647Y-73893362D01*
X105431982Y-73906985D01*
X105381953Y-73955758D01*
X105381920Y-73955776D01*
X105379802Y-73956897D01*
X105321335Y-73971300D01*
X105314613Y-73971275D01*
X105289324Y-73968573D01*
X105264919Y-73963392D01*
X105264918Y-73963391D01*
X105264886Y-73963385D01*
X105233213Y-73956897D01*
X105212793Y-73952714D01*
X105212756Y-73952706D01*
X105212738Y-73952703D01*
X105160786Y-73942443D01*
X105160781Y-73942442D01*
X105160720Y-73942430D01*
X105125338Y-73935701D01*
X105108295Y-73932460D01*
X105056187Y-73922936D01*
X105003750Y-73913734D01*
X104980118Y-73909759D01*
X104969458Y-73907967D01*
X104969457Y-73907966D01*
X104951219Y-73904899D01*
X104898833Y-73896470D01*
X104852226Y-73889308D01*
X104852095Y-73889289D01*
X104846145Y-73888375D01*
X104793669Y-73880694D01*
X104793634Y-73880689D01*
X104793599Y-73880684D01*
X104740929Y-73873355D01*
X104740932Y-73873355D01*
X104740922Y-73873354D01*
X104740077Y-73873242D01*
X104738398Y-73873002D01*
X104618149Y-73856270D01*
X104611814Y-73857040D01*
X104582663Y-73853614D01*
X104529801Y-73847782D01*
X104476787Y-73842311D01*
X104423979Y-73837241D01*
X104371020Y-73832535D01*
X104343067Y-73830250D01*
X104318019Y-73828204D01*
X104316989Y-73828127D01*
X104315229Y-73827995D01*
X104315221Y-73827995D01*
X104264935Y-73824245D01*
X104264853Y-73824239D01*
X104264820Y-73824237D01*
X104213133Y-73820748D01*
X104212671Y-73820718D01*
X104211877Y-73820665D01*
X104211865Y-73820664D01*
X104211861Y-73820664D01*
X104210923Y-73820607D01*
X104210715Y-73820594D01*
X104210704Y-73820594D01*
X104206923Y-73820365D01*
X104158856Y-73817465D01*
X104145497Y-73816754D01*
X104112529Y-73814999D01*
X104112520Y-73814998D01*
X104108980Y-73814810D01*
X104105619Y-73814632D01*
X104104100Y-73814561D01*
X104052697Y-73812189D01*
X103999406Y-73810111D01*
X103946298Y-73808416D01*
X103893725Y-73807110D01*
X103893377Y-73807103D01*
X103893167Y-73807098D01*
X103893150Y-73807097D01*
X103893122Y-73807097D01*
X103892414Y-73807084D01*
X103891827Y-73807073D01*
X103841118Y-73806173D01*
X103840329Y-73806151D01*
X103839227Y-73806146D01*
X103838701Y-73806140D01*
X103786711Y-73805587D01*
X103733599Y-73805398D01*
X103680487Y-73805587D01*
X103628117Y-73806144D01*
X103628006Y-73806145D01*
X103627314Y-73806153D01*
X103627271Y-73806153D01*
X103627248Y-73806154D01*
X103626258Y-73806171D01*
X103625486Y-73806183D01*
X103575151Y-73807077D01*
X103574648Y-73807081D01*
X103574056Y-73807097D01*
X103574051Y-73807097D01*
X103574045Y-73807097D01*
X103573982Y-73807099D01*
X103573816Y-73807103D01*
X103520902Y-73808416D01*
X103467792Y-73810111D01*
X103414494Y-73812190D01*
X103361629Y-73814629D01*
X103348729Y-73815315D01*
X103348729Y-73815316D01*
X103308404Y-73817462D01*
X103308372Y-73817463D01*
X103308333Y-73817466D01*
X103268923Y-73819842D01*
X103268924Y-73819843D01*
X103259513Y-73820411D01*
X103259375Y-73820420D01*
X103255338Y-73820664D01*
X103255324Y-73820664D01*
X103255323Y-73820665D01*
X103235773Y-73821984D01*
X103235020Y-73822034D01*
X103209246Y-73823773D01*
X103202235Y-73824247D01*
X103159606Y-73827426D01*
X103159605Y-73827425D01*
X103149217Y-73828200D01*
X103096156Y-73832537D01*
X103043219Y-73837241D01*
X102990411Y-73842311D01*
X102937397Y-73847782D01*
X102884535Y-73853614D01*
X102831742Y-73859818D01*
X102779154Y-73866378D01*
X102744889Y-73870898D01*
X102726277Y-73873354D01*
X102695773Y-73877598D01*
X102695766Y-73877599D01*
X102695765Y-73877598D01*
X102674923Y-73880499D01*
X102674179Y-73880603D01*
X102673601Y-73880684D01*
X102673584Y-73880686D01*
X102673530Y-73880694D01*
X102673400Y-73880712D01*
X102673329Y-73880723D01*
X102621069Y-73888372D01*
X102568270Y-73896485D01*
X102516970Y-73904740D01*
X102516828Y-73904763D01*
X102515986Y-73904899D01*
X102515933Y-73904907D01*
X102515920Y-73904910D01*
X102509162Y-73906046D01*
X102488856Y-73909461D01*
X102463470Y-73913730D01*
X102411011Y-73922936D01*
X102358903Y-73932460D01*
X102326833Y-73938559D01*
X102306479Y-73942430D01*
X102306443Y-73942436D01*
X102306412Y-73942443D01*
X102254460Y-73952703D01*
X102202167Y-73963414D01*
X102182819Y-73967521D01*
X102182818Y-73967523D01*
X102147602Y-73969864D01*
X102132018Y-73968671D01*
X102066677Y-73943927D01*
X102066637Y-73943897D01*
X102064727Y-73942451D01*
X102026981Y-73895539D01*
X102024165Y-73889436D01*
X102015935Y-73865378D01*
X102014652Y-73859819D01*
X100616327Y-67803010D01*
X100613294Y-67781088D01*
X100612816Y-67771166D01*
X100613459Y-67768508D01*
X100613365Y-67767829D01*
X100613652Y-67762957D01*
X100614717Y-67763019D01*
X100615230Y-67746518D01*
X100614257Y-67746386D01*
X100614713Y-67743033D01*
X100615386Y-67741528D01*
X100615464Y-67739032D01*
X100615918Y-67736929D01*
X100617310Y-67737229D01*
X100623341Y-67723750D01*
X100624063Y-67713330D01*
X100628136Y-67707862D01*
X100629251Y-67703257D01*
X100634944Y-67697822D01*
X100640672Y-67685023D01*
X100639530Y-67684192D01*
X100640089Y-67683424D01*
X100642070Y-67681899D01*
X100643252Y-67679258D01*
X100643298Y-67679205D01*
X100645501Y-67676626D01*
X100647121Y-67678010D01*
X100654750Y-67672138D01*
X100665805Y-67657300D01*
X100694483Y-67641554D01*
X100695456Y-67640806D01*
X100696597Y-67640369D01*
X100698211Y-67639763D01*
X100715176Y-67634742D01*
X100777722Y-67621000D01*
X100778105Y-67620918D01*
X100778393Y-67620856D01*
X100778566Y-67620819D01*
X100778574Y-67620857D01*
X100778738Y-67620782D01*
X100874669Y-67600419D01*
X100875165Y-67600315D01*
X100875373Y-67600272D01*
X100972169Y-67580441D01*
X100972451Y-67580384D01*
X100972750Y-67580323D01*
X101069621Y-67561193D01*
X101069899Y-67561139D01*
X101166959Y-67542684D01*
X101167521Y-67542580D01*
X101235113Y-67530223D01*
X101264470Y-67524857D01*
X101264632Y-67524828D01*
X101264869Y-67524785D01*
X101265485Y-67524674D01*
X101318025Y-67515455D01*
X101362416Y-67507666D01*
X101363283Y-67507517D01*
X101460119Y-67491232D01*
X101460443Y-67491179D01*
X101460887Y-67491106D01*
X101461170Y-67491059D01*
X101558083Y-67475465D01*
X101558356Y-67475421D01*
X101558897Y-67475336D01*
X101656371Y-67460362D01*
X101657075Y-67460256D01*
X101754316Y-67446021D01*
X101755129Y-67445903D01*
X101852976Y-67432288D01*
X101853539Y-67432212D01*
X101933699Y-67421636D01*
X101951308Y-67419313D01*
X101951310Y-67419313D01*
X101952079Y-67419213D01*
X102049758Y-67407030D01*
X102050632Y-67406926D01*
X102050632Y-67406925D01*
X102148353Y-67395441D01*
X102149061Y-67395360D01*
X102247046Y-67384548D01*
X102247848Y-67384462D01*
X102345936Y-67374342D01*
X102346402Y-67374295D01*
X102346587Y-67374278D01*
X102346594Y-67374355D01*
X102346862Y-67374251D01*
X102444395Y-67364887D01*
X102444635Y-67364933D01*
X102444629Y-67364865D01*
X102445001Y-67364830D01*
X102445547Y-67364780D01*
X102543515Y-67356074D01*
X102544145Y-67356020D01*
X102642287Y-67348000D01*
X102642365Y-67347994D01*
X102642881Y-67347954D01*
X102643334Y-67347920D01*
X102643338Y-67347973D01*
X102643517Y-67347906D01*
X102741377Y-67340607D01*
X102741953Y-67340565D01*
X102741999Y-67340562D01*
X102742000Y-67340562D01*
X102742228Y-67340545D01*
X102840424Y-67333922D01*
X102841125Y-67333876D01*
X102841204Y-67333872D01*
X102841302Y-67333865D01*
X102939487Y-67327941D01*
X102940265Y-67327897D01*
X103038640Y-67322659D01*
X103038865Y-67322648D01*
X103039514Y-67322617D01*
X103039659Y-67322610D01*
X103039688Y-67322609D01*
X103039691Y-67322608D01*
X103137711Y-67318088D01*
X103137711Y-67318090D01*
X103138465Y-67318055D01*
X103237060Y-67314209D01*
X103237280Y-67314200D01*
X103237844Y-67314181D01*
X103336237Y-67311041D01*
X103336930Y-67311021D01*
X103435515Y-67308573D01*
X103435789Y-67308567D01*
X103435990Y-67308564D01*
X103534689Y-67306814D01*
X103534689Y-67306816D01*
X103535511Y-67306802D01*
X103634014Y-67305755D01*
X103634707Y-67305750D01*
X103732783Y-67305402D01*
X103733036Y-67305402D01*
X103733474Y-67305401D01*
X103733726Y-67305401D01*
X103734164Y-67305402D01*
G37*
%TD.AperFunction*%
%TD*%
%TA.AperFunction,Conductor*%
%TO.N,unconnected-(J1-Pin_9-Pad9)*%
G36*
X96493540Y-83538366D02*
G01*
X96504532Y-83537359D01*
X96521703Y-83546295D01*
X96544432Y-83552694D01*
X96546471Y-83553972D01*
X96556481Y-83564393D01*
X96566511Y-83569613D01*
X96588218Y-83597433D01*
X96591564Y-83603280D01*
X96601857Y-83626510D01*
X96609560Y-83650195D01*
X96626387Y-83700716D01*
X96643517Y-83750952D01*
X96643544Y-83751029D01*
X96661062Y-83801238D01*
X96678936Y-83851322D01*
X96695469Y-83896631D01*
X96701016Y-83917145D01*
X96701236Y-83918366D01*
X96697986Y-83948523D01*
X96705722Y-83971731D01*
X96707859Y-83978846D01*
X96747821Y-84127983D01*
X96747822Y-84127984D01*
X96747823Y-84127986D01*
X96776760Y-84178105D01*
X96826880Y-84264917D01*
X96842292Y-84280329D01*
X96849549Y-84291675D01*
X96850343Y-84294404D01*
X96856676Y-84303670D01*
X96867837Y-84323782D01*
X96877011Y-84344677D01*
X96898769Y-84393298D01*
X96920771Y-84441539D01*
X96920795Y-84441591D01*
X96943260Y-84489939D01*
X96965931Y-84537841D01*
X96989075Y-84585855D01*
X97012479Y-84633544D01*
X97024306Y-84657215D01*
X97036258Y-84681138D01*
X97036278Y-84681177D01*
X97036548Y-84681708D01*
X97036562Y-84681736D01*
X97060309Y-84728440D01*
X97084847Y-84775859D01*
X97109601Y-84822877D01*
X97134656Y-84869662D01*
X97160163Y-84916484D01*
X97185818Y-84962799D01*
X97211978Y-85009243D01*
X97238427Y-85055434D01*
X97265173Y-85101378D01*
X97292240Y-85147131D01*
X97315811Y-85186335D01*
X97315812Y-85186335D01*
X97319666Y-85192745D01*
X97347359Y-85238075D01*
X97347446Y-85238217D01*
X97375402Y-85283255D01*
X97403763Y-85328231D01*
X97403772Y-85328245D01*
X97432455Y-85373024D01*
X97442734Y-85388824D01*
X97461462Y-85417612D01*
X97490764Y-85461963D01*
X97520438Y-85506188D01*
X97550357Y-85550105D01*
X97580600Y-85593828D01*
X97611078Y-85637228D01*
X97611128Y-85637298D01*
X97642030Y-85680646D01*
X97643011Y-85682001D01*
X97673194Y-85723712D01*
X97704674Y-85766571D01*
X97712231Y-85776709D01*
X97712604Y-85777219D01*
X97712961Y-85778212D01*
X97728761Y-85807287D01*
X97737546Y-85830986D01*
X97742654Y-85895194D01*
X97742895Y-85895218D01*
X97742762Y-85896560D01*
X97742898Y-85898261D01*
X97742298Y-85901278D01*
X97742298Y-85901282D01*
X97742298Y-86058974D01*
X97742298Y-86058976D01*
X97742297Y-86058976D01*
X97773055Y-86213599D01*
X97773061Y-86213627D01*
X97798756Y-86275661D01*
X97807483Y-86309854D01*
X97809154Y-86325393D01*
X97796750Y-86394153D01*
X97796748Y-86394156D01*
X97790652Y-86406334D01*
X97767450Y-86438510D01*
X93538982Y-90666979D01*
X93523835Y-90676340D01*
X93521830Y-90680014D01*
X93493577Y-90701167D01*
X93488924Y-90703708D01*
X93420781Y-90718572D01*
X93420710Y-90718567D01*
X93420678Y-90718556D01*
X93420651Y-90718562D01*
X93420056Y-90718340D01*
X93359659Y-90697388D01*
X93350817Y-90691371D01*
X93328410Y-90671807D01*
X93294147Y-90633732D01*
X93293709Y-90633243D01*
X93228338Y-90559558D01*
X93227903Y-90559064D01*
X93227711Y-90558845D01*
X93227611Y-90558731D01*
X93163211Y-90485093D01*
X93162972Y-90484820D01*
X93162506Y-90484284D01*
X93162170Y-90483895D01*
X93132279Y-90449225D01*
X93132278Y-90449223D01*
X93098257Y-90409761D01*
X93097980Y-90409439D01*
X93097605Y-90409001D01*
X93097440Y-90408808D01*
X93033773Y-90333891D01*
X93033207Y-90333220D01*
X92970150Y-90257947D01*
X92969587Y-90257270D01*
X92906860Y-90181302D01*
X92906304Y-90180624D01*
X92874265Y-90141257D01*
X92874263Y-90141255D01*
X92874262Y-90141254D01*
X92844097Y-90104190D01*
X92843852Y-90103887D01*
X92782028Y-90026812D01*
X92781618Y-90026297D01*
X92720707Y-89949248D01*
X92720573Y-89949078D01*
X92720291Y-89948720D01*
X92719882Y-89948198D01*
X92659678Y-89870922D01*
X92659397Y-89870559D01*
X92659063Y-89870127D01*
X92658808Y-89869796D01*
X92599073Y-89791993D01*
X92598538Y-89791292D01*
X92539183Y-89712836D01*
X92538656Y-89712134D01*
X92479856Y-89633257D01*
X92479416Y-89632663D01*
X92421030Y-89553171D01*
X92420540Y-89552498D01*
X92363132Y-89473164D01*
X92362815Y-89472724D01*
X92362435Y-89472194D01*
X92362240Y-89471922D01*
X92339696Y-89440299D01*
X92339695Y-89440297D01*
X92305373Y-89392151D01*
X92305113Y-89391785D01*
X92304789Y-89391327D01*
X92304541Y-89390975D01*
X92248416Y-89311051D01*
X92248198Y-89310741D01*
X92247778Y-89310139D01*
X92191769Y-89229167D01*
X92191713Y-89229085D01*
X92191307Y-89228493D01*
X92191091Y-89228177D01*
X92135999Y-89147312D01*
X92135655Y-89146804D01*
X92135351Y-89146353D01*
X92135203Y-89146134D01*
X92080556Y-89064687D01*
X92080497Y-89064598D01*
X92080042Y-89063914D01*
X92079828Y-89063591D01*
X92025886Y-88981947D01*
X92025299Y-88981050D01*
X92025240Y-88980959D01*
X91971878Y-88898937D01*
X91971735Y-88898717D01*
X91971441Y-88898263D01*
X91971106Y-88897744D01*
X91918219Y-88815176D01*
X91917987Y-88814812D01*
X91917673Y-88814317D01*
X91865139Y-88731004D01*
X91864758Y-88730394D01*
X91813010Y-88647025D01*
X91812779Y-88646651D01*
X91812452Y-88646120D01*
X91812222Y-88645745D01*
X91761333Y-88562448D01*
X91761154Y-88562155D01*
X91760831Y-88561623D01*
X91760553Y-88561163D01*
X91710010Y-88477096D01*
X91709779Y-88476710D01*
X91709496Y-88476234D01*
X91659448Y-88391639D01*
X91659160Y-88391150D01*
X91658840Y-88390603D01*
X91609566Y-88305953D01*
X91609450Y-88305753D01*
X91609030Y-88305025D01*
X91560115Y-88219604D01*
X91559681Y-88218839D01*
X91559671Y-88218821D01*
X91559704Y-88218801D01*
X91559682Y-88218708D01*
X91559495Y-88218509D01*
X91511383Y-88133091D01*
X91511041Y-88132480D01*
X91463304Y-88046304D01*
X91462951Y-88045661D01*
X91415795Y-87959094D01*
X91415497Y-87958543D01*
X91368908Y-87871552D01*
X91368542Y-87870862D01*
X91322732Y-87783851D01*
X91322324Y-87783070D01*
X91277082Y-87695636D01*
X91276681Y-87694854D01*
X91232185Y-87607348D01*
X91232020Y-87607022D01*
X91231809Y-87606604D01*
X91231579Y-87606145D01*
X91187923Y-87518764D01*
X91187794Y-87518507D01*
X91187492Y-87517899D01*
X91187230Y-87517368D01*
X91143965Y-87429210D01*
X91143580Y-87428419D01*
X91100925Y-87339923D01*
X91100895Y-87339860D01*
X91100792Y-87339646D01*
X91100519Y-87339074D01*
X91058430Y-87250148D01*
X91058056Y-87249351D01*
X91016591Y-87160110D01*
X91016224Y-87159313D01*
X90975352Y-87069694D01*
X90974990Y-87068892D01*
X90934731Y-86978930D01*
X90934616Y-86978671D01*
X90894876Y-86888155D01*
X90894605Y-86887528D01*
X90894604Y-86887528D01*
X90855675Y-86797123D01*
X90855353Y-86796366D01*
X90817036Y-86705618D01*
X90816771Y-86704986D01*
X90779039Y-86613820D01*
X90778841Y-86613339D01*
X90741771Y-86521946D01*
X90741472Y-86521199D01*
X90705115Y-86429710D01*
X90704855Y-86429051D01*
X90669201Y-86337438D01*
X90669017Y-86336965D01*
X90668808Y-86336420D01*
X90633788Y-86244514D01*
X90633478Y-86243694D01*
X90599041Y-86151360D01*
X90598737Y-86150535D01*
X90565769Y-86060187D01*
X90565113Y-86058389D01*
X90564888Y-86057767D01*
X90564736Y-86057343D01*
X90564741Y-86057340D01*
X90564684Y-86057199D01*
X90531637Y-85964600D01*
X90531598Y-85964489D01*
X90531523Y-85964277D01*
X90531344Y-85963769D01*
X90498933Y-85870873D01*
X90498647Y-85870043D01*
X90466945Y-85777066D01*
X90466948Y-85777064D01*
X90466664Y-85776234D01*
X90435555Y-85682837D01*
X90435280Y-85682001D01*
X90404833Y-85588381D01*
X90404639Y-85587778D01*
X90387965Y-85535247D01*
X90382185Y-85500433D01*
X90381846Y-85484805D01*
X90400069Y-85417359D01*
X90400832Y-85416113D01*
X90445374Y-85373027D01*
X90452627Y-85368910D01*
X90477571Y-85358174D01*
X96426689Y-83539345D01*
X96461558Y-83533936D01*
X96477189Y-83533762D01*
X96493540Y-83538366D01*
G37*
%TD.AperFunction*%
%TD*%
%TA.AperFunction,Conductor*%
%TO.N,unconnected-(J1-Pin_6-Pad6)*%
G36*
X108860338Y-86847461D02*
G01*
X108873793Y-86852672D01*
X108885058Y-86853164D01*
X108916494Y-86869211D01*
X108921992Y-86873095D01*
X108941150Y-86889814D01*
X110898728Y-88989059D01*
X113184424Y-91440168D01*
X113192597Y-91451920D01*
X113192830Y-91451735D01*
X113196014Y-91455723D01*
X113197224Y-91457855D01*
X113198271Y-91458637D01*
X113201189Y-91464273D01*
X113204574Y-91469139D01*
X113206764Y-91473505D01*
X113206249Y-91473762D01*
X113214460Y-91488233D01*
X113214542Y-91488200D01*
X113214801Y-91488835D01*
X113215230Y-91489590D01*
X113216252Y-91492319D01*
X113216347Y-91492613D01*
X113216408Y-91492734D01*
X113217172Y-91494774D01*
X113217209Y-91495293D01*
X113217799Y-91497122D01*
X113217353Y-91497265D01*
X113219581Y-91527799D01*
X113222357Y-91554736D01*
X113223723Y-91554884D01*
X113223621Y-91555831D01*
X113222699Y-91558054D01*
X113222985Y-91560823D01*
X113222369Y-91564154D01*
X113222231Y-91564128D01*
X113222256Y-91564458D01*
X113212984Y-91581496D01*
X113196870Y-91620377D01*
X113196134Y-91621282D01*
X113195147Y-91622483D01*
X113182946Y-91635334D01*
X113135789Y-91678381D01*
X113135320Y-91678808D01*
X113135092Y-91679014D01*
X113134909Y-91679178D01*
X113062219Y-91744593D01*
X113062043Y-91744752D01*
X113061647Y-91745107D01*
X113061167Y-91745535D01*
X112987798Y-91810624D01*
X112987443Y-91810938D01*
X112987209Y-91811144D01*
X112986905Y-91811410D01*
X112913334Y-91875753D01*
X112912895Y-91876136D01*
X112912319Y-91876635D01*
X112912095Y-91876828D01*
X112838017Y-91940695D01*
X112837600Y-91941053D01*
X112837174Y-91941417D01*
X112836922Y-91941632D01*
X112803289Y-91970215D01*
X112762322Y-92005030D01*
X112762004Y-92005299D01*
X112761523Y-92005705D01*
X112761168Y-92006003D01*
X112686406Y-92068631D01*
X112686091Y-92068894D01*
X112685561Y-92069335D01*
X112685200Y-92069634D01*
X112609668Y-92132001D01*
X112609238Y-92132355D01*
X112608919Y-92132616D01*
X112608672Y-92132818D01*
X112561183Y-92171468D01*
X112532646Y-92194694D01*
X112532220Y-92195039D01*
X112531984Y-92195229D01*
X112531811Y-92195368D01*
X112455360Y-92256692D01*
X112455028Y-92256958D01*
X112454684Y-92257232D01*
X112454328Y-92257514D01*
X112377448Y-92318291D01*
X112377278Y-92318425D01*
X112376920Y-92318707D01*
X112376398Y-92319116D01*
X112299122Y-92379320D01*
X112298682Y-92379661D01*
X112298305Y-92379952D01*
X112298052Y-92380147D01*
X112260913Y-92408661D01*
X112220234Y-92439894D01*
X112220062Y-92440026D01*
X112219589Y-92440386D01*
X112219303Y-92440603D01*
X112141162Y-92499720D01*
X112140690Y-92500076D01*
X112140423Y-92500276D01*
X112140194Y-92500446D01*
X112061757Y-92558919D01*
X112061391Y-92559191D01*
X112060853Y-92559589D01*
X112060512Y-92559841D01*
X111981538Y-92617847D01*
X111981526Y-92617831D01*
X111980821Y-92618369D01*
X111908666Y-92670581D01*
X111908667Y-92670582D01*
X111904611Y-92673517D01*
X111901134Y-92676034D01*
X111900715Y-92676334D01*
X111900415Y-92676549D01*
X111820309Y-92733656D01*
X111819716Y-92734077D01*
X111819520Y-92734215D01*
X111819395Y-92734303D01*
X111752546Y-92781247D01*
X111752095Y-92781473D01*
X111751935Y-92781673D01*
X111720362Y-92797450D01*
X111690109Y-92807496D01*
X111651032Y-92813815D01*
X111176106Y-92813815D01*
X111176043Y-92813814D01*
X111174139Y-92813814D01*
X111166543Y-92813814D01*
X111008428Y-92813814D01*
X110868227Y-92851379D01*
X110868228Y-92851380D01*
X110855694Y-92854739D01*
X110718773Y-92933790D01*
X110718770Y-92933792D01*
X110718765Y-92933797D01*
X110718758Y-92933803D01*
X109689704Y-93962857D01*
X109679668Y-93971857D01*
X109671887Y-93978106D01*
X109670234Y-93978787D01*
X109667623Y-93980613D01*
X109667617Y-93980604D01*
X109661966Y-93985297D01*
X109653992Y-93990496D01*
X109638520Y-93999077D01*
X109588593Y-94022276D01*
X109588338Y-94022394D01*
X109587918Y-94022588D01*
X109587374Y-94022838D01*
X109498027Y-94063585D01*
X109497820Y-94063679D01*
X109497560Y-94063797D01*
X109496965Y-94064065D01*
X109407511Y-94104097D01*
X109406948Y-94104348D01*
X109406794Y-94104416D01*
X109406554Y-94104521D01*
X109316754Y-94143947D01*
X109316255Y-94144165D01*
X109315628Y-94144437D01*
X109315321Y-94144570D01*
X109225661Y-94183178D01*
X109225234Y-94183361D01*
X109224638Y-94183615D01*
X109224256Y-94183777D01*
X109134080Y-94221852D01*
X109133635Y-94222039D01*
X109133125Y-94222252D01*
X109132758Y-94222404D01*
X109042245Y-94259866D01*
X109042218Y-94259877D01*
X109042027Y-94259956D01*
X109041240Y-94260279D01*
X108950477Y-94297093D01*
X108950130Y-94297233D01*
X108949558Y-94297463D01*
X108949092Y-94297648D01*
X108858058Y-94333824D01*
X108857567Y-94334019D01*
X108857107Y-94334199D01*
X108856895Y-94334282D01*
X108765701Y-94369774D01*
X108765169Y-94369979D01*
X108764622Y-94370189D01*
X108764332Y-94370300D01*
X108672864Y-94405153D01*
X108672835Y-94405164D01*
X108672596Y-94405255D01*
X108671804Y-94405554D01*
X108579611Y-94439938D01*
X108578786Y-94440242D01*
X108578737Y-94440259D01*
X108578735Y-94440261D01*
X108578617Y-94440304D01*
X108486727Y-94473835D01*
X108486432Y-94473942D01*
X108485863Y-94474148D01*
X108485525Y-94474269D01*
X108392858Y-94507341D01*
X108392675Y-94507406D01*
X108392273Y-94507548D01*
X108391937Y-94507666D01*
X108299400Y-94539952D01*
X108299344Y-94539972D01*
X108299071Y-94540067D01*
X108298336Y-94540320D01*
X108205318Y-94572036D01*
X108205317Y-94572034D01*
X108204433Y-94572335D01*
X108111179Y-94603396D01*
X108110621Y-94603580D01*
X108110319Y-94603679D01*
X108110043Y-94603769D01*
X108016726Y-94634118D01*
X108016334Y-94634245D01*
X108016051Y-94634336D01*
X108015604Y-94634479D01*
X107963453Y-94651031D01*
X107928638Y-94656812D01*
X107913012Y-94657152D01*
X107845583Y-94638944D01*
X107844338Y-94638182D01*
X107801228Y-94593625D01*
X107797111Y-94586371D01*
X107786371Y-94561417D01*
X107771212Y-94511831D01*
X107767156Y-94493906D01*
X107764462Y-94475879D01*
X107763100Y-94457552D01*
X107763100Y-92293451D01*
X107763101Y-92293400D01*
X107763101Y-92122945D01*
X107763101Y-92122943D01*
X107722177Y-91970215D01*
X107722175Y-91970211D01*
X107689152Y-91913013D01*
X107644975Y-91836496D01*
X107644975Y-91836495D01*
X107643122Y-91833286D01*
X107525963Y-91716127D01*
X107525920Y-91716085D01*
X106923026Y-91113191D01*
X106923021Y-91113186D01*
X106901874Y-91084935D01*
X106889267Y-91061846D01*
X106874100Y-91002421D01*
X106874100Y-88991451D01*
X106874101Y-88991400D01*
X106874101Y-88820945D01*
X106874101Y-88820943D01*
X106833177Y-88668215D01*
X106790930Y-88595041D01*
X106790930Y-88595040D01*
X106755959Y-88534469D01*
X106754551Y-88531852D01*
X106754172Y-88531336D01*
X106643755Y-88420919D01*
X106643750Y-88420914D01*
X106622603Y-88392663D01*
X106615953Y-88380484D01*
X106601102Y-88312211D01*
X106625518Y-88246750D01*
X106628778Y-88242396D01*
X106679000Y-88202821D01*
X106724218Y-88183351D01*
X106772910Y-88161973D01*
X106780585Y-88158538D01*
X106821463Y-88140245D01*
X106869791Y-88118204D01*
X106869833Y-88118185D01*
X106918059Y-88095777D01*
X106935372Y-88087582D01*
X106965467Y-88073339D01*
X106965765Y-88073201D01*
X106966545Y-88072829D01*
X106967140Y-88072547D01*
X106967624Y-88072305D01*
X107014028Y-88049938D01*
X107061767Y-88026509D01*
X107109338Y-88002742D01*
X107156740Y-87978639D01*
X107203969Y-87954200D01*
X107251024Y-87929426D01*
X107297903Y-87904320D01*
X107344602Y-87878882D01*
X107391119Y-87853114D01*
X107437453Y-87827016D01*
X107483600Y-87800591D01*
X107529559Y-87773838D01*
X107575327Y-87746761D01*
X107620902Y-87719360D01*
X107666281Y-87691637D01*
X107711463Y-87663592D01*
X107756445Y-87635228D01*
X107801224Y-87606545D01*
X107845799Y-87577546D01*
X107890168Y-87548232D01*
X107934327Y-87518603D01*
X107943521Y-87512338D01*
X107978276Y-87488662D01*
X108021953Y-87458451D01*
X108022010Y-87458411D01*
X108065529Y-87427850D01*
X108108830Y-87396981D01*
X108151912Y-87365806D01*
X108194771Y-87334326D01*
X108237406Y-87302544D01*
X108279814Y-87270459D01*
X108321995Y-87238075D01*
X108363944Y-87205393D01*
X108405660Y-87172414D01*
X108447142Y-87139140D01*
X108488387Y-87105573D01*
X108529393Y-87071714D01*
X108529428Y-87071684D01*
X108529470Y-87071650D01*
X108529633Y-87071512D01*
X108529683Y-87071472D01*
X108529753Y-87071412D01*
X108542261Y-87060934D01*
X108570157Y-87037565D01*
X108610679Y-87003128D01*
X108650955Y-86968405D01*
X108690984Y-86933397D01*
X108730764Y-86898106D01*
X108745554Y-86884794D01*
X108774872Y-86865164D01*
X108788971Y-86858402D01*
X108805725Y-86855670D01*
X108815255Y-86850118D01*
X108834604Y-86850962D01*
X108857924Y-86847160D01*
X108860338Y-86847461D01*
G37*
%TD.AperFunction*%
%TD*%
%TA.AperFunction,Conductor*%
%TO.N,unconnected-(J1-Pin_4-Pad4)*%
G36*
X117286755Y-78186081D02*
G01*
X117303526Y-78192092D01*
X117321291Y-78193130D01*
X117352486Y-78209639D01*
X117353668Y-78210500D01*
X117393073Y-78258393D01*
X117395186Y-78262930D01*
X117396593Y-78265952D01*
X117405289Y-78291677D01*
X117417947Y-78349292D01*
X117418037Y-78349706D01*
X117418155Y-78350252D01*
X117418250Y-78350698D01*
X117438497Y-78446079D01*
X117438607Y-78446600D01*
X117438735Y-78447216D01*
X117438805Y-78447555D01*
X117458496Y-78543665D01*
X117458656Y-78544459D01*
X117458718Y-78544772D01*
X117458731Y-78544839D01*
X117477736Y-78641061D01*
X117477904Y-78641928D01*
X117496253Y-78738441D01*
X117496311Y-78738749D01*
X117496377Y-78739101D01*
X117496480Y-78739654D01*
X117514156Y-78836346D01*
X117514311Y-78837212D01*
X117531308Y-78934069D01*
X117531457Y-78934938D01*
X117547782Y-79032012D01*
X117547924Y-79032876D01*
X117563518Y-79129786D01*
X117563589Y-79130232D01*
X117563647Y-79130601D01*
X117563713Y-79131027D01*
X117578591Y-79227874D01*
X117578642Y-79228209D01*
X117578715Y-79228693D01*
X117578794Y-79229225D01*
X117592992Y-79326210D01*
X117593117Y-79327081D01*
X117606690Y-79424625D01*
X117606808Y-79425497D01*
X117619645Y-79522805D01*
X117619696Y-79523199D01*
X117619753Y-79523642D01*
X117619814Y-79524119D01*
X117631945Y-79621380D01*
X117631999Y-79621825D01*
X117632068Y-79622395D01*
X117632119Y-79622823D01*
X117641638Y-79703818D01*
X117643503Y-79719681D01*
X117643555Y-79720125D01*
X117643619Y-79720687D01*
X117643667Y-79721117D01*
X117654447Y-79818813D01*
X117654540Y-79819686D01*
X117660884Y-79881170D01*
X117659473Y-79916438D01*
X117655102Y-79940083D01*
X117650471Y-79950889D01*
X117650017Y-79959043D01*
X117633591Y-79990282D01*
X117632829Y-79991334D01*
X117620087Y-80006275D01*
X117542174Y-80084187D01*
X117542175Y-80084188D01*
X117461887Y-80164477D01*
X117461886Y-80164477D01*
X117350081Y-80276281D01*
X117350079Y-80276283D01*
X117304024Y-80356056D01*
X117304022Y-80356060D01*
X117279185Y-80399075D01*
X117277214Y-80401644D01*
X117270787Y-80413652D01*
X117269990Y-80417066D01*
X117230099Y-80565943D01*
X117230099Y-80736400D01*
X117230100Y-80736451D01*
X117230100Y-84247592D01*
X117230099Y-84247596D01*
X117230100Y-84247599D01*
X117225075Y-84282533D01*
X117221164Y-84295850D01*
X117183387Y-84354626D01*
X117119832Y-84383647D01*
X117119830Y-84383647D01*
X117119829Y-84383648D01*
X117119827Y-84383647D01*
X117110197Y-84385032D01*
X117064660Y-84383116D01*
X111178547Y-83024201D01*
X111145636Y-83011447D01*
X111132013Y-83003782D01*
X111119554Y-82991002D01*
X111104004Y-82982247D01*
X111083263Y-82953777D01*
X111083240Y-82953753D01*
X111083222Y-82953720D01*
X111082101Y-82951602D01*
X111067698Y-82893135D01*
X111067723Y-82886402D01*
X111070425Y-82861126D01*
X111075607Y-82836718D01*
X111086280Y-82784622D01*
X111096583Y-82732452D01*
X111106517Y-82680210D01*
X111116079Y-82627899D01*
X111125270Y-82575521D01*
X111134090Y-82523080D01*
X111142538Y-82470577D01*
X111150613Y-82418016D01*
X111150624Y-82417945D01*
X111154050Y-82394535D01*
X111158316Y-82365399D01*
X111165645Y-82312729D01*
X111172600Y-82260008D01*
X111179182Y-82207238D01*
X111185389Y-82154424D01*
X111191221Y-82101567D01*
X111196679Y-82048670D01*
X111201762Y-81995735D01*
X111206469Y-81942766D01*
X111210800Y-81889765D01*
X111214755Y-81836735D01*
X111218335Y-81783677D01*
X111221538Y-81730596D01*
X111224364Y-81677493D01*
X111226814Y-81624372D01*
X111228887Y-81571234D01*
X111230584Y-81518083D01*
X111231903Y-81464922D01*
X111232846Y-81411752D01*
X111233411Y-81358578D01*
X111233600Y-81305400D01*
X111233411Y-81252222D01*
X111232846Y-81199048D01*
X111231903Y-81145878D01*
X111230584Y-81092717D01*
X111228887Y-81039566D01*
X111226814Y-80986428D01*
X111224364Y-80933307D01*
X111221538Y-80880204D01*
X111218335Y-80827123D01*
X111214755Y-80774065D01*
X111210800Y-80721035D01*
X111206469Y-80668034D01*
X111201762Y-80615065D01*
X111196679Y-80562130D01*
X111191221Y-80509233D01*
X111185389Y-80456376D01*
X111180316Y-80413215D01*
X111179180Y-80403543D01*
X111172611Y-80350881D01*
X111172600Y-80350792D01*
X111165645Y-80298071D01*
X111158316Y-80245401D01*
X111153805Y-80214585D01*
X111150624Y-80192854D01*
X111146264Y-80164478D01*
X111142538Y-80140223D01*
X111134090Y-80087720D01*
X111125270Y-80035279D01*
X111116079Y-79982901D01*
X111111718Y-79959043D01*
X111106523Y-79930621D01*
X111103826Y-79916438D01*
X111096583Y-79878348D01*
X111086280Y-79826178D01*
X111075607Y-79774082D01*
X111071474Y-79754616D01*
X111069134Y-79719402D01*
X111070327Y-79703818D01*
X111095070Y-79638479D01*
X111096523Y-79636557D01*
X111143454Y-79598783D01*
X111149572Y-79595960D01*
X111173612Y-79587736D01*
X117235986Y-78188127D01*
X117271152Y-78185164D01*
X117286755Y-78186081D01*
G37*
%TD.AperFunction*%
%TD*%
%TA.AperFunction,Conductor*%
%TO.N,unconnected-(J1-Pin_8-Pad8)*%
G36*
X98931551Y-87075393D02*
G01*
X98967171Y-87095960D01*
X98978805Y-87105567D01*
X99020112Y-87139184D01*
X99061477Y-87172364D01*
X99061523Y-87172400D01*
X99061540Y-87172414D01*
X99103256Y-87205393D01*
X99145205Y-87238075D01*
X99187386Y-87270459D01*
X99187457Y-87270512D01*
X99187473Y-87270525D01*
X99229810Y-87302557D01*
X99272330Y-87334253D01*
X99272402Y-87334306D01*
X99272429Y-87334326D01*
X99315288Y-87365806D01*
X99358370Y-87396981D01*
X99401671Y-87427850D01*
X99401701Y-87427871D01*
X99445246Y-87458451D01*
X99488923Y-87488662D01*
X99532793Y-87518549D01*
X99577036Y-87548235D01*
X99621387Y-87577537D01*
X99621401Y-87577546D01*
X99665976Y-87606545D01*
X99710755Y-87635228D01*
X99710768Y-87635236D01*
X99755744Y-87663597D01*
X99791512Y-87685798D01*
X99800919Y-87691637D01*
X99846298Y-87719360D01*
X99891873Y-87746761D01*
X99937641Y-87773838D01*
X99958471Y-87785963D01*
X99983566Y-87800572D01*
X100019811Y-87821326D01*
X100029747Y-87827016D01*
X100076081Y-87853114D01*
X100076156Y-87853155D01*
X100076187Y-87853173D01*
X100102778Y-87867903D01*
X100122598Y-87878882D01*
X100169297Y-87904320D01*
X100169312Y-87904328D01*
X100216175Y-87929426D01*
X100244067Y-87944110D01*
X100263231Y-87954200D01*
X100310460Y-87978639D01*
X100357862Y-88002742D01*
X100405433Y-88026509D01*
X100453172Y-88049938D01*
X100501075Y-88073028D01*
X100501158Y-88073068D01*
X100549060Y-88095739D01*
X100549098Y-88095757D01*
X100549141Y-88095777D01*
X100597367Y-88118185D01*
X100597408Y-88118204D01*
X100645736Y-88140245D01*
X100694268Y-88161964D01*
X100717169Y-88172018D01*
X100725794Y-88175804D01*
X100731424Y-88179653D01*
X100735373Y-88180512D01*
X100763627Y-88201663D01*
X100784938Y-88222974D01*
X100784948Y-88222985D01*
X100789278Y-88227315D01*
X100789279Y-88227316D01*
X100901083Y-88339120D01*
X100901085Y-88339121D01*
X100901089Y-88339124D01*
X100978501Y-88383817D01*
X101038015Y-88418177D01*
X101149818Y-88448134D01*
X101190741Y-88459100D01*
X101190742Y-88459100D01*
X101190743Y-88459100D01*
X101378918Y-88459100D01*
X101445957Y-88478785D01*
X101491712Y-88531589D01*
X101501656Y-88600747D01*
X101497500Y-88619354D01*
X99676832Y-94574489D01*
X99671489Y-94582602D01*
X99669898Y-94592186D01*
X99652590Y-94611303D01*
X99638407Y-94632844D01*
X99629525Y-94636781D01*
X99623006Y-94643983D01*
X99598108Y-94650709D01*
X99574533Y-94661161D01*
X99563135Y-94660157D01*
X99555554Y-94662206D01*
X99520737Y-94656425D01*
X99481537Y-94643983D01*
X99451392Y-94634414D01*
X99450618Y-94634166D01*
X99356998Y-94603719D01*
X99356162Y-94603444D01*
X99262765Y-94572335D01*
X99261933Y-94572054D01*
X99168754Y-94540283D01*
X99168101Y-94540058D01*
X99075016Y-94507580D01*
X99074399Y-94507362D01*
X98981557Y-94474228D01*
X98980778Y-94473947D01*
X98952031Y-94463458D01*
X98888464Y-94440262D01*
X98887639Y-94439958D01*
X98795305Y-94405521D01*
X98794485Y-94405211D01*
X98702579Y-94370191D01*
X98701758Y-94369875D01*
X98610109Y-94334207D01*
X98609289Y-94333884D01*
X98517800Y-94297527D01*
X98516986Y-94297201D01*
X98482712Y-94283299D01*
X98425785Y-94260208D01*
X98425062Y-94259912D01*
X98334194Y-94222303D01*
X98333381Y-94221963D01*
X98242633Y-94183646D01*
X98241826Y-94183302D01*
X98151570Y-94144438D01*
X98150887Y-94144141D01*
X98060439Y-94104432D01*
X98059910Y-94104197D01*
X97970107Y-94064009D01*
X97969305Y-94063647D01*
X97879686Y-94022775D01*
X97878889Y-94022408D01*
X97789648Y-93980943D01*
X97788851Y-93980569D01*
X97699925Y-93938480D01*
X97699133Y-93938102D01*
X97689768Y-93933588D01*
X97610458Y-93895360D01*
X97609822Y-93895051D01*
X97521326Y-93851619D01*
X97520538Y-93851228D01*
X97432633Y-93807310D01*
X97431849Y-93806915D01*
X97344145Y-93762318D01*
X97343363Y-93761917D01*
X97255929Y-93716675D01*
X97255148Y-93716267D01*
X97168137Y-93670457D01*
X97167362Y-93670046D01*
X97164681Y-93668610D01*
X97080547Y-93623551D01*
X97079905Y-93623204D01*
X96993338Y-93576048D01*
X96992569Y-93575626D01*
X96906593Y-93527999D01*
X96905908Y-93527616D01*
X96820160Y-93479318D01*
X96819395Y-93478884D01*
X96733974Y-93429969D01*
X96733213Y-93429530D01*
X96648191Y-93380040D01*
X96647432Y-93379594D01*
X96562765Y-93329503D01*
X96562011Y-93329054D01*
X96477615Y-93278313D01*
X96476862Y-93277856D01*
X96392931Y-93226580D01*
X96392249Y-93226160D01*
X96308692Y-93174296D01*
X96307995Y-93173860D01*
X96224682Y-93121326D01*
X96223939Y-93120854D01*
X96141076Y-93067778D01*
X96140337Y-93067300D01*
X96057786Y-93013594D01*
X96057052Y-93013113D01*
X95975045Y-92958931D01*
X95974312Y-92958443D01*
X95892627Y-92903636D01*
X95891899Y-92903144D01*
X95810541Y-92847717D01*
X95809817Y-92847220D01*
X95780028Y-92826615D01*
X95728911Y-92791257D01*
X95728258Y-92790801D01*
X95647695Y-92734227D01*
X95646975Y-92733718D01*
X95566777Y-92676545D01*
X95566178Y-92676115D01*
X95486240Y-92618270D01*
X95485936Y-92618048D01*
X95406377Y-92559613D01*
X95405742Y-92559143D01*
X95326865Y-92500343D01*
X95326163Y-92499816D01*
X95247707Y-92440461D01*
X95247006Y-92439926D01*
X95168922Y-92379975D01*
X95168228Y-92379439D01*
X95090627Y-92318981D01*
X95089934Y-92318437D01*
X95012702Y-92257381D01*
X95012154Y-92256945D01*
X94935140Y-92195170D01*
X94934769Y-92194870D01*
X94909218Y-92174075D01*
X94858375Y-92132695D01*
X94857697Y-92132139D01*
X94781729Y-92069412D01*
X94781052Y-92068849D01*
X94705779Y-92005792D01*
X94705108Y-92005226D01*
X94630038Y-91941429D01*
X94629369Y-91940856D01*
X94554836Y-91876598D01*
X94554171Y-91876021D01*
X94546667Y-91869458D01*
X94509163Y-91810507D01*
X94504300Y-91776120D01*
X94504300Y-91451494D01*
X94523985Y-91384455D01*
X94540614Y-91363818D01*
X98800540Y-87103891D01*
X98861859Y-87070409D01*
X98931551Y-87075393D01*
G37*
%TD.AperFunction*%
%TD*%
%TA.AperFunction,Conductor*%
%TO.N,unconnected-(J1-Pin_2-Pad2)*%
G36*
X107932855Y-67953175D02*
G01*
X107959483Y-67958506D01*
X108015978Y-67976439D01*
X108016516Y-67976612D01*
X108084322Y-67998663D01*
X108110201Y-68007080D01*
X108110958Y-68007329D01*
X108111181Y-68007403D01*
X108204435Y-68038465D01*
X108205266Y-68038745D01*
X108298243Y-68070447D01*
X108299074Y-68070734D01*
X108392086Y-68103186D01*
X108392058Y-68103265D01*
X108392634Y-68103378D01*
X108392730Y-68103412D01*
X108392720Y-68103439D01*
X108393005Y-68103510D01*
X108485378Y-68136476D01*
X108485575Y-68136620D01*
X108485599Y-68136556D01*
X108486053Y-68136719D01*
X108486593Y-68136914D01*
X108578735Y-68170537D01*
X108579560Y-68170841D01*
X108671894Y-68205278D01*
X108672714Y-68205588D01*
X108764463Y-68240548D01*
X108764712Y-68240644D01*
X108765162Y-68240817D01*
X108765638Y-68241001D01*
X108830401Y-68266205D01*
X108857058Y-68276580D01*
X108857397Y-68276712D01*
X108857910Y-68276915D01*
X108949399Y-68313272D01*
X108950066Y-68313539D01*
X108950245Y-68313611D01*
X109041319Y-68350551D01*
X109041827Y-68350759D01*
X109042020Y-68350839D01*
X109042201Y-68350914D01*
X109042200Y-68350918D01*
X109042232Y-68350926D01*
X109133186Y-68388571D01*
X109133818Y-68388836D01*
X109224373Y-68427071D01*
X109224414Y-68427089D01*
X109224833Y-68427266D01*
X109225323Y-68427475D01*
X109315728Y-68466404D01*
X109315728Y-68466405D01*
X109316509Y-68466744D01*
X109406438Y-68506226D01*
X109407267Y-68506592D01*
X109497091Y-68546789D01*
X109497787Y-68547383D01*
X109497893Y-68547152D01*
X109587453Y-68587997D01*
X109587665Y-68588094D01*
X109588020Y-68588257D01*
X109588370Y-68588419D01*
X109677551Y-68629856D01*
X109678348Y-68630230D01*
X109767274Y-68672319D01*
X109767798Y-68672569D01*
X109767954Y-68672644D01*
X109768065Y-68672697D01*
X109856699Y-68715418D01*
X109857489Y-68715804D01*
X109857490Y-68715804D01*
X109945930Y-68759208D01*
X109946570Y-68759525D01*
X110034346Y-68803379D01*
X110034696Y-68803555D01*
X110035115Y-68803766D01*
X110035548Y-68803985D01*
X110073144Y-68823102D01*
X110123054Y-68848481D01*
X110123826Y-68848877D01*
X110211135Y-68894054D01*
X110211467Y-68894227D01*
X110211985Y-68894498D01*
X110212271Y-68894648D01*
X110295795Y-68938622D01*
X110299062Y-68940342D01*
X110299752Y-68940708D01*
X110386743Y-68987297D01*
X110387294Y-68987595D01*
X110473861Y-69034751D01*
X110474504Y-69035104D01*
X110560680Y-69082841D01*
X110561291Y-69083183D01*
X110647039Y-69131481D01*
X110647804Y-69131915D01*
X110733225Y-69180830D01*
X110733953Y-69181250D01*
X110734153Y-69181366D01*
X110818803Y-69230640D01*
X110819176Y-69230857D01*
X110819767Y-69231205D01*
X110904195Y-69281155D01*
X110904341Y-69281310D01*
X110904371Y-69281259D01*
X110904434Y-69281296D01*
X110904922Y-69281586D01*
X110905405Y-69281876D01*
X110965138Y-69317789D01*
X110965143Y-69317791D01*
X110965146Y-69317793D01*
X110989295Y-69332312D01*
X110989717Y-69332567D01*
X110990337Y-69332943D01*
X111073946Y-69384022D01*
X111074253Y-69384360D01*
X111074320Y-69384252D01*
X111074851Y-69384579D01*
X111075225Y-69384810D01*
X111158431Y-69436457D01*
X111158639Y-69436586D01*
X111158801Y-69436687D01*
X111159336Y-69437023D01*
X111242385Y-69489390D01*
X111242617Y-69489536D01*
X111243260Y-69489945D01*
X111326013Y-69542951D01*
X111326463Y-69543241D01*
X111326917Y-69543535D01*
X111409413Y-69597205D01*
X111410147Y-69597686D01*
X111492154Y-69651868D01*
X111492887Y-69652356D01*
X111574334Y-69707003D01*
X111574553Y-69707151D01*
X111575004Y-69707455D01*
X111575407Y-69707728D01*
X111615579Y-69735096D01*
X111656377Y-69762891D01*
X111656716Y-69763123D01*
X111657315Y-69763534D01*
X111657701Y-69763800D01*
X111737995Y-69819340D01*
X111738410Y-69819628D01*
X111738946Y-69820002D01*
X111739250Y-69820215D01*
X111819504Y-69876572D01*
X111819674Y-69876692D01*
X111820132Y-69877017D01*
X111820351Y-69877173D01*
X111868498Y-69911496D01*
X111868499Y-69911496D01*
X111900422Y-69934254D01*
X111900974Y-69934650D01*
X111901386Y-69934948D01*
X111980698Y-69992340D01*
X111981409Y-69992858D01*
X112060661Y-70051068D01*
X112061018Y-70051331D01*
X112061218Y-70051479D01*
X112061568Y-70051739D01*
X112140334Y-70110456D01*
X112141036Y-70110983D01*
X112141162Y-70111078D01*
X112219303Y-70170195D01*
X112219721Y-70170513D01*
X112220193Y-70170873D01*
X112298218Y-70230779D01*
X112298327Y-70230863D01*
X112298759Y-70231197D01*
X112299122Y-70231478D01*
X112376496Y-70291759D01*
X112376920Y-70292091D01*
X112377278Y-70292373D01*
X112377448Y-70292507D01*
X112454497Y-70353418D01*
X112455012Y-70353828D01*
X112532087Y-70415652D01*
X112532390Y-70415897D01*
X112532696Y-70416146D01*
X112569453Y-70446061D01*
X112569454Y-70446062D01*
X112608824Y-70478104D01*
X112609135Y-70478359D01*
X112609301Y-70478495D01*
X112609668Y-70478797D01*
X112685135Y-70541110D01*
X112685488Y-70541402D01*
X112686083Y-70541897D01*
X112686406Y-70542167D01*
X112761420Y-70605007D01*
X112762091Y-70605573D01*
X112836857Y-70669112D01*
X112837115Y-70669504D01*
X112837201Y-70669405D01*
X112837639Y-70669780D01*
X112837961Y-70670057D01*
X112877422Y-70704077D01*
X112877426Y-70704080D01*
X112912095Y-70733970D01*
X112912412Y-70734244D01*
X112912988Y-70734744D01*
X112913333Y-70735045D01*
X112986931Y-70799411D01*
X112987045Y-70799511D01*
X112987264Y-70799703D01*
X112987758Y-70800138D01*
X113061460Y-70865524D01*
X113061813Y-70865839D01*
X113135067Y-70931761D01*
X113135197Y-70931879D01*
X113135409Y-70932071D01*
X113135769Y-70932399D01*
X113176324Y-70969419D01*
X113176327Y-70969421D01*
X113198740Y-70996680D01*
X113206850Y-71010047D01*
X113224795Y-71077571D01*
X113224794Y-71077590D01*
X113224756Y-71079051D01*
X113207725Y-71138618D01*
X113203504Y-71145806D01*
X113187265Y-71167583D01*
X108944598Y-75717286D01*
X108917103Y-75739407D01*
X108903654Y-75747373D01*
X108835944Y-75764601D01*
X108835423Y-75764582D01*
X108833510Y-75764512D01*
X108775657Y-75747744D01*
X108769844Y-75744358D01*
X108749310Y-75729383D01*
X108730755Y-75712685D01*
X108691016Y-75677431D01*
X108651002Y-75642436D01*
X108650963Y-75642402D01*
X108650554Y-75642044D01*
X108650534Y-75642026D01*
X108650239Y-75641777D01*
X108610755Y-75607737D01*
X108610679Y-75607672D01*
X108593634Y-75593187D01*
X108570151Y-75573229D01*
X108568453Y-75571807D01*
X108567604Y-75571095D01*
X108529507Y-75539180D01*
X108529470Y-75539149D01*
X108488365Y-75505209D01*
X108447087Y-75471615D01*
X108405722Y-75438435D01*
X108405670Y-75438394D01*
X108405629Y-75438361D01*
X108365316Y-75406491D01*
X108365260Y-75406448D01*
X108363955Y-75405416D01*
X108363944Y-75405407D01*
X108321995Y-75372725D01*
X108279814Y-75340341D01*
X108279763Y-75340302D01*
X108279726Y-75340274D01*
X108237389Y-75308242D01*
X108194869Y-75276546D01*
X108194771Y-75276474D01*
X108151912Y-75244994D01*
X108129903Y-75229068D01*
X108108846Y-75213830D01*
X108065498Y-75182928D01*
X108065428Y-75182878D01*
X108022028Y-75152400D01*
X107978305Y-75122157D01*
X107934388Y-75092238D01*
X107890125Y-75062538D01*
X107845834Y-75033276D01*
X107840681Y-75029924D01*
X107826365Y-75020611D01*
X107801224Y-75004255D01*
X107756445Y-74975572D01*
X107756431Y-74975563D01*
X107711455Y-74947202D01*
X107666417Y-74919246D01*
X107666275Y-74919159D01*
X107620863Y-74891416D01*
X107614540Y-74887614D01*
X107614540Y-74887615D01*
X107575338Y-74864045D01*
X107547403Y-74847519D01*
X107529559Y-74836962D01*
X107521974Y-74832547D01*
X107521650Y-74832358D01*
X107521595Y-74832326D01*
X107483634Y-74810227D01*
X107437443Y-74783778D01*
X107391010Y-74757624D01*
X107345693Y-74732521D01*
X107345424Y-74732373D01*
X107344662Y-74731951D01*
X107344636Y-74731936D01*
X107344602Y-74731918D01*
X107343980Y-74731579D01*
X107343856Y-74731511D01*
X107328764Y-74723290D01*
X107320021Y-74718528D01*
X107297929Y-74706493D01*
X107251017Y-74681369D01*
X107204860Y-74657069D01*
X107204011Y-74656622D01*
X107203998Y-74656615D01*
X107203969Y-74656600D01*
X107157084Y-74632339D01*
X107157083Y-74632338D01*
X107156742Y-74632160D01*
X107109516Y-74608148D01*
X107109351Y-74608064D01*
X107085414Y-74596105D01*
X107085414Y-74596104D01*
X107061835Y-74584324D01*
X107061782Y-74584298D01*
X107061744Y-74584279D01*
X107014055Y-74560875D01*
X106966041Y-74537731D01*
X106942924Y-74526790D01*
X106918159Y-74515069D01*
X106898401Y-74505888D01*
X106869791Y-74492595D01*
X106821463Y-74470554D01*
X106821423Y-74470536D01*
X106773001Y-74448866D01*
X106765809Y-74445708D01*
X106747360Y-74437609D01*
X106747359Y-74437608D01*
X106724198Y-74427440D01*
X106708655Y-74420747D01*
X106708655Y-74420746D01*
X106675398Y-74406426D01*
X106626435Y-74385752D01*
X106626378Y-74385728D01*
X106626351Y-74385717D01*
X106610216Y-74379039D01*
X106577661Y-74365565D01*
X106577576Y-74365530D01*
X106577382Y-74365450D01*
X106577305Y-74365418D01*
X106577250Y-74365396D01*
X106576814Y-74365219D01*
X106576652Y-74365153D01*
X106528091Y-74345456D01*
X106527917Y-74345385D01*
X106504725Y-74336169D01*
X106504723Y-74336169D01*
X106478613Y-74325794D01*
X106478553Y-74325770D01*
X106428996Y-74306483D01*
X106389877Y-74291577D01*
X106389875Y-74291576D01*
X106379203Y-74287509D01*
X106329589Y-74269005D01*
X106279652Y-74250783D01*
X106279469Y-74250716D01*
X106229532Y-74232894D01*
X106190886Y-74219411D01*
X106179229Y-74215344D01*
X106179152Y-74215317D01*
X106128926Y-74198191D01*
X106078461Y-74181382D01*
X106059024Y-74175061D01*
X106058455Y-74174870D01*
X106057617Y-74174286D01*
X106027850Y-74159640D01*
X106014949Y-74150813D01*
X106002996Y-74136187D01*
X106001148Y-74134898D01*
X106000341Y-74132938D01*
X105970739Y-74096716D01*
X105969790Y-74094469D01*
X105960555Y-74034959D01*
X105961168Y-74028265D01*
X105966069Y-74003319D01*
X106836096Y-71157591D01*
X107785155Y-68053355D01*
X107800173Y-68021417D01*
X107808768Y-68008364D01*
X107810348Y-68007025D01*
X107862055Y-67963208D01*
X107863397Y-67962613D01*
X107924542Y-67952443D01*
X107932855Y-67953175D01*
G37*
%TD.AperFunction*%
%TD*%
%TA.AperFunction,Conductor*%
%TO.N,unconnected-(J1-Pin_12-Pad12)*%
G36*
X99569942Y-67957901D02*
G01*
X99582485Y-67956796D01*
X99600134Y-67966058D01*
X99621639Y-67971869D01*
X99622885Y-67972632D01*
X99633430Y-67983532D01*
X99644352Y-67989265D01*
X99665966Y-68017167D01*
X99670082Y-68024418D01*
X99680826Y-68049376D01*
X100613024Y-71098458D01*
X101499652Y-73998486D01*
X101505062Y-74033367D01*
X101505235Y-74048995D01*
X101486310Y-74116223D01*
X101485037Y-74118254D01*
X101441560Y-74160021D01*
X101435721Y-74163362D01*
X101412489Y-74173657D01*
X101388762Y-74181373D01*
X101338325Y-74198173D01*
X101287914Y-74215362D01*
X101237905Y-74232810D01*
X101199372Y-74246562D01*
X101187655Y-74250744D01*
X101187615Y-74250758D01*
X101187541Y-74250785D01*
X101137700Y-74268971D01*
X101088007Y-74287505D01*
X101059875Y-74298225D01*
X101059874Y-74298224D01*
X101038296Y-74306447D01*
X101038204Y-74306483D01*
X101017555Y-74314519D01*
X101011937Y-74316705D01*
X100988785Y-74325715D01*
X100939161Y-74345433D01*
X100889826Y-74365446D01*
X100840863Y-74385710D01*
X100791868Y-74406398D01*
X100743092Y-74427400D01*
X100742874Y-74427496D01*
X100734216Y-74431296D01*
X100734213Y-74431298D01*
X100714553Y-74439929D01*
X100694249Y-74448843D01*
X100645775Y-74470536D01*
X100597395Y-74492601D01*
X100549039Y-74515069D01*
X100501122Y-74537748D01*
X100453177Y-74560858D01*
X100405418Y-74584296D01*
X100357839Y-74608069D01*
X100310558Y-74632109D01*
X100263139Y-74656647D01*
X100216121Y-74681401D01*
X100169336Y-74706456D01*
X100122514Y-74731963D01*
X100076199Y-74757618D01*
X100029755Y-74783778D01*
X99983564Y-74810227D01*
X99937620Y-74836973D01*
X99891826Y-74864064D01*
X99846435Y-74891356D01*
X99800878Y-74919187D01*
X99755802Y-74947165D01*
X99710655Y-74975634D01*
X99665977Y-75004253D01*
X99621372Y-75033271D01*
X99577104Y-75062518D01*
X99532810Y-75092238D01*
X99488893Y-75122157D01*
X99445170Y-75152400D01*
X99401770Y-75182878D01*
X99358338Y-75213840D01*
X99315335Y-75244959D01*
X99272275Y-75276586D01*
X99229852Y-75308210D01*
X99187468Y-75340277D01*
X99145186Y-75372739D01*
X99103232Y-75405425D01*
X99061501Y-75438416D01*
X99020135Y-75471596D01*
X98978747Y-75505280D01*
X98937773Y-75539111D01*
X98897130Y-75573160D01*
X98897078Y-75573205D01*
X98897043Y-75573235D01*
X98876869Y-75590379D01*
X98856444Y-75607737D01*
X98816338Y-75642313D01*
X98798002Y-75658349D01*
X98776216Y-75677403D01*
X98776153Y-75677458D01*
X98776114Y-75677493D01*
X98776017Y-75677577D01*
X98775787Y-75677783D01*
X98736429Y-75712697D01*
X98721649Y-75725998D01*
X98721649Y-75726000D01*
X98721645Y-75726002D01*
X98721646Y-75726002D01*
X98692322Y-75745636D01*
X98678227Y-75752396D01*
X98609267Y-75763638D01*
X98609230Y-75763633D01*
X98606853Y-75763336D01*
X98550699Y-75741583D01*
X98545206Y-75737704D01*
X98526048Y-75720984D01*
X94282769Y-71170625D01*
X94269171Y-71153141D01*
X94263798Y-71144788D01*
X94263030Y-71142177D01*
X94262616Y-71141645D01*
X94260426Y-71137278D01*
X94261377Y-71136800D01*
X94253556Y-71122228D01*
X94252655Y-71122597D01*
X94251374Y-71119465D01*
X94251207Y-71117853D01*
X94250047Y-71115690D01*
X94249387Y-71113639D01*
X94250729Y-71113207D01*
X94249210Y-71098458D01*
X94244624Y-71089068D01*
X94245419Y-71082292D01*
X94244086Y-71077757D01*
X94246300Y-71070205D01*
X94244859Y-71056221D01*
X94243458Y-71056072D01*
X94243559Y-71055123D01*
X94244509Y-71052821D01*
X94244215Y-71049963D01*
X94244223Y-71049919D01*
X94244840Y-71046591D01*
X94246922Y-71046977D01*
X94250616Y-71038033D01*
X94252772Y-71019675D01*
X94269768Y-70991656D01*
X94270228Y-70990543D01*
X94270979Y-70989619D01*
X94272074Y-70988287D01*
X94284245Y-70975468D01*
X94331448Y-70932381D01*
X94332099Y-70931791D01*
X94405441Y-70865790D01*
X94405696Y-70865562D01*
X94479655Y-70799949D01*
X94480009Y-70799637D01*
X94554261Y-70734699D01*
X94554845Y-70734193D01*
X94629368Y-70669941D01*
X94629898Y-70669489D01*
X94705002Y-70605662D01*
X94705607Y-70605152D01*
X94780968Y-70542020D01*
X94781443Y-70541624D01*
X94781709Y-70541404D01*
X94781729Y-70541387D01*
X94781771Y-70541352D01*
X94781814Y-70541404D01*
X94781968Y-70541189D01*
X94857697Y-70478660D01*
X94858375Y-70478104D01*
X94934791Y-70415911D01*
X94935154Y-70415618D01*
X95012085Y-70353909D01*
X95012632Y-70353472D01*
X95089975Y-70292329D01*
X95090270Y-70292097D01*
X95090712Y-70291752D01*
X95090909Y-70291598D01*
X95168194Y-70231385D01*
X95168459Y-70231180D01*
X95168922Y-70230824D01*
X95169074Y-70230707D01*
X95169076Y-70230710D01*
X95169084Y-70230699D01*
X95247006Y-70170873D01*
X95247548Y-70170458D01*
X95326259Y-70110910D01*
X95326922Y-70110414D01*
X95405647Y-70051725D01*
X95406266Y-70051268D01*
X95485788Y-69992860D01*
X95486306Y-69992481D01*
X95566346Y-69934562D01*
X95566697Y-69934310D01*
X95647179Y-69876936D01*
X95647527Y-69876690D01*
X95728213Y-69820029D01*
X95728493Y-69819832D01*
X95728743Y-69819659D01*
X95809963Y-69763478D01*
X95810453Y-69763142D01*
X95891964Y-69707610D01*
X95892554Y-69707212D01*
X95974482Y-69652242D01*
X95974871Y-69651983D01*
X96057116Y-69597642D01*
X96057858Y-69597158D01*
X96057949Y-69597099D01*
X96140157Y-69543616D01*
X96140183Y-69543599D01*
X96140406Y-69543454D01*
X96141041Y-69543043D01*
X96224095Y-69489845D01*
X96224575Y-69489539D01*
X96308098Y-69436874D01*
X96308459Y-69436648D01*
X96392343Y-69384580D01*
X96392959Y-69384202D01*
X96476967Y-69332879D01*
X96476968Y-69332882D01*
X96477649Y-69332464D01*
X96562193Y-69281636D01*
X96562649Y-69281364D01*
X96562660Y-69281383D01*
X96562999Y-69281156D01*
X96609476Y-69253660D01*
X96647432Y-69231205D01*
X96648056Y-69230837D01*
X96648395Y-69230640D01*
X96733213Y-69181269D01*
X96733974Y-69180830D01*
X96749968Y-69171669D01*
X96749973Y-69171668D01*
X96749973Y-69171667D01*
X96819527Y-69131840D01*
X96820290Y-69131407D01*
X96905807Y-69083240D01*
X96906634Y-69082776D01*
X96992801Y-69035045D01*
X96993338Y-69034751D01*
X97015053Y-69022921D01*
X97079904Y-68987595D01*
X97080556Y-68987244D01*
X97108696Y-68972172D01*
X97167548Y-68940653D01*
X97168003Y-68940412D01*
X97255359Y-68894421D01*
X97255929Y-68894123D01*
X97343483Y-68848820D01*
X97344016Y-68848546D01*
X97431877Y-68803869D01*
X97432509Y-68803551D01*
X97520775Y-68759453D01*
X97521177Y-68759253D01*
X97610062Y-68715631D01*
X97610069Y-68715627D01*
X97610321Y-68715504D01*
X97699328Y-68672603D01*
X97699822Y-68672367D01*
X97789005Y-68630157D01*
X97789514Y-68629918D01*
X97879009Y-68588335D01*
X97879572Y-68588076D01*
X97969386Y-68547115D01*
X97969893Y-68546886D01*
X98059941Y-68506588D01*
X98060494Y-68506343D01*
X98150754Y-68466716D01*
X98151519Y-68466384D01*
X98241824Y-68427498D01*
X98242632Y-68427154D01*
X98300055Y-68402907D01*
X98333436Y-68388813D01*
X98333965Y-68388591D01*
X98425243Y-68350811D01*
X98425573Y-68350677D01*
X98516992Y-68313595D01*
X98517439Y-68313415D01*
X98517800Y-68313272D01*
X98550910Y-68300113D01*
X98558989Y-68296903D01*
X98558989Y-68296902D01*
X98558991Y-68296902D01*
X98609285Y-68276916D01*
X98610092Y-68276641D01*
X98610078Y-68276604D01*
X98701917Y-68240862D01*
X98702501Y-68240637D01*
X98749161Y-68222857D01*
X98794485Y-68205588D01*
X98795305Y-68205278D01*
X98829299Y-68192599D01*
X98887641Y-68170841D01*
X98887664Y-68170904D01*
X98888095Y-68170672D01*
X98888336Y-68170583D01*
X98980978Y-68136779D01*
X98981557Y-68136571D01*
X98981687Y-68136524D01*
X98981692Y-68136540D01*
X98981790Y-68136487D01*
X99074375Y-68103445D01*
X99074377Y-68103451D01*
X99075191Y-68103157D01*
X99168037Y-68070762D01*
X99168514Y-68070597D01*
X99168596Y-68070570D01*
X99231498Y-68049122D01*
X99261933Y-68038745D01*
X99261971Y-68038856D01*
X99262734Y-68038474D01*
X99262765Y-68038464D01*
X99266220Y-68037313D01*
X99269245Y-68036306D01*
X99287551Y-68030208D01*
X99356218Y-68007336D01*
X99356358Y-68007290D01*
X99357026Y-68007071D01*
X99357040Y-68007115D01*
X99357294Y-68006983D01*
X99450767Y-67976584D01*
X99451141Y-67976464D01*
X99503748Y-67959765D01*
X99538564Y-67953985D01*
X99553039Y-67953671D01*
X99554194Y-67953646D01*
X99569942Y-67957901D01*
G37*
%TD.AperFunction*%
%TD*%
%TA.AperFunction,Conductor*%
%TO.N,GND*%
G36*
X104315627Y-75333993D02*
G01*
X104327727Y-75335185D01*
X104898126Y-75419795D01*
X104910036Y-75422164D01*
X105469417Y-75562282D01*
X105481040Y-75565809D01*
X106023963Y-75760069D01*
X106035192Y-75764720D01*
X106556490Y-76011275D01*
X106567198Y-76016999D01*
X107061791Y-76313447D01*
X107071909Y-76320207D01*
X107535071Y-76663711D01*
X107544477Y-76671431D01*
X107971735Y-77058675D01*
X107980324Y-77067264D01*
X108305986Y-77426577D01*
X108367568Y-77494522D01*
X108375288Y-77503928D01*
X108718792Y-77967090D01*
X108725552Y-77977208D01*
X109021993Y-78471789D01*
X109027730Y-78482521D01*
X109274276Y-79003800D01*
X109278932Y-79015043D01*
X109473187Y-79557949D01*
X109476720Y-79569593D01*
X109616832Y-80128950D01*
X109619206Y-80140886D01*
X109703813Y-80711268D01*
X109705006Y-80723377D01*
X109733301Y-81299315D01*
X109733301Y-81311485D01*
X109705006Y-81887422D01*
X109703813Y-81899531D01*
X109619206Y-82469913D01*
X109616832Y-82481849D01*
X109476720Y-83041206D01*
X109473187Y-83052850D01*
X109278932Y-83595756D01*
X109274276Y-83606999D01*
X109027730Y-84128278D01*
X109021993Y-84139010D01*
X108725552Y-84633591D01*
X108718792Y-84643709D01*
X108375288Y-85106871D01*
X108367568Y-85116277D01*
X107980332Y-85543527D01*
X107971727Y-85552132D01*
X107544477Y-85939368D01*
X107535071Y-85947088D01*
X107071909Y-86290592D01*
X107061791Y-86297352D01*
X106567210Y-86593793D01*
X106556478Y-86599530D01*
X106035199Y-86846076D01*
X106023956Y-86850732D01*
X105481050Y-87044987D01*
X105469406Y-87048520D01*
X104910049Y-87188632D01*
X104898114Y-87191006D01*
X104694694Y-87221180D01*
X104454846Y-87256758D01*
X104436654Y-87258100D01*
X103030546Y-87258100D01*
X103012352Y-87256758D01*
X102569086Y-87191006D01*
X102557150Y-87188632D01*
X101997793Y-87048520D01*
X101986149Y-87044987D01*
X101443243Y-86850732D01*
X101432000Y-86846076D01*
X100910721Y-86599530D01*
X100899994Y-86593795D01*
X100798878Y-86533189D01*
X100774946Y-86514512D01*
X98524485Y-84264051D01*
X98505813Y-84240126D01*
X98445203Y-84139004D01*
X98439472Y-84128282D01*
X98192923Y-83606999D01*
X98188267Y-83595756D01*
X97994009Y-83052840D01*
X97990481Y-83041212D01*
X97911616Y-82726364D01*
X97907900Y-82696235D01*
X97907900Y-79914563D01*
X97911616Y-79884434D01*
X97990482Y-79569582D01*
X97994007Y-79557965D01*
X98188272Y-79015029D01*
X98192917Y-79003814D01*
X98439479Y-78482501D01*
X98445194Y-78471809D01*
X98741655Y-77977195D01*
X98748398Y-77967102D01*
X99091919Y-77503917D01*
X99099622Y-77494532D01*
X99486884Y-77067254D01*
X99495454Y-77058684D01*
X99922732Y-76671422D01*
X99932117Y-76663719D01*
X100395302Y-76320198D01*
X100405395Y-76313455D01*
X100900009Y-76016994D01*
X100910701Y-76011279D01*
X101432014Y-75764717D01*
X101443229Y-75760072D01*
X101986165Y-75565807D01*
X101997776Y-75562284D01*
X102557167Y-75422163D01*
X102569069Y-75419796D01*
X103139474Y-75335185D01*
X103151570Y-75333993D01*
X103727534Y-75305698D01*
X103739666Y-75305698D01*
X104315627Y-75333993D01*
G37*
%TD.AperFunction*%
%TD*%
%TA.AperFunction,Conductor*%
%TO.N,unconnected-(J1-Pin_11-Pad11)*%
G36*
X93506325Y-71814217D02*
G01*
X93507252Y-71814242D01*
X93521828Y-71818409D01*
X93534145Y-71817913D01*
X93566808Y-71831267D01*
X93574009Y-71835496D01*
X93595779Y-71851729D01*
X94052120Y-72277274D01*
X94215359Y-72429497D01*
X98145486Y-76094400D01*
X98167607Y-76121895D01*
X98175573Y-76135344D01*
X98179973Y-76152638D01*
X98189064Y-76167996D01*
X98192791Y-76203016D01*
X98192801Y-76203053D01*
X98192800Y-76203089D01*
X98192800Y-76203092D01*
X98192712Y-76205486D01*
X98175946Y-76263340D01*
X98172562Y-76269150D01*
X98157584Y-76289689D01*
X98140843Y-76308290D01*
X98122548Y-76328913D01*
X98105693Y-76347914D01*
X98105603Y-76348016D01*
X98105584Y-76348038D01*
X98105583Y-76348037D01*
X98086550Y-76369799D01*
X98086551Y-76369800D01*
X98070525Y-76388124D01*
X98035961Y-76428215D01*
X98001319Y-76468979D01*
X97967311Y-76509573D01*
X97933480Y-76550547D01*
X97899796Y-76591935D01*
X97866616Y-76633301D01*
X97833625Y-76675032D01*
X97800939Y-76716986D01*
X97768477Y-76759268D01*
X97736410Y-76801652D01*
X97704786Y-76844075D01*
X97673167Y-76887125D01*
X97642001Y-76930191D01*
X97611127Y-76973500D01*
X97611080Y-76973569D01*
X97611070Y-76973580D01*
X97610889Y-76973836D01*
X97610879Y-76973829D01*
X97604566Y-76982034D01*
X97597685Y-76990221D01*
X97590441Y-76998120D01*
X96938686Y-77649877D01*
X96826881Y-77761681D01*
X96826879Y-77761683D01*
X96780824Y-77841456D01*
X96780822Y-77841460D01*
X96755985Y-77884475D01*
X96754014Y-77887044D01*
X96747587Y-77899052D01*
X96746790Y-77902466D01*
X96706899Y-78051343D01*
X96706899Y-78221800D01*
X96706900Y-78221851D01*
X96706900Y-78649952D01*
X96704930Y-78671966D01*
X96701015Y-78693668D01*
X96695474Y-78714153D01*
X96678944Y-78759456D01*
X96678924Y-78759511D01*
X96661042Y-78809616D01*
X96643547Y-78859759D01*
X96626373Y-78910125D01*
X96609573Y-78960562D01*
X96603420Y-78979483D01*
X96587839Y-79011150D01*
X96579015Y-79024047D01*
X96524914Y-79068261D01*
X96524897Y-79068268D01*
X96522689Y-79069200D01*
X96463148Y-79078442D01*
X96456450Y-79077828D01*
X96431516Y-79072928D01*
X90481559Y-77253844D01*
X90461044Y-77245504D01*
X90452214Y-77240957D01*
X90450246Y-77239082D01*
X90449623Y-77238829D01*
X90445545Y-77236144D01*
X90446129Y-77235256D01*
X90432046Y-77226532D01*
X90431452Y-77227300D01*
X90428772Y-77225224D01*
X90427828Y-77223919D01*
X90425761Y-77222639D01*
X90424166Y-77221195D01*
X90425106Y-77220156D01*
X90416388Y-77208102D01*
X90407711Y-77202252D01*
X90405020Y-77195999D01*
X90401625Y-77192765D01*
X90399766Y-77185121D01*
X90391560Y-77173774D01*
X90390259Y-77174353D01*
X90389872Y-77173482D01*
X90389538Y-77170979D01*
X90387832Y-77168620D01*
X90386701Y-77165429D01*
X90388703Y-77164719D01*
X90387422Y-77155103D01*
X90380093Y-77138072D01*
X90380810Y-77105507D01*
X90380640Y-77104225D01*
X90380837Y-77102993D01*
X90381127Y-77101249D01*
X90385251Y-77084101D01*
X90404664Y-77022941D01*
X90404784Y-77022567D01*
X90435300Y-76928736D01*
X90435555Y-76927962D01*
X90449159Y-76887121D01*
X90466670Y-76834544D01*
X90466945Y-76833733D01*
X90477903Y-76801594D01*
X90487823Y-76772500D01*
X90498751Y-76740454D01*
X90499037Y-76739626D01*
X90531353Y-76647004D01*
X90531646Y-76646174D01*
X90564684Y-76553601D01*
X90564688Y-76553587D01*
X90564771Y-76553357D01*
X90564979Y-76552778D01*
X90598783Y-76460136D01*
X90599041Y-76459439D01*
X90633478Y-76367105D01*
X90633788Y-76366285D01*
X90668808Y-76274379D01*
X90669062Y-76273717D01*
X90695617Y-76205486D01*
X90704805Y-76181878D01*
X90705052Y-76181248D01*
X90725102Y-76130791D01*
X90741472Y-76089600D01*
X90741739Y-76088931D01*
X90778877Y-75997373D01*
X90778991Y-75997094D01*
X90816812Y-75905716D01*
X90816971Y-75905336D01*
X90855359Y-75814417D01*
X90855633Y-75813775D01*
X90894601Y-75723277D01*
X90894934Y-75722514D01*
X90934543Y-75632294D01*
X90934822Y-75631666D01*
X90975086Y-75541693D01*
X90975352Y-75541105D01*
X91016276Y-75451372D01*
X91016535Y-75450809D01*
X91058118Y-75361314D01*
X91058357Y-75360805D01*
X91100567Y-75271622D01*
X91100803Y-75271128D01*
X91143718Y-75182094D01*
X91143918Y-75181684D01*
X91164495Y-75139755D01*
X91187356Y-75093176D01*
X91187746Y-75092388D01*
X91231659Y-75004494D01*
X91231768Y-75004276D01*
X91232011Y-75003792D01*
X91276746Y-74915816D01*
X91277020Y-74915284D01*
X91297838Y-74875048D01*
X91322323Y-74827729D01*
X91322633Y-74827135D01*
X91368612Y-74739803D01*
X91368853Y-74739348D01*
X91392085Y-74695968D01*
X91415469Y-74652310D01*
X91415886Y-74651538D01*
X91462947Y-74565145D01*
X91463301Y-74564499D01*
X91510978Y-74478430D01*
X91511432Y-74477621D01*
X91511432Y-74477620D01*
X91516522Y-74468583D01*
X91559663Y-74391990D01*
X91560040Y-74391327D01*
X91608970Y-74305878D01*
X91609038Y-74305760D01*
X91609469Y-74305013D01*
X91658959Y-74219991D01*
X91659405Y-74219232D01*
X91709496Y-74134565D01*
X91709836Y-74133993D01*
X91760596Y-74049562D01*
X91760877Y-74049099D01*
X91761192Y-74048582D01*
X91761202Y-74048588D01*
X91761261Y-74048467D01*
X91812372Y-73964808D01*
X91812791Y-73964125D01*
X91864848Y-73880259D01*
X91865074Y-73879898D01*
X91917720Y-73796405D01*
X91918128Y-73795766D01*
X91971222Y-73712876D01*
X91971537Y-73712386D01*
X91971699Y-73712137D01*
X92025405Y-73629586D01*
X92025801Y-73628980D01*
X92080183Y-73546671D01*
X92080442Y-73546282D01*
X92135412Y-73464354D01*
X92135855Y-73463699D01*
X92191282Y-73382341D01*
X92191678Y-73381763D01*
X92247859Y-73300543D01*
X92247988Y-73300358D01*
X92248035Y-73300320D01*
X92248090Y-73300212D01*
X92248198Y-73300058D01*
X92248282Y-73299938D01*
X92248294Y-73299946D01*
X92248347Y-73299844D01*
X92304765Y-73219504D01*
X92305165Y-73218936D01*
X92362510Y-73138497D01*
X92362762Y-73138146D01*
X92420681Y-73058106D01*
X92421060Y-73057588D01*
X92479468Y-72978066D01*
X92479992Y-72977358D01*
X92538605Y-72898734D01*
X92539066Y-72898117D01*
X92598561Y-72819476D01*
X92598599Y-72819427D01*
X92598848Y-72819241D01*
X92599142Y-72818716D01*
X92659024Y-72740722D01*
X92659560Y-72740028D01*
X92720018Y-72662427D01*
X92720562Y-72661734D01*
X92781624Y-72584492D01*
X92782152Y-72583834D01*
X92782151Y-72583833D01*
X92843779Y-72507003D01*
X92844090Y-72506618D01*
X92878872Y-72463880D01*
X92906304Y-72430175D01*
X92906356Y-72430112D01*
X92906495Y-72429941D01*
X92906564Y-72429857D01*
X92906622Y-72429817D01*
X92906693Y-72429700D01*
X92906901Y-72429447D01*
X92906934Y-72429474D01*
X92907063Y-72429250D01*
X92969587Y-72353529D01*
X92969911Y-72353137D01*
X92970220Y-72352768D01*
X93033209Y-72277578D01*
X93033465Y-72277274D01*
X93033750Y-72276936D01*
X93034059Y-72276571D01*
X93097689Y-72201698D01*
X93097960Y-72201380D01*
X93162436Y-72126594D01*
X93162968Y-72125983D01*
X93227837Y-72051809D01*
X93228149Y-72051455D01*
X93293762Y-71977496D01*
X93293990Y-71977241D01*
X93360184Y-71903685D01*
X93360494Y-71903342D01*
X93397626Y-71862665D01*
X93424883Y-71840255D01*
X93438251Y-71832145D01*
X93454018Y-71827956D01*
X93464332Y-71820726D01*
X93484252Y-71819923D01*
X93505778Y-71814204D01*
X93505788Y-71814204D01*
X93506325Y-71814217D01*
G37*
%TD.AperFunction*%
%TD*%
%TA.AperFunction,Conductor*%
%TO.N,unconnected-(J1-Pin_10-Pad10)*%
G36*
X90213843Y-78184117D02*
G01*
X96306024Y-79590608D01*
X96366916Y-79624869D01*
X96399620Y-79686612D01*
X96399426Y-79737178D01*
X96391598Y-79774051D01*
X96380914Y-79826206D01*
X96370630Y-79878279D01*
X96360676Y-79930621D01*
X96351126Y-79982869D01*
X96341930Y-80035275D01*
X96333099Y-80087786D01*
X96324672Y-80140157D01*
X96316575Y-80192854D01*
X96308894Y-80245330D01*
X96301554Y-80298077D01*
X96294588Y-80350881D01*
X96288019Y-80403543D01*
X96281813Y-80456348D01*
X96275979Y-80509230D01*
X96270518Y-80562150D01*
X96265438Y-80615062D01*
X96260734Y-80667994D01*
X96256404Y-80720980D01*
X96252444Y-80774084D01*
X96248864Y-80827138D01*
X96245663Y-80880192D01*
X96242832Y-80933380D01*
X96240388Y-80986358D01*
X96238312Y-81039575D01*
X96236616Y-81092716D01*
X96235298Y-81145832D01*
X96234353Y-81199114D01*
X96233788Y-81252255D01*
X96233599Y-81305400D01*
X96233788Y-81358544D01*
X96234353Y-81411685D01*
X96235298Y-81464967D01*
X96236616Y-81518083D01*
X96238312Y-81571224D01*
X96240388Y-81624441D01*
X96242832Y-81677419D01*
X96245663Y-81730607D01*
X96248864Y-81783661D01*
X96252444Y-81836715D01*
X96256404Y-81889819D01*
X96260734Y-81942805D01*
X96265438Y-81995737D01*
X96270518Y-82048649D01*
X96275979Y-82101569D01*
X96281813Y-82154451D01*
X96288019Y-82207256D01*
X96294588Y-82259918D01*
X96301554Y-82312722D01*
X96308894Y-82365469D01*
X96316575Y-82417945D01*
X96324672Y-82470642D01*
X96333099Y-82523013D01*
X96341930Y-82575524D01*
X96351126Y-82627930D01*
X96360676Y-82680178D01*
X96370630Y-82732520D01*
X96380914Y-82784593D01*
X96391592Y-82836719D01*
X96399426Y-82873620D01*
X96394092Y-82943286D01*
X96351940Y-82999008D01*
X96306023Y-83020191D01*
X90213847Y-84426681D01*
X90204149Y-84426110D01*
X90195054Y-84429525D01*
X90169840Y-84424094D01*
X90144098Y-84422581D01*
X90136248Y-84416858D01*
X90126750Y-84414813D01*
X90108474Y-84396612D01*
X90087637Y-84381423D01*
X90082807Y-84371051D01*
X90077243Y-84365510D01*
X90064841Y-84332467D01*
X90049204Y-84261291D01*
X90049019Y-84260431D01*
X90028623Y-84164347D01*
X90028443Y-84163486D01*
X90008673Y-84066987D01*
X90008536Y-84066307D01*
X89989395Y-83969391D01*
X89989339Y-83969100D01*
X89970879Y-83872009D01*
X89970750Y-83871315D01*
X89953043Y-83774452D01*
X89952888Y-83773587D01*
X89935861Y-83676559D01*
X89935742Y-83675861D01*
X89919417Y-83578787D01*
X89919275Y-83577923D01*
X89903652Y-83480836D01*
X89903515Y-83479964D01*
X89888571Y-83382687D01*
X89888441Y-83381820D01*
X89874171Y-83284342D01*
X89874105Y-83283881D01*
X89860493Y-83186060D01*
X89860391Y-83185303D01*
X89847523Y-83087766D01*
X89847411Y-83086894D01*
X89836450Y-82999008D01*
X89835206Y-82989035D01*
X89835142Y-82988502D01*
X89823645Y-82890682D01*
X89823552Y-82889866D01*
X89823427Y-82888737D01*
X89812751Y-82791980D01*
X89812659Y-82791113D01*
X89806606Y-82732452D01*
X89802545Y-82693089D01*
X89802490Y-82692541D01*
X89793061Y-82594335D01*
X89792994Y-82593604D01*
X89791387Y-82575524D01*
X89784277Y-82495510D01*
X89784212Y-82494750D01*
X89777941Y-82418016D01*
X89776200Y-82396711D01*
X89776133Y-82395841D01*
X89768807Y-82297622D01*
X89768754Y-82296888D01*
X89762123Y-82198593D01*
X89762069Y-82197739D01*
X89756145Y-82099565D01*
X89756095Y-82098688D01*
X89750858Y-82000313D01*
X89750815Y-81999434D01*
X89746285Y-81901220D01*
X89746253Y-81900463D01*
X89742413Y-81802043D01*
X89742382Y-81801165D01*
X89741823Y-81783661D01*
X89739241Y-81702770D01*
X89739219Y-81701978D01*
X89736772Y-81603377D01*
X89736763Y-81603003D01*
X89735011Y-81504140D01*
X89735004Y-81503636D01*
X89733955Y-81404987D01*
X89733950Y-81404192D01*
X89733601Y-81305682D01*
X89733601Y-81305117D01*
X89733950Y-81206507D01*
X89733956Y-81205728D01*
X89735004Y-81107159D01*
X89735011Y-81106662D01*
X89736764Y-81007790D01*
X89736771Y-81007428D01*
X89739221Y-80908730D01*
X89739244Y-80907942D01*
X89742385Y-80809521D01*
X89742413Y-80808756D01*
X89746253Y-80710336D01*
X89746291Y-80709457D01*
X89748202Y-80668034D01*
X89750817Y-80611314D01*
X89750858Y-80610486D01*
X89756095Y-80512111D01*
X89756145Y-80511234D01*
X89762069Y-80413060D01*
X89762125Y-80412184D01*
X89766266Y-80350792D01*
X89768755Y-80313894D01*
X89768807Y-80313177D01*
X89776133Y-80214958D01*
X89776201Y-80214082D01*
X89777936Y-80192854D01*
X89784220Y-80115945D01*
X89784287Y-80115172D01*
X89791387Y-80035279D01*
X89793008Y-80017036D01*
X89793059Y-80016491D01*
X89802493Y-79918228D01*
X89802542Y-79917736D01*
X89812662Y-79819648D01*
X89812752Y-79818813D01*
X89821760Y-79737178D01*
X89823560Y-79720861D01*
X89823652Y-79720059D01*
X89829521Y-79670124D01*
X89835147Y-79622253D01*
X89835202Y-79621791D01*
X89847419Y-79523838D01*
X89847523Y-79523033D01*
X89860412Y-79425339D01*
X89860488Y-79424776D01*
X89874110Y-79326885D01*
X89874164Y-79326507D01*
X89888456Y-79228875D01*
X89888571Y-79228112D01*
X89903515Y-79130835D01*
X89903625Y-79130131D01*
X89919279Y-79032851D01*
X89919417Y-79032012D01*
X89921697Y-79018453D01*
X89935768Y-78934780D01*
X89935854Y-78934283D01*
X89952910Y-78837085D01*
X89953043Y-78836347D01*
X89970780Y-78739321D01*
X89970869Y-78738842D01*
X89989364Y-78641570D01*
X90008547Y-78544434D01*
X90008641Y-78543969D01*
X90028472Y-78447173D01*
X90028584Y-78446635D01*
X90049056Y-78350193D01*
X90049204Y-78349508D01*
X90064841Y-78278332D01*
X90098453Y-78217078D01*
X90159845Y-78183720D01*
X90213843Y-78184117D01*
G37*
%TD.AperFunction*%
%TD*%
%TA.AperFunction,Conductor*%
%TO.N,unconnected-(J1-Pin_3-Pad3)*%
G36*
X114013338Y-71818504D02*
G01*
X114057558Y-71849504D01*
X114106685Y-71903322D01*
X114107156Y-71903842D01*
X114173145Y-71977170D01*
X114173557Y-71977631D01*
X114238919Y-72051307D01*
X114239500Y-72051967D01*
X114304231Y-72125983D01*
X114304806Y-72126645D01*
X114369056Y-72201168D01*
X114369629Y-72201838D01*
X114433426Y-72276908D01*
X114433992Y-72277579D01*
X114497049Y-72352852D01*
X114497612Y-72353529D01*
X114560339Y-72429497D01*
X114560895Y-72430175D01*
X114623001Y-72506484D01*
X114623370Y-72506940D01*
X114685145Y-72583954D01*
X114685581Y-72584502D01*
X114746637Y-72661734D01*
X114747181Y-72662427D01*
X114807639Y-72740028D01*
X114808175Y-72740722D01*
X114868126Y-72818806D01*
X114868661Y-72819507D01*
X114928016Y-72897963D01*
X114928543Y-72898665D01*
X114987343Y-72977542D01*
X114987813Y-72978177D01*
X115046248Y-73057736D01*
X115046470Y-73058040D01*
X115104315Y-73137978D01*
X115104745Y-73138577D01*
X115161918Y-73218775D01*
X115162427Y-73219495D01*
X115219001Y-73300058D01*
X115219504Y-73300779D01*
X115275420Y-73381617D01*
X115275917Y-73382341D01*
X115331344Y-73463699D01*
X115331836Y-73464427D01*
X115386643Y-73546112D01*
X115387131Y-73546845D01*
X115441313Y-73628852D01*
X115441794Y-73629586D01*
X115495500Y-73712137D01*
X115495978Y-73712876D01*
X115549054Y-73795739D01*
X115549526Y-73796482D01*
X115602060Y-73879795D01*
X115602525Y-73880539D01*
X115654319Y-73963982D01*
X115654780Y-73964731D01*
X115706056Y-74048662D01*
X115706513Y-74049415D01*
X115757254Y-74133811D01*
X115757703Y-74134565D01*
X115807794Y-74219232D01*
X115808240Y-74219991D01*
X115857730Y-74305013D01*
X115858169Y-74305774D01*
X115907084Y-74391195D01*
X115907518Y-74391960D01*
X115955816Y-74477708D01*
X115956246Y-74478476D01*
X116003826Y-74564369D01*
X116004248Y-74565138D01*
X116051404Y-74651705D01*
X116051751Y-74652347D01*
X116096810Y-74736481D01*
X116098246Y-74739162D01*
X116098657Y-74739937D01*
X116144467Y-74826948D01*
X116144875Y-74827729D01*
X116190117Y-74915163D01*
X116190518Y-74915945D01*
X116235115Y-75003649D01*
X116235510Y-75004433D01*
X116279428Y-75092338D01*
X116279819Y-75093126D01*
X116323251Y-75181622D01*
X116323560Y-75182258D01*
X116361788Y-75261568D01*
X116366302Y-75270933D01*
X116366680Y-75271725D01*
X116408769Y-75360651D01*
X116409143Y-75361448D01*
X116450608Y-75450689D01*
X116450975Y-75451486D01*
X116491847Y-75541105D01*
X116492209Y-75541907D01*
X116532397Y-75631710D01*
X116532632Y-75632239D01*
X116572341Y-75722687D01*
X116572638Y-75723370D01*
X116611502Y-75813626D01*
X116611846Y-75814433D01*
X116650163Y-75905181D01*
X116650503Y-75905994D01*
X116688112Y-75996862D01*
X116688446Y-75997676D01*
X116725401Y-76088786D01*
X116725727Y-76089600D01*
X116762084Y-76181089D01*
X116762407Y-76181909D01*
X116798075Y-76273558D01*
X116798391Y-76274379D01*
X116833411Y-76366285D01*
X116833721Y-76367105D01*
X116868158Y-76459439D01*
X116868462Y-76460264D01*
X116871593Y-76468843D01*
X116901438Y-76550634D01*
X116902130Y-76552529D01*
X116902428Y-76553357D01*
X116935562Y-76646199D01*
X116935780Y-76646816D01*
X116968258Y-76739901D01*
X116968483Y-76740554D01*
X117000254Y-76833733D01*
X117000535Y-76834565D01*
X117031644Y-76927962D01*
X117031919Y-76928798D01*
X117062366Y-77022418D01*
X117062635Y-77023255D01*
X117084625Y-77092537D01*
X117086144Y-77162390D01*
X117049656Y-77221975D01*
X117002689Y-77248632D01*
X111023465Y-79076664D01*
X110953600Y-79077440D01*
X110894406Y-79040321D01*
X110869291Y-78996434D01*
X110857623Y-78960557D01*
X110857602Y-78960492D01*
X110849369Y-78935777D01*
X110840819Y-78910104D01*
X110823656Y-78859771D01*
X110806138Y-78809562D01*
X110788264Y-78759478D01*
X110770035Y-78709522D01*
X110751452Y-78659697D01*
X110732517Y-78610004D01*
X110713230Y-78560447D01*
X110693592Y-78511028D01*
X110673604Y-78461750D01*
X110673549Y-78461617D01*
X110653282Y-78412648D01*
X110632588Y-78363638D01*
X110632582Y-78363624D01*
X110611551Y-78314782D01*
X110590173Y-78266090D01*
X110590164Y-78266069D01*
X110568445Y-78217536D01*
X110546404Y-78169208D01*
X110523939Y-78120860D01*
X110501268Y-78072958D01*
X110501228Y-78072875D01*
X110478138Y-78024972D01*
X110454709Y-77977233D01*
X110430942Y-77929662D01*
X110406839Y-77882260D01*
X110382400Y-77835031D01*
X110372310Y-77815867D01*
X110357626Y-77787975D01*
X110332528Y-77741112D01*
X110332520Y-77741097D01*
X110307082Y-77694398D01*
X110281314Y-77647881D01*
X110255216Y-77601547D01*
X110228791Y-77555400D01*
X110228772Y-77555366D01*
X110214163Y-77530271D01*
X110202038Y-77509441D01*
X110174961Y-77463673D01*
X110147560Y-77418098D01*
X110119837Y-77372719D01*
X110113998Y-77363312D01*
X110091797Y-77327544D01*
X110063436Y-77282568D01*
X110063428Y-77282555D01*
X110034745Y-77237776D01*
X110005746Y-77193201D01*
X109976432Y-77148832D01*
X109946803Y-77104673D01*
X109946781Y-77104641D01*
X109946749Y-77104593D01*
X109916862Y-77060723D01*
X109886651Y-77017046D01*
X109856071Y-76973501D01*
X109825169Y-76930153D01*
X109817218Y-76919165D01*
X109794006Y-76887088D01*
X109762526Y-76844229D01*
X109762506Y-76844202D01*
X109762453Y-76844130D01*
X109730757Y-76801610D01*
X109698725Y-76759273D01*
X109698712Y-76759257D01*
X109698659Y-76759186D01*
X109666275Y-76717005D01*
X109633593Y-76675056D01*
X109600614Y-76633340D01*
X109600600Y-76633323D01*
X109600564Y-76633277D01*
X109567384Y-76591912D01*
X109533790Y-76550634D01*
X109499850Y-76509529D01*
X109465846Y-76468940D01*
X109465765Y-76468843D01*
X109431328Y-76428321D01*
X109431262Y-76428244D01*
X109396686Y-76388138D01*
X109396605Y-76388045D01*
X109361597Y-76348016D01*
X109326306Y-76308236D01*
X109326294Y-76308222D01*
X109301072Y-76280196D01*
X109270857Y-76217197D01*
X109279500Y-76147864D01*
X109308674Y-76106559D01*
X113881410Y-71842413D01*
X113943863Y-71811091D01*
X114013338Y-71818504D01*
G37*
%TD.AperFunction*%
%TD*%
%TA.AperFunction,Conductor*%
%TO.N,unconnected-(J1-Pin_5-Pad5)*%
G36*
X111023462Y-83534134D02*
G01*
X117002690Y-85362168D01*
X117010802Y-85367509D01*
X117020386Y-85369101D01*
X117039503Y-85386408D01*
X117061044Y-85400592D01*
X117064981Y-85409473D01*
X117072183Y-85415993D01*
X117078909Y-85440890D01*
X117089361Y-85464466D01*
X117088357Y-85475863D01*
X117090406Y-85483445D01*
X117084625Y-85518262D01*
X117062635Y-85587544D01*
X117062366Y-85588381D01*
X117031919Y-85682001D01*
X117031644Y-85682837D01*
X117000535Y-85776234D01*
X117000254Y-85777066D01*
X116968483Y-85870245D01*
X116968233Y-85870970D01*
X116935804Y-85963916D01*
X116935562Y-85964600D01*
X116902428Y-86057442D01*
X116902130Y-86058270D01*
X116868462Y-86150535D01*
X116868158Y-86151360D01*
X116833721Y-86243694D01*
X116833411Y-86244514D01*
X116798391Y-86336420D01*
X116798075Y-86337241D01*
X116762407Y-86428890D01*
X116762084Y-86429710D01*
X116725727Y-86521199D01*
X116725401Y-86522013D01*
X116688446Y-86613123D01*
X116688112Y-86613937D01*
X116650503Y-86704805D01*
X116650163Y-86705618D01*
X116611846Y-86796366D01*
X116611502Y-86797173D01*
X116572638Y-86887429D01*
X116572288Y-86888236D01*
X116532682Y-86978448D01*
X116532325Y-86979252D01*
X116492209Y-87068892D01*
X116491847Y-87069694D01*
X116450975Y-87159313D01*
X116450608Y-87160110D01*
X116409143Y-87249351D01*
X116408769Y-87250148D01*
X116366680Y-87339074D01*
X116366302Y-87339866D01*
X116323636Y-87428385D01*
X116323251Y-87429177D01*
X116279819Y-87517673D01*
X116279428Y-87518461D01*
X116235510Y-87606366D01*
X116235115Y-87607150D01*
X116190518Y-87694854D01*
X116190117Y-87695636D01*
X116144875Y-87783070D01*
X116144467Y-87783851D01*
X116098657Y-87870862D01*
X116098246Y-87871637D01*
X116051823Y-87958319D01*
X116051404Y-87959094D01*
X116004248Y-88045661D01*
X116003826Y-88046430D01*
X115956246Y-88132323D01*
X115955816Y-88133091D01*
X115907518Y-88218839D01*
X115907084Y-88219604D01*
X115858169Y-88305025D01*
X115857730Y-88305786D01*
X115808240Y-88390808D01*
X115807794Y-88391567D01*
X115757703Y-88476234D01*
X115757254Y-88476988D01*
X115706513Y-88561384D01*
X115706056Y-88562137D01*
X115654780Y-88646068D01*
X115654319Y-88646817D01*
X115602525Y-88730260D01*
X115602060Y-88731004D01*
X115549526Y-88814317D01*
X115549054Y-88815060D01*
X115495978Y-88897923D01*
X115495500Y-88898662D01*
X115441794Y-88981213D01*
X115441313Y-88981947D01*
X115387131Y-89063954D01*
X115386643Y-89064687D01*
X115331836Y-89146372D01*
X115331344Y-89147100D01*
X115275917Y-89228458D01*
X115275420Y-89229182D01*
X115219504Y-89310020D01*
X115219001Y-89310741D01*
X115162427Y-89391304D01*
X115161918Y-89392024D01*
X115104745Y-89472222D01*
X115104234Y-89472934D01*
X115046569Y-89552622D01*
X115046121Y-89553238D01*
X114987866Y-89632551D01*
X114987343Y-89633257D01*
X114928543Y-89712134D01*
X114928016Y-89712836D01*
X114868661Y-89791292D01*
X114868126Y-89791993D01*
X114808175Y-89870077D01*
X114807639Y-89870771D01*
X114747181Y-89948372D01*
X114746637Y-89949065D01*
X114685581Y-90026297D01*
X114685042Y-90026973D01*
X114623464Y-90103742D01*
X114623001Y-90104315D01*
X114560895Y-90180624D01*
X114560339Y-90181302D01*
X114497612Y-90257270D01*
X114497049Y-90257947D01*
X114433992Y-90333220D01*
X114433426Y-90333891D01*
X114369629Y-90408961D01*
X114369056Y-90409631D01*
X114304806Y-90484154D01*
X114304231Y-90484816D01*
X114239500Y-90558832D01*
X114238919Y-90559492D01*
X114173557Y-90633168D01*
X114172970Y-90633825D01*
X114107275Y-90706826D01*
X114106687Y-90707475D01*
X114085937Y-90730206D01*
X114069423Y-90748297D01*
X114009690Y-90784540D01*
X113977841Y-90788700D01*
X113952039Y-90788700D01*
X113885000Y-90769015D01*
X113867474Y-90755391D01*
X110961645Y-88045661D01*
X109308674Y-86504240D01*
X109273069Y-86444123D01*
X109275619Y-86374300D01*
X109301070Y-86330604D01*
X109326306Y-86302564D01*
X109361597Y-86262784D01*
X109396605Y-86222755D01*
X109431328Y-86182479D01*
X109465765Y-86141957D01*
X109489134Y-86114061D01*
X109499850Y-86101270D01*
X109499914Y-86101193D01*
X109533773Y-86060187D01*
X109567340Y-86018942D01*
X109600614Y-85977460D01*
X109633593Y-85935744D01*
X109666275Y-85893795D01*
X109698659Y-85851614D01*
X109730744Y-85809206D01*
X109762526Y-85766571D01*
X109794006Y-85723712D01*
X109825181Y-85680630D01*
X109856050Y-85637329D01*
X109886611Y-85593810D01*
X109886612Y-85593807D01*
X109886651Y-85593753D01*
X109916862Y-85550076D01*
X109946749Y-85506206D01*
X109946803Y-85506127D01*
X109976432Y-85461968D01*
X110005746Y-85417599D01*
X110034745Y-85373024D01*
X110063428Y-85328245D01*
X110091792Y-85283263D01*
X110119837Y-85238081D01*
X110147560Y-85192702D01*
X110174961Y-85147127D01*
X110202038Y-85101359D01*
X110228791Y-85055400D01*
X110255216Y-85009253D01*
X110281314Y-84962919D01*
X110307082Y-84916402D01*
X110332520Y-84869703D01*
X110357626Y-84822824D01*
X110382400Y-84775769D01*
X110406839Y-84728540D01*
X110430942Y-84681138D01*
X110454709Y-84633567D01*
X110478138Y-84585828D01*
X110501228Y-84537925D01*
X110523977Y-84489859D01*
X110546385Y-84441633D01*
X110568451Y-84393249D01*
X110590173Y-84344710D01*
X110611551Y-84296018D01*
X110632582Y-84247176D01*
X110653267Y-84198186D01*
X110653282Y-84198151D01*
X110673549Y-84149182D01*
X110673604Y-84149050D01*
X110693592Y-84099772D01*
X110713230Y-84050353D01*
X110732517Y-84000796D01*
X110751452Y-83951103D01*
X110770035Y-83901278D01*
X110788264Y-83851322D01*
X110806138Y-83801238D01*
X110823656Y-83751029D01*
X110840819Y-83700696D01*
X110857623Y-83650243D01*
X110869291Y-83614366D01*
X110908742Y-83556703D01*
X110973108Y-83529522D01*
X111023462Y-83534134D01*
G37*
%TD.AperFunction*%
%TD*%
M02*
