%TF.GenerationSoftware,KiCad,Pcbnew,10.0.1*%
%TF.CreationDate,2026-07-17T15:57:41-06:00*%
%TF.ProjectId,clickwheel,636c6963-6b77-4686-9565-6c2e6b696361,rev?*%
%TF.SameCoordinates,Original*%
%TF.FileFunction,Legend,Top*%
%TF.FilePolarity,Positive*%
%FSLAX46Y46*%
G04 Gerber Fmt 4.6, Leading zero omitted, Abs format (unit mm)*
G04 Created by KiCad (PCBNEW 10.0.1) date 2026-07-17 15:57:41*
%MOMM*%
%LPD*%
G01*
G04 APERTURE LIST*
%ADD10C,0.100000*%
G04 APERTURE END LIST*
D10*
X118156655Y-69090600D02*
X118061417Y-69138219D01*
X118061417Y-69138219D02*
X117870941Y-69138219D01*
X117870941Y-69138219D02*
X117775703Y-69090600D01*
X117775703Y-69090600D02*
X117728084Y-69042980D01*
X117728084Y-69042980D02*
X117680465Y-68947742D01*
X117680465Y-68947742D02*
X117680465Y-68662028D01*
X117680465Y-68662028D02*
X117728084Y-68566790D01*
X117728084Y-68566790D02*
X117775703Y-68519171D01*
X117775703Y-68519171D02*
X117870941Y-68471552D01*
X117870941Y-68471552D02*
X118061417Y-68471552D01*
X118061417Y-68471552D02*
X118156655Y-68519171D01*
X118728084Y-69138219D02*
X118632846Y-69090600D01*
X118632846Y-69090600D02*
X118585227Y-68995361D01*
X118585227Y-68995361D02*
X118585227Y-68138219D01*
X119109037Y-69138219D02*
X119109037Y-68471552D01*
X119109037Y-68138219D02*
X119061418Y-68185838D01*
X119061418Y-68185838D02*
X119109037Y-68233457D01*
X119109037Y-68233457D02*
X119156656Y-68185838D01*
X119156656Y-68185838D02*
X119109037Y-68138219D01*
X119109037Y-68138219D02*
X119109037Y-68233457D01*
X120013798Y-69090600D02*
X119918560Y-69138219D01*
X119918560Y-69138219D02*
X119728084Y-69138219D01*
X119728084Y-69138219D02*
X119632846Y-69090600D01*
X119632846Y-69090600D02*
X119585227Y-69042980D01*
X119585227Y-69042980D02*
X119537608Y-68947742D01*
X119537608Y-68947742D02*
X119537608Y-68662028D01*
X119537608Y-68662028D02*
X119585227Y-68566790D01*
X119585227Y-68566790D02*
X119632846Y-68519171D01*
X119632846Y-68519171D02*
X119728084Y-68471552D01*
X119728084Y-68471552D02*
X119918560Y-68471552D01*
X119918560Y-68471552D02*
X120013798Y-68519171D01*
X120442370Y-69138219D02*
X120442370Y-68138219D01*
X120537608Y-68757266D02*
X120823322Y-69138219D01*
X120823322Y-68471552D02*
X120442370Y-68852504D01*
X121156656Y-68471552D02*
X121347132Y-69138219D01*
X121347132Y-69138219D02*
X121537608Y-68662028D01*
X121537608Y-68662028D02*
X121728084Y-69138219D01*
X121728084Y-69138219D02*
X121918560Y-68471552D01*
X122299513Y-69138219D02*
X122299513Y-68138219D01*
X122728084Y-69138219D02*
X122728084Y-68614409D01*
X122728084Y-68614409D02*
X122680465Y-68519171D01*
X122680465Y-68519171D02*
X122585227Y-68471552D01*
X122585227Y-68471552D02*
X122442370Y-68471552D01*
X122442370Y-68471552D02*
X122347132Y-68519171D01*
X122347132Y-68519171D02*
X122299513Y-68566790D01*
X123585227Y-69090600D02*
X123489989Y-69138219D01*
X123489989Y-69138219D02*
X123299513Y-69138219D01*
X123299513Y-69138219D02*
X123204275Y-69090600D01*
X123204275Y-69090600D02*
X123156656Y-68995361D01*
X123156656Y-68995361D02*
X123156656Y-68614409D01*
X123156656Y-68614409D02*
X123204275Y-68519171D01*
X123204275Y-68519171D02*
X123299513Y-68471552D01*
X123299513Y-68471552D02*
X123489989Y-68471552D01*
X123489989Y-68471552D02*
X123585227Y-68519171D01*
X123585227Y-68519171D02*
X123632846Y-68614409D01*
X123632846Y-68614409D02*
X123632846Y-68709647D01*
X123632846Y-68709647D02*
X123156656Y-68804885D01*
X124442370Y-69090600D02*
X124347132Y-69138219D01*
X124347132Y-69138219D02*
X124156656Y-69138219D01*
X124156656Y-69138219D02*
X124061418Y-69090600D01*
X124061418Y-69090600D02*
X124013799Y-68995361D01*
X124013799Y-68995361D02*
X124013799Y-68614409D01*
X124013799Y-68614409D02*
X124061418Y-68519171D01*
X124061418Y-68519171D02*
X124156656Y-68471552D01*
X124156656Y-68471552D02*
X124347132Y-68471552D01*
X124347132Y-68471552D02*
X124442370Y-68519171D01*
X124442370Y-68519171D02*
X124489989Y-68614409D01*
X124489989Y-68614409D02*
X124489989Y-68709647D01*
X124489989Y-68709647D02*
X124013799Y-68804885D01*
X125061418Y-69138219D02*
X124966180Y-69090600D01*
X124966180Y-69090600D02*
X124918561Y-68995361D01*
X124918561Y-68995361D02*
X124918561Y-68138219D01*
X126585228Y-69090600D02*
X126489990Y-69138219D01*
X126489990Y-69138219D02*
X126299514Y-69138219D01*
X126299514Y-69138219D02*
X126204276Y-69090600D01*
X126204276Y-69090600D02*
X126156657Y-68995361D01*
X126156657Y-68995361D02*
X126156657Y-68614409D01*
X126156657Y-68614409D02*
X126204276Y-68519171D01*
X126204276Y-68519171D02*
X126299514Y-68471552D01*
X126299514Y-68471552D02*
X126489990Y-68471552D01*
X126489990Y-68471552D02*
X126585228Y-68519171D01*
X126585228Y-68519171D02*
X126632847Y-68614409D01*
X126632847Y-68614409D02*
X126632847Y-68709647D01*
X126632847Y-68709647D02*
X126156657Y-68804885D01*
X126966181Y-68471552D02*
X127204276Y-69138219D01*
X127204276Y-69138219D02*
X127442371Y-68471552D01*
X127728086Y-68471552D02*
X127966181Y-69138219D01*
X128204276Y-68471552D02*
X127966181Y-69138219D01*
X127966181Y-69138219D02*
X127870943Y-69376314D01*
X127870943Y-69376314D02*
X127823324Y-69423933D01*
X127823324Y-69423933D02*
X127728086Y-69471552D01*
X129299515Y-68233457D02*
X129347134Y-68185838D01*
X129347134Y-68185838D02*
X129442372Y-68138219D01*
X129442372Y-68138219D02*
X129680467Y-68138219D01*
X129680467Y-68138219D02*
X129775705Y-68185838D01*
X129775705Y-68185838D02*
X129823324Y-68233457D01*
X129823324Y-68233457D02*
X129870943Y-68328695D01*
X129870943Y-68328695D02*
X129870943Y-68423933D01*
X129870943Y-68423933D02*
X129823324Y-68566790D01*
X129823324Y-68566790D02*
X129251896Y-69138219D01*
X129251896Y-69138219D02*
X129870943Y-69138219D01*
X130728086Y-68138219D02*
X130537610Y-68138219D01*
X130537610Y-68138219D02*
X130442372Y-68185838D01*
X130442372Y-68185838D02*
X130394753Y-68233457D01*
X130394753Y-68233457D02*
X130299515Y-68376314D01*
X130299515Y-68376314D02*
X130251896Y-68566790D01*
X130251896Y-68566790D02*
X130251896Y-68947742D01*
X130251896Y-68947742D02*
X130299515Y-69042980D01*
X130299515Y-69042980D02*
X130347134Y-69090600D01*
X130347134Y-69090600D02*
X130442372Y-69138219D01*
X130442372Y-69138219D02*
X130632848Y-69138219D01*
X130632848Y-69138219D02*
X130728086Y-69090600D01*
X130728086Y-69090600D02*
X130775705Y-69042980D01*
X130775705Y-69042980D02*
X130823324Y-68947742D01*
X130823324Y-68947742D02*
X130823324Y-68709647D01*
X130823324Y-68709647D02*
X130775705Y-68614409D01*
X130775705Y-68614409D02*
X130728086Y-68566790D01*
X130728086Y-68566790D02*
X130632848Y-68519171D01*
X130632848Y-68519171D02*
X130442372Y-68519171D01*
X130442372Y-68519171D02*
X130347134Y-68566790D01*
X130347134Y-68566790D02*
X130299515Y-68614409D01*
X130299515Y-68614409D02*
X130251896Y-68709647D01*
M02*
