%TF.GenerationSoftware,KiCad,Pcbnew,10.0.1*%
%TF.CreationDate,2026-07-17T15:57:41-06:00*%
%TF.ProjectId,clickwheel,636c6963-6b77-4686-9565-6c2e6b696361,rev?*%
%TF.SameCoordinates,Original*%
%TF.FileFunction,Paste,Bot*%
%TF.FilePolarity,Positive*%
%FSLAX46Y46*%
G04 Gerber Fmt 4.6, Leading zero omitted, Abs format (unit mm)*
G04 Created by KiCad (PCBNEW 10.0.1) date 2026-07-17 15:57:41*
%MOMM*%
%LPD*%
G01*
G04 APERTURE LIST*
%ADD10R,1.550000X1.300000*%
%ADD11R,2.000000X0.610000*%
%ADD12R,3.600000X2.680000*%
%ADD13R,1.300000X1.550000*%
G04 APERTURE END LIST*
D10*
%TO.C,SW1*%
X107708600Y-79055400D03*
X99758600Y-79055400D03*
X107708600Y-83555400D03*
X99758600Y-83555400D03*
%TD*%
D11*
%TO.C,J1*%
X122634600Y-72754600D03*
X122634600Y-73754600D03*
X122634600Y-74754600D03*
X122634600Y-75754600D03*
X122634600Y-76754600D03*
X122634600Y-77754600D03*
X122634600Y-78754600D03*
X122634600Y-79754600D03*
X122634600Y-80754600D03*
X122634600Y-81754600D03*
X122634600Y-82754600D03*
X122634600Y-83754600D03*
X122634600Y-84754600D03*
X122634600Y-85754600D03*
X122634600Y-86754600D03*
X122634600Y-87754600D03*
X122634600Y-88754600D03*
X122634600Y-89754600D03*
D12*
X125434600Y-69764600D03*
X125434600Y-92744600D03*
%TD*%
D10*
%TO.C,SW2*%
X107759400Y-69479600D03*
X99809400Y-69479600D03*
X107759400Y-73979600D03*
X99809400Y-73979600D03*
%TD*%
D13*
%TO.C,SW4*%
X115483200Y-85280400D03*
X115483200Y-77330400D03*
X110983200Y-85280400D03*
X110983200Y-77330400D03*
%TD*%
D10*
%TO.C,SW3*%
X99720600Y-93222200D03*
X107670600Y-93222200D03*
X99720600Y-88722200D03*
X107670600Y-88722200D03*
%TD*%
D13*
%TO.C,SW5*%
X91943800Y-77165200D03*
X91943800Y-85115200D03*
X96443800Y-77165200D03*
X96443800Y-85115200D03*
%TD*%
M02*
