M48
; DRILL file KiCad 10.0.1 date 2026-07-17T15:57:41
; FORMAT={-:-/ absolute / metric / decimal}
; #@! TF.CreationDate,2026-07-17T15:57:41-06:00
; #@! TF.GenerationSoftware,Kicad,Pcbnew,10.0.1
; #@! TF.FileFunction,MixedPlating,1,2
FMAT,2
METRIC
; #@! TA.AperFunction,Plated,PTH,ViaDrill
T1C0.300
%
G90
G05
T1
X89.465Y-88.68
X90.094Y-81.407
X95.065Y-92.006
X96.114Y-75.159
X98.543Y-85.98
X103.784Y-68.148
X106.02Y-94.666
X107.803Y-77.146
X115.037Y-74.016
X116.633Y-85.307
X118.466Y-86.182
X119.284Y-90.48
X122.631Y-79.756
X122.635Y-73.755
X122.635Y-75.755
X122.635Y-77.755
X122.635Y-80.755
X122.635Y-81.755
X122.635Y-82.755
X122.635Y-83.755
X124.79Y-81.755
M30
