%TF.GenerationSoftware,KiCad,Pcbnew,10.0.1*%
%TF.CreationDate,2026-07-02T11:13:02-06:00*%
%TF.ProjectId,aeropod2,6165726f-706f-4643-922e-6b696361645f,rev?*%
%TF.SameCoordinates,Original*%
%TF.FileFunction,Copper,L3,Inr*%
%TF.FilePolarity,Positive*%
%FSLAX46Y46*%
G04 Gerber Fmt 4.6, Leading zero omitted, Abs format (unit mm)*
G04 Created by KiCad (PCBNEW 10.0.1) date 2026-07-02 11:13:02*
%MOMM*%
%LPD*%
G01*
G04 APERTURE LIST*
%TA.AperFunction,ComponentPad*%
%ADD10C,0.650000*%
%TD*%
%TA.AperFunction,ComponentPad*%
%ADD11O,0.950000X2.280000*%
%TD*%
%TA.AperFunction,ComponentPad*%
%ADD12O,1.330000X1.980000*%
%TD*%
%TA.AperFunction,ComponentPad*%
%ADD13O,0.950000X1.800000*%
%TD*%
%TA.AperFunction,ComponentPad*%
%ADD14R,1.600000X1.600000*%
%TD*%
%TA.AperFunction,ComponentPad*%
%ADD15C,1.600000*%
%TD*%
%TA.AperFunction,HeatsinkPad*%
%ADD16C,0.600000*%
%TD*%
%TA.AperFunction,ComponentPad*%
%ADD17R,1.700000X1.700000*%
%TD*%
%TA.AperFunction,ComponentPad*%
%ADD18C,1.700000*%
%TD*%
%TA.AperFunction,HeatsinkPad*%
%ADD19C,0.500000*%
%TD*%
%TA.AperFunction,ViaPad*%
%ADD20C,0.600000*%
%TD*%
%TA.AperFunction,ViaPad*%
%ADD21C,0.300000*%
%TD*%
G04 APERTURE END LIST*
D10*
%TO.N,GND*%
%TO.C,J1*%
X136150000Y-127340000D03*
%TO.N,N/C*%
X135750000Y-128240000D03*
X134950000Y-128240000D03*
%TO.N,VBUS*%
X134550000Y-127340000D03*
%TO.N,Net-(J1-CC2)*%
X134150000Y-128240000D03*
%TO.N,D+*%
X133750000Y-127340000D03*
%TO.N,D-*%
X132950000Y-127340000D03*
%TO.N,N/C*%
X132550000Y-128240000D03*
%TO.N,VBUS*%
X132150000Y-127340000D03*
%TO.N,N/C*%
X131750000Y-128240000D03*
X130950000Y-128240000D03*
%TO.N,GND*%
X130550000Y-127340000D03*
D11*
X128775000Y-131400000D03*
D12*
X128960000Y-128490000D03*
D13*
X129055000Y-126510000D03*
X137645000Y-126510000D03*
D12*
X137740000Y-128490000D03*
D11*
X137925000Y-131400000D03*
%TD*%
D14*
%TO.N,Net-(SW2-A)*%
%TO.C,SW2*%
X122052500Y-77140000D03*
D15*
%TO.N,Net-(SW2-B)*%
X124552500Y-77140000D03*
%TO.N,GND*%
X127052500Y-77140000D03*
%TO.N,N/C*%
X122052500Y-80340000D03*
X124552500Y-80340000D03*
X127052500Y-80340000D03*
%TD*%
D14*
%TO.N,Net-(SW1-A)*%
%TO.C,SW1*%
X129620000Y-69190000D03*
D15*
%TO.N,Net-(SW1-B)*%
X132120000Y-69190000D03*
%TO.N,GND*%
X134620000Y-69190000D03*
%TO.N,N/C*%
X129620000Y-72390000D03*
X132120000Y-72390000D03*
X134620000Y-72390000D03*
%TD*%
D16*
%TO.N,GND*%
%TO.C,U3*%
X113157500Y-124335000D03*
X114682500Y-124335000D03*
X112395000Y-123572500D03*
X113920000Y-123572500D03*
X115445000Y-123572500D03*
X113157500Y-122810000D03*
X114682500Y-122810000D03*
X112395000Y-122047500D03*
X113920000Y-122047500D03*
X115445000Y-122047500D03*
X113157500Y-121285000D03*
X114682500Y-121285000D03*
%TD*%
D17*
%TO.N,GND*%
%TO.C,J6*%
X114249200Y-46761400D03*
D18*
%TO.N,+3.3V*%
X116789200Y-46761400D03*
%TO.N,SCK{slash}CLK*%
X119329200Y-46761400D03*
%TO.N,MOSI{slash}SDA*%
X121869200Y-46761400D03*
%TO.N,RST_DISP*%
X124409200Y-46761400D03*
%TO.N,DC*%
X126949200Y-46761400D03*
%TO.N,CS_DISP*%
X129489200Y-46761400D03*
%TD*%
D19*
%TO.N,GND*%
%TO.C,U1*%
X114170000Y-102305000D03*
X114170000Y-103505000D03*
X114170000Y-104705000D03*
X115570000Y-102305000D03*
X115570000Y-103505000D03*
X115570000Y-104705000D03*
%TD*%
D20*
%TO.N,Net-(SW2-B)*%
X138265000Y-106680000D03*
X124155200Y-113868200D03*
X132608235Y-114406765D03*
%TO.N,GND*%
X110236000Y-71265000D03*
X112776000Y-108737400D03*
X121285000Y-69215000D03*
X136525000Y-109372400D03*
X130886200Y-122859800D03*
X136956800Y-120541803D03*
X124307600Y-96291400D03*
X108940600Y-77647800D03*
X136245600Y-76530200D03*
X126136400Y-134455000D03*
X116125400Y-107772424D03*
X106502200Y-87285700D03*
X113439800Y-73482200D03*
X117983000Y-78968600D03*
X107772200Y-79578200D03*
X107721400Y-73761600D03*
X108407200Y-104038400D03*
X115981765Y-91287600D03*
X106580000Y-113380000D03*
X129946400Y-124536200D03*
X137896600Y-123596400D03*
X134369937Y-119507000D03*
X110591600Y-101600000D03*
X123850400Y-53314600D03*
X125984000Y-127840000D03*
X137550000Y-50901600D03*
X119964200Y-108356400D03*
X116560600Y-73025000D03*
X110566200Y-94132400D03*
X106553000Y-132181600D03*
X123164600Y-100939600D03*
%TO.N,VBUS*%
X113741200Y-101000000D03*
X112826800Y-98070000D03*
D21*
%TO.N,Net-(J1-CC1)*%
X129888500Y-129108200D03*
X132588000Y-126796800D03*
%TO.N,D+*%
X132080000Y-125095000D03*
X132219700Y-119875300D03*
%TO.N,D-*%
X132223405Y-120514005D03*
X133096000Y-125476000D03*
D20*
%TO.N,+3.3V*%
X114706400Y-63982600D03*
X119326482Y-58373118D03*
X115090000Y-74599800D03*
D21*
X120929400Y-104825800D03*
D20*
X132791200Y-121920000D03*
X119910000Y-62611000D03*
D21*
X132613400Y-120904000D03*
D20*
X108585000Y-111607600D03*
X136956800Y-119811800D03*
X136347200Y-122340000D03*
X127304800Y-94300000D03*
X121386600Y-100736400D03*
X124460000Y-70434200D03*
X121793000Y-102692200D03*
X115544600Y-81610200D03*
X112064800Y-110667800D03*
X109575600Y-134455000D03*
%TO.N,IRQ*%
X122760990Y-112011210D03*
X124413154Y-111208317D03*
%TO.N,I2C SCL*%
X115041765Y-107208235D03*
X113334800Y-107739264D03*
%TO.N,I2C SDA*%
X115463235Y-109326766D03*
X116311765Y-108478235D03*
%TO.N,Net-(U4-VREG)*%
X118003235Y-107208235D03*
X118245000Y-109194600D03*
D21*
%TO.N,Net-(J2-Pin_1)*%
X121786190Y-109229695D03*
D20*
X125959032Y-106180712D03*
%TO.N,Net-(J2-Pin_2)*%
X126522532Y-105410000D03*
D21*
X122216000Y-108974224D03*
D20*
%TO.N,Net-(J2-Pin_3)*%
X134670800Y-93140000D03*
X133350000Y-105740000D03*
X124379045Y-110409045D03*
X125730000Y-109855000D03*
X130810000Y-107315000D03*
X127635000Y-109855000D03*
D21*
%TO.N,Net-(J2-Pin_4)*%
X124582032Y-105777723D03*
D20*
X126888791Y-104698763D03*
%TO.N,Net-(J2-Pin_5)*%
X127452291Y-103914150D03*
D21*
X124424548Y-105303169D03*
%TO.N,Net-(J2-Pin_6)*%
X122380551Y-107181042D03*
D20*
X128270000Y-103505000D03*
%TO.N,Net-(J2-Pin_7)*%
X128905000Y-102870000D03*
D21*
X121886228Y-107256187D03*
%TO.N,Net-(J2-Pin_8)*%
X123799600Y-105460800D03*
D20*
X130810000Y-102540000D03*
%TO.N,Net-(J2-Pin_9)*%
X131619182Y-102540000D03*
D21*
X123075163Y-104025163D03*
D20*
%TO.N,Net-(J2-Pin_10)*%
X132419185Y-102540000D03*
D21*
X123180722Y-103382241D03*
%TO.N,Net-(J2-Pin_11)*%
X121789000Y-104282000D03*
D20*
X133219188Y-102540000D03*
D21*
%TO.N,Net-(J2-Pin_12)*%
X121285000Y-104282000D03*
D20*
X134019191Y-102540000D03*
%TO.N,Net-(U5-AVDD)*%
X101549200Y-70755000D03*
X106121200Y-74015600D03*
X108610400Y-69748400D03*
%TO.N,Net-(SW1-B)*%
X113030000Y-78740000D03*
X110684400Y-132444400D03*
X132715000Y-116205000D03*
%TO.N,B5*%
X138219265Y-113240735D03*
X115112800Y-132867400D03*
%TO.N,RST_DISP*%
X117615000Y-52755800D03*
X113125133Y-77895333D03*
X105584144Y-99292256D03*
%TO.N,LRCK*%
X117475000Y-129699998D03*
X111760000Y-81915000D03*
%TO.N,BCLK*%
X118618000Y-128778000D03*
X110490000Y-80645000D03*
%TO.N,DIN*%
X111125000Y-81280000D03*
X120650000Y-130810000D03*
%TO.N,B2*%
X121820000Y-124146470D03*
X127096813Y-107358970D03*
%TO.N,XSMT*%
X124231400Y-130886200D03*
X112395000Y-82550000D03*
%TO.N,B1*%
X117581765Y-119908235D03*
X126511858Y-106758970D03*
%TO.N,CS_DISP*%
X116205000Y-117551200D03*
X117592108Y-111955483D03*
X119684800Y-110947200D03*
%TO.N,DC*%
X115036600Y-116357400D03*
X115570000Y-110058200D03*
X114223800Y-111785400D03*
%TO.N,B3*%
X127662500Y-107958970D03*
X121968800Y-111961200D03*
%TO.N,B4*%
X130501765Y-110798235D03*
X119354600Y-114935000D03*
%TO.N,CS*%
X118638235Y-111653235D03*
X120650000Y-56915000D03*
%TO.N,SCK{slash}CLK*%
X116840000Y-111760000D03*
%TO.N,MOSI{slash}SDA*%
X116205000Y-111125000D03*
X120015000Y-66675000D03*
%TO.N,RXD*%
X128905000Y-121285000D03*
D21*
X111660000Y-113380000D03*
X132260000Y-117473605D03*
D20*
X112501765Y-116733235D03*
%TO.N,TXD*%
X111125000Y-117475000D03*
D21*
X132260000Y-118110000D03*
D20*
X129710000Y-121285000D03*
D21*
X110390000Y-113380000D03*
D20*
%TO.N,DI*%
X120497600Y-110385000D03*
X120650000Y-58420000D03*
%TO.N,Net-(D1-A)*%
X101836861Y-85592500D03*
X107089950Y-99200000D03*
%TO.N,Net-(U5-OUTL)*%
X114455600Y-59664600D03*
D21*
X104952800Y-72999600D03*
%TD*%
%TA.AperFunction,Conductor*%
%TO.N,+3.3V*%
G36*
X113210872Y-45605185D02*
G01*
X113256627Y-45657989D01*
X113266571Y-45727147D01*
X113246935Y-45778389D01*
X113229858Y-45803947D01*
X113210331Y-45833171D01*
X113198700Y-45891647D01*
X113198700Y-47631152D01*
X113210331Y-47689629D01*
X113210332Y-47689630D01*
X113254647Y-47755952D01*
X113320969Y-47800267D01*
X113320970Y-47800268D01*
X113379447Y-47811899D01*
X113379450Y-47811900D01*
X113379452Y-47811900D01*
X115118950Y-47811900D01*
X115118951Y-47811899D01*
X115133768Y-47808952D01*
X115177429Y-47800268D01*
X115177429Y-47800267D01*
X115177431Y-47800267D01*
X115243752Y-47755952D01*
X115288067Y-47689631D01*
X115288067Y-47689629D01*
X115288068Y-47689629D01*
X115299699Y-47631152D01*
X115299700Y-47631150D01*
X115299700Y-47327448D01*
X115319385Y-47260409D01*
X115372189Y-47214654D01*
X115441347Y-47204710D01*
X115504903Y-47233735D01*
X115535138Y-47275664D01*
X115535894Y-47275279D01*
X115634575Y-47468950D01*
X115673928Y-47523116D01*
X116306237Y-46890808D01*
X116323275Y-46954393D01*
X116389101Y-47068407D01*
X116482193Y-47161499D01*
X116596207Y-47227325D01*
X116659790Y-47244362D01*
X116027482Y-47876669D01*
X116027482Y-47876670D01*
X116081649Y-47916024D01*
X116270982Y-48012495D01*
X116473070Y-48078157D01*
X116682954Y-48111400D01*
X116895446Y-48111400D01*
X117105327Y-48078157D01*
X117105330Y-48078157D01*
X117307417Y-48012495D01*
X117496754Y-47916022D01*
X117550916Y-47876670D01*
X117550917Y-47876670D01*
X116918608Y-47244362D01*
X116982193Y-47227325D01*
X117096207Y-47161499D01*
X117189299Y-47068407D01*
X117255125Y-46954393D01*
X117272162Y-46890809D01*
X117904470Y-47523117D01*
X117904470Y-47523116D01*
X117943822Y-47468954D01*
X118040295Y-47279617D01*
X118097543Y-47103426D01*
X118136980Y-47045751D01*
X118201339Y-47018552D01*
X118270185Y-47030466D01*
X118321661Y-47077710D01*
X118330035Y-47094291D01*
X118398258Y-47258996D01*
X118513224Y-47431057D01*
X118659542Y-47577375D01*
X118659545Y-47577377D01*
X118831602Y-47692341D01*
X119022780Y-47771530D01*
X119167252Y-47800267D01*
X119225730Y-47811899D01*
X119225734Y-47811900D01*
X119225735Y-47811900D01*
X119432666Y-47811900D01*
X119432667Y-47811899D01*
X119635620Y-47771530D01*
X119826798Y-47692341D01*
X119998855Y-47577377D01*
X120145177Y-47431055D01*
X120260141Y-47258998D01*
X120339330Y-47067820D01*
X120379700Y-46864865D01*
X120379700Y-46657935D01*
X120339330Y-46454980D01*
X120260141Y-46263802D01*
X120145177Y-46091745D01*
X120145175Y-46091742D01*
X119998857Y-45945424D01*
X119918373Y-45891647D01*
X119826798Y-45830459D01*
X119826795Y-45830457D01*
X119826794Y-45830457D01*
X119811353Y-45824061D01*
X119756949Y-45780221D01*
X119734884Y-45713927D01*
X119752163Y-45646227D01*
X119803300Y-45598616D01*
X119858805Y-45585500D01*
X121339595Y-45585500D01*
X121406634Y-45605185D01*
X121452389Y-45657989D01*
X121462333Y-45727147D01*
X121433308Y-45790703D01*
X121387047Y-45824061D01*
X121371605Y-45830457D01*
X121199542Y-45945424D01*
X121053224Y-46091742D01*
X120938258Y-46263803D01*
X120859070Y-46454979D01*
X120859068Y-46454987D01*
X120818700Y-46657930D01*
X120818700Y-46864869D01*
X120859068Y-47067812D01*
X120859070Y-47067820D01*
X120938258Y-47258996D01*
X121053224Y-47431057D01*
X121199542Y-47577375D01*
X121199545Y-47577377D01*
X121371602Y-47692341D01*
X121562780Y-47771530D01*
X121707252Y-47800267D01*
X121765730Y-47811899D01*
X121765734Y-47811900D01*
X121765735Y-47811900D01*
X121972666Y-47811900D01*
X121972667Y-47811899D01*
X122175620Y-47771530D01*
X122366798Y-47692341D01*
X122538855Y-47577377D01*
X122685177Y-47431055D01*
X122800141Y-47258998D01*
X122879330Y-47067820D01*
X122919700Y-46864865D01*
X122919700Y-46657935D01*
X122879330Y-46454980D01*
X122800141Y-46263802D01*
X122685177Y-46091745D01*
X122685175Y-46091742D01*
X122538857Y-45945424D01*
X122458373Y-45891647D01*
X122366798Y-45830459D01*
X122366795Y-45830457D01*
X122366794Y-45830457D01*
X122351353Y-45824061D01*
X122296949Y-45780221D01*
X122274884Y-45713927D01*
X122292163Y-45646227D01*
X122343300Y-45598616D01*
X122398805Y-45585500D01*
X123879595Y-45585500D01*
X123946634Y-45605185D01*
X123992389Y-45657989D01*
X124002333Y-45727147D01*
X123973308Y-45790703D01*
X123927047Y-45824061D01*
X123911605Y-45830457D01*
X123739542Y-45945424D01*
X123593224Y-46091742D01*
X123478258Y-46263803D01*
X123399070Y-46454979D01*
X123399068Y-46454987D01*
X123358700Y-46657930D01*
X123358700Y-46864869D01*
X123399068Y-47067812D01*
X123399070Y-47067820D01*
X123478258Y-47258996D01*
X123593224Y-47431057D01*
X123739542Y-47577375D01*
X123739545Y-47577377D01*
X123911602Y-47692341D01*
X124102780Y-47771530D01*
X124247252Y-47800267D01*
X124305730Y-47811899D01*
X124305734Y-47811900D01*
X124305735Y-47811900D01*
X124512666Y-47811900D01*
X124512667Y-47811899D01*
X124715620Y-47771530D01*
X124906798Y-47692341D01*
X125078855Y-47577377D01*
X125225177Y-47431055D01*
X125340141Y-47258998D01*
X125419330Y-47067820D01*
X125459700Y-46864865D01*
X125459700Y-46657935D01*
X125419330Y-46454980D01*
X125340141Y-46263802D01*
X125225177Y-46091745D01*
X125225175Y-46091742D01*
X125078857Y-45945424D01*
X124998373Y-45891647D01*
X124906798Y-45830459D01*
X124906795Y-45830457D01*
X124906794Y-45830457D01*
X124891353Y-45824061D01*
X124836949Y-45780221D01*
X124814884Y-45713927D01*
X124832163Y-45646227D01*
X124883300Y-45598616D01*
X124938805Y-45585500D01*
X126419595Y-45585500D01*
X126486634Y-45605185D01*
X126532389Y-45657989D01*
X126542333Y-45727147D01*
X126513308Y-45790703D01*
X126467047Y-45824061D01*
X126451605Y-45830457D01*
X126279542Y-45945424D01*
X126133224Y-46091742D01*
X126018258Y-46263803D01*
X125939070Y-46454979D01*
X125939068Y-46454987D01*
X125898700Y-46657930D01*
X125898700Y-46864869D01*
X125939068Y-47067812D01*
X125939070Y-47067820D01*
X126018258Y-47258996D01*
X126133224Y-47431057D01*
X126279542Y-47577375D01*
X126279545Y-47577377D01*
X126451602Y-47692341D01*
X126642780Y-47771530D01*
X126787252Y-47800267D01*
X126845730Y-47811899D01*
X126845734Y-47811900D01*
X126845735Y-47811900D01*
X127052666Y-47811900D01*
X127052667Y-47811899D01*
X127255620Y-47771530D01*
X127446798Y-47692341D01*
X127618855Y-47577377D01*
X127765177Y-47431055D01*
X127880141Y-47258998D01*
X127959330Y-47067820D01*
X127999700Y-46864865D01*
X127999700Y-46657935D01*
X127959330Y-46454980D01*
X127880141Y-46263802D01*
X127765177Y-46091745D01*
X127765175Y-46091742D01*
X127618857Y-45945424D01*
X127538373Y-45891647D01*
X127446798Y-45830459D01*
X127446795Y-45830457D01*
X127446794Y-45830457D01*
X127431353Y-45824061D01*
X127376949Y-45780221D01*
X127354884Y-45713927D01*
X127372163Y-45646227D01*
X127423300Y-45598616D01*
X127478805Y-45585500D01*
X128959595Y-45585500D01*
X129026634Y-45605185D01*
X129072389Y-45657989D01*
X129082333Y-45727147D01*
X129053308Y-45790703D01*
X129007047Y-45824061D01*
X128991605Y-45830457D01*
X128819542Y-45945424D01*
X128673224Y-46091742D01*
X128558258Y-46263803D01*
X128479070Y-46454979D01*
X128479068Y-46454987D01*
X128438700Y-46657930D01*
X128438700Y-46864869D01*
X128479068Y-47067812D01*
X128479070Y-47067820D01*
X128558258Y-47258996D01*
X128673224Y-47431057D01*
X128819542Y-47577375D01*
X128819545Y-47577377D01*
X128991602Y-47692341D01*
X129182780Y-47771530D01*
X129327252Y-47800267D01*
X129385730Y-47811899D01*
X129385734Y-47811900D01*
X129385735Y-47811900D01*
X129592666Y-47811900D01*
X129592667Y-47811899D01*
X129795620Y-47771530D01*
X129986798Y-47692341D01*
X130158855Y-47577377D01*
X130305177Y-47431055D01*
X130420141Y-47258998D01*
X130499330Y-47067820D01*
X130539700Y-46864865D01*
X130539700Y-46657935D01*
X130499330Y-46454980D01*
X130420141Y-46263802D01*
X130305177Y-46091745D01*
X130305175Y-46091742D01*
X130158857Y-45945424D01*
X130078373Y-45891647D01*
X129986798Y-45830459D01*
X129986795Y-45830457D01*
X129986794Y-45830457D01*
X129971353Y-45824061D01*
X129916949Y-45780221D01*
X129894884Y-45713927D01*
X129912163Y-45646227D01*
X129963300Y-45598616D01*
X130018805Y-45585500D01*
X138440500Y-45585500D01*
X138507539Y-45605185D01*
X138553294Y-45657989D01*
X138564500Y-45709500D01*
X138564500Y-53851000D01*
X138544815Y-53918039D01*
X138492011Y-53963794D01*
X138440500Y-53975000D01*
X124170329Y-53975000D01*
X124103290Y-53955315D01*
X124057535Y-53902511D01*
X124047591Y-53833353D01*
X124076616Y-53769797D01*
X124108328Y-53743613D01*
X124157714Y-53715100D01*
X124250900Y-53621914D01*
X124316792Y-53507786D01*
X124350900Y-53380492D01*
X124350900Y-53248708D01*
X124316792Y-53121414D01*
X124250900Y-53007286D01*
X124157714Y-52914100D01*
X124095883Y-52878402D01*
X124043587Y-52848208D01*
X123979939Y-52831154D01*
X123916292Y-52814100D01*
X123784508Y-52814100D01*
X123657212Y-52848208D01*
X123543086Y-52914100D01*
X123543083Y-52914102D01*
X123449902Y-53007283D01*
X123449900Y-53007286D01*
X123384008Y-53121412D01*
X123349900Y-53248708D01*
X123349900Y-53380491D01*
X123384008Y-53507787D01*
X123416954Y-53564850D01*
X123449900Y-53621914D01*
X123543086Y-53715100D01*
X123592472Y-53743613D01*
X123640687Y-53794181D01*
X123653909Y-53862788D01*
X123627941Y-53927652D01*
X123571027Y-53968180D01*
X123530471Y-53975000D01*
X123190000Y-53975000D01*
X123190000Y-66040000D01*
X138440500Y-66040000D01*
X138507539Y-66059685D01*
X138553294Y-66112489D01*
X138564500Y-66164000D01*
X138564500Y-106080495D01*
X138544815Y-106147534D01*
X138492011Y-106193289D01*
X138422853Y-106203233D01*
X138408407Y-106200270D01*
X138330892Y-106179500D01*
X138199108Y-106179500D01*
X138071812Y-106213608D01*
X137957686Y-106279500D01*
X137957683Y-106279502D01*
X137864502Y-106372683D01*
X137864500Y-106372686D01*
X137798608Y-106486812D01*
X137777449Y-106565782D01*
X137764500Y-106614108D01*
X137764500Y-106745892D01*
X137775242Y-106785981D01*
X137798608Y-106873187D01*
X137822461Y-106914500D01*
X137864500Y-106987314D01*
X137957686Y-107080500D01*
X138071814Y-107146392D01*
X138199108Y-107180500D01*
X138199110Y-107180500D01*
X138330889Y-107180500D01*
X138330892Y-107180500D01*
X138408410Y-107159729D01*
X138478256Y-107161392D01*
X138536118Y-107200554D01*
X138563623Y-107264782D01*
X138564500Y-107279504D01*
X138564500Y-112653484D01*
X138544815Y-112720523D01*
X138492011Y-112766278D01*
X138422853Y-112776222D01*
X138408407Y-112773259D01*
X138332898Y-112753027D01*
X138285157Y-112740235D01*
X138153373Y-112740235D01*
X138026077Y-112774343D01*
X137911951Y-112840235D01*
X137911948Y-112840237D01*
X137818767Y-112933418D01*
X137818765Y-112933421D01*
X137752873Y-113047547D01*
X137738944Y-113099533D01*
X137718765Y-113174843D01*
X137718765Y-113306627D01*
X137735129Y-113367700D01*
X137752873Y-113433922D01*
X137785819Y-113490985D01*
X137818765Y-113548049D01*
X137911951Y-113641235D01*
X138026079Y-113707127D01*
X138153373Y-113741235D01*
X138153375Y-113741235D01*
X138285155Y-113741235D01*
X138285157Y-113741235D01*
X138408408Y-113708210D01*
X138478256Y-113709873D01*
X138536119Y-113749036D01*
X138563623Y-113813264D01*
X138564500Y-113827985D01*
X138564500Y-123289461D01*
X138544815Y-123356500D01*
X138492011Y-123402255D01*
X138422853Y-123412199D01*
X138359297Y-123383174D01*
X138333113Y-123351462D01*
X138318523Y-123326192D01*
X138297100Y-123289086D01*
X138203914Y-123195900D01*
X138146850Y-123162954D01*
X138089787Y-123130008D01*
X138000589Y-123106108D01*
X137962492Y-123095900D01*
X137830708Y-123095900D01*
X137703412Y-123130008D01*
X137589286Y-123195900D01*
X137589283Y-123195902D01*
X137496102Y-123289083D01*
X137496100Y-123289086D01*
X137430208Y-123403212D01*
X137396100Y-123530508D01*
X137396100Y-123662291D01*
X137430208Y-123789587D01*
X137439608Y-123805868D01*
X137496100Y-123903714D01*
X137589286Y-123996900D01*
X137703414Y-124062792D01*
X137830708Y-124096900D01*
X137830710Y-124096900D01*
X137962490Y-124096900D01*
X137962492Y-124096900D01*
X138089786Y-124062792D01*
X138203914Y-123996900D01*
X138297100Y-123903714D01*
X138333113Y-123841338D01*
X138383680Y-123793122D01*
X138452287Y-123779900D01*
X138517152Y-123805868D01*
X138557680Y-123862782D01*
X138564500Y-123903338D01*
X138564500Y-125986145D01*
X138544815Y-126053184D01*
X138492011Y-126098939D01*
X138422853Y-126108883D01*
X138359297Y-126079858D01*
X138321523Y-126021080D01*
X138318883Y-126010337D01*
X138294541Y-125887969D01*
X138294540Y-125887968D01*
X138294540Y-125887964D01*
X138243620Y-125765031D01*
X138194297Y-125691214D01*
X138169698Y-125654398D01*
X138169692Y-125654390D01*
X138075609Y-125560307D01*
X138075601Y-125560301D01*
X137964979Y-125486386D01*
X137964972Y-125486382D01*
X137964969Y-125486380D01*
X137964965Y-125486378D01*
X137964961Y-125486376D01*
X137842040Y-125435461D01*
X137842030Y-125435458D01*
X137711533Y-125409500D01*
X137711531Y-125409500D01*
X137578469Y-125409500D01*
X137578467Y-125409500D01*
X137447969Y-125435458D01*
X137447959Y-125435461D01*
X137325038Y-125486376D01*
X137325020Y-125486386D01*
X137214398Y-125560301D01*
X137214390Y-125560307D01*
X137120307Y-125654390D01*
X137120301Y-125654398D01*
X137046386Y-125765020D01*
X137046376Y-125765038D01*
X136995461Y-125887959D01*
X136995458Y-125887969D01*
X136969500Y-126018466D01*
X136969500Y-126018469D01*
X136969500Y-127001531D01*
X136969500Y-127001533D01*
X136969499Y-127001533D01*
X136995458Y-127132030D01*
X136995461Y-127132040D01*
X137046376Y-127254961D01*
X137046386Y-127254979D01*
X137120301Y-127365601D01*
X137120307Y-127365609D01*
X137130166Y-127375468D01*
X137163651Y-127436791D01*
X137158667Y-127506483D01*
X137130167Y-127550830D01*
X137067721Y-127613276D01*
X136973007Y-127755025D01*
X136973002Y-127755035D01*
X136907760Y-127912542D01*
X136907758Y-127912550D01*
X136874500Y-128079751D01*
X136874500Y-128900248D01*
X136907758Y-129067449D01*
X136907760Y-129067457D01*
X136973002Y-129224964D01*
X136973007Y-129224974D01*
X137067721Y-129366723D01*
X137067724Y-129366727D01*
X137188272Y-129487275D01*
X137188276Y-129487278D01*
X137330025Y-129581992D01*
X137330029Y-129581994D01*
X137330032Y-129581996D01*
X137487543Y-129647240D01*
X137654751Y-129680499D01*
X137654755Y-129680500D01*
X137654756Y-129680500D01*
X137825245Y-129680500D01*
X137825246Y-129680499D01*
X137992457Y-129647240D01*
X138149968Y-129581996D01*
X138291724Y-129487278D01*
X138320303Y-129458699D01*
X138352819Y-129426184D01*
X138414142Y-129392699D01*
X138483834Y-129397683D01*
X138539767Y-129439555D01*
X138564184Y-129505019D01*
X138564500Y-129513865D01*
X138564500Y-130119836D01*
X138544815Y-130186875D01*
X138492011Y-130232630D01*
X138422853Y-130242574D01*
X138360408Y-130214056D01*
X138360316Y-130214170D01*
X138359888Y-130213819D01*
X138359297Y-130213549D01*
X138357348Y-130211734D01*
X138355601Y-130210301D01*
X138244979Y-130136386D01*
X138244972Y-130136382D01*
X138244969Y-130136380D01*
X138244965Y-130136378D01*
X138244961Y-130136376D01*
X138122040Y-130085461D01*
X138122030Y-130085458D01*
X137991533Y-130059500D01*
X137991531Y-130059500D01*
X137858469Y-130059500D01*
X137858467Y-130059500D01*
X137727969Y-130085458D01*
X137727959Y-130085461D01*
X137605038Y-130136376D01*
X137605020Y-130136386D01*
X137494398Y-130210301D01*
X137494390Y-130210307D01*
X137400307Y-130304390D01*
X137400301Y-130304398D01*
X137326386Y-130415020D01*
X137326376Y-130415038D01*
X137275461Y-130537959D01*
X137275458Y-130537969D01*
X137249500Y-130668466D01*
X137249500Y-130668469D01*
X137249500Y-132131531D01*
X137249500Y-132131533D01*
X137249499Y-132131533D01*
X137275458Y-132262030D01*
X137275461Y-132262040D01*
X137326376Y-132384961D01*
X137326386Y-132384979D01*
X137400301Y-132495601D01*
X137400307Y-132495609D01*
X137494390Y-132589692D01*
X137494398Y-132589698D01*
X137605020Y-132663613D01*
X137605023Y-132663614D01*
X137605031Y-132663620D01*
X137605037Y-132663622D01*
X137605038Y-132663623D01*
X137649646Y-132682100D01*
X137727964Y-132714540D01*
X137727968Y-132714540D01*
X137727969Y-132714541D01*
X137858466Y-132740500D01*
X137858469Y-132740500D01*
X137991533Y-132740500D01*
X138079325Y-132723035D01*
X138122036Y-132714540D01*
X138244969Y-132663620D01*
X138355606Y-132589695D01*
X138355612Y-132589688D01*
X138360316Y-132585830D01*
X138361766Y-132587597D01*
X138414142Y-132558998D01*
X138483834Y-132563982D01*
X138539767Y-132605854D01*
X138564184Y-132671318D01*
X138564500Y-132680164D01*
X138564500Y-134630500D01*
X138544815Y-134697539D01*
X138492011Y-134743294D01*
X138440500Y-134754500D01*
X126735905Y-134754500D01*
X126668866Y-134734815D01*
X126623111Y-134682011D01*
X126613167Y-134612853D01*
X126616130Y-134598407D01*
X126636900Y-134520892D01*
X126636900Y-134389108D01*
X126602792Y-134261814D01*
X126536900Y-134147686D01*
X126443714Y-134054500D01*
X126386650Y-134021554D01*
X126329587Y-133988608D01*
X126265939Y-133971554D01*
X126202292Y-133954500D01*
X126070508Y-133954500D01*
X125943212Y-133988608D01*
X125829086Y-134054500D01*
X125829083Y-134054502D01*
X125735902Y-134147683D01*
X125735900Y-134147686D01*
X125670008Y-134261812D01*
X125635900Y-134389108D01*
X125635900Y-134520891D01*
X125656670Y-134598407D01*
X125655007Y-134668257D01*
X125615844Y-134726119D01*
X125551616Y-134753623D01*
X125536895Y-134754500D01*
X105534000Y-134754500D01*
X105466961Y-134734815D01*
X105421206Y-134682011D01*
X105410000Y-134630500D01*
X105410000Y-132115708D01*
X106052500Y-132115708D01*
X106052500Y-132247492D01*
X106056397Y-132262036D01*
X106086608Y-132374787D01*
X106101747Y-132401008D01*
X106152500Y-132488914D01*
X106245686Y-132582100D01*
X106359814Y-132647992D01*
X106487108Y-132682100D01*
X106487110Y-132682100D01*
X106618890Y-132682100D01*
X106618892Y-132682100D01*
X106746186Y-132647992D01*
X106860314Y-132582100D01*
X106953500Y-132488914D01*
X107017243Y-132378508D01*
X110183900Y-132378508D01*
X110183900Y-132510291D01*
X110218008Y-132637587D01*
X110237483Y-132671318D01*
X110283900Y-132751714D01*
X110377086Y-132844900D01*
X110491214Y-132910792D01*
X110618508Y-132944900D01*
X110618510Y-132944900D01*
X110750290Y-132944900D01*
X110750292Y-132944900D01*
X110877586Y-132910792D01*
X110991714Y-132844900D01*
X111035106Y-132801508D01*
X114612300Y-132801508D01*
X114612300Y-132933292D01*
X114629354Y-132996939D01*
X114646408Y-133060587D01*
X114679354Y-133117650D01*
X114712300Y-133174714D01*
X114805486Y-133267900D01*
X114919614Y-133333792D01*
X115046908Y-133367900D01*
X115046910Y-133367900D01*
X115178690Y-133367900D01*
X115178692Y-133367900D01*
X115305986Y-133333792D01*
X115420114Y-133267900D01*
X115513300Y-133174714D01*
X115579192Y-133060586D01*
X115613300Y-132933292D01*
X115613300Y-132801508D01*
X115579192Y-132674214D01*
X115573071Y-132663613D01*
X115539724Y-132605854D01*
X115513300Y-132560086D01*
X115420114Y-132466900D01*
X115363050Y-132433954D01*
X115305987Y-132401008D01*
X115242339Y-132383954D01*
X115178692Y-132366900D01*
X115046908Y-132366900D01*
X114919612Y-132401008D01*
X114805486Y-132466900D01*
X114805483Y-132466902D01*
X114712302Y-132560083D01*
X114712300Y-132560086D01*
X114646408Y-132674212D01*
X114612300Y-132801508D01*
X111035106Y-132801508D01*
X111084900Y-132751714D01*
X111150792Y-132637586D01*
X111184900Y-132510292D01*
X111184900Y-132378508D01*
X111150792Y-132251214D01*
X111084900Y-132137086D01*
X111079347Y-132131533D01*
X128099499Y-132131533D01*
X128125458Y-132262030D01*
X128125461Y-132262040D01*
X128176376Y-132384961D01*
X128176386Y-132384979D01*
X128250301Y-132495601D01*
X128250307Y-132495609D01*
X128344390Y-132589692D01*
X128344398Y-132589698D01*
X128455020Y-132663613D01*
X128455023Y-132663614D01*
X128455031Y-132663620D01*
X128455037Y-132663622D01*
X128455038Y-132663623D01*
X128499646Y-132682100D01*
X128577964Y-132714540D01*
X128577968Y-132714540D01*
X128577969Y-132714541D01*
X128708466Y-132740500D01*
X128708469Y-132740500D01*
X128841533Y-132740500D01*
X128929325Y-132723035D01*
X128972036Y-132714540D01*
X129094969Y-132663620D01*
X129205606Y-132589695D01*
X129299695Y-132495606D01*
X129373620Y-132384969D01*
X129424540Y-132262036D01*
X129450500Y-132131531D01*
X129450500Y-130668469D01*
X129450500Y-130668466D01*
X129424541Y-130537969D01*
X129424540Y-130537968D01*
X129424540Y-130537964D01*
X129373620Y-130415031D01*
X129369924Y-130409500D01*
X129299698Y-130304398D01*
X129299692Y-130304390D01*
X129205609Y-130210307D01*
X129205601Y-130210301D01*
X129094979Y-130136386D01*
X129094972Y-130136382D01*
X129094969Y-130136380D01*
X129094965Y-130136378D01*
X129094961Y-130136376D01*
X128972040Y-130085461D01*
X128972030Y-130085458D01*
X128841533Y-130059500D01*
X128841531Y-130059500D01*
X128708469Y-130059500D01*
X128708467Y-130059500D01*
X128577969Y-130085458D01*
X128577959Y-130085461D01*
X128455038Y-130136376D01*
X128455020Y-130136386D01*
X128344398Y-130210301D01*
X128344390Y-130210307D01*
X128250307Y-130304390D01*
X128250301Y-130304398D01*
X128176386Y-130415020D01*
X128176376Y-130415038D01*
X128125461Y-130537959D01*
X128125458Y-130537969D01*
X128099500Y-130668466D01*
X128099500Y-130668469D01*
X128099500Y-132131531D01*
X128099500Y-132131533D01*
X128099499Y-132131533D01*
X111079347Y-132131533D01*
X110991714Y-132043900D01*
X110895610Y-131988414D01*
X110877587Y-131978008D01*
X110813939Y-131960954D01*
X110750292Y-131943900D01*
X110618508Y-131943900D01*
X110491212Y-131978008D01*
X110377086Y-132043900D01*
X110377083Y-132043902D01*
X110283902Y-132137083D01*
X110283900Y-132137086D01*
X110218008Y-132251212D01*
X110183900Y-132378508D01*
X107017243Y-132378508D01*
X107019392Y-132374786D01*
X107053500Y-132247492D01*
X107053500Y-132115708D01*
X107019392Y-131988414D01*
X106953500Y-131874286D01*
X106860314Y-131781100D01*
X106803250Y-131748154D01*
X106746187Y-131715208D01*
X106682539Y-131698154D01*
X106618892Y-131681100D01*
X106487108Y-131681100D01*
X106359812Y-131715208D01*
X106245686Y-131781100D01*
X106245683Y-131781102D01*
X106152502Y-131874283D01*
X106152500Y-131874286D01*
X106086608Y-131988412D01*
X106071740Y-132043902D01*
X106052500Y-132115708D01*
X105410000Y-132115708D01*
X105410000Y-130744108D01*
X120149500Y-130744108D01*
X120149500Y-130875891D01*
X120183608Y-131003187D01*
X120216554Y-131060250D01*
X120249500Y-131117314D01*
X120342686Y-131210500D01*
X120456814Y-131276392D01*
X120584108Y-131310500D01*
X120584110Y-131310500D01*
X120715890Y-131310500D01*
X120715892Y-131310500D01*
X120843186Y-131276392D01*
X120957314Y-131210500D01*
X121050500Y-131117314D01*
X121116392Y-131003186D01*
X121150500Y-130875892D01*
X121150500Y-130820308D01*
X123730900Y-130820308D01*
X123730900Y-130952092D01*
X123744591Y-131003187D01*
X123765008Y-131079387D01*
X123786905Y-131117313D01*
X123830900Y-131193514D01*
X123924086Y-131286700D01*
X124038214Y-131352592D01*
X124165508Y-131386700D01*
X124165510Y-131386700D01*
X124297290Y-131386700D01*
X124297292Y-131386700D01*
X124424586Y-131352592D01*
X124538714Y-131286700D01*
X124631900Y-131193514D01*
X124697792Y-131079386D01*
X124731900Y-130952092D01*
X124731900Y-130820308D01*
X124697792Y-130693014D01*
X124631900Y-130578886D01*
X124538714Y-130485700D01*
X124481650Y-130452754D01*
X124424587Y-130419808D01*
X124360939Y-130402754D01*
X124297292Y-130385700D01*
X124165508Y-130385700D01*
X124038212Y-130419808D01*
X123924086Y-130485700D01*
X123924083Y-130485702D01*
X123830902Y-130578883D01*
X123830900Y-130578886D01*
X123765008Y-130693012D01*
X123751317Y-130744110D01*
X123730900Y-130820308D01*
X121150500Y-130820308D01*
X121150500Y-130744108D01*
X121116392Y-130616814D01*
X121050500Y-130502686D01*
X120957314Y-130409500D01*
X120900250Y-130376554D01*
X120843187Y-130343608D01*
X120779539Y-130326554D01*
X120715892Y-130309500D01*
X120584108Y-130309500D01*
X120456812Y-130343608D01*
X120342686Y-130409500D01*
X120342683Y-130409502D01*
X120249502Y-130502683D01*
X120249500Y-130502686D01*
X120183608Y-130616812D01*
X120149500Y-130744108D01*
X105410000Y-130744108D01*
X105410000Y-129634106D01*
X116974500Y-129634106D01*
X116974500Y-129765889D01*
X117008608Y-129893185D01*
X117041554Y-129950248D01*
X117074500Y-130007312D01*
X117167686Y-130100498D01*
X117281814Y-130166390D01*
X117409108Y-130200498D01*
X117409110Y-130200498D01*
X117540890Y-130200498D01*
X117540892Y-130200498D01*
X117668186Y-130166390D01*
X117782314Y-130100498D01*
X117875500Y-130007312D01*
X117941392Y-129893184D01*
X117975500Y-129765890D01*
X117975500Y-129634106D01*
X117941392Y-129506812D01*
X117875500Y-129392684D01*
X117782314Y-129299498D01*
X117725250Y-129266552D01*
X117668187Y-129233606D01*
X117604539Y-129216552D01*
X117540892Y-129199498D01*
X117409108Y-129199498D01*
X117281812Y-129233606D01*
X117167686Y-129299498D01*
X117167683Y-129299500D01*
X117074502Y-129392681D01*
X117074500Y-129392684D01*
X117008608Y-129506810D01*
X116974500Y-129634106D01*
X105410000Y-129634106D01*
X105410000Y-128712108D01*
X118117500Y-128712108D01*
X118117500Y-128843891D01*
X118151608Y-128971187D01*
X118184554Y-129028250D01*
X118217500Y-129085314D01*
X118310686Y-129178500D01*
X118391164Y-129224964D01*
X118423251Y-129243490D01*
X118424814Y-129244392D01*
X118552108Y-129278500D01*
X118552110Y-129278500D01*
X118683890Y-129278500D01*
X118683892Y-129278500D01*
X118811186Y-129244392D01*
X118925314Y-129178500D01*
X119018500Y-129085314D01*
X119084392Y-128971186D01*
X119118500Y-128843892D01*
X119118500Y-128712108D01*
X119084392Y-128584814D01*
X119018500Y-128470686D01*
X118925314Y-128377500D01*
X118861227Y-128340499D01*
X118811187Y-128311608D01*
X118747539Y-128294554D01*
X118683892Y-128277500D01*
X118552108Y-128277500D01*
X118424812Y-128311608D01*
X118310686Y-128377500D01*
X118310683Y-128377502D01*
X118217502Y-128470683D01*
X118217500Y-128470686D01*
X118151608Y-128584812D01*
X118117500Y-128712108D01*
X105410000Y-128712108D01*
X105410000Y-127774108D01*
X125483500Y-127774108D01*
X125483500Y-127905891D01*
X125517608Y-128033187D01*
X125544492Y-128079751D01*
X125583500Y-128147314D01*
X125676686Y-128240500D01*
X125790814Y-128306392D01*
X125918108Y-128340500D01*
X125918110Y-128340500D01*
X126049890Y-128340500D01*
X126049892Y-128340500D01*
X126177186Y-128306392D01*
X126291314Y-128240500D01*
X126384500Y-128147314D01*
X126423508Y-128079751D01*
X128094500Y-128079751D01*
X128094500Y-128900248D01*
X128127758Y-129067449D01*
X128127760Y-129067457D01*
X128193002Y-129224964D01*
X128193007Y-129224974D01*
X128287721Y-129366723D01*
X128287724Y-129366727D01*
X128408272Y-129487275D01*
X128408276Y-129487278D01*
X128550025Y-129581992D01*
X128550029Y-129581994D01*
X128550032Y-129581996D01*
X128707543Y-129647240D01*
X128874751Y-129680499D01*
X128874755Y-129680500D01*
X128874756Y-129680500D01*
X129045245Y-129680500D01*
X129045246Y-129680499D01*
X129212457Y-129647240D01*
X129369968Y-129581996D01*
X129511724Y-129487278D01*
X129566095Y-129432907D01*
X129627418Y-129399421D01*
X129697110Y-129404405D01*
X129715768Y-129413195D01*
X129753212Y-129434814D01*
X129842356Y-129458700D01*
X129842358Y-129458700D01*
X129934642Y-129458700D01*
X129934644Y-129458700D01*
X130023788Y-129434814D01*
X130103712Y-129388669D01*
X130168969Y-129323412D01*
X130215114Y-129243488D01*
X130239000Y-129154344D01*
X130239000Y-129062056D01*
X130215114Y-128972912D01*
X130215111Y-128972906D01*
X130168973Y-128892994D01*
X130168970Y-128892991D01*
X130168969Y-128892988D01*
X130103712Y-128827731D01*
X130103709Y-128827729D01*
X130103705Y-128827726D01*
X130023793Y-128781588D01*
X130023790Y-128781587D01*
X130023789Y-128781586D01*
X130023788Y-128781586D01*
X129934644Y-128757700D01*
X129934643Y-128757700D01*
X129933312Y-128757525D01*
X129932271Y-128757064D01*
X129926794Y-128755597D01*
X129927022Y-128754742D01*
X129869416Y-128729257D01*
X129830946Y-128670932D01*
X129825500Y-128634586D01*
X129825500Y-128079755D01*
X129825499Y-128079751D01*
X129817028Y-128037164D01*
X129792240Y-127912543D01*
X129726996Y-127755032D01*
X129726994Y-127755029D01*
X129726992Y-127755025D01*
X129632278Y-127613276D01*
X129632275Y-127613272D01*
X129569833Y-127550830D01*
X129536348Y-127489507D01*
X129541332Y-127419815D01*
X129552796Y-127396740D01*
X129560136Y-127385164D01*
X129579695Y-127365606D01*
X129643031Y-127270817D01*
X130024500Y-127270817D01*
X130024500Y-127409183D01*
X130057593Y-127532686D01*
X130060312Y-127542835D01*
X130060313Y-127542838D01*
X130129492Y-127662661D01*
X130129494Y-127662664D01*
X130129495Y-127662665D01*
X130227335Y-127760505D01*
X130227336Y-127760506D01*
X130227338Y-127760507D01*
X130287249Y-127795096D01*
X130347164Y-127829688D01*
X130392797Y-127841915D01*
X130452457Y-127878278D01*
X130482987Y-127941124D01*
X130474693Y-128010500D01*
X130468093Y-128023686D01*
X130460313Y-128037161D01*
X130460312Y-128037164D01*
X130424500Y-128170817D01*
X130424500Y-128309183D01*
X130442806Y-128377500D01*
X130460312Y-128442835D01*
X130460313Y-128442838D01*
X130529492Y-128562661D01*
X130529494Y-128562664D01*
X130529495Y-128562665D01*
X130627335Y-128660505D01*
X130747164Y-128729688D01*
X130880817Y-128765500D01*
X130880819Y-128765500D01*
X131019181Y-128765500D01*
X131019183Y-128765500D01*
X131152836Y-128729688D01*
X131272665Y-128660505D01*
X131272670Y-128660499D01*
X131274510Y-128659089D01*
X131276351Y-128658377D01*
X131279703Y-128656442D01*
X131280004Y-128656964D01*
X131339678Y-128633892D01*
X131408124Y-128647928D01*
X131425490Y-128659089D01*
X131427332Y-128660502D01*
X131427335Y-128660505D01*
X131547164Y-128729688D01*
X131680817Y-128765500D01*
X131680819Y-128765500D01*
X131819181Y-128765500D01*
X131819183Y-128765500D01*
X131952836Y-128729688D01*
X132072665Y-128660505D01*
X132072670Y-128660499D01*
X132074510Y-128659089D01*
X132076351Y-128658377D01*
X132079703Y-128656442D01*
X132080004Y-128656964D01*
X132139678Y-128633892D01*
X132208124Y-128647928D01*
X132225490Y-128659089D01*
X132227332Y-128660502D01*
X132227335Y-128660505D01*
X132347164Y-128729688D01*
X132480817Y-128765500D01*
X132480819Y-128765500D01*
X132619181Y-128765500D01*
X132619183Y-128765500D01*
X132752836Y-128729688D01*
X132872665Y-128660505D01*
X132970505Y-128562665D01*
X133039688Y-128442836D01*
X133075500Y-128309183D01*
X133075500Y-128170817D01*
X133039688Y-128037164D01*
X133031907Y-128023686D01*
X133015435Y-127955790D01*
X133038287Y-127889763D01*
X133084316Y-127850544D01*
X133095326Y-127845097D01*
X133152836Y-127829688D01*
X133272665Y-127760505D01*
X133278857Y-127754312D01*
X133295021Y-127746317D01*
X133317954Y-127742291D01*
X133339678Y-127733892D01*
X133351727Y-127736362D01*
X133363838Y-127734237D01*
X133385307Y-127743249D01*
X133408124Y-127747928D01*
X133425490Y-127759089D01*
X133427332Y-127760502D01*
X133427335Y-127760505D01*
X133547164Y-127829688D01*
X133592797Y-127841915D01*
X133652457Y-127878278D01*
X133682987Y-127941124D01*
X133674693Y-128010500D01*
X133668093Y-128023686D01*
X133660313Y-128037161D01*
X133660312Y-128037164D01*
X133624500Y-128170817D01*
X133624500Y-128309183D01*
X133642806Y-128377500D01*
X133660312Y-128442835D01*
X133660313Y-128442838D01*
X133729492Y-128562661D01*
X133729494Y-128562664D01*
X133729495Y-128562665D01*
X133827335Y-128660505D01*
X133947164Y-128729688D01*
X134080817Y-128765500D01*
X134080819Y-128765500D01*
X134219181Y-128765500D01*
X134219183Y-128765500D01*
X134352836Y-128729688D01*
X134472665Y-128660505D01*
X134472670Y-128660499D01*
X134474510Y-128659089D01*
X134476351Y-128658377D01*
X134479703Y-128656442D01*
X134480004Y-128656964D01*
X134539678Y-128633892D01*
X134608124Y-128647928D01*
X134625490Y-128659089D01*
X134627332Y-128660502D01*
X134627335Y-128660505D01*
X134747164Y-128729688D01*
X134880817Y-128765500D01*
X134880819Y-128765500D01*
X135019181Y-128765500D01*
X135019183Y-128765500D01*
X135152836Y-128729688D01*
X135272665Y-128660505D01*
X135272670Y-128660499D01*
X135274510Y-128659089D01*
X135276351Y-128658377D01*
X135279703Y-128656442D01*
X135280004Y-128656964D01*
X135339678Y-128633892D01*
X135408124Y-128647928D01*
X135425490Y-128659089D01*
X135427332Y-128660502D01*
X135427335Y-128660505D01*
X135547164Y-128729688D01*
X135680817Y-128765500D01*
X135680819Y-128765500D01*
X135819181Y-128765500D01*
X135819183Y-128765500D01*
X135952836Y-128729688D01*
X136072665Y-128660505D01*
X136170505Y-128562665D01*
X136239688Y-128442836D01*
X136275500Y-128309183D01*
X136275500Y-128170817D01*
X136239688Y-128037164D01*
X136231907Y-128023686D01*
X136215435Y-127955790D01*
X136238287Y-127889763D01*
X136293208Y-127846572D01*
X136307173Y-127841923D01*
X136352836Y-127829688D01*
X136472665Y-127760505D01*
X136570505Y-127662665D01*
X136639688Y-127542836D01*
X136675500Y-127409183D01*
X136675500Y-127270817D01*
X136639688Y-127137164D01*
X136570505Y-127017335D01*
X136472665Y-126919495D01*
X136472662Y-126919493D01*
X136472661Y-126919492D01*
X136352838Y-126850313D01*
X136352837Y-126850312D01*
X136352836Y-126850312D01*
X136219183Y-126814500D01*
X136080817Y-126814500D01*
X135947164Y-126850312D01*
X135947161Y-126850313D01*
X135827338Y-126919492D01*
X135827333Y-126919496D01*
X135729496Y-127017333D01*
X135729492Y-127017338D01*
X135660313Y-127137161D01*
X135660312Y-127137164D01*
X135624500Y-127270817D01*
X135624500Y-127409183D01*
X135660312Y-127542836D01*
X135668089Y-127556307D01*
X135668092Y-127556311D01*
X135684564Y-127624211D01*
X135661711Y-127690238D01*
X135615683Y-127729455D01*
X135604666Y-127734904D01*
X135547164Y-127750312D01*
X135427335Y-127819495D01*
X135421144Y-127825685D01*
X135404979Y-127833682D01*
X135382038Y-127837708D01*
X135360312Y-127846107D01*
X135348269Y-127843636D01*
X135336162Y-127845762D01*
X135314685Y-127836746D01*
X135291868Y-127832066D01*
X135274517Y-127820916D01*
X135272662Y-127819493D01*
X135152838Y-127750313D01*
X135152837Y-127750312D01*
X135152836Y-127750312D01*
X135107200Y-127738084D01*
X135047541Y-127701720D01*
X135017012Y-127638873D01*
X135025306Y-127569498D01*
X135031908Y-127556311D01*
X135039688Y-127542836D01*
X135075500Y-127409183D01*
X135075500Y-127270817D01*
X135039688Y-127137164D01*
X134970505Y-127017335D01*
X134872665Y-126919495D01*
X134872662Y-126919493D01*
X134872661Y-126919492D01*
X134752838Y-126850313D01*
X134752837Y-126850312D01*
X134752836Y-126850312D01*
X134619183Y-126814500D01*
X134480817Y-126814500D01*
X134347164Y-126850312D01*
X134347161Y-126850313D01*
X134227337Y-126919493D01*
X134225483Y-126920916D01*
X134223637Y-126921629D01*
X134220297Y-126923558D01*
X134219996Y-126923036D01*
X134160312Y-126946107D01*
X134091868Y-126932066D01*
X134074517Y-126920916D01*
X134072662Y-126919493D01*
X133952838Y-126850313D01*
X133952837Y-126850312D01*
X133952836Y-126850312D01*
X133819183Y-126814500D01*
X133680817Y-126814500D01*
X133547164Y-126850312D01*
X133547161Y-126850313D01*
X133427337Y-126919493D01*
X133425483Y-126920916D01*
X133423637Y-126921629D01*
X133420297Y-126923558D01*
X133419996Y-126923036D01*
X133360312Y-126946107D01*
X133291868Y-126932066D01*
X133274517Y-126920916D01*
X133272662Y-126919493D01*
X133152838Y-126850313D01*
X133152837Y-126850312D01*
X133019840Y-126814676D01*
X132960180Y-126778311D01*
X132932160Y-126726996D01*
X132914614Y-126661512D01*
X132914611Y-126661506D01*
X132868473Y-126581594D01*
X132868470Y-126581591D01*
X132868469Y-126581588D01*
X132803212Y-126516331D01*
X132803209Y-126516329D01*
X132803205Y-126516326D01*
X132723293Y-126470188D01*
X132723290Y-126470187D01*
X132723289Y-126470186D01*
X132723288Y-126470186D01*
X132634144Y-126446300D01*
X132541856Y-126446300D01*
X132452712Y-126470186D01*
X132452711Y-126470186D01*
X132452709Y-126470187D01*
X132452706Y-126470188D01*
X132372794Y-126516326D01*
X132372785Y-126516333D01*
X132307533Y-126581585D01*
X132307526Y-126581594D01*
X132261388Y-126661506D01*
X132261387Y-126661509D01*
X132261386Y-126661511D01*
X132261386Y-126661512D01*
X132245018Y-126722594D01*
X132208655Y-126782254D01*
X132145808Y-126812783D01*
X132125245Y-126814500D01*
X132080817Y-126814500D01*
X131947164Y-126850312D01*
X131947161Y-126850313D01*
X131827338Y-126919492D01*
X131827333Y-126919496D01*
X131729496Y-127017333D01*
X131729492Y-127017338D01*
X131660313Y-127137161D01*
X131660312Y-127137164D01*
X131624500Y-127270817D01*
X131624500Y-127409183D01*
X131660312Y-127542836D01*
X131668089Y-127556307D01*
X131668092Y-127556311D01*
X131684564Y-127624211D01*
X131661711Y-127690238D01*
X131615683Y-127729455D01*
X131604666Y-127734904D01*
X131547164Y-127750312D01*
X131427335Y-127819495D01*
X131421144Y-127825685D01*
X131404979Y-127833682D01*
X131382038Y-127837708D01*
X131360312Y-127846107D01*
X131348269Y-127843636D01*
X131336162Y-127845762D01*
X131314685Y-127836746D01*
X131291868Y-127832066D01*
X131274517Y-127820916D01*
X131272662Y-127819493D01*
X131152838Y-127750313D01*
X131152837Y-127750312D01*
X131152836Y-127750312D01*
X131107200Y-127738084D01*
X131047541Y-127701720D01*
X131017012Y-127638873D01*
X131025306Y-127569498D01*
X131031908Y-127556311D01*
X131039688Y-127542836D01*
X131075500Y-127409183D01*
X131075500Y-127270817D01*
X131039688Y-127137164D01*
X130970505Y-127017335D01*
X130872665Y-126919495D01*
X130872662Y-126919493D01*
X130872661Y-126919492D01*
X130752838Y-126850313D01*
X130752837Y-126850312D01*
X130752836Y-126850312D01*
X130619183Y-126814500D01*
X130480817Y-126814500D01*
X130347164Y-126850312D01*
X130347161Y-126850313D01*
X130227338Y-126919492D01*
X130227333Y-126919496D01*
X130129496Y-127017333D01*
X130129492Y-127017338D01*
X130060313Y-127137161D01*
X130060312Y-127137164D01*
X130024500Y-127270817D01*
X129643031Y-127270817D01*
X129653620Y-127254969D01*
X129704540Y-127132036D01*
X129713035Y-127089325D01*
X129730500Y-127001533D01*
X129730500Y-126018466D01*
X129704541Y-125887969D01*
X129704540Y-125887968D01*
X129704540Y-125887964D01*
X129653620Y-125765031D01*
X129604297Y-125691214D01*
X129579698Y-125654398D01*
X129579692Y-125654390D01*
X129485609Y-125560307D01*
X129485601Y-125560301D01*
X129374979Y-125486386D01*
X129374972Y-125486382D01*
X129374969Y-125486380D01*
X129374965Y-125486378D01*
X129374961Y-125486376D01*
X129252040Y-125435461D01*
X129252030Y-125435458D01*
X129121533Y-125409500D01*
X129121531Y-125409500D01*
X128988469Y-125409500D01*
X128988467Y-125409500D01*
X128857969Y-125435458D01*
X128857959Y-125435461D01*
X128735038Y-125486376D01*
X128735020Y-125486386D01*
X128624398Y-125560301D01*
X128624390Y-125560307D01*
X128530307Y-125654390D01*
X128530301Y-125654398D01*
X128456386Y-125765020D01*
X128456376Y-125765038D01*
X128405461Y-125887959D01*
X128405458Y-125887969D01*
X128379500Y-126018466D01*
X128379500Y-126018469D01*
X128379500Y-127001531D01*
X128379500Y-127001533D01*
X128379499Y-127001533D01*
X128405458Y-127132030D01*
X128405461Y-127132040D01*
X128456376Y-127254961D01*
X128456382Y-127254972D01*
X128482469Y-127294014D01*
X128503346Y-127360691D01*
X128484861Y-127428071D01*
X128448259Y-127466005D01*
X128408274Y-127492722D01*
X128287724Y-127613272D01*
X128287721Y-127613276D01*
X128193007Y-127755025D01*
X128193002Y-127755035D01*
X128127760Y-127912542D01*
X128127758Y-127912550D01*
X128094500Y-128079751D01*
X126423508Y-128079751D01*
X126450392Y-128033186D01*
X126484500Y-127905892D01*
X126484500Y-127774108D01*
X126450392Y-127646814D01*
X126384500Y-127532686D01*
X126291314Y-127439500D01*
X126234250Y-127406554D01*
X126177187Y-127373608D01*
X126113539Y-127356554D01*
X126049892Y-127339500D01*
X125918108Y-127339500D01*
X125790812Y-127373608D01*
X125676686Y-127439500D01*
X125676683Y-127439502D01*
X125583502Y-127532683D01*
X125583500Y-127532686D01*
X125517608Y-127646812D01*
X125483500Y-127774108D01*
X105410000Y-127774108D01*
X105410000Y-125048856D01*
X131729500Y-125048856D01*
X131729500Y-125141144D01*
X131744073Y-125195533D01*
X131753387Y-125230290D01*
X131753388Y-125230293D01*
X131799526Y-125310205D01*
X131799529Y-125310209D01*
X131799531Y-125310212D01*
X131864788Y-125375469D01*
X131864791Y-125375470D01*
X131864794Y-125375473D01*
X131944706Y-125421611D01*
X131944707Y-125421611D01*
X131944712Y-125421614D01*
X132033856Y-125445500D01*
X132033858Y-125445500D01*
X132126142Y-125445500D01*
X132126144Y-125445500D01*
X132184528Y-125429856D01*
X132745500Y-125429856D01*
X132745500Y-125522144D01*
X132755725Y-125560305D01*
X132769387Y-125611290D01*
X132769388Y-125611293D01*
X132815526Y-125691205D01*
X132815529Y-125691209D01*
X132815531Y-125691212D01*
X132880788Y-125756469D01*
X132880791Y-125756470D01*
X132880794Y-125756473D01*
X132960706Y-125802611D01*
X132960707Y-125802611D01*
X132960712Y-125802614D01*
X133049856Y-125826500D01*
X133049858Y-125826500D01*
X133142142Y-125826500D01*
X133142144Y-125826500D01*
X133231288Y-125802614D01*
X133311212Y-125756469D01*
X133376469Y-125691212D01*
X133422614Y-125611288D01*
X133446500Y-125522144D01*
X133446500Y-125429856D01*
X133422614Y-125340712D01*
X133422611Y-125340706D01*
X133376473Y-125260794D01*
X133376470Y-125260791D01*
X133376469Y-125260788D01*
X133311212Y-125195531D01*
X133311209Y-125195529D01*
X133311205Y-125195526D01*
X133231293Y-125149388D01*
X133231290Y-125149387D01*
X133231289Y-125149386D01*
X133231288Y-125149386D01*
X133142144Y-125125500D01*
X133049856Y-125125500D01*
X132960712Y-125149386D01*
X132960711Y-125149386D01*
X132960709Y-125149387D01*
X132960706Y-125149388D01*
X132880794Y-125195526D01*
X132880785Y-125195533D01*
X132815533Y-125260785D01*
X132815526Y-125260794D01*
X132769388Y-125340706D01*
X132769387Y-125340709D01*
X132769386Y-125340711D01*
X132769386Y-125340712D01*
X132745500Y-125429856D01*
X132184528Y-125429856D01*
X132215288Y-125421614D01*
X132295212Y-125375469D01*
X132360469Y-125310212D01*
X132406614Y-125230288D01*
X132430500Y-125141144D01*
X132430500Y-125048856D01*
X132406614Y-124959712D01*
X132393328Y-124936700D01*
X132360473Y-124879794D01*
X132360470Y-124879791D01*
X132360469Y-124879788D01*
X132295212Y-124814531D01*
X132295209Y-124814529D01*
X132295205Y-124814526D01*
X132215293Y-124768388D01*
X132215290Y-124768387D01*
X132215289Y-124768386D01*
X132215288Y-124768386D01*
X132126144Y-124744500D01*
X132033856Y-124744500D01*
X131944712Y-124768386D01*
X131944711Y-124768386D01*
X131944709Y-124768387D01*
X131944706Y-124768388D01*
X131864794Y-124814526D01*
X131864785Y-124814533D01*
X131799533Y-124879785D01*
X131799526Y-124879794D01*
X131753388Y-124959706D01*
X131753387Y-124959709D01*
X131753386Y-124959711D01*
X131753386Y-124959712D01*
X131729500Y-125048856D01*
X105410000Y-125048856D01*
X105410000Y-121981608D01*
X111894500Y-121981608D01*
X111894500Y-122113391D01*
X111928608Y-122240687D01*
X111954116Y-122284867D01*
X111994500Y-122354814D01*
X112087686Y-122448000D01*
X112201814Y-122513892D01*
X112329108Y-122548000D01*
X112329110Y-122548000D01*
X112460888Y-122548000D01*
X112460892Y-122548000D01*
X112521328Y-122531806D01*
X112591173Y-122533469D01*
X112649036Y-122572631D01*
X112676541Y-122636859D01*
X112673192Y-122683674D01*
X112657000Y-122744108D01*
X112657000Y-122875892D01*
X112670344Y-122925692D01*
X112673193Y-122936325D01*
X112671530Y-123006175D01*
X112632367Y-123064037D01*
X112568139Y-123091541D01*
X112521325Y-123088193D01*
X112460892Y-123072000D01*
X112329108Y-123072000D01*
X112201812Y-123106108D01*
X112087686Y-123172000D01*
X112087683Y-123172002D01*
X111994502Y-123265183D01*
X111994500Y-123265186D01*
X111928608Y-123379312D01*
X111910693Y-123446174D01*
X111894500Y-123506608D01*
X111894500Y-123638392D01*
X111900904Y-123662291D01*
X111928608Y-123765687D01*
X111942407Y-123789587D01*
X111994500Y-123879814D01*
X112087686Y-123973000D01*
X112201814Y-124038892D01*
X112329108Y-124073000D01*
X112329110Y-124073000D01*
X112460888Y-124073000D01*
X112460892Y-124073000D01*
X112521328Y-124056806D01*
X112591173Y-124058469D01*
X112649036Y-124097631D01*
X112676541Y-124161859D01*
X112673193Y-124208674D01*
X112657000Y-124269108D01*
X112657000Y-124400891D01*
X112691108Y-124528187D01*
X112701951Y-124546967D01*
X112757000Y-124642314D01*
X112850186Y-124735500D01*
X112964314Y-124801392D01*
X113091608Y-124835500D01*
X113091610Y-124835500D01*
X113223390Y-124835500D01*
X113223392Y-124835500D01*
X113350686Y-124801392D01*
X113464814Y-124735500D01*
X113558000Y-124642314D01*
X113623892Y-124528186D01*
X113658000Y-124400892D01*
X113658000Y-124269108D01*
X113641806Y-124208670D01*
X113643469Y-124138825D01*
X113682631Y-124080963D01*
X113746859Y-124053458D01*
X113793668Y-124056805D01*
X113854108Y-124073000D01*
X113854111Y-124073000D01*
X113985888Y-124073000D01*
X113985892Y-124073000D01*
X114046328Y-124056806D01*
X114116173Y-124058469D01*
X114174036Y-124097631D01*
X114201541Y-124161859D01*
X114198193Y-124208674D01*
X114182000Y-124269108D01*
X114182000Y-124400891D01*
X114216108Y-124528187D01*
X114226951Y-124546967D01*
X114282000Y-124642314D01*
X114375186Y-124735500D01*
X114489314Y-124801392D01*
X114616608Y-124835500D01*
X114616610Y-124835500D01*
X114748390Y-124835500D01*
X114748392Y-124835500D01*
X114875686Y-124801392D01*
X114989814Y-124735500D01*
X115083000Y-124642314D01*
X115148892Y-124528186D01*
X115183000Y-124400892D01*
X115183000Y-124269108D01*
X115166806Y-124208670D01*
X115168469Y-124138825D01*
X115207631Y-124080963D01*
X115208530Y-124080578D01*
X121319500Y-124080578D01*
X121319500Y-124212361D01*
X121353608Y-124339657D01*
X121386554Y-124396720D01*
X121419500Y-124453784D01*
X121512686Y-124546970D01*
X121626814Y-124612862D01*
X121754108Y-124646970D01*
X121754110Y-124646970D01*
X121885890Y-124646970D01*
X121885892Y-124646970D01*
X122013186Y-124612862D01*
X122127314Y-124546970D01*
X122203976Y-124470308D01*
X129445900Y-124470308D01*
X129445900Y-124602091D01*
X129480008Y-124729387D01*
X129488734Y-124744500D01*
X129545900Y-124843514D01*
X129639086Y-124936700D01*
X129753214Y-125002592D01*
X129880508Y-125036700D01*
X129880510Y-125036700D01*
X130012290Y-125036700D01*
X130012292Y-125036700D01*
X130139586Y-125002592D01*
X130253714Y-124936700D01*
X130346900Y-124843514D01*
X130412792Y-124729386D01*
X130446900Y-124602092D01*
X130446900Y-124470308D01*
X130412792Y-124343014D01*
X130346900Y-124228886D01*
X130253714Y-124135700D01*
X130186509Y-124096899D01*
X130139587Y-124069808D01*
X130075939Y-124052754D01*
X130012292Y-124035700D01*
X129880508Y-124035700D01*
X129753212Y-124069808D01*
X129639086Y-124135700D01*
X129639083Y-124135702D01*
X129545902Y-124228883D01*
X129545900Y-124228886D01*
X129480008Y-124343012D01*
X129445900Y-124470308D01*
X122203976Y-124470308D01*
X122220500Y-124453784D01*
X122251038Y-124400891D01*
X122251448Y-124400181D01*
X122251448Y-124400180D01*
X122286391Y-124339657D01*
X122286392Y-124339656D01*
X122320500Y-124212362D01*
X122320500Y-124080578D01*
X122286392Y-123953284D01*
X122220500Y-123839156D01*
X122127314Y-123745970D01*
X122045657Y-123698825D01*
X122013187Y-123680078D01*
X121946803Y-123662291D01*
X121885892Y-123645970D01*
X121754108Y-123645970D01*
X121626812Y-123680078D01*
X121512686Y-123745970D01*
X121512683Y-123745972D01*
X121419502Y-123839153D01*
X121419500Y-123839156D01*
X121353608Y-123953282D01*
X121319500Y-124080578D01*
X115208530Y-124080578D01*
X115271859Y-124053458D01*
X115318668Y-124056805D01*
X115379108Y-124073000D01*
X115379111Y-124073000D01*
X115510890Y-124073000D01*
X115510892Y-124073000D01*
X115638186Y-124038892D01*
X115752314Y-123973000D01*
X115845500Y-123879814D01*
X115911392Y-123765686D01*
X115945500Y-123638392D01*
X115945500Y-123506608D01*
X115911392Y-123379314D01*
X115845500Y-123265186D01*
X115752314Y-123172000D01*
X115679582Y-123130008D01*
X115638187Y-123106108D01*
X115565119Y-123086530D01*
X115510892Y-123072000D01*
X115379108Y-123072000D01*
X115318674Y-123088193D01*
X115248824Y-123086530D01*
X115190961Y-123047367D01*
X115163458Y-122983138D01*
X115163349Y-122954641D01*
X115164386Y-122945357D01*
X115183000Y-122875892D01*
X115183000Y-122793908D01*
X130385700Y-122793908D01*
X130385700Y-122925691D01*
X130419808Y-123052987D01*
X130440135Y-123088193D01*
X130485700Y-123167114D01*
X130578886Y-123260300D01*
X130693014Y-123326192D01*
X130820308Y-123360300D01*
X130820310Y-123360300D01*
X130952090Y-123360300D01*
X130952092Y-123360300D01*
X131079386Y-123326192D01*
X131193514Y-123260300D01*
X131286700Y-123167114D01*
X131352592Y-123052986D01*
X131386700Y-122925692D01*
X131386700Y-122793908D01*
X131352592Y-122666614D01*
X131286700Y-122552486D01*
X131193514Y-122459300D01*
X131136450Y-122426354D01*
X131079387Y-122393408D01*
X131015739Y-122376354D01*
X130952092Y-122359300D01*
X130820308Y-122359300D01*
X130693012Y-122393408D01*
X130578886Y-122459300D01*
X130578883Y-122459302D01*
X130485702Y-122552483D01*
X130485700Y-122552486D01*
X130419808Y-122666612D01*
X130385700Y-122793908D01*
X115183000Y-122793908D01*
X115183000Y-122744108D01*
X115165025Y-122677025D01*
X115163992Y-122670233D01*
X115167794Y-122642153D01*
X115168469Y-122613825D01*
X115172421Y-122607985D01*
X115173368Y-122600996D01*
X115191750Y-122579427D01*
X115207631Y-122555963D01*
X115214113Y-122553187D01*
X115218689Y-122547818D01*
X115245814Y-122539611D01*
X115271859Y-122528458D01*
X115280610Y-122529083D01*
X115285565Y-122527585D01*
X115294255Y-122530059D01*
X115318668Y-122531805D01*
X115379108Y-122548000D01*
X115379111Y-122548000D01*
X115510890Y-122548000D01*
X115510892Y-122548000D01*
X115638186Y-122513892D01*
X115752314Y-122448000D01*
X115845500Y-122354814D01*
X115911392Y-122240686D01*
X115945500Y-122113392D01*
X115945500Y-121981608D01*
X115911392Y-121854314D01*
X115845500Y-121740186D01*
X115752314Y-121647000D01*
X115657599Y-121592316D01*
X115638187Y-121581108D01*
X115565119Y-121561530D01*
X115510892Y-121547000D01*
X115379108Y-121547000D01*
X115318674Y-121563193D01*
X115248824Y-121561530D01*
X115190961Y-121522367D01*
X115163458Y-121458138D01*
X115163057Y-121432567D01*
X115164003Y-121421786D01*
X115183000Y-121350892D01*
X115183000Y-121219108D01*
X128404500Y-121219108D01*
X128404500Y-121350891D01*
X128438608Y-121478187D01*
X128464116Y-121522367D01*
X128504500Y-121592314D01*
X128597686Y-121685500D01*
X128711814Y-121751392D01*
X128839108Y-121785500D01*
X128839110Y-121785500D01*
X128970890Y-121785500D01*
X128970892Y-121785500D01*
X129098186Y-121751392D01*
X129212314Y-121685500D01*
X129219819Y-121677995D01*
X129281142Y-121644510D01*
X129350834Y-121649494D01*
X129395181Y-121677995D01*
X129402686Y-121685500D01*
X129516814Y-121751392D01*
X129644108Y-121785500D01*
X129644110Y-121785500D01*
X129775890Y-121785500D01*
X129775892Y-121785500D01*
X129903186Y-121751392D01*
X130017314Y-121685500D01*
X130110500Y-121592314D01*
X130176392Y-121478186D01*
X130210500Y-121350892D01*
X130210500Y-121219108D01*
X130176392Y-121091814D01*
X130110500Y-120977686D01*
X130017314Y-120884500D01*
X129960250Y-120851554D01*
X129903187Y-120818608D01*
X129839539Y-120801554D01*
X129775892Y-120784500D01*
X129644108Y-120784500D01*
X129516812Y-120818608D01*
X129402686Y-120884500D01*
X129402685Y-120884500D01*
X129395178Y-120892008D01*
X129333854Y-120925490D01*
X129264162Y-120920503D01*
X129219822Y-120892008D01*
X129212314Y-120884500D01*
X129155250Y-120851554D01*
X129098187Y-120818608D01*
X129034539Y-120801554D01*
X128970892Y-120784500D01*
X128839108Y-120784500D01*
X128711812Y-120818608D01*
X128597686Y-120884500D01*
X128597683Y-120884502D01*
X128504502Y-120977683D01*
X128504500Y-120977686D01*
X128438608Y-121091812D01*
X128404500Y-121219108D01*
X115183000Y-121219108D01*
X115148892Y-121091814D01*
X115083000Y-120977686D01*
X114989814Y-120884500D01*
X114932750Y-120851554D01*
X114875687Y-120818608D01*
X114812039Y-120801554D01*
X114748392Y-120784500D01*
X114616608Y-120784500D01*
X114489312Y-120818608D01*
X114375186Y-120884500D01*
X114375183Y-120884502D01*
X114282002Y-120977683D01*
X114282000Y-120977686D01*
X114216108Y-121091812D01*
X114182000Y-121219108D01*
X114182000Y-121350891D01*
X114198193Y-121411325D01*
X114196530Y-121481175D01*
X114157367Y-121539037D01*
X114093139Y-121566541D01*
X114046325Y-121563193D01*
X113985892Y-121547000D01*
X113854108Y-121547000D01*
X113793674Y-121563193D01*
X113723824Y-121561530D01*
X113665961Y-121522367D01*
X113638458Y-121458138D01*
X113641805Y-121411331D01*
X113658000Y-121350892D01*
X113658000Y-121219108D01*
X113623892Y-121091814D01*
X113558000Y-120977686D01*
X113464814Y-120884500D01*
X113407750Y-120851554D01*
X113350687Y-120818608D01*
X113287039Y-120801554D01*
X113223392Y-120784500D01*
X113091608Y-120784500D01*
X112964312Y-120818608D01*
X112850186Y-120884500D01*
X112850183Y-120884502D01*
X112757002Y-120977683D01*
X112757000Y-120977686D01*
X112691108Y-121091812D01*
X112657000Y-121219108D01*
X112657000Y-121350891D01*
X112673193Y-121411325D01*
X112671530Y-121481175D01*
X112632367Y-121539037D01*
X112568139Y-121566541D01*
X112521325Y-121563193D01*
X112460892Y-121547000D01*
X112329108Y-121547000D01*
X112201812Y-121581108D01*
X112087686Y-121647000D01*
X112087683Y-121647002D01*
X111994502Y-121740183D01*
X111994500Y-121740186D01*
X111928608Y-121854312D01*
X111894500Y-121981608D01*
X105410000Y-121981608D01*
X105410000Y-119842343D01*
X117081265Y-119842343D01*
X117081265Y-119974126D01*
X117115373Y-120101422D01*
X117117506Y-120105116D01*
X117181265Y-120215549D01*
X117274451Y-120308735D01*
X117388579Y-120374627D01*
X117515873Y-120408735D01*
X117515875Y-120408735D01*
X117647655Y-120408735D01*
X117647657Y-120408735D01*
X117774951Y-120374627D01*
X117889079Y-120308735D01*
X117982265Y-120215549D01*
X118048157Y-120101421D01*
X118082265Y-119974127D01*
X118082265Y-119842343D01*
X118078732Y-119829156D01*
X131869200Y-119829156D01*
X131869200Y-119921444D01*
X131892258Y-120007499D01*
X131893087Y-120010590D01*
X131893088Y-120010593D01*
X131939226Y-120090505D01*
X131939229Y-120090509D01*
X131939231Y-120090512D01*
X131939232Y-120090513D01*
X131939234Y-120090515D01*
X131957544Y-120108826D01*
X131991028Y-120170149D01*
X131986042Y-120239841D01*
X131957544Y-120284184D01*
X131942939Y-120298788D01*
X131942931Y-120298799D01*
X131896793Y-120378711D01*
X131896792Y-120378714D01*
X131896791Y-120378716D01*
X131896791Y-120378717D01*
X131872905Y-120467861D01*
X131872905Y-120560149D01*
X131885644Y-120607693D01*
X131896792Y-120649295D01*
X131896793Y-120649298D01*
X131942931Y-120729210D01*
X131942934Y-120729214D01*
X131942936Y-120729217D01*
X132008193Y-120794474D01*
X132008196Y-120794475D01*
X132008199Y-120794478D01*
X132088111Y-120840616D01*
X132088112Y-120840616D01*
X132088117Y-120840619D01*
X132177261Y-120864505D01*
X132177263Y-120864505D01*
X132269547Y-120864505D01*
X132269549Y-120864505D01*
X132358693Y-120840619D01*
X132438617Y-120794474D01*
X132503874Y-120729217D01*
X132550019Y-120649293D01*
X132573905Y-120560149D01*
X132573905Y-120475911D01*
X136456300Y-120475911D01*
X136456300Y-120607694D01*
X136490408Y-120734990D01*
X136518993Y-120784500D01*
X136556300Y-120849117D01*
X136649486Y-120942303D01*
X136763614Y-121008195D01*
X136890908Y-121042303D01*
X136890910Y-121042303D01*
X137022690Y-121042303D01*
X137022692Y-121042303D01*
X137149986Y-121008195D01*
X137264114Y-120942303D01*
X137357300Y-120849117D01*
X137423192Y-120734989D01*
X137457300Y-120607695D01*
X137457300Y-120475911D01*
X137423192Y-120348617D01*
X137357300Y-120234489D01*
X137264114Y-120141303D01*
X137207050Y-120108357D01*
X137149987Y-120075411D01*
X137086339Y-120058357D01*
X137022692Y-120041303D01*
X136890908Y-120041303D01*
X136763612Y-120075411D01*
X136649486Y-120141303D01*
X136649483Y-120141305D01*
X136556302Y-120234486D01*
X136556300Y-120234489D01*
X136490408Y-120348615D01*
X136456300Y-120475911D01*
X132573905Y-120475911D01*
X132573905Y-120467861D01*
X132550019Y-120378717D01*
X132547657Y-120374626D01*
X132503878Y-120298799D01*
X132503876Y-120298796D01*
X132503874Y-120298793D01*
X132503869Y-120298788D01*
X132485560Y-120280478D01*
X132452076Y-120219155D01*
X132457062Y-120149463D01*
X132485562Y-120105118D01*
X132500169Y-120090512D01*
X132546314Y-120010588D01*
X132570200Y-119921444D01*
X132570200Y-119829156D01*
X132546314Y-119740012D01*
X132546311Y-119740006D01*
X132500173Y-119660094D01*
X132500170Y-119660091D01*
X132500169Y-119660088D01*
X132434912Y-119594831D01*
X132434909Y-119594829D01*
X132434905Y-119594826D01*
X132354995Y-119548689D01*
X132354988Y-119548686D01*
X132265844Y-119524800D01*
X132173556Y-119524800D01*
X132084412Y-119548686D01*
X132084411Y-119548686D01*
X132084409Y-119548687D01*
X132084406Y-119548688D01*
X132004494Y-119594826D01*
X132004485Y-119594833D01*
X131939233Y-119660085D01*
X131939226Y-119660094D01*
X131893088Y-119740006D01*
X131893087Y-119740009D01*
X131893086Y-119740011D01*
X131893086Y-119740012D01*
X131869200Y-119829156D01*
X118078732Y-119829156D01*
X118048157Y-119715049D01*
X117982265Y-119600921D01*
X117889079Y-119507735D01*
X117832015Y-119474789D01*
X117774952Y-119441843D01*
X117772209Y-119441108D01*
X133869437Y-119441108D01*
X133869437Y-119572892D01*
X133876947Y-119600921D01*
X133903545Y-119700187D01*
X133936491Y-119757250D01*
X133969437Y-119814314D01*
X134062623Y-119907500D01*
X134176751Y-119973392D01*
X134304045Y-120007500D01*
X134304047Y-120007500D01*
X134435827Y-120007500D01*
X134435829Y-120007500D01*
X134563123Y-119973392D01*
X134677251Y-119907500D01*
X134770437Y-119814314D01*
X134836329Y-119700186D01*
X134870437Y-119572892D01*
X134870437Y-119441108D01*
X134836329Y-119313814D01*
X134770437Y-119199686D01*
X134677251Y-119106500D01*
X134620187Y-119073554D01*
X134563124Y-119040608D01*
X134499476Y-119023554D01*
X134435829Y-119006500D01*
X134304045Y-119006500D01*
X134176749Y-119040608D01*
X134062623Y-119106500D01*
X134062620Y-119106502D01*
X133969439Y-119199683D01*
X133969437Y-119199686D01*
X133903545Y-119313812D01*
X133878379Y-119407735D01*
X133869437Y-119441108D01*
X117772209Y-119441108D01*
X117711304Y-119424789D01*
X117647657Y-119407735D01*
X117515873Y-119407735D01*
X117388577Y-119441843D01*
X117274451Y-119507735D01*
X117274448Y-119507737D01*
X117181267Y-119600918D01*
X117181265Y-119600921D01*
X117115373Y-119715047D01*
X117081265Y-119842343D01*
X105410000Y-119842343D01*
X105410000Y-117409108D01*
X110624500Y-117409108D01*
X110624500Y-117540891D01*
X110658608Y-117668187D01*
X110670515Y-117688810D01*
X110724500Y-117782314D01*
X110817686Y-117875500D01*
X110931814Y-117941392D01*
X111059108Y-117975500D01*
X111059110Y-117975500D01*
X111190890Y-117975500D01*
X111190892Y-117975500D01*
X111318186Y-117941392D01*
X111432314Y-117875500D01*
X111525500Y-117782314D01*
X111591392Y-117668186D01*
X111625500Y-117540892D01*
X111625500Y-117485308D01*
X115704500Y-117485308D01*
X115704500Y-117617092D01*
X115718191Y-117668187D01*
X115738608Y-117744387D01*
X115744201Y-117754074D01*
X115804500Y-117858514D01*
X115897686Y-117951700D01*
X116011814Y-118017592D01*
X116139108Y-118051700D01*
X116139110Y-118051700D01*
X116270890Y-118051700D01*
X116270892Y-118051700D01*
X116398186Y-118017592D01*
X116512314Y-117951700D01*
X116605500Y-117858514D01*
X116671392Y-117744386D01*
X116705500Y-117617092D01*
X116705500Y-117485308D01*
X116690000Y-117427461D01*
X131909500Y-117427461D01*
X131909500Y-117519749D01*
X131915165Y-117540892D01*
X131933387Y-117608895D01*
X131933388Y-117608898D01*
X131979526Y-117688810D01*
X131979533Y-117688819D01*
X131994835Y-117704121D01*
X132028320Y-117765444D01*
X132023336Y-117835136D01*
X131994837Y-117879481D01*
X131979534Y-117894784D01*
X131979526Y-117894794D01*
X131933388Y-117974706D01*
X131933387Y-117974709D01*
X131909500Y-118063856D01*
X131909500Y-118156143D01*
X131933387Y-118245290D01*
X131933388Y-118245293D01*
X131979526Y-118325205D01*
X131979529Y-118325209D01*
X131979531Y-118325212D01*
X132044788Y-118390469D01*
X132044791Y-118390470D01*
X132044794Y-118390473D01*
X132124706Y-118436611D01*
X132124707Y-118436611D01*
X132124712Y-118436614D01*
X132213856Y-118460500D01*
X132213858Y-118460500D01*
X132306142Y-118460500D01*
X132306144Y-118460500D01*
X132395288Y-118436614D01*
X132475212Y-118390469D01*
X132540469Y-118325212D01*
X132586614Y-118245288D01*
X132610500Y-118156144D01*
X132610500Y-118063856D01*
X132586614Y-117974712D01*
X132573328Y-117951700D01*
X132540473Y-117894794D01*
X132540470Y-117894791D01*
X132540469Y-117894788D01*
X132525164Y-117879483D01*
X132491679Y-117818160D01*
X132496663Y-117748468D01*
X132525164Y-117704121D01*
X132540469Y-117688817D01*
X132586614Y-117608893D01*
X132610500Y-117519749D01*
X132610500Y-117427461D01*
X132586614Y-117338317D01*
X132586611Y-117338311D01*
X132540473Y-117258399D01*
X132540470Y-117258396D01*
X132540469Y-117258393D01*
X132475212Y-117193136D01*
X132475209Y-117193134D01*
X132475205Y-117193131D01*
X132395293Y-117146993D01*
X132395290Y-117146992D01*
X132395289Y-117146991D01*
X132395288Y-117146991D01*
X132306144Y-117123105D01*
X132213856Y-117123105D01*
X132124712Y-117146991D01*
X132124711Y-117146991D01*
X132124709Y-117146992D01*
X132124706Y-117146993D01*
X132044794Y-117193131D01*
X132044785Y-117193138D01*
X131979533Y-117258390D01*
X131979526Y-117258399D01*
X131933388Y-117338311D01*
X131933387Y-117338314D01*
X131933386Y-117338316D01*
X131933386Y-117338317D01*
X131909500Y-117427461D01*
X116690000Y-117427461D01*
X116671392Y-117358014D01*
X116605500Y-117243886D01*
X116512314Y-117150700D01*
X116455250Y-117117754D01*
X116398187Y-117084808D01*
X116334539Y-117067754D01*
X116270892Y-117050700D01*
X116139108Y-117050700D01*
X116011812Y-117084808D01*
X115897686Y-117150700D01*
X115897683Y-117150702D01*
X115804502Y-117243883D01*
X115804500Y-117243886D01*
X115738608Y-117358012D01*
X115724917Y-117409110D01*
X115704500Y-117485308D01*
X111625500Y-117485308D01*
X111625500Y-117409108D01*
X111591392Y-117281814D01*
X111525500Y-117167686D01*
X111432314Y-117074500D01*
X111373508Y-117040548D01*
X111318187Y-117008608D01*
X111254539Y-116991554D01*
X111190892Y-116974500D01*
X111059108Y-116974500D01*
X110931812Y-117008608D01*
X110817686Y-117074500D01*
X110817683Y-117074502D01*
X110724502Y-117167683D01*
X110724500Y-117167686D01*
X110658608Y-117281812D01*
X110624500Y-117409108D01*
X105410000Y-117409108D01*
X105410000Y-116667343D01*
X112001265Y-116667343D01*
X112001265Y-116799126D01*
X112035373Y-116926422D01*
X112063131Y-116974500D01*
X112101265Y-117040549D01*
X112194451Y-117133735D01*
X112308579Y-117199627D01*
X112435873Y-117233735D01*
X112435875Y-117233735D01*
X112567655Y-117233735D01*
X112567657Y-117233735D01*
X112694951Y-117199627D01*
X112809079Y-117133735D01*
X112902265Y-117040549D01*
X112968157Y-116926421D01*
X113002265Y-116799127D01*
X113002265Y-116667343D01*
X112968157Y-116540049D01*
X112902265Y-116425921D01*
X112809079Y-116332735D01*
X112752015Y-116299789D01*
X112737672Y-116291508D01*
X114536100Y-116291508D01*
X114536100Y-116423292D01*
X114553154Y-116486939D01*
X114570208Y-116550587D01*
X114601911Y-116605497D01*
X114636100Y-116664714D01*
X114729286Y-116757900D01*
X114843414Y-116823792D01*
X114970708Y-116857900D01*
X114970710Y-116857900D01*
X115102490Y-116857900D01*
X115102492Y-116857900D01*
X115229786Y-116823792D01*
X115343914Y-116757900D01*
X115437100Y-116664714D01*
X115502992Y-116550586D01*
X115537100Y-116423292D01*
X115537100Y-116291508D01*
X115502992Y-116164214D01*
X115488497Y-116139108D01*
X132214500Y-116139108D01*
X132214500Y-116270891D01*
X132248608Y-116398187D01*
X132263102Y-116423290D01*
X132314500Y-116512314D01*
X132407686Y-116605500D01*
X132521814Y-116671392D01*
X132649108Y-116705500D01*
X132649110Y-116705500D01*
X132780890Y-116705500D01*
X132780892Y-116705500D01*
X132908186Y-116671392D01*
X133022314Y-116605500D01*
X133115500Y-116512314D01*
X133181392Y-116398186D01*
X133215500Y-116270892D01*
X133215500Y-116139108D01*
X133181392Y-116011814D01*
X133115500Y-115897686D01*
X133022314Y-115804500D01*
X132965250Y-115771554D01*
X132908187Y-115738608D01*
X132844539Y-115721554D01*
X132780892Y-115704500D01*
X132649108Y-115704500D01*
X132521812Y-115738608D01*
X132407686Y-115804500D01*
X132407683Y-115804502D01*
X132314502Y-115897683D01*
X132314500Y-115897686D01*
X132248608Y-116011812D01*
X132214500Y-116139108D01*
X115488497Y-116139108D01*
X115437100Y-116050086D01*
X115343914Y-115956900D01*
X115241353Y-115897686D01*
X115229787Y-115891008D01*
X115166139Y-115873954D01*
X115102492Y-115856900D01*
X114970708Y-115856900D01*
X114843412Y-115891008D01*
X114729286Y-115956900D01*
X114729283Y-115956902D01*
X114636102Y-116050083D01*
X114636100Y-116050086D01*
X114570208Y-116164212D01*
X114541624Y-116270891D01*
X114536100Y-116291508D01*
X112737672Y-116291508D01*
X112694952Y-116266843D01*
X112631304Y-116249789D01*
X112567657Y-116232735D01*
X112435873Y-116232735D01*
X112308577Y-116266843D01*
X112194451Y-116332735D01*
X112194448Y-116332737D01*
X112101267Y-116425918D01*
X112101265Y-116425921D01*
X112035373Y-116540047D01*
X112001265Y-116667343D01*
X105410000Y-116667343D01*
X105410000Y-114869108D01*
X118854100Y-114869108D01*
X118854100Y-115000891D01*
X118888208Y-115128187D01*
X118921154Y-115185250D01*
X118954100Y-115242314D01*
X119047286Y-115335500D01*
X119161414Y-115401392D01*
X119288708Y-115435500D01*
X119288710Y-115435500D01*
X119420490Y-115435500D01*
X119420492Y-115435500D01*
X119547786Y-115401392D01*
X119661914Y-115335500D01*
X119755100Y-115242314D01*
X119820992Y-115128186D01*
X119855100Y-115000892D01*
X119855100Y-114869108D01*
X119820992Y-114741814D01*
X119755100Y-114627686D01*
X119661914Y-114534500D01*
X119604850Y-114501554D01*
X119547787Y-114468608D01*
X119484139Y-114451554D01*
X119420492Y-114434500D01*
X119288708Y-114434500D01*
X119161412Y-114468608D01*
X119047286Y-114534500D01*
X119047283Y-114534502D01*
X118954102Y-114627683D01*
X118954100Y-114627686D01*
X118888208Y-114741812D01*
X118854100Y-114869108D01*
X105410000Y-114869108D01*
X105410000Y-113314108D01*
X106079500Y-113314108D01*
X106079500Y-113445892D01*
X106085344Y-113467702D01*
X106113608Y-113573187D01*
X106126326Y-113595214D01*
X106179500Y-113687314D01*
X106272686Y-113780500D01*
X106386814Y-113846392D01*
X106514108Y-113880500D01*
X106514110Y-113880500D01*
X106645890Y-113880500D01*
X106645892Y-113880500D01*
X106773186Y-113846392D01*
X106849542Y-113802308D01*
X123654700Y-113802308D01*
X123654700Y-113934091D01*
X123688808Y-114061387D01*
X123710783Y-114099448D01*
X123754700Y-114175514D01*
X123847886Y-114268700D01*
X123962014Y-114334592D01*
X124089308Y-114368700D01*
X124089310Y-114368700D01*
X124221090Y-114368700D01*
X124221092Y-114368700D01*
X124324945Y-114340873D01*
X132107735Y-114340873D01*
X132107735Y-114472656D01*
X132141843Y-114599952D01*
X132157854Y-114627683D01*
X132207735Y-114714079D01*
X132300921Y-114807265D01*
X132415049Y-114873157D01*
X132542343Y-114907265D01*
X132542345Y-114907265D01*
X132674125Y-114907265D01*
X132674127Y-114907265D01*
X132801421Y-114873157D01*
X132915549Y-114807265D01*
X133008735Y-114714079D01*
X133074627Y-114599951D01*
X133108735Y-114472657D01*
X133108735Y-114340873D01*
X133074627Y-114213579D01*
X133008735Y-114099451D01*
X132915549Y-114006265D01*
X132858485Y-113973319D01*
X132801422Y-113940373D01*
X132737774Y-113923319D01*
X132674127Y-113906265D01*
X132542343Y-113906265D01*
X132415047Y-113940373D01*
X132300921Y-114006265D01*
X132300918Y-114006267D01*
X132207737Y-114099448D01*
X132207735Y-114099451D01*
X132141843Y-114213577D01*
X132107735Y-114340873D01*
X124324945Y-114340873D01*
X124348386Y-114334592D01*
X124462514Y-114268700D01*
X124555700Y-114175514D01*
X124621592Y-114061386D01*
X124655700Y-113934092D01*
X124655700Y-113802308D01*
X124621592Y-113675014D01*
X124555700Y-113560886D01*
X124462514Y-113467700D01*
X124390537Y-113426144D01*
X124348387Y-113401808D01*
X124284739Y-113384754D01*
X124221092Y-113367700D01*
X124089308Y-113367700D01*
X123962012Y-113401808D01*
X123847886Y-113467700D01*
X123847883Y-113467702D01*
X123754702Y-113560883D01*
X123754700Y-113560886D01*
X123688808Y-113675012D01*
X123654700Y-113802308D01*
X106849542Y-113802308D01*
X106887314Y-113780500D01*
X106980500Y-113687314D01*
X107046392Y-113573186D01*
X107080500Y-113445892D01*
X107080500Y-113333856D01*
X110039500Y-113333856D01*
X110039500Y-113426144D01*
X110050635Y-113467702D01*
X110063387Y-113515290D01*
X110063388Y-113515293D01*
X110109526Y-113595205D01*
X110109529Y-113595209D01*
X110109531Y-113595212D01*
X110174788Y-113660469D01*
X110174791Y-113660470D01*
X110174794Y-113660473D01*
X110254706Y-113706611D01*
X110254707Y-113706611D01*
X110254712Y-113706614D01*
X110343856Y-113730500D01*
X110343858Y-113730500D01*
X110436142Y-113730500D01*
X110436144Y-113730500D01*
X110525288Y-113706614D01*
X110605212Y-113660469D01*
X110670469Y-113595212D01*
X110716614Y-113515288D01*
X110740500Y-113426144D01*
X110740500Y-113333856D01*
X111309500Y-113333856D01*
X111309500Y-113426144D01*
X111320635Y-113467702D01*
X111333387Y-113515290D01*
X111333388Y-113515293D01*
X111379526Y-113595205D01*
X111379529Y-113595209D01*
X111379531Y-113595212D01*
X111444788Y-113660469D01*
X111444791Y-113660470D01*
X111444794Y-113660473D01*
X111524706Y-113706611D01*
X111524707Y-113706611D01*
X111524712Y-113706614D01*
X111613856Y-113730500D01*
X111613858Y-113730500D01*
X111706142Y-113730500D01*
X111706144Y-113730500D01*
X111795288Y-113706614D01*
X111800395Y-113703664D01*
X111829616Y-113686795D01*
X111850023Y-113675012D01*
X111875212Y-113660469D01*
X111940469Y-113595212D01*
X111986614Y-113515288D01*
X112010500Y-113426144D01*
X112010500Y-113333856D01*
X111986614Y-113244712D01*
X111953185Y-113186812D01*
X111940473Y-113164794D01*
X111940470Y-113164791D01*
X111940469Y-113164788D01*
X111875212Y-113099531D01*
X111875209Y-113099529D01*
X111875205Y-113099526D01*
X111795293Y-113053388D01*
X111795290Y-113053387D01*
X111795289Y-113053386D01*
X111795288Y-113053386D01*
X111706144Y-113029500D01*
X111613856Y-113029500D01*
X111524712Y-113053386D01*
X111524711Y-113053386D01*
X111524709Y-113053387D01*
X111524706Y-113053388D01*
X111444794Y-113099526D01*
X111444785Y-113099533D01*
X111379533Y-113164785D01*
X111379526Y-113164794D01*
X111333388Y-113244706D01*
X111333387Y-113244709D01*
X111333386Y-113244711D01*
X111333386Y-113244712D01*
X111309500Y-113333856D01*
X110740500Y-113333856D01*
X110716614Y-113244712D01*
X110683185Y-113186812D01*
X110670473Y-113164794D01*
X110670470Y-113164791D01*
X110670469Y-113164788D01*
X110605212Y-113099531D01*
X110605209Y-113099529D01*
X110605205Y-113099526D01*
X110525293Y-113053388D01*
X110525290Y-113053387D01*
X110525289Y-113053386D01*
X110525288Y-113053386D01*
X110436144Y-113029500D01*
X110343856Y-113029500D01*
X110254712Y-113053386D01*
X110254711Y-113053386D01*
X110254709Y-113053387D01*
X110254706Y-113053388D01*
X110174794Y-113099526D01*
X110174785Y-113099533D01*
X110109533Y-113164785D01*
X110109526Y-113164794D01*
X110063388Y-113244706D01*
X110063387Y-113244709D01*
X110063386Y-113244711D01*
X110063386Y-113244712D01*
X110039500Y-113333856D01*
X107080500Y-113333856D01*
X107080500Y-113314108D01*
X107046392Y-113186814D01*
X106980500Y-113072686D01*
X106887314Y-112979500D01*
X106807498Y-112933418D01*
X106773187Y-112913608D01*
X106709539Y-112896554D01*
X106645892Y-112879500D01*
X106514108Y-112879500D01*
X106386812Y-112913608D01*
X106272686Y-112979500D01*
X106272683Y-112979502D01*
X106179502Y-113072683D01*
X106179500Y-113072686D01*
X106113608Y-113186812D01*
X106079500Y-113314108D01*
X105410000Y-113314108D01*
X105410000Y-111719508D01*
X113723300Y-111719508D01*
X113723300Y-111851291D01*
X113757408Y-111978587D01*
X113776014Y-112010813D01*
X113823300Y-112092714D01*
X113916486Y-112185900D01*
X114030614Y-112251792D01*
X114157908Y-112285900D01*
X114157910Y-112285900D01*
X114289690Y-112285900D01*
X114289692Y-112285900D01*
X114416986Y-112251792D01*
X114531114Y-112185900D01*
X114624300Y-112092714D01*
X114690192Y-111978586D01*
X114724300Y-111851292D01*
X114724300Y-111719508D01*
X114690192Y-111592214D01*
X114689717Y-111591392D01*
X114668698Y-111554985D01*
X114624300Y-111478086D01*
X114531114Y-111384900D01*
X114463601Y-111345921D01*
X114416987Y-111319008D01*
X114341325Y-111298735D01*
X114289692Y-111284900D01*
X114157908Y-111284900D01*
X114030612Y-111319008D01*
X113916486Y-111384900D01*
X113916483Y-111384902D01*
X113823302Y-111478083D01*
X113823300Y-111478086D01*
X113757408Y-111592212D01*
X113723300Y-111719508D01*
X105410000Y-111719508D01*
X105410000Y-111059108D01*
X115704500Y-111059108D01*
X115704500Y-111190891D01*
X115738608Y-111318187D01*
X115754619Y-111345918D01*
X115804500Y-111432314D01*
X115897686Y-111525500D01*
X116011814Y-111591392D01*
X116139108Y-111625500D01*
X116139110Y-111625500D01*
X116215500Y-111625500D01*
X116282539Y-111645185D01*
X116328294Y-111697989D01*
X116339500Y-111749500D01*
X116339500Y-111825891D01*
X116373608Y-111953187D01*
X116404527Y-112006740D01*
X116439500Y-112067314D01*
X116532686Y-112160500D01*
X116631521Y-112217563D01*
X116646810Y-112226390D01*
X116646814Y-112226392D01*
X116774108Y-112260500D01*
X116774110Y-112260500D01*
X116905890Y-112260500D01*
X116905892Y-112260500D01*
X117033186Y-112226392D01*
X117033193Y-112226387D01*
X117040700Y-112223280D01*
X117041659Y-112225596D01*
X117097306Y-112212082D01*
X117163339Y-112234918D01*
X117189814Y-112260458D01*
X117191605Y-112262793D01*
X117191608Y-112262797D01*
X117284794Y-112355983D01*
X117398922Y-112421875D01*
X117526216Y-112455983D01*
X117526218Y-112455983D01*
X117657998Y-112455983D01*
X117658000Y-112455983D01*
X117785294Y-112421875D01*
X117899422Y-112355983D01*
X117992608Y-112262797D01*
X118058500Y-112148669D01*
X118080543Y-112066399D01*
X118116908Y-112006740D01*
X118179755Y-111976211D01*
X118249130Y-111984506D01*
X118287999Y-112010813D01*
X118330921Y-112053735D01*
X118445049Y-112119627D01*
X118572343Y-112153735D01*
X118572345Y-112153735D01*
X118704125Y-112153735D01*
X118704127Y-112153735D01*
X118831421Y-112119627D01*
X118945549Y-112053735D01*
X119038735Y-111960549D01*
X119076402Y-111895308D01*
X121468300Y-111895308D01*
X121468300Y-112027092D01*
X121481700Y-112077101D01*
X121502408Y-112154387D01*
X121531281Y-112204396D01*
X121568300Y-112268514D01*
X121661486Y-112361700D01*
X121775614Y-112427592D01*
X121902908Y-112461700D01*
X121902910Y-112461700D01*
X122034690Y-112461700D01*
X122034692Y-112461700D01*
X122161986Y-112427592D01*
X122274578Y-112362586D01*
X122342476Y-112346114D01*
X122408503Y-112368966D01*
X122424257Y-112382292D01*
X122453672Y-112411706D01*
X122453676Y-112411710D01*
X122567804Y-112477602D01*
X122695098Y-112511710D01*
X122695100Y-112511710D01*
X122826880Y-112511710D01*
X122826882Y-112511710D01*
X122954176Y-112477602D01*
X123068304Y-112411710D01*
X123161490Y-112318524D01*
X123227382Y-112204396D01*
X123261490Y-112077102D01*
X123261490Y-111945318D01*
X123227382Y-111818024D01*
X123161490Y-111703896D01*
X123068304Y-111610710D01*
X122981688Y-111560702D01*
X122954177Y-111544818D01*
X122890529Y-111527764D01*
X122826882Y-111510710D01*
X122695098Y-111510710D01*
X122567802Y-111544818D01*
X122455210Y-111609823D01*
X122387310Y-111626295D01*
X122321283Y-111603442D01*
X122305530Y-111590116D01*
X122276116Y-111560702D01*
X122276114Y-111560700D01*
X122198056Y-111515633D01*
X122161987Y-111494808D01*
X122098339Y-111477754D01*
X122034692Y-111460700D01*
X121902908Y-111460700D01*
X121775612Y-111494808D01*
X121661486Y-111560700D01*
X121661483Y-111560702D01*
X121568302Y-111653883D01*
X121568300Y-111653886D01*
X121502408Y-111768012D01*
X121481399Y-111846421D01*
X121468300Y-111895308D01*
X119076402Y-111895308D01*
X119104627Y-111846421D01*
X119138735Y-111719127D01*
X119138735Y-111587343D01*
X119104627Y-111460049D01*
X119100372Y-111452680D01*
X119088614Y-111432314D01*
X119038735Y-111345921D01*
X118945549Y-111252735D01*
X118888485Y-111219789D01*
X118831422Y-111186843D01*
X118767774Y-111169789D01*
X118704127Y-111152735D01*
X118572343Y-111152735D01*
X118445047Y-111186843D01*
X118330921Y-111252735D01*
X118330918Y-111252737D01*
X118237737Y-111345918D01*
X118237735Y-111345921D01*
X118171842Y-111460049D01*
X118149798Y-111542318D01*
X118113433Y-111601978D01*
X118050586Y-111632506D01*
X117981210Y-111624211D01*
X117942343Y-111597904D01*
X117899424Y-111554985D01*
X117899422Y-111554983D01*
X117810073Y-111503397D01*
X117785295Y-111489091D01*
X117679336Y-111460700D01*
X117658000Y-111454983D01*
X117526216Y-111454983D01*
X117398922Y-111489091D01*
X117391412Y-111492202D01*
X117390456Y-111489894D01*
X117334740Y-111503397D01*
X117268719Y-111480529D01*
X117242291Y-111455022D01*
X117240504Y-111452693D01*
X117240500Y-111452686D01*
X117147314Y-111359500D01*
X117075756Y-111318186D01*
X117033187Y-111293608D01*
X116960787Y-111274209D01*
X116905892Y-111259500D01*
X116829500Y-111259500D01*
X116762461Y-111239815D01*
X116716706Y-111187011D01*
X116705500Y-111135500D01*
X116705500Y-111059110D01*
X116705500Y-111059108D01*
X116671392Y-110931814D01*
X116671390Y-110931811D01*
X116671391Y-110931811D01*
X116642232Y-110881308D01*
X119184300Y-110881308D01*
X119184300Y-111013092D01*
X119196630Y-111059108D01*
X119218408Y-111140387D01*
X119245230Y-111186843D01*
X119284300Y-111254514D01*
X119377486Y-111347700D01*
X119491614Y-111413592D01*
X119618908Y-111447700D01*
X119618910Y-111447700D01*
X119750690Y-111447700D01*
X119750692Y-111447700D01*
X119877986Y-111413592D01*
X119992114Y-111347700D01*
X120085300Y-111254514D01*
X120151192Y-111140386D01*
X120185300Y-111013092D01*
X120185300Y-110981075D01*
X120204985Y-110914036D01*
X120257789Y-110868281D01*
X120326947Y-110858337D01*
X120341386Y-110861298D01*
X120431708Y-110885500D01*
X120431710Y-110885500D01*
X120563490Y-110885500D01*
X120563492Y-110885500D01*
X120690786Y-110851392D01*
X120804914Y-110785500D01*
X120898100Y-110692314D01*
X120963992Y-110578186D01*
X120998100Y-110450892D01*
X120998100Y-110343153D01*
X123878545Y-110343153D01*
X123878545Y-110474936D01*
X123912653Y-110602232D01*
X123925510Y-110624500D01*
X123978545Y-110716359D01*
X123978547Y-110716361D01*
X124001118Y-110738932D01*
X124034603Y-110800255D01*
X124029619Y-110869947D01*
X124016415Y-110893791D01*
X124016718Y-110893966D01*
X124012656Y-110901000D01*
X124012654Y-110901003D01*
X123969800Y-110975227D01*
X123946762Y-111015130D01*
X123934978Y-111059110D01*
X123912654Y-111142425D01*
X123912654Y-111274209D01*
X123924438Y-111318187D01*
X123946762Y-111401504D01*
X123964550Y-111432313D01*
X124012654Y-111515631D01*
X124105840Y-111608817D01*
X124219968Y-111674709D01*
X124347262Y-111708817D01*
X124347264Y-111708817D01*
X124479044Y-111708817D01*
X124479046Y-111708817D01*
X124606340Y-111674709D01*
X124720468Y-111608817D01*
X124813654Y-111515631D01*
X124879546Y-111401503D01*
X124913654Y-111274209D01*
X124913654Y-111142425D01*
X124879546Y-111015131D01*
X124813654Y-110901003D01*
X124791079Y-110878428D01*
X124777407Y-110853389D01*
X124761127Y-110829966D01*
X124760878Y-110823118D01*
X124757595Y-110817104D01*
X124759630Y-110788651D01*
X124758598Y-110760142D01*
X124762201Y-110752720D01*
X124762581Y-110747412D01*
X124769786Y-110732343D01*
X130001265Y-110732343D01*
X130001265Y-110864127D01*
X130009260Y-110893966D01*
X130035373Y-110991422D01*
X130049061Y-111015129D01*
X130101265Y-111105549D01*
X130194451Y-111198735D01*
X130308579Y-111264627D01*
X130435873Y-111298735D01*
X130435875Y-111298735D01*
X130567655Y-111298735D01*
X130567657Y-111298735D01*
X130694951Y-111264627D01*
X130809079Y-111198735D01*
X130902265Y-111105549D01*
X130968157Y-110991421D01*
X131002265Y-110864127D01*
X131002265Y-110732343D01*
X130968157Y-110605049D01*
X130902265Y-110490921D01*
X130809079Y-110397735D01*
X130735926Y-110355500D01*
X130694952Y-110331843D01*
X130631304Y-110314789D01*
X130567657Y-110297735D01*
X130435873Y-110297735D01*
X130308577Y-110331843D01*
X130194451Y-110397735D01*
X130194448Y-110397737D01*
X130101267Y-110490918D01*
X130101265Y-110490921D01*
X130035373Y-110605047D01*
X130003366Y-110724502D01*
X130001265Y-110732343D01*
X124769786Y-110732343D01*
X124772088Y-110727528D01*
X124777488Y-110718415D01*
X124779545Y-110716359D01*
X124845437Y-110602231D01*
X124879545Y-110474937D01*
X124879545Y-110343153D01*
X124845437Y-110215859D01*
X124779545Y-110101731D01*
X124686359Y-110008545D01*
X124629295Y-109975599D01*
X124572232Y-109942653D01*
X124491013Y-109920891D01*
X124444937Y-109908545D01*
X124313153Y-109908545D01*
X124185857Y-109942653D01*
X124071731Y-110008545D01*
X124071728Y-110008547D01*
X123978547Y-110101728D01*
X123978545Y-110101731D01*
X123912653Y-110215857D01*
X123878545Y-110343153D01*
X120998100Y-110343153D01*
X120998100Y-110319108D01*
X120963992Y-110191814D01*
X120898100Y-110077686D01*
X120804914Y-109984500D01*
X120732433Y-109942653D01*
X120690787Y-109918608D01*
X120666949Y-109912221D01*
X120563492Y-109884500D01*
X120431708Y-109884500D01*
X120304412Y-109918608D01*
X120190286Y-109984500D01*
X120190283Y-109984502D01*
X120097102Y-110077683D01*
X120097100Y-110077686D01*
X120031208Y-110191812D01*
X119997100Y-110319108D01*
X119997100Y-110351124D01*
X119977415Y-110418163D01*
X119924611Y-110463918D01*
X119855453Y-110473862D01*
X119841008Y-110470899D01*
X119750693Y-110446700D01*
X119750692Y-110446700D01*
X119618908Y-110446700D01*
X119491612Y-110480808D01*
X119377486Y-110546700D01*
X119377483Y-110546702D01*
X119284302Y-110639883D01*
X119284300Y-110639886D01*
X119218408Y-110754012D01*
X119187344Y-110869947D01*
X119184300Y-110881308D01*
X116642232Y-110881308D01*
X116634711Y-110868281D01*
X116605500Y-110817686D01*
X116512314Y-110724500D01*
X116455250Y-110691554D01*
X116398187Y-110658608D01*
X116328303Y-110639883D01*
X116270892Y-110624500D01*
X116139108Y-110624500D01*
X116019638Y-110656511D01*
X116019636Y-110656512D01*
X116011814Y-110658608D01*
X115897686Y-110724500D01*
X115882660Y-110739525D01*
X115882658Y-110739527D01*
X115804500Y-110817686D01*
X115738608Y-110931812D01*
X115704500Y-111059108D01*
X105410000Y-111059108D01*
X105410000Y-108671508D01*
X112275500Y-108671508D01*
X112275500Y-108803291D01*
X112309608Y-108930587D01*
X112333461Y-108971900D01*
X112375500Y-109044714D01*
X112468686Y-109137900D01*
X112582814Y-109203792D01*
X112710108Y-109237900D01*
X112710110Y-109237900D01*
X112841890Y-109237900D01*
X112841892Y-109237900D01*
X112969186Y-109203792D01*
X113083314Y-109137900D01*
X113176500Y-109044714D01*
X113242392Y-108930586D01*
X113276500Y-108803292D01*
X113276500Y-108671508D01*
X113242392Y-108544214D01*
X113242342Y-108544127D01*
X113174005Y-108425764D01*
X113157532Y-108357864D01*
X113180384Y-108291837D01*
X113235306Y-108248647D01*
X113281392Y-108239764D01*
X113400690Y-108239764D01*
X113400692Y-108239764D01*
X113527986Y-108205656D01*
X113642114Y-108139764D01*
X113735300Y-108046578D01*
X113801192Y-107932450D01*
X113835300Y-107805156D01*
X113835300Y-107673372D01*
X113801192Y-107546078D01*
X113795750Y-107536653D01*
X113783565Y-107515548D01*
X113735300Y-107431950D01*
X113642114Y-107338764D01*
X113562984Y-107293078D01*
X113527987Y-107272872D01*
X113493001Y-107263498D01*
X113400692Y-107238764D01*
X113268908Y-107238764D01*
X113141612Y-107272872D01*
X113027486Y-107338764D01*
X113027483Y-107338766D01*
X112934302Y-107431947D01*
X112934300Y-107431950D01*
X112868408Y-107546076D01*
X112840119Y-107651656D01*
X112834300Y-107673372D01*
X112834300Y-107805156D01*
X112868276Y-107931959D01*
X112868409Y-107932452D01*
X112868409Y-107932453D01*
X112936795Y-108050900D01*
X112953268Y-108118800D01*
X112930416Y-108184827D01*
X112875494Y-108228017D01*
X112829408Y-108236900D01*
X112710108Y-108236900D01*
X112582812Y-108271008D01*
X112468686Y-108336900D01*
X112468683Y-108336902D01*
X112375502Y-108430083D01*
X112375500Y-108430086D01*
X112309608Y-108544212D01*
X112275500Y-108671508D01*
X105410000Y-108671508D01*
X105410000Y-107142343D01*
X114541265Y-107142343D01*
X114541265Y-107274127D01*
X114556761Y-107331959D01*
X114575373Y-107401422D01*
X114602233Y-107447944D01*
X114641265Y-107515549D01*
X114734451Y-107608735D01*
X114848579Y-107674627D01*
X114975873Y-107708735D01*
X114975875Y-107708735D01*
X115107655Y-107708735D01*
X115107657Y-107708735D01*
X115234951Y-107674627D01*
X115349079Y-107608735D01*
X115434426Y-107523387D01*
X115495745Y-107489905D01*
X115565437Y-107494889D01*
X115621371Y-107536760D01*
X115645788Y-107602224D01*
X115641879Y-107643163D01*
X115624900Y-107706530D01*
X115624900Y-107838315D01*
X115659008Y-107965611D01*
X115691460Y-108021819D01*
X115724900Y-108079738D01*
X115724902Y-108079740D01*
X115812678Y-108167516D01*
X115846163Y-108228839D01*
X115844772Y-108287290D01*
X115831479Y-108336902D01*
X115811265Y-108412343D01*
X115811265Y-108544127D01*
X115843308Y-108663716D01*
X115845374Y-108671423D01*
X115845374Y-108671424D01*
X115872099Y-108717713D01*
X115888572Y-108785613D01*
X115865719Y-108851640D01*
X115810798Y-108894831D01*
X115741245Y-108901472D01*
X115702712Y-108887100D01*
X115676385Y-108871900D01*
X115656422Y-108860374D01*
X115592774Y-108843320D01*
X115529127Y-108826266D01*
X115397343Y-108826266D01*
X115270047Y-108860374D01*
X115155921Y-108926266D01*
X115155918Y-108926268D01*
X115062737Y-109019449D01*
X115062735Y-109019452D01*
X114996843Y-109133578D01*
X114981876Y-109189438D01*
X114962735Y-109260874D01*
X114962735Y-109392658D01*
X114979305Y-109454500D01*
X114996843Y-109519953D01*
X115017834Y-109556309D01*
X115062735Y-109634080D01*
X115062738Y-109634083D01*
X115105895Y-109677241D01*
X115139379Y-109738564D01*
X115134394Y-109808256D01*
X115125601Y-109826920D01*
X115103608Y-109865012D01*
X115082805Y-109942653D01*
X115069500Y-109992308D01*
X115069500Y-110124092D01*
X115079742Y-110162316D01*
X115103608Y-110251387D01*
X115105983Y-110255500D01*
X115169500Y-110365514D01*
X115262686Y-110458700D01*
X115376814Y-110524592D01*
X115504108Y-110558700D01*
X115504110Y-110558700D01*
X115635890Y-110558700D01*
X115635892Y-110558700D01*
X115763186Y-110524592D01*
X115877314Y-110458700D01*
X115970500Y-110365514D01*
X116036392Y-110251386D01*
X116070500Y-110124092D01*
X116070500Y-109992308D01*
X116036392Y-109865014D01*
X115992568Y-109789108D01*
X125229500Y-109789108D01*
X125229500Y-109920891D01*
X125263608Y-110048187D01*
X125280638Y-110077683D01*
X125329500Y-110162314D01*
X125422686Y-110255500D01*
X125536814Y-110321392D01*
X125664108Y-110355500D01*
X125664110Y-110355500D01*
X125795890Y-110355500D01*
X125795892Y-110355500D01*
X125923186Y-110321392D01*
X126037314Y-110255500D01*
X126130500Y-110162314D01*
X126196392Y-110048186D01*
X126230500Y-109920892D01*
X126230500Y-109789108D01*
X127134500Y-109789108D01*
X127134500Y-109920891D01*
X127168608Y-110048187D01*
X127185638Y-110077683D01*
X127234500Y-110162314D01*
X127327686Y-110255500D01*
X127441814Y-110321392D01*
X127569108Y-110355500D01*
X127569110Y-110355500D01*
X127700890Y-110355500D01*
X127700892Y-110355500D01*
X127828186Y-110321392D01*
X127942314Y-110255500D01*
X128035500Y-110162314D01*
X128101392Y-110048186D01*
X128135500Y-109920892D01*
X128135500Y-109789108D01*
X128101392Y-109661814D01*
X128100917Y-109660992D01*
X128085379Y-109634079D01*
X128035500Y-109547686D01*
X127942314Y-109454500D01*
X127857908Y-109405768D01*
X127857906Y-109405766D01*
X127828189Y-109388609D01*
X127828186Y-109388608D01*
X127700892Y-109354500D01*
X127569108Y-109354500D01*
X127441812Y-109388608D01*
X127327686Y-109454500D01*
X127327683Y-109454502D01*
X127234502Y-109547683D01*
X127234500Y-109547686D01*
X127168608Y-109661812D01*
X127134500Y-109789108D01*
X126230500Y-109789108D01*
X126196392Y-109661814D01*
X126195917Y-109660992D01*
X126180379Y-109634079D01*
X126130500Y-109547686D01*
X126037314Y-109454500D01*
X125952908Y-109405768D01*
X125923187Y-109388608D01*
X125835015Y-109364983D01*
X125795892Y-109354500D01*
X125664108Y-109354500D01*
X125536812Y-109388608D01*
X125422686Y-109454500D01*
X125422683Y-109454502D01*
X125329502Y-109547683D01*
X125329500Y-109547686D01*
X125263608Y-109661812D01*
X125229500Y-109789108D01*
X115992568Y-109789108D01*
X115970500Y-109750886D01*
X115927340Y-109707726D01*
X115893855Y-109646403D01*
X115898839Y-109576711D01*
X115907631Y-109558048D01*
X115929627Y-109519952D01*
X115963735Y-109392658D01*
X115963735Y-109260874D01*
X115929627Y-109133580D01*
X115926814Y-109128708D01*
X117744500Y-109128708D01*
X117744500Y-109260492D01*
X117744603Y-109260876D01*
X117778608Y-109387787D01*
X117788990Y-109405768D01*
X117844500Y-109501914D01*
X117937686Y-109595100D01*
X118051814Y-109660992D01*
X118179108Y-109695100D01*
X118179110Y-109695100D01*
X118310890Y-109695100D01*
X118310892Y-109695100D01*
X118438186Y-109660992D01*
X118552314Y-109595100D01*
X118645500Y-109501914D01*
X118711392Y-109387786D01*
X118745500Y-109260492D01*
X118745500Y-109183551D01*
X121435690Y-109183551D01*
X121435690Y-109275839D01*
X121456767Y-109354500D01*
X121459577Y-109364985D01*
X121459578Y-109364988D01*
X121505716Y-109444900D01*
X121505719Y-109444904D01*
X121505721Y-109444907D01*
X121570978Y-109510164D01*
X121570981Y-109510165D01*
X121570984Y-109510168D01*
X121650896Y-109556306D01*
X121650897Y-109556306D01*
X121650902Y-109556309D01*
X121740046Y-109580195D01*
X121740048Y-109580195D01*
X121832332Y-109580195D01*
X121832334Y-109580195D01*
X121921478Y-109556309D01*
X122001402Y-109510164D01*
X122066659Y-109444907D01*
X122070479Y-109438290D01*
X122100253Y-109386723D01*
X122150820Y-109338508D01*
X122207639Y-109324724D01*
X122262142Y-109324724D01*
X122262144Y-109324724D01*
X122330127Y-109306508D01*
X136024500Y-109306508D01*
X136024500Y-109438292D01*
X136041547Y-109501913D01*
X136058608Y-109565587D01*
X136075646Y-109595097D01*
X136124500Y-109679714D01*
X136217686Y-109772900D01*
X136331814Y-109838792D01*
X136459108Y-109872900D01*
X136459110Y-109872900D01*
X136590890Y-109872900D01*
X136590892Y-109872900D01*
X136718186Y-109838792D01*
X136832314Y-109772900D01*
X136925500Y-109679714D01*
X136991392Y-109565586D01*
X137025500Y-109438292D01*
X137025500Y-109306508D01*
X136991392Y-109179214D01*
X136925500Y-109065086D01*
X136832314Y-108971900D01*
X136757119Y-108928486D01*
X136718187Y-108906008D01*
X136647620Y-108887100D01*
X136590892Y-108871900D01*
X136459108Y-108871900D01*
X136331812Y-108906008D01*
X136217686Y-108971900D01*
X136217683Y-108971902D01*
X136124502Y-109065083D01*
X136124500Y-109065086D01*
X136058608Y-109179212D01*
X136036830Y-109260490D01*
X136024500Y-109306508D01*
X122330127Y-109306508D01*
X122351288Y-109300838D01*
X122431212Y-109254693D01*
X122496469Y-109189436D01*
X122542614Y-109109512D01*
X122566500Y-109020368D01*
X122566500Y-108928080D01*
X122542614Y-108838936D01*
X122535299Y-108826266D01*
X122496473Y-108759018D01*
X122496470Y-108759015D01*
X122496469Y-108759012D01*
X122431212Y-108693755D01*
X122431209Y-108693753D01*
X122431205Y-108693750D01*
X122351293Y-108647612D01*
X122351290Y-108647611D01*
X122351289Y-108647610D01*
X122351288Y-108647610D01*
X122262144Y-108623724D01*
X122169856Y-108623724D01*
X122080712Y-108647610D01*
X122080711Y-108647610D01*
X122080709Y-108647611D01*
X122080706Y-108647612D01*
X122000794Y-108693750D01*
X122000785Y-108693757D01*
X121935533Y-108759009D01*
X121935529Y-108759015D01*
X121925095Y-108777085D01*
X121901937Y-108817196D01*
X121851372Y-108865411D01*
X121794552Y-108879195D01*
X121740046Y-108879195D01*
X121650902Y-108903081D01*
X121650901Y-108903081D01*
X121650899Y-108903082D01*
X121650896Y-108903083D01*
X121570984Y-108949221D01*
X121570975Y-108949228D01*
X121505723Y-109014480D01*
X121505716Y-109014489D01*
X121459578Y-109094401D01*
X121459577Y-109094404D01*
X121459576Y-109094406D01*
X121459576Y-109094407D01*
X121435690Y-109183551D01*
X118745500Y-109183551D01*
X118745500Y-109128708D01*
X118711392Y-109001414D01*
X118645500Y-108887286D01*
X118552314Y-108794100D01*
X118487877Y-108756897D01*
X118438187Y-108728208D01*
X118374539Y-108711154D01*
X118310892Y-108694100D01*
X118179108Y-108694100D01*
X118051812Y-108728208D01*
X117937686Y-108794100D01*
X117937683Y-108794102D01*
X117844502Y-108887283D01*
X117844500Y-108887286D01*
X117778608Y-109001412D01*
X117749643Y-109109514D01*
X117744500Y-109128708D01*
X115926814Y-109128708D01*
X115900136Y-109082500D01*
X115897812Y-109077493D01*
X115893414Y-109048188D01*
X115886427Y-109019387D01*
X115888286Y-109014015D01*
X115887443Y-109008397D01*
X115899584Y-108981369D01*
X115909279Y-108953360D01*
X115913746Y-108949847D01*
X115916075Y-108944663D01*
X115940908Y-108928486D01*
X115964200Y-108910170D01*
X115969856Y-108909629D01*
X115974620Y-108906527D01*
X116004259Y-108906344D01*
X116033754Y-108903528D01*
X116040703Y-108906120D01*
X116044488Y-108906097D01*
X116049985Y-108909582D01*
X116072288Y-108917901D01*
X116118573Y-108944624D01*
X116118574Y-108944624D01*
X116118579Y-108944627D01*
X116245873Y-108978735D01*
X116245875Y-108978735D01*
X116377655Y-108978735D01*
X116377657Y-108978735D01*
X116504951Y-108944627D01*
X116619079Y-108878735D01*
X116712265Y-108785549D01*
X116778157Y-108671421D01*
X116812265Y-108544127D01*
X116812265Y-108412343D01*
X116779620Y-108290508D01*
X119463700Y-108290508D01*
X119463700Y-108422292D01*
X119473662Y-108459470D01*
X119497808Y-108549587D01*
X119530754Y-108606650D01*
X119563700Y-108663714D01*
X119656886Y-108756900D01*
X119771014Y-108822792D01*
X119898308Y-108856900D01*
X119898310Y-108856900D01*
X120030090Y-108856900D01*
X120030092Y-108856900D01*
X120157386Y-108822792D01*
X120271514Y-108756900D01*
X120364700Y-108663714D01*
X120430592Y-108549586D01*
X120464700Y-108422292D01*
X120464700Y-108290508D01*
X120430592Y-108163214D01*
X120364700Y-108049086D01*
X120271514Y-107955900D01*
X120214450Y-107922954D01*
X120157387Y-107890008D01*
X120093739Y-107872954D01*
X120030092Y-107855900D01*
X119898308Y-107855900D01*
X119771012Y-107890008D01*
X119656886Y-107955900D01*
X119656883Y-107955902D01*
X119563702Y-108049083D01*
X119563700Y-108049086D01*
X119497808Y-108163212D01*
X119470191Y-108266283D01*
X119463700Y-108290508D01*
X116779620Y-108290508D01*
X116778157Y-108285049D01*
X116712265Y-108170921D01*
X116624486Y-108083142D01*
X116591001Y-108021819D01*
X116592391Y-107963371D01*
X116625900Y-107838316D01*
X116625900Y-107706532D01*
X116591792Y-107579238D01*
X116525900Y-107465110D01*
X116432714Y-107371924D01*
X116363493Y-107331959D01*
X116318587Y-107306032D01*
X116219581Y-107279504D01*
X116191292Y-107271924D01*
X116059508Y-107271924D01*
X115932212Y-107306032D01*
X115818086Y-107371924D01*
X115732741Y-107457269D01*
X115671417Y-107490753D01*
X115601726Y-107485769D01*
X115545792Y-107443897D01*
X115521376Y-107378432D01*
X115521560Y-107358461D01*
X115522518Y-107347823D01*
X115542265Y-107274127D01*
X115542265Y-107142343D01*
X117502735Y-107142343D01*
X117502735Y-107274127D01*
X117518231Y-107331959D01*
X117536843Y-107401422D01*
X117563703Y-107447944D01*
X117602735Y-107515549D01*
X117695921Y-107608735D01*
X117810049Y-107674627D01*
X117937343Y-107708735D01*
X117937345Y-107708735D01*
X118069125Y-107708735D01*
X118069127Y-107708735D01*
X118196421Y-107674627D01*
X118310549Y-107608735D01*
X118403735Y-107515549D01*
X118469627Y-107401421D01*
X118503735Y-107274127D01*
X118503735Y-107210043D01*
X121535728Y-107210043D01*
X121535728Y-107302331D01*
X121557469Y-107383470D01*
X121559615Y-107391477D01*
X121559616Y-107391480D01*
X121605754Y-107471392D01*
X121605757Y-107471396D01*
X121605759Y-107471399D01*
X121671016Y-107536656D01*
X121671019Y-107536657D01*
X121671022Y-107536660D01*
X121750934Y-107582798D01*
X121750935Y-107582798D01*
X121750940Y-107582801D01*
X121840084Y-107606687D01*
X121840086Y-107606687D01*
X121932370Y-107606687D01*
X121932372Y-107606687D01*
X122021516Y-107582801D01*
X122101440Y-107536656D01*
X122105482Y-107532613D01*
X122166800Y-107499128D01*
X122236492Y-107504109D01*
X122240611Y-107505729D01*
X122245256Y-107507652D01*
X122245263Y-107507656D01*
X122334407Y-107531542D01*
X122334409Y-107531542D01*
X122426693Y-107531542D01*
X122426695Y-107531542D01*
X122515839Y-107507656D01*
X122595763Y-107461511D01*
X122661020Y-107396254D01*
X122707165Y-107316330D01*
X122731051Y-107227186D01*
X122731051Y-107134898D01*
X122707165Y-107045754D01*
X122707162Y-107045748D01*
X122661024Y-106965836D01*
X122661021Y-106965833D01*
X122661020Y-106965830D01*
X122595763Y-106900573D01*
X122595760Y-106900571D01*
X122595756Y-106900568D01*
X122515844Y-106854430D01*
X122515841Y-106854429D01*
X122515840Y-106854428D01*
X122515839Y-106854428D01*
X122426695Y-106830542D01*
X122334407Y-106830542D01*
X122245263Y-106854428D01*
X122245262Y-106854428D01*
X122245260Y-106854429D01*
X122245257Y-106854430D01*
X122165345Y-106900568D01*
X122165337Y-106900574D01*
X122161291Y-106904621D01*
X122099966Y-106938103D01*
X122030275Y-106933115D01*
X122026172Y-106931501D01*
X122021518Y-106929574D01*
X122021517Y-106929573D01*
X122021516Y-106929573D01*
X121932372Y-106905687D01*
X121840084Y-106905687D01*
X121750940Y-106929573D01*
X121750939Y-106929573D01*
X121750937Y-106929574D01*
X121750934Y-106929575D01*
X121671022Y-106975713D01*
X121671013Y-106975720D01*
X121605761Y-107040972D01*
X121605754Y-107040981D01*
X121559616Y-107120893D01*
X121559615Y-107120896D01*
X121559614Y-107120898D01*
X121559614Y-107120899D01*
X121535728Y-107210043D01*
X118503735Y-107210043D01*
X118503735Y-107142343D01*
X118469627Y-107015049D01*
X118403735Y-106900921D01*
X118310549Y-106807735D01*
X118216960Y-106753701D01*
X118196422Y-106741843D01*
X118132774Y-106724789D01*
X118069127Y-106707735D01*
X117937343Y-106707735D01*
X117810047Y-106741843D01*
X117695921Y-106807735D01*
X117695918Y-106807737D01*
X117602737Y-106900918D01*
X117602735Y-106900921D01*
X117536843Y-107015047D01*
X117518097Y-107085011D01*
X117502735Y-107142343D01*
X115542265Y-107142343D01*
X115508157Y-107015049D01*
X115442265Y-106900921D01*
X115349079Y-106807735D01*
X115255490Y-106753701D01*
X115234952Y-106741843D01*
X115171304Y-106724789D01*
X115107657Y-106707735D01*
X114975873Y-106707735D01*
X114848577Y-106741843D01*
X114734451Y-106807735D01*
X114734448Y-106807737D01*
X114641267Y-106900918D01*
X114641265Y-106900921D01*
X114575373Y-107015047D01*
X114556627Y-107085011D01*
X114541265Y-107142343D01*
X105410000Y-107142343D01*
X105410000Y-105414656D01*
X123449100Y-105414656D01*
X123449100Y-105506944D01*
X123463988Y-105562508D01*
X123472987Y-105596090D01*
X123472988Y-105596093D01*
X123519126Y-105676005D01*
X123519129Y-105676009D01*
X123519131Y-105676012D01*
X123584388Y-105741269D01*
X123584391Y-105741270D01*
X123584394Y-105741273D01*
X123664306Y-105787411D01*
X123664307Y-105787411D01*
X123664312Y-105787414D01*
X123753456Y-105811300D01*
X123753458Y-105811300D01*
X123845742Y-105811300D01*
X123845744Y-105811300D01*
X123934888Y-105787414D01*
X124014812Y-105741269D01*
X124019851Y-105736230D01*
X124081174Y-105702745D01*
X124150866Y-105707729D01*
X124206799Y-105749601D01*
X124231216Y-105815065D01*
X124231529Y-105823847D01*
X124231532Y-105823865D01*
X124231532Y-105823867D01*
X124254980Y-105911377D01*
X124255419Y-105913013D01*
X124255420Y-105913016D01*
X124301558Y-105992928D01*
X124301561Y-105992932D01*
X124301563Y-105992935D01*
X124366820Y-106058192D01*
X124366823Y-106058193D01*
X124366826Y-106058196D01*
X124446738Y-106104334D01*
X124446739Y-106104334D01*
X124446744Y-106104337D01*
X124535888Y-106128223D01*
X124535890Y-106128223D01*
X124628174Y-106128223D01*
X124628176Y-106128223D01*
X124678197Y-106114820D01*
X125458532Y-106114820D01*
X125458532Y-106246604D01*
X125467347Y-106279502D01*
X125492640Y-106373899D01*
X125525586Y-106430962D01*
X125558532Y-106488026D01*
X125651718Y-106581212D01*
X125765846Y-106647104D01*
X125893140Y-106681212D01*
X125893148Y-106681212D01*
X125901200Y-106682273D01*
X125900819Y-106685164D01*
X125954397Y-106700897D01*
X126000152Y-106753701D01*
X126011358Y-106805212D01*
X126011358Y-106824862D01*
X126024306Y-106873186D01*
X126045466Y-106952157D01*
X126077525Y-107007683D01*
X126111358Y-107066284D01*
X126204544Y-107159470D01*
X126318672Y-107225362D01*
X126445966Y-107259470D01*
X126445968Y-107259470D01*
X126472313Y-107259470D01*
X126539352Y-107279155D01*
X126585107Y-107331959D01*
X126596313Y-107383470D01*
X126596313Y-107424862D01*
X126608783Y-107471401D01*
X126630421Y-107552157D01*
X126646057Y-107579238D01*
X126696313Y-107666284D01*
X126789499Y-107759470D01*
X126903627Y-107825362D01*
X127030921Y-107859470D01*
X127030923Y-107859470D01*
X127038000Y-107859470D01*
X127105039Y-107879155D01*
X127150794Y-107931959D01*
X127162000Y-107983470D01*
X127162000Y-108024862D01*
X127167819Y-108046578D01*
X127196108Y-108152157D01*
X127226996Y-108205655D01*
X127262000Y-108266284D01*
X127355186Y-108359470D01*
X127446768Y-108412345D01*
X127463996Y-108422292D01*
X127469314Y-108425362D01*
X127596608Y-108459470D01*
X127596610Y-108459470D01*
X127728390Y-108459470D01*
X127728392Y-108459470D01*
X127855686Y-108425362D01*
X127969814Y-108359470D01*
X128063000Y-108266284D01*
X128128892Y-108152156D01*
X128163000Y-108024862D01*
X128163000Y-107893078D01*
X128128892Y-107765784D01*
X128063000Y-107651656D01*
X127969814Y-107558470D01*
X127909054Y-107523390D01*
X127855687Y-107492578D01*
X127792039Y-107475524D01*
X127728392Y-107458470D01*
X127721313Y-107458470D01*
X127718809Y-107457734D01*
X127716276Y-107458368D01*
X127685465Y-107447944D01*
X127654274Y-107438785D01*
X127652564Y-107436812D01*
X127650092Y-107435976D01*
X127629806Y-107410548D01*
X127608519Y-107385981D01*
X127607646Y-107382770D01*
X127606519Y-107381357D01*
X127604581Y-107371486D01*
X127597960Y-107347117D01*
X127597313Y-107340807D01*
X127597313Y-107293078D01*
X127585531Y-107249108D01*
X130309500Y-107249108D01*
X130309500Y-107380892D01*
X130313616Y-107396254D01*
X130343608Y-107508187D01*
X130372641Y-107558472D01*
X130409500Y-107622314D01*
X130502686Y-107715500D01*
X130616814Y-107781392D01*
X130744108Y-107815500D01*
X130744110Y-107815500D01*
X130875890Y-107815500D01*
X130875892Y-107815500D01*
X131003186Y-107781392D01*
X131117314Y-107715500D01*
X131210500Y-107622314D01*
X131276392Y-107508186D01*
X131310500Y-107380892D01*
X131310500Y-107249108D01*
X131276392Y-107121814D01*
X131210500Y-107007686D01*
X131117314Y-106914500D01*
X131045756Y-106873186D01*
X131003187Y-106848608D01*
X130935762Y-106830542D01*
X130875892Y-106814500D01*
X130744108Y-106814500D01*
X130616812Y-106848608D01*
X130502686Y-106914500D01*
X130502683Y-106914502D01*
X130409502Y-107007683D01*
X130409500Y-107007686D01*
X130343608Y-107121812D01*
X130327883Y-107180500D01*
X130309500Y-107249108D01*
X127585531Y-107249108D01*
X127563205Y-107165784D01*
X127497313Y-107051656D01*
X127404127Y-106958470D01*
X127347063Y-106925524D01*
X127290000Y-106892578D01*
X127217626Y-106873186D01*
X127162705Y-106858470D01*
X127136358Y-106858470D01*
X127069319Y-106838785D01*
X127023564Y-106785981D01*
X127012358Y-106734470D01*
X127012358Y-106693080D01*
X127012358Y-106693078D01*
X126978250Y-106565784D01*
X126912358Y-106451656D01*
X126819172Y-106358470D01*
X126762108Y-106325524D01*
X126705045Y-106292578D01*
X126639397Y-106274988D01*
X126577750Y-106258470D01*
X126577749Y-106258470D01*
X126569690Y-106257409D01*
X126570070Y-106254517D01*
X126516493Y-106238785D01*
X126470738Y-106185981D01*
X126461317Y-106155434D01*
X126459532Y-106145027D01*
X126459532Y-106114820D01*
X126445131Y-106061077D01*
X126444169Y-106055464D01*
X126447570Y-106026197D01*
X126448272Y-105996744D01*
X126451558Y-105991887D01*
X126452236Y-105986061D01*
X126470920Y-105963280D01*
X126487434Y-105938881D01*
X126492826Y-105936571D01*
X126496545Y-105932038D01*
X126524576Y-105922975D01*
X126551662Y-105911377D01*
X126562439Y-105910734D01*
X126563027Y-105910545D01*
X126563505Y-105910671D01*
X126566384Y-105910500D01*
X126588422Y-105910500D01*
X126588424Y-105910500D01*
X126715718Y-105876392D01*
X126829846Y-105810500D01*
X126923032Y-105717314D01*
X126947977Y-105674108D01*
X132849500Y-105674108D01*
X132849500Y-105805892D01*
X132866554Y-105869539D01*
X132883608Y-105933187D01*
X132900983Y-105963280D01*
X132949500Y-106047314D01*
X133042686Y-106140500D01*
X133156814Y-106206392D01*
X133284108Y-106240500D01*
X133284110Y-106240500D01*
X133415890Y-106240500D01*
X133415892Y-106240500D01*
X133543186Y-106206392D01*
X133657314Y-106140500D01*
X133750500Y-106047314D01*
X133816392Y-105933186D01*
X133850500Y-105805892D01*
X133850500Y-105674108D01*
X133816392Y-105546814D01*
X133750500Y-105432686D01*
X133657314Y-105339500D01*
X133600250Y-105306554D01*
X133543187Y-105273608D01*
X133438635Y-105245594D01*
X133415892Y-105239500D01*
X133284108Y-105239500D01*
X133156812Y-105273608D01*
X133042686Y-105339500D01*
X133042683Y-105339502D01*
X132949502Y-105432683D01*
X132949500Y-105432686D01*
X132883608Y-105546812D01*
X132864456Y-105618291D01*
X132849500Y-105674108D01*
X126947977Y-105674108D01*
X126988467Y-105603978D01*
X126988921Y-105603193D01*
X126988921Y-105603190D01*
X126988924Y-105603186D01*
X127023032Y-105475892D01*
X127023032Y-105344108D01*
X127013905Y-105310045D01*
X127015568Y-105240199D01*
X127054730Y-105182337D01*
X127075352Y-105169936D01*
X127074938Y-105169219D01*
X127081977Y-105165155D01*
X127196105Y-105099263D01*
X127289291Y-105006077D01*
X127355183Y-104891949D01*
X127389291Y-104764655D01*
X127389291Y-104632871D01*
X127372644Y-104570742D01*
X127374307Y-104500893D01*
X127413470Y-104443031D01*
X127477699Y-104415527D01*
X127492419Y-104414650D01*
X127518181Y-104414650D01*
X127518183Y-104414650D01*
X127645477Y-104380542D01*
X127759605Y-104314650D01*
X127852791Y-104221464D01*
X127918683Y-104107336D01*
X127931168Y-104060739D01*
X127967530Y-104001081D01*
X128030377Y-103970550D01*
X128083030Y-103973057D01*
X128204108Y-104005500D01*
X128204111Y-104005500D01*
X128335890Y-104005500D01*
X128335892Y-104005500D01*
X128463186Y-103971392D01*
X128577314Y-103905500D01*
X128670500Y-103812314D01*
X128736392Y-103698186D01*
X128770500Y-103570892D01*
X128770500Y-103494500D01*
X128790185Y-103427461D01*
X128842989Y-103381706D01*
X128894500Y-103370500D01*
X128970890Y-103370500D01*
X128970892Y-103370500D01*
X129098186Y-103336392D01*
X129212314Y-103270500D01*
X129305500Y-103177314D01*
X129371392Y-103063186D01*
X129405500Y-102935892D01*
X129405500Y-102804108D01*
X129371392Y-102676814D01*
X129364853Y-102665489D01*
X129362563Y-102661521D01*
X129305500Y-102562686D01*
X129216922Y-102474108D01*
X130309500Y-102474108D01*
X130309500Y-102605891D01*
X130343608Y-102733187D01*
X130356491Y-102755500D01*
X130409500Y-102847314D01*
X130502686Y-102940500D01*
X130616814Y-103006392D01*
X130744108Y-103040500D01*
X130744110Y-103040500D01*
X130875890Y-103040500D01*
X130875892Y-103040500D01*
X131003186Y-103006392D01*
X131117314Y-102940500D01*
X131126910Y-102930904D01*
X131188233Y-102897419D01*
X131257925Y-102902403D01*
X131302272Y-102930904D01*
X131311868Y-102940500D01*
X131425996Y-103006392D01*
X131553290Y-103040500D01*
X131553292Y-103040500D01*
X131685072Y-103040500D01*
X131685074Y-103040500D01*
X131812368Y-103006392D01*
X131926496Y-102940500D01*
X131931496Y-102935499D01*
X131992814Y-102902010D01*
X132062506Y-102906988D01*
X132106864Y-102935493D01*
X132111871Y-102940500D01*
X132225999Y-103006392D01*
X132353293Y-103040500D01*
X132353295Y-103040500D01*
X132485075Y-103040500D01*
X132485077Y-103040500D01*
X132612371Y-103006392D01*
X132726499Y-102940500D01*
X132731499Y-102935499D01*
X132792817Y-102902010D01*
X132862509Y-102906988D01*
X132906867Y-102935493D01*
X132911874Y-102940500D01*
X133026002Y-103006392D01*
X133153296Y-103040500D01*
X133153298Y-103040500D01*
X133285078Y-103040500D01*
X133285080Y-103040500D01*
X133412374Y-103006392D01*
X133526502Y-102940500D01*
X133531502Y-102935499D01*
X133592820Y-102902010D01*
X133662512Y-102906988D01*
X133706870Y-102935493D01*
X133711877Y-102940500D01*
X133826005Y-103006392D01*
X133953299Y-103040500D01*
X133953301Y-103040500D01*
X134085081Y-103040500D01*
X134085083Y-103040500D01*
X134212377Y-103006392D01*
X134326505Y-102940500D01*
X134419691Y-102847314D01*
X134485583Y-102733186D01*
X134519691Y-102605892D01*
X134519691Y-102474108D01*
X134485583Y-102346814D01*
X134419691Y-102232686D01*
X134326505Y-102139500D01*
X134258955Y-102100500D01*
X134212378Y-102073608D01*
X134148730Y-102056554D01*
X134085083Y-102039500D01*
X133953299Y-102039500D01*
X133826004Y-102073608D01*
X133779427Y-102100500D01*
X133711877Y-102139500D01*
X133711875Y-102139501D01*
X133711873Y-102139503D01*
X133706866Y-102144510D01*
X133645541Y-102177992D01*
X133575850Y-102173005D01*
X133531508Y-102144506D01*
X133526504Y-102139502D01*
X133526502Y-102139500D01*
X133458952Y-102100500D01*
X133412375Y-102073608D01*
X133348727Y-102056554D01*
X133285080Y-102039500D01*
X133153296Y-102039500D01*
X133026001Y-102073608D01*
X132979424Y-102100500D01*
X132911874Y-102139500D01*
X132911872Y-102139501D01*
X132911870Y-102139503D01*
X132906863Y-102144510D01*
X132845538Y-102177992D01*
X132775847Y-102173005D01*
X132731505Y-102144506D01*
X132726501Y-102139502D01*
X132726499Y-102139500D01*
X132658949Y-102100500D01*
X132612372Y-102073608D01*
X132548724Y-102056554D01*
X132485077Y-102039500D01*
X132353293Y-102039500D01*
X132225998Y-102073608D01*
X132179421Y-102100500D01*
X132111871Y-102139500D01*
X132111869Y-102139501D01*
X132111867Y-102139503D01*
X132106860Y-102144510D01*
X132045535Y-102177992D01*
X131975844Y-102173005D01*
X131931502Y-102144506D01*
X131926498Y-102139502D01*
X131926496Y-102139500D01*
X131858946Y-102100500D01*
X131812369Y-102073608D01*
X131748721Y-102056554D01*
X131685074Y-102039500D01*
X131553290Y-102039500D01*
X131425994Y-102073608D01*
X131311868Y-102139500D01*
X131311865Y-102139502D01*
X131302272Y-102149096D01*
X131240949Y-102182581D01*
X131171257Y-102177597D01*
X131126910Y-102149096D01*
X131117316Y-102139502D01*
X131117314Y-102139500D01*
X131049764Y-102100500D01*
X131003187Y-102073608D01*
X130939539Y-102056554D01*
X130875892Y-102039500D01*
X130744108Y-102039500D01*
X130616812Y-102073608D01*
X130502686Y-102139500D01*
X130502683Y-102139502D01*
X130409502Y-102232683D01*
X130409500Y-102232686D01*
X130343608Y-102346812D01*
X130309500Y-102474108D01*
X129216922Y-102474108D01*
X129212314Y-102469500D01*
X129155250Y-102436554D01*
X129098187Y-102403608D01*
X129034539Y-102386554D01*
X128970892Y-102369500D01*
X128839108Y-102369500D01*
X128711812Y-102403608D01*
X128597686Y-102469500D01*
X128597683Y-102469502D01*
X128504502Y-102562683D01*
X128504500Y-102562686D01*
X128438608Y-102676812D01*
X128404500Y-102804108D01*
X128404500Y-102880500D01*
X128384815Y-102947539D01*
X128332011Y-102993294D01*
X128280500Y-103004500D01*
X128204108Y-103004500D01*
X128076812Y-103038608D01*
X127962686Y-103104500D01*
X127962683Y-103104502D01*
X127869502Y-103197683D01*
X127869500Y-103197686D01*
X127803608Y-103311814D01*
X127794612Y-103345388D01*
X127791123Y-103358410D01*
X127754758Y-103418070D01*
X127691910Y-103448599D01*
X127639255Y-103446091D01*
X127518183Y-103413650D01*
X127386399Y-103413650D01*
X127259103Y-103447758D01*
X127144977Y-103513650D01*
X127144974Y-103513652D01*
X127051793Y-103606833D01*
X127051791Y-103606836D01*
X126985899Y-103720962D01*
X126958419Y-103823522D01*
X126951791Y-103848258D01*
X126951791Y-103980042D01*
X126967406Y-104038319D01*
X126968438Y-104042170D01*
X126966775Y-104112020D01*
X126927612Y-104169882D01*
X126863383Y-104197386D01*
X126848663Y-104198263D01*
X126822899Y-104198263D01*
X126695603Y-104232371D01*
X126581477Y-104298263D01*
X126581474Y-104298265D01*
X126488293Y-104391446D01*
X126488291Y-104391449D01*
X126422399Y-104505575D01*
X126388291Y-104632871D01*
X126388291Y-104764656D01*
X126397417Y-104798715D01*
X126395754Y-104868565D01*
X126356591Y-104926427D01*
X126335972Y-104938828D01*
X126336385Y-104939544D01*
X126215218Y-105009500D01*
X126215215Y-105009502D01*
X126122034Y-105102683D01*
X126122032Y-105102686D01*
X126056140Y-105216812D01*
X126027015Y-105325512D01*
X126022032Y-105344108D01*
X126022032Y-105475892D01*
X126034954Y-105524121D01*
X126033292Y-105593968D01*
X125994130Y-105651831D01*
X125929902Y-105679335D01*
X125915180Y-105680212D01*
X125893140Y-105680212D01*
X125765844Y-105714320D01*
X125651718Y-105780212D01*
X125651715Y-105780214D01*
X125558534Y-105873395D01*
X125558532Y-105873398D01*
X125492640Y-105987524D01*
X125491190Y-105992937D01*
X125458532Y-106114820D01*
X124678197Y-106114820D01*
X124717320Y-106104337D01*
X124797244Y-106058192D01*
X124862501Y-105992935D01*
X124908646Y-105913011D01*
X124932532Y-105823867D01*
X124932532Y-105731579D01*
X124908646Y-105642435D01*
X124908643Y-105642429D01*
X124862505Y-105562517D01*
X124862502Y-105562514D01*
X124862501Y-105562511D01*
X124799097Y-105499107D01*
X124765612Y-105437784D01*
X124767003Y-105379334D01*
X124775048Y-105349313D01*
X124775048Y-105257025D01*
X124751162Y-105167881D01*
X124750805Y-105167262D01*
X124705021Y-105087963D01*
X124705018Y-105087960D01*
X124705017Y-105087957D01*
X124639760Y-105022700D01*
X124639757Y-105022698D01*
X124639753Y-105022695D01*
X124559841Y-104976557D01*
X124559838Y-104976556D01*
X124559837Y-104976555D01*
X124559836Y-104976555D01*
X124470692Y-104952669D01*
X124378404Y-104952669D01*
X124289260Y-104976555D01*
X124289259Y-104976555D01*
X124289257Y-104976556D01*
X124289254Y-104976557D01*
X124209342Y-105022695D01*
X124209333Y-105022702D01*
X124144081Y-105087954D01*
X124144077Y-105087960D01*
X124133762Y-105105826D01*
X124083194Y-105154040D01*
X124014587Y-105167262D01*
X123964374Y-105151210D01*
X123934890Y-105134186D01*
X123875458Y-105118262D01*
X123845744Y-105110300D01*
X123753456Y-105110300D01*
X123664312Y-105134186D01*
X123664311Y-105134186D01*
X123664309Y-105134187D01*
X123664306Y-105134188D01*
X123584394Y-105180326D01*
X123584385Y-105180333D01*
X123519133Y-105245585D01*
X123519126Y-105245594D01*
X123472988Y-105325506D01*
X123472987Y-105325509D01*
X123472986Y-105325511D01*
X123472986Y-105325512D01*
X123449100Y-105414656D01*
X105410000Y-105414656D01*
X105410000Y-104645691D01*
X113719500Y-104645691D01*
X113719500Y-104764309D01*
X113750201Y-104878886D01*
X113809511Y-104981613D01*
X113893387Y-105065489D01*
X113996114Y-105124799D01*
X114110691Y-105155500D01*
X114110694Y-105155500D01*
X114229306Y-105155500D01*
X114229309Y-105155500D01*
X114343886Y-105124799D01*
X114446613Y-105065489D01*
X114530489Y-104981613D01*
X114589799Y-104878886D01*
X114620500Y-104764309D01*
X114620500Y-104645691D01*
X115119500Y-104645691D01*
X115119500Y-104764309D01*
X115150201Y-104878886D01*
X115209511Y-104981613D01*
X115293387Y-105065489D01*
X115396114Y-105124799D01*
X115510691Y-105155500D01*
X115510694Y-105155500D01*
X115629306Y-105155500D01*
X115629309Y-105155500D01*
X115743886Y-105124799D01*
X115846613Y-105065489D01*
X115930489Y-104981613D01*
X115989799Y-104878886D01*
X116020500Y-104764309D01*
X116020500Y-104645691D01*
X115989799Y-104531114D01*
X115930489Y-104428387D01*
X115846613Y-104344511D01*
X115846610Y-104344509D01*
X115846606Y-104344506D01*
X115830343Y-104335116D01*
X115830341Y-104335116D01*
X115743886Y-104285201D01*
X115629309Y-104254500D01*
X115510691Y-104254500D01*
X115396114Y-104285201D01*
X115396112Y-104285201D01*
X115396112Y-104285202D01*
X115293387Y-104344511D01*
X115293384Y-104344513D01*
X115209513Y-104428384D01*
X115209511Y-104428387D01*
X115169775Y-104497212D01*
X115150201Y-104531114D01*
X115119500Y-104645691D01*
X114620500Y-104645691D01*
X114589799Y-104531114D01*
X114530489Y-104428387D01*
X114446613Y-104344511D01*
X114343886Y-104285201D01*
X114229309Y-104254500D01*
X114110691Y-104254500D01*
X113996114Y-104285201D01*
X113996112Y-104285201D01*
X113996112Y-104285202D01*
X113893387Y-104344511D01*
X113893384Y-104344513D01*
X113809513Y-104428384D01*
X113809511Y-104428387D01*
X113769775Y-104497212D01*
X113750201Y-104531114D01*
X113719500Y-104645691D01*
X105410000Y-104645691D01*
X105410000Y-103972508D01*
X107906700Y-103972508D01*
X107906700Y-104104292D01*
X107918066Y-104146712D01*
X107940808Y-104231587D01*
X107941261Y-104232371D01*
X108006700Y-104345714D01*
X108099886Y-104438900D01*
X108214014Y-104504792D01*
X108341308Y-104538900D01*
X108341310Y-104538900D01*
X108473090Y-104538900D01*
X108473092Y-104538900D01*
X108600386Y-104504792D01*
X108714514Y-104438900D01*
X108807700Y-104345714D01*
X108871127Y-104235856D01*
X120934500Y-104235856D01*
X120934500Y-104328144D01*
X120957914Y-104415527D01*
X120958387Y-104417290D01*
X120958388Y-104417293D01*
X121004526Y-104497205D01*
X121004529Y-104497209D01*
X121004531Y-104497212D01*
X121069788Y-104562469D01*
X121069791Y-104562470D01*
X121069794Y-104562473D01*
X121149706Y-104608611D01*
X121149707Y-104608611D01*
X121149712Y-104608614D01*
X121238856Y-104632500D01*
X121238858Y-104632500D01*
X121331142Y-104632500D01*
X121331144Y-104632500D01*
X121420288Y-104608614D01*
X121474999Y-104577025D01*
X121542898Y-104560552D01*
X121598999Y-104577025D01*
X121642190Y-104601961D01*
X121653708Y-104608612D01*
X121653712Y-104608614D01*
X121742856Y-104632500D01*
X121742858Y-104632500D01*
X121835142Y-104632500D01*
X121835144Y-104632500D01*
X121924288Y-104608614D01*
X122004212Y-104562469D01*
X122069469Y-104497212D01*
X122115614Y-104417288D01*
X122139500Y-104328144D01*
X122139500Y-104235856D01*
X122115614Y-104146712D01*
X122115611Y-104146706D01*
X122069473Y-104066794D01*
X122069470Y-104066791D01*
X122069469Y-104066788D01*
X122004212Y-104001531D01*
X122004209Y-104001529D01*
X122004205Y-104001526D01*
X121965222Y-103979019D01*
X122724663Y-103979019D01*
X122724663Y-104071307D01*
X122733501Y-104104292D01*
X122748550Y-104160453D01*
X122748551Y-104160456D01*
X122794689Y-104240368D01*
X122794692Y-104240372D01*
X122794694Y-104240375D01*
X122859951Y-104305632D01*
X122859954Y-104305633D01*
X122859957Y-104305636D01*
X122939869Y-104351774D01*
X122939870Y-104351774D01*
X122939875Y-104351777D01*
X123029019Y-104375663D01*
X123029021Y-104375663D01*
X123121305Y-104375663D01*
X123121307Y-104375663D01*
X123210451Y-104351777D01*
X123290375Y-104305632D01*
X123355632Y-104240375D01*
X123401777Y-104160451D01*
X123425663Y-104071307D01*
X123425663Y-103979019D01*
X123401777Y-103889875D01*
X123401776Y-103889874D01*
X123401776Y-103889872D01*
X123363467Y-103823522D01*
X123346993Y-103755622D01*
X123369844Y-103689595D01*
X123390215Y-103668485D01*
X123390187Y-103668457D01*
X123391762Y-103666881D01*
X123395374Y-103663139D01*
X123395926Y-103662714D01*
X123395934Y-103662710D01*
X123461191Y-103597453D01*
X123507336Y-103517529D01*
X123531222Y-103428385D01*
X123531222Y-103336097D01*
X123507336Y-103246953D01*
X123496615Y-103228384D01*
X123461195Y-103167035D01*
X123461192Y-103167032D01*
X123461191Y-103167029D01*
X123395934Y-103101772D01*
X123395931Y-103101770D01*
X123395927Y-103101767D01*
X123316015Y-103055629D01*
X123316012Y-103055628D01*
X123316011Y-103055627D01*
X123316010Y-103055627D01*
X123226866Y-103031741D01*
X123134578Y-103031741D01*
X123045434Y-103055627D01*
X123045433Y-103055627D01*
X123045431Y-103055628D01*
X123045428Y-103055629D01*
X122965516Y-103101767D01*
X122965507Y-103101774D01*
X122900255Y-103167026D01*
X122900248Y-103167035D01*
X122854110Y-103246947D01*
X122854109Y-103246950D01*
X122854108Y-103246952D01*
X122854108Y-103246953D01*
X122830222Y-103336097D01*
X122830222Y-103428385D01*
X122853069Y-103513652D01*
X122854109Y-103517531D01*
X122854110Y-103517534D01*
X122892417Y-103583882D01*
X122908891Y-103651782D01*
X122886039Y-103717809D01*
X122865670Y-103738919D01*
X122865698Y-103738947D01*
X122864174Y-103740470D01*
X122860526Y-103744252D01*
X122859954Y-103744690D01*
X122794696Y-103809948D01*
X122794689Y-103809957D01*
X122748551Y-103889869D01*
X122748550Y-103889872D01*
X122748549Y-103889874D01*
X122748549Y-103889875D01*
X122724663Y-103979019D01*
X121965222Y-103979019D01*
X121924293Y-103955388D01*
X121924290Y-103955387D01*
X121924289Y-103955386D01*
X121924288Y-103955386D01*
X121835144Y-103931500D01*
X121742856Y-103931500D01*
X121653711Y-103955386D01*
X121599001Y-103986974D01*
X121531101Y-104003447D01*
X121474999Y-103986974D01*
X121420288Y-103955386D01*
X121331144Y-103931500D01*
X121238856Y-103931500D01*
X121149712Y-103955386D01*
X121149711Y-103955386D01*
X121149709Y-103955387D01*
X121149706Y-103955388D01*
X121069794Y-104001526D01*
X121069785Y-104001533D01*
X121004533Y-104066785D01*
X121004526Y-104066794D01*
X120958388Y-104146706D01*
X120958387Y-104146709D01*
X120958386Y-104146711D01*
X120958386Y-104146712D01*
X120934500Y-104235856D01*
X108871127Y-104235856D01*
X108873592Y-104231586D01*
X108907700Y-104104292D01*
X108907700Y-103972508D01*
X108873592Y-103845214D01*
X108807700Y-103731086D01*
X108714514Y-103637900D01*
X108657450Y-103604954D01*
X108600387Y-103572008D01*
X108571641Y-103564306D01*
X108473092Y-103537900D01*
X108341308Y-103537900D01*
X108214012Y-103572008D01*
X108099886Y-103637900D01*
X108099883Y-103637902D01*
X108006702Y-103731083D01*
X108006700Y-103731086D01*
X107940808Y-103845212D01*
X107911287Y-103955388D01*
X107906700Y-103972508D01*
X105410000Y-103972508D01*
X105410000Y-103445691D01*
X113719500Y-103445691D01*
X113719500Y-103564309D01*
X113750201Y-103678886D01*
X113809511Y-103781613D01*
X113893387Y-103865489D01*
X113996114Y-103924799D01*
X114110691Y-103955500D01*
X114110694Y-103955500D01*
X114229306Y-103955500D01*
X114229309Y-103955500D01*
X114343886Y-103924799D01*
X114446613Y-103865489D01*
X114530489Y-103781613D01*
X114589799Y-103678886D01*
X114620500Y-103564309D01*
X114620500Y-103445691D01*
X115119500Y-103445691D01*
X115119500Y-103564309D01*
X115150201Y-103678886D01*
X115209511Y-103781613D01*
X115293387Y-103865489D01*
X115396114Y-103924799D01*
X115510691Y-103955500D01*
X115510694Y-103955500D01*
X115629306Y-103955500D01*
X115629309Y-103955500D01*
X115743886Y-103924799D01*
X115846613Y-103865489D01*
X115930489Y-103781613D01*
X115989799Y-103678886D01*
X116020500Y-103564309D01*
X116020500Y-103445691D01*
X115989799Y-103331114D01*
X115930489Y-103228387D01*
X115846613Y-103144511D01*
X115743886Y-103085201D01*
X115629309Y-103054500D01*
X115510691Y-103054500D01*
X115396114Y-103085201D01*
X115396112Y-103085201D01*
X115396112Y-103085202D01*
X115293387Y-103144511D01*
X115293384Y-103144513D01*
X115209513Y-103228384D01*
X115209511Y-103228387D01*
X115185199Y-103270497D01*
X115150201Y-103331114D01*
X115119500Y-103445691D01*
X114620500Y-103445691D01*
X114589799Y-103331114D01*
X114530489Y-103228387D01*
X114446613Y-103144511D01*
X114343886Y-103085201D01*
X114229309Y-103054500D01*
X114110691Y-103054500D01*
X113996114Y-103085201D01*
X113996112Y-103085201D01*
X113996112Y-103085202D01*
X113893387Y-103144511D01*
X113893384Y-103144513D01*
X113809513Y-103228384D01*
X113809511Y-103228387D01*
X113785199Y-103270497D01*
X113750201Y-103331114D01*
X113719500Y-103445691D01*
X105410000Y-103445691D01*
X105410000Y-102245691D01*
X113719500Y-102245691D01*
X113719500Y-102364309D01*
X113750201Y-102478886D01*
X113809511Y-102581613D01*
X113893387Y-102665489D01*
X113996114Y-102724799D01*
X114110691Y-102755500D01*
X114110694Y-102755500D01*
X114229306Y-102755500D01*
X114229309Y-102755500D01*
X114343886Y-102724799D01*
X114446613Y-102665489D01*
X114530489Y-102581613D01*
X114589799Y-102478886D01*
X114620500Y-102364309D01*
X114620500Y-102245691D01*
X115119500Y-102245691D01*
X115119500Y-102364309D01*
X115150201Y-102478886D01*
X115209511Y-102581613D01*
X115293387Y-102665489D01*
X115396114Y-102724799D01*
X115510691Y-102755500D01*
X115510694Y-102755500D01*
X115629306Y-102755500D01*
X115629309Y-102755500D01*
X115743886Y-102724799D01*
X115846613Y-102665489D01*
X115930489Y-102581613D01*
X115989799Y-102478886D01*
X116020500Y-102364309D01*
X116020500Y-102245691D01*
X115989799Y-102131114D01*
X115930489Y-102028387D01*
X115846613Y-101944511D01*
X115743886Y-101885201D01*
X115629309Y-101854500D01*
X115510691Y-101854500D01*
X115396114Y-101885201D01*
X115396112Y-101885201D01*
X115396112Y-101885202D01*
X115293387Y-101944511D01*
X115293384Y-101944513D01*
X115209513Y-102028384D01*
X115209511Y-102028387D01*
X115150201Y-102131114D01*
X115119500Y-102245691D01*
X114620500Y-102245691D01*
X114589799Y-102131114D01*
X114530489Y-102028387D01*
X114446613Y-101944511D01*
X114343886Y-101885201D01*
X114229309Y-101854500D01*
X114110691Y-101854500D01*
X113996114Y-101885201D01*
X113996112Y-101885201D01*
X113996112Y-101885202D01*
X113893387Y-101944511D01*
X113893384Y-101944513D01*
X113809513Y-102028384D01*
X113809511Y-102028387D01*
X113750201Y-102131114D01*
X113719500Y-102245691D01*
X105410000Y-102245691D01*
X105410000Y-101534108D01*
X110091100Y-101534108D01*
X110091100Y-101665891D01*
X110125208Y-101793187D01*
X110158154Y-101850250D01*
X110191100Y-101907314D01*
X110284286Y-102000500D01*
X110398414Y-102066392D01*
X110525708Y-102100500D01*
X110525710Y-102100500D01*
X110657490Y-102100500D01*
X110657492Y-102100500D01*
X110784786Y-102066392D01*
X110898914Y-102000500D01*
X110992100Y-101907314D01*
X111057992Y-101793186D01*
X111092100Y-101665892D01*
X111092100Y-101534108D01*
X111057992Y-101406814D01*
X111057517Y-101405992D01*
X111049163Y-101391521D01*
X110992100Y-101292686D01*
X110898914Y-101199500D01*
X110841850Y-101166554D01*
X110784787Y-101133608D01*
X110721139Y-101116554D01*
X110657492Y-101099500D01*
X110525708Y-101099500D01*
X110398412Y-101133608D01*
X110284286Y-101199500D01*
X110284283Y-101199502D01*
X110191102Y-101292683D01*
X110191100Y-101292686D01*
X110125208Y-101406812D01*
X110091100Y-101534108D01*
X105410000Y-101534108D01*
X105410000Y-100934108D01*
X113240700Y-100934108D01*
X113240700Y-101065891D01*
X113274808Y-101193187D01*
X113305827Y-101246913D01*
X113340700Y-101307314D01*
X113433886Y-101400500D01*
X113548014Y-101466392D01*
X113675308Y-101500500D01*
X113675310Y-101500500D01*
X113807090Y-101500500D01*
X113807092Y-101500500D01*
X113934386Y-101466392D01*
X114048514Y-101400500D01*
X114141700Y-101307314D01*
X114207592Y-101193186D01*
X114241700Y-101065892D01*
X114241700Y-100934108D01*
X114225516Y-100873708D01*
X122664100Y-100873708D01*
X122664100Y-101005491D01*
X122698208Y-101132787D01*
X122731154Y-101189850D01*
X122764100Y-101246914D01*
X122857286Y-101340100D01*
X122971414Y-101405992D01*
X123098708Y-101440100D01*
X123098710Y-101440100D01*
X123230490Y-101440100D01*
X123230492Y-101440100D01*
X123357786Y-101405992D01*
X123471914Y-101340100D01*
X123565100Y-101246914D01*
X123630992Y-101132786D01*
X123665100Y-101005492D01*
X123665100Y-100873708D01*
X123630992Y-100746414D01*
X123565100Y-100632286D01*
X123471914Y-100539100D01*
X123403325Y-100499500D01*
X123357787Y-100473208D01*
X123294139Y-100456154D01*
X123230492Y-100439100D01*
X123098708Y-100439100D01*
X122971412Y-100473208D01*
X122857286Y-100539100D01*
X122857283Y-100539102D01*
X122764102Y-100632283D01*
X122764100Y-100632286D01*
X122698208Y-100746412D01*
X122664100Y-100873708D01*
X114225516Y-100873708D01*
X114207592Y-100806814D01*
X114141700Y-100692686D01*
X114048514Y-100599500D01*
X113991450Y-100566554D01*
X113934387Y-100533608D01*
X113870739Y-100516554D01*
X113807092Y-100499500D01*
X113675308Y-100499500D01*
X113548012Y-100533608D01*
X113433886Y-100599500D01*
X113433883Y-100599502D01*
X113340702Y-100692683D01*
X113340700Y-100692686D01*
X113274808Y-100806812D01*
X113240700Y-100934108D01*
X105410000Y-100934108D01*
X105410000Y-99916756D01*
X105429685Y-99849717D01*
X105482489Y-99803962D01*
X105534000Y-99792756D01*
X105650034Y-99792756D01*
X105650036Y-99792756D01*
X105777330Y-99758648D01*
X105891458Y-99692756D01*
X105984644Y-99599570D01*
X106050536Y-99485442D01*
X106084644Y-99358148D01*
X106084644Y-99226364D01*
X106059924Y-99134108D01*
X106589450Y-99134108D01*
X106589450Y-99265891D01*
X106623558Y-99393187D01*
X106656504Y-99450250D01*
X106689450Y-99507314D01*
X106782636Y-99600500D01*
X106896764Y-99666392D01*
X107024058Y-99700500D01*
X107024060Y-99700500D01*
X107155840Y-99700500D01*
X107155842Y-99700500D01*
X107283136Y-99666392D01*
X107397264Y-99600500D01*
X107490450Y-99507314D01*
X107556342Y-99393186D01*
X107590450Y-99265892D01*
X107590450Y-99134108D01*
X107556342Y-99006814D01*
X107490450Y-98892686D01*
X107397264Y-98799500D01*
X107340200Y-98766554D01*
X107283137Y-98733608D01*
X107219489Y-98716554D01*
X107155842Y-98699500D01*
X107024058Y-98699500D01*
X106896762Y-98733608D01*
X106782636Y-98799500D01*
X106782633Y-98799502D01*
X106689452Y-98892683D01*
X106689450Y-98892686D01*
X106623558Y-99006812D01*
X106589450Y-99134108D01*
X106059924Y-99134108D01*
X106050536Y-99099070D01*
X105984644Y-98984942D01*
X105891458Y-98891756D01*
X105834394Y-98858810D01*
X105777331Y-98825864D01*
X105713683Y-98808810D01*
X105650036Y-98791756D01*
X105534000Y-98791756D01*
X105466961Y-98772071D01*
X105421206Y-98719267D01*
X105410000Y-98667756D01*
X105410000Y-98004108D01*
X112326300Y-98004108D01*
X112326300Y-98135891D01*
X112360408Y-98263187D01*
X112393354Y-98320250D01*
X112426300Y-98377314D01*
X112519486Y-98470500D01*
X112633614Y-98536392D01*
X112760908Y-98570500D01*
X112760910Y-98570500D01*
X112892690Y-98570500D01*
X112892692Y-98570500D01*
X113019986Y-98536392D01*
X113134114Y-98470500D01*
X113227300Y-98377314D01*
X113293192Y-98263186D01*
X113327300Y-98135892D01*
X113327300Y-98004108D01*
X113293192Y-97876814D01*
X113227300Y-97762686D01*
X113134114Y-97669500D01*
X113077050Y-97636554D01*
X113019987Y-97603608D01*
X112956339Y-97586554D01*
X112892692Y-97569500D01*
X112760908Y-97569500D01*
X112633612Y-97603608D01*
X112519486Y-97669500D01*
X112519483Y-97669502D01*
X112426302Y-97762683D01*
X112426300Y-97762686D01*
X112360408Y-97876812D01*
X112326300Y-98004108D01*
X105410000Y-98004108D01*
X105410000Y-97790000D01*
X99184000Y-97790000D01*
X99116961Y-97770315D01*
X99071206Y-97717511D01*
X99060000Y-97666000D01*
X99060000Y-96225508D01*
X123807100Y-96225508D01*
X123807100Y-96357291D01*
X123841208Y-96484587D01*
X123874154Y-96541650D01*
X123907100Y-96598714D01*
X124000286Y-96691900D01*
X124114414Y-96757792D01*
X124241708Y-96791900D01*
X124241710Y-96791900D01*
X124373490Y-96791900D01*
X124373492Y-96791900D01*
X124500786Y-96757792D01*
X124614914Y-96691900D01*
X124708100Y-96598714D01*
X124773992Y-96484586D01*
X124808100Y-96357292D01*
X124808100Y-96225508D01*
X124773992Y-96098214D01*
X124708100Y-95984086D01*
X124614914Y-95890900D01*
X124557850Y-95857954D01*
X124500787Y-95825008D01*
X124437139Y-95807954D01*
X124373492Y-95790900D01*
X124241708Y-95790900D01*
X124114412Y-95825008D01*
X124000286Y-95890900D01*
X124000283Y-95890902D01*
X123907102Y-95984083D01*
X123907100Y-95984086D01*
X123841208Y-96098212D01*
X123807100Y-96225508D01*
X99060000Y-96225508D01*
X99060000Y-94066508D01*
X110065700Y-94066508D01*
X110065700Y-94198291D01*
X110099808Y-94325587D01*
X110132754Y-94382650D01*
X110165700Y-94439714D01*
X110258886Y-94532900D01*
X110373014Y-94598792D01*
X110500308Y-94632900D01*
X110500310Y-94632900D01*
X110632090Y-94632900D01*
X110632092Y-94632900D01*
X110759386Y-94598792D01*
X110873514Y-94532900D01*
X110966700Y-94439714D01*
X111032592Y-94325586D01*
X111066700Y-94198292D01*
X111066700Y-94066508D01*
X111032592Y-93939214D01*
X110966700Y-93825086D01*
X110873514Y-93731900D01*
X110816450Y-93698954D01*
X110759387Y-93666008D01*
X110695739Y-93648954D01*
X110632092Y-93631900D01*
X110500308Y-93631900D01*
X110373012Y-93666008D01*
X110258886Y-93731900D01*
X110258883Y-93731902D01*
X110165702Y-93825083D01*
X110165700Y-93825086D01*
X110099808Y-93939212D01*
X110065700Y-94066508D01*
X99060000Y-94066508D01*
X99060000Y-93074108D01*
X134170300Y-93074108D01*
X134170300Y-93205891D01*
X134204408Y-93333187D01*
X134237354Y-93390250D01*
X134270300Y-93447314D01*
X134363486Y-93540500D01*
X134477614Y-93606392D01*
X134604908Y-93640500D01*
X134604910Y-93640500D01*
X134736690Y-93640500D01*
X134736692Y-93640500D01*
X134863986Y-93606392D01*
X134978114Y-93540500D01*
X135071300Y-93447314D01*
X135137192Y-93333186D01*
X135171300Y-93205892D01*
X135171300Y-93074108D01*
X135137192Y-92946814D01*
X135071300Y-92832686D01*
X134978114Y-92739500D01*
X134921050Y-92706554D01*
X134863987Y-92673608D01*
X134800339Y-92656554D01*
X134736692Y-92639500D01*
X134604908Y-92639500D01*
X134477612Y-92673608D01*
X134363486Y-92739500D01*
X134363483Y-92739502D01*
X134270302Y-92832683D01*
X134270300Y-92832686D01*
X134204408Y-92946812D01*
X134170300Y-93074108D01*
X99060000Y-93074108D01*
X99060000Y-91221708D01*
X115481265Y-91221708D01*
X115481265Y-91353491D01*
X115515373Y-91480787D01*
X115548319Y-91537850D01*
X115581265Y-91594914D01*
X115674451Y-91688100D01*
X115788579Y-91753992D01*
X115915873Y-91788100D01*
X115915875Y-91788100D01*
X116047655Y-91788100D01*
X116047657Y-91788100D01*
X116174951Y-91753992D01*
X116289079Y-91688100D01*
X116382265Y-91594914D01*
X116448157Y-91480786D01*
X116482265Y-91353492D01*
X116482265Y-91221708D01*
X116448157Y-91094414D01*
X116382265Y-90980286D01*
X116289079Y-90887100D01*
X116232015Y-90854154D01*
X116174952Y-90821208D01*
X116111304Y-90804154D01*
X116047657Y-90787100D01*
X115915873Y-90787100D01*
X115788577Y-90821208D01*
X115674451Y-90887100D01*
X115674448Y-90887102D01*
X115581267Y-90980283D01*
X115581265Y-90980286D01*
X115515373Y-91094412D01*
X115481265Y-91221708D01*
X99060000Y-91221708D01*
X99060000Y-87219808D01*
X106001700Y-87219808D01*
X106001700Y-87351591D01*
X106035808Y-87478887D01*
X106068754Y-87535950D01*
X106101700Y-87593014D01*
X106194886Y-87686200D01*
X106309014Y-87752092D01*
X106436308Y-87786200D01*
X106436310Y-87786200D01*
X106568090Y-87786200D01*
X106568092Y-87786200D01*
X106695386Y-87752092D01*
X106809514Y-87686200D01*
X106902700Y-87593014D01*
X106968592Y-87478886D01*
X107002700Y-87351592D01*
X107002700Y-87219808D01*
X106968592Y-87092514D01*
X106902700Y-86978386D01*
X106809514Y-86885200D01*
X106752450Y-86852254D01*
X106695387Y-86819308D01*
X106631739Y-86802254D01*
X106568092Y-86785200D01*
X106436308Y-86785200D01*
X106309012Y-86819308D01*
X106194886Y-86885200D01*
X106194883Y-86885202D01*
X106101702Y-86978383D01*
X106101700Y-86978386D01*
X106035808Y-87092512D01*
X106001700Y-87219808D01*
X99060000Y-87219808D01*
X99060000Y-85526608D01*
X101336361Y-85526608D01*
X101336361Y-85658391D01*
X101370469Y-85785687D01*
X101403415Y-85842750D01*
X101436361Y-85899814D01*
X101529547Y-85993000D01*
X101643675Y-86058892D01*
X101770969Y-86093000D01*
X101770971Y-86093000D01*
X101902751Y-86093000D01*
X101902753Y-86093000D01*
X102030047Y-86058892D01*
X102144175Y-85993000D01*
X102237361Y-85899814D01*
X102303253Y-85785686D01*
X102337361Y-85658392D01*
X102337361Y-85526608D01*
X102303253Y-85399314D01*
X102237361Y-85285186D01*
X102144175Y-85192000D01*
X102087111Y-85159054D01*
X102030048Y-85126108D01*
X101966400Y-85109054D01*
X101902753Y-85092000D01*
X101770969Y-85092000D01*
X101643673Y-85126108D01*
X101529547Y-85192000D01*
X101529544Y-85192002D01*
X101436363Y-85285183D01*
X101436361Y-85285186D01*
X101370469Y-85399312D01*
X101336361Y-85526608D01*
X99060000Y-85526608D01*
X99060000Y-80579108D01*
X109989500Y-80579108D01*
X109989500Y-80710891D01*
X110023608Y-80838187D01*
X110047461Y-80879500D01*
X110089500Y-80952314D01*
X110182686Y-81045500D01*
X110296814Y-81111392D01*
X110424108Y-81145500D01*
X110424110Y-81145500D01*
X110500500Y-81145500D01*
X110567539Y-81165185D01*
X110613294Y-81217989D01*
X110624500Y-81269500D01*
X110624500Y-81345891D01*
X110658608Y-81473187D01*
X110682461Y-81514500D01*
X110724500Y-81587314D01*
X110817686Y-81680500D01*
X110931814Y-81746392D01*
X111059108Y-81780500D01*
X111059110Y-81780500D01*
X111135500Y-81780500D01*
X111202539Y-81800185D01*
X111248294Y-81852989D01*
X111259500Y-81904500D01*
X111259500Y-81980891D01*
X111293608Y-82108187D01*
X111317461Y-82149500D01*
X111359500Y-82222314D01*
X111452686Y-82315500D01*
X111566814Y-82381392D01*
X111694108Y-82415500D01*
X111694110Y-82415500D01*
X111770500Y-82415500D01*
X111837539Y-82435185D01*
X111883294Y-82487989D01*
X111894500Y-82539500D01*
X111894500Y-82615891D01*
X111928608Y-82743187D01*
X111961554Y-82800250D01*
X111994500Y-82857314D01*
X112087686Y-82950500D01*
X112201814Y-83016392D01*
X112329108Y-83050500D01*
X112329110Y-83050500D01*
X112460890Y-83050500D01*
X112460892Y-83050500D01*
X112588186Y-83016392D01*
X112702314Y-82950500D01*
X112795500Y-82857314D01*
X112861392Y-82743186D01*
X112895500Y-82615892D01*
X112895500Y-82484108D01*
X112861392Y-82356814D01*
X112795500Y-82242686D01*
X112702314Y-82149500D01*
X112630756Y-82108186D01*
X112588187Y-82083608D01*
X112524539Y-82066554D01*
X112460892Y-82049500D01*
X112384500Y-82049500D01*
X112317461Y-82029815D01*
X112271706Y-81977011D01*
X112260500Y-81925500D01*
X112260500Y-81849110D01*
X112260500Y-81849108D01*
X112226392Y-81721814D01*
X112160500Y-81607686D01*
X112067314Y-81514500D01*
X111995756Y-81473186D01*
X111953187Y-81448608D01*
X111889539Y-81431554D01*
X111825892Y-81414500D01*
X111749500Y-81414500D01*
X111682461Y-81394815D01*
X111636706Y-81342011D01*
X111625500Y-81290500D01*
X111625500Y-81214110D01*
X111625500Y-81214108D01*
X111591392Y-81086814D01*
X111525500Y-80972686D01*
X111432314Y-80879500D01*
X111360756Y-80838186D01*
X111318187Y-80813608D01*
X111254539Y-80796554D01*
X111190892Y-80779500D01*
X111114500Y-80779500D01*
X111047461Y-80759815D01*
X111001706Y-80707011D01*
X110990500Y-80655500D01*
X110990500Y-80579110D01*
X110990500Y-80579108D01*
X110956392Y-80451814D01*
X110948730Y-80438543D01*
X121051999Y-80438543D01*
X121090447Y-80631829D01*
X121090450Y-80631839D01*
X121165864Y-80813907D01*
X121165871Y-80813920D01*
X121275360Y-80977781D01*
X121275363Y-80977785D01*
X121414714Y-81117136D01*
X121414718Y-81117139D01*
X121578579Y-81226628D01*
X121578592Y-81226635D01*
X121682079Y-81269500D01*
X121760665Y-81302051D01*
X121760669Y-81302051D01*
X121760670Y-81302052D01*
X121953956Y-81340500D01*
X121953959Y-81340500D01*
X122151043Y-81340500D01*
X122281082Y-81314632D01*
X122344335Y-81302051D01*
X122526414Y-81226632D01*
X122690282Y-81117139D01*
X122829639Y-80977782D01*
X122939132Y-80813914D01*
X123014551Y-80631835D01*
X123050360Y-80451814D01*
X123053000Y-80438543D01*
X123551999Y-80438543D01*
X123590447Y-80631829D01*
X123590450Y-80631839D01*
X123665864Y-80813907D01*
X123665871Y-80813920D01*
X123775360Y-80977781D01*
X123775363Y-80977785D01*
X123914714Y-81117136D01*
X123914718Y-81117139D01*
X124078579Y-81226628D01*
X124078592Y-81226635D01*
X124182079Y-81269500D01*
X124260665Y-81302051D01*
X124260669Y-81302051D01*
X124260670Y-81302052D01*
X124453956Y-81340500D01*
X124453959Y-81340500D01*
X124651043Y-81340500D01*
X124781082Y-81314632D01*
X124844335Y-81302051D01*
X125026414Y-81226632D01*
X125190282Y-81117139D01*
X125329639Y-80977782D01*
X125439132Y-80813914D01*
X125514551Y-80631835D01*
X125550360Y-80451814D01*
X125553000Y-80438543D01*
X126051999Y-80438543D01*
X126090447Y-80631829D01*
X126090450Y-80631839D01*
X126165864Y-80813907D01*
X126165871Y-80813920D01*
X126275360Y-80977781D01*
X126275363Y-80977785D01*
X126414714Y-81117136D01*
X126414718Y-81117139D01*
X126578579Y-81226628D01*
X126578592Y-81226635D01*
X126682079Y-81269500D01*
X126760665Y-81302051D01*
X126760669Y-81302051D01*
X126760670Y-81302052D01*
X126953956Y-81340500D01*
X126953959Y-81340500D01*
X127151043Y-81340500D01*
X127281082Y-81314632D01*
X127344335Y-81302051D01*
X127526414Y-81226632D01*
X127690282Y-81117139D01*
X127829639Y-80977782D01*
X127939132Y-80813914D01*
X128014551Y-80631835D01*
X128050360Y-80451814D01*
X128053000Y-80438543D01*
X128053000Y-80241456D01*
X128014552Y-80048170D01*
X128014551Y-80048169D01*
X128014551Y-80048165D01*
X127985778Y-79978700D01*
X127939135Y-79866092D01*
X127939128Y-79866079D01*
X127829639Y-79702218D01*
X127829636Y-79702214D01*
X127690285Y-79562863D01*
X127690281Y-79562860D01*
X127526420Y-79453371D01*
X127526407Y-79453364D01*
X127344339Y-79377950D01*
X127344329Y-79377947D01*
X127151043Y-79339500D01*
X127151041Y-79339500D01*
X126953959Y-79339500D01*
X126953957Y-79339500D01*
X126760670Y-79377947D01*
X126760660Y-79377950D01*
X126578592Y-79453364D01*
X126578579Y-79453371D01*
X126414718Y-79562860D01*
X126414714Y-79562863D01*
X126275363Y-79702214D01*
X126275360Y-79702218D01*
X126165871Y-79866079D01*
X126165864Y-79866092D01*
X126090450Y-80048160D01*
X126090447Y-80048170D01*
X126052000Y-80241456D01*
X126052000Y-80241459D01*
X126052000Y-80438541D01*
X126052000Y-80438543D01*
X126051999Y-80438543D01*
X125553000Y-80438543D01*
X125553000Y-80241456D01*
X125514552Y-80048170D01*
X125514551Y-80048169D01*
X125514551Y-80048165D01*
X125485778Y-79978700D01*
X125439135Y-79866092D01*
X125439128Y-79866079D01*
X125329639Y-79702218D01*
X125329636Y-79702214D01*
X125190285Y-79562863D01*
X125190281Y-79562860D01*
X125026420Y-79453371D01*
X125026407Y-79453364D01*
X124844339Y-79377950D01*
X124844329Y-79377947D01*
X124651043Y-79339500D01*
X124651041Y-79339500D01*
X124453959Y-79339500D01*
X124453957Y-79339500D01*
X124260670Y-79377947D01*
X124260660Y-79377950D01*
X124078592Y-79453364D01*
X124078579Y-79453371D01*
X123914718Y-79562860D01*
X123914714Y-79562863D01*
X123775363Y-79702214D01*
X123775360Y-79702218D01*
X123665871Y-79866079D01*
X123665864Y-79866092D01*
X123590450Y-80048160D01*
X123590447Y-80048170D01*
X123552000Y-80241456D01*
X123552000Y-80241459D01*
X123552000Y-80438541D01*
X123552000Y-80438543D01*
X123551999Y-80438543D01*
X123053000Y-80438543D01*
X123053000Y-80241456D01*
X123014552Y-80048170D01*
X123014551Y-80048169D01*
X123014551Y-80048165D01*
X122985778Y-79978700D01*
X122939135Y-79866092D01*
X122939128Y-79866079D01*
X122829639Y-79702218D01*
X122829636Y-79702214D01*
X122690285Y-79562863D01*
X122690281Y-79562860D01*
X122526420Y-79453371D01*
X122526407Y-79453364D01*
X122344339Y-79377950D01*
X122344329Y-79377947D01*
X122151043Y-79339500D01*
X122151041Y-79339500D01*
X121953959Y-79339500D01*
X121953957Y-79339500D01*
X121760670Y-79377947D01*
X121760660Y-79377950D01*
X121578592Y-79453364D01*
X121578579Y-79453371D01*
X121414718Y-79562860D01*
X121414714Y-79562863D01*
X121275363Y-79702214D01*
X121275360Y-79702218D01*
X121165871Y-79866079D01*
X121165864Y-79866092D01*
X121090450Y-80048160D01*
X121090447Y-80048170D01*
X121052000Y-80241456D01*
X121052000Y-80241459D01*
X121052000Y-80438541D01*
X121052000Y-80438543D01*
X121051999Y-80438543D01*
X110948730Y-80438543D01*
X110890500Y-80337686D01*
X110797314Y-80244500D01*
X110740250Y-80211554D01*
X110683187Y-80178608D01*
X110619539Y-80161554D01*
X110555892Y-80144500D01*
X110424108Y-80144500D01*
X110296812Y-80178608D01*
X110182686Y-80244500D01*
X110182683Y-80244502D01*
X110089502Y-80337683D01*
X110089500Y-80337686D01*
X110023608Y-80451812D01*
X109989500Y-80579108D01*
X99060000Y-80579108D01*
X99060000Y-79512308D01*
X107271700Y-79512308D01*
X107271700Y-79644091D01*
X107305808Y-79771387D01*
X107338754Y-79828450D01*
X107371700Y-79885514D01*
X107464886Y-79978700D01*
X107579014Y-80044592D01*
X107706308Y-80078700D01*
X107706310Y-80078700D01*
X107838090Y-80078700D01*
X107838092Y-80078700D01*
X107965386Y-80044592D01*
X108079514Y-79978700D01*
X108172700Y-79885514D01*
X108238592Y-79771386D01*
X108272700Y-79644092D01*
X108272700Y-79512308D01*
X108238592Y-79385014D01*
X108172700Y-79270886D01*
X108079514Y-79177700D01*
X108015077Y-79140497D01*
X107965387Y-79111808D01*
X107901739Y-79094754D01*
X107838092Y-79077700D01*
X107706308Y-79077700D01*
X107579012Y-79111808D01*
X107464886Y-79177700D01*
X107464883Y-79177702D01*
X107371702Y-79270883D01*
X107371700Y-79270886D01*
X107305808Y-79385012D01*
X107271700Y-79512308D01*
X99060000Y-79512308D01*
X99060000Y-78674108D01*
X112529500Y-78674108D01*
X112529500Y-78805891D01*
X112563608Y-78933187D01*
X112596554Y-78990250D01*
X112629500Y-79047314D01*
X112722686Y-79140500D01*
X112836814Y-79206392D01*
X112964108Y-79240500D01*
X112964110Y-79240500D01*
X113095890Y-79240500D01*
X113095892Y-79240500D01*
X113223186Y-79206392D01*
X113337314Y-79140500D01*
X113430500Y-79047314D01*
X113496392Y-78933186D01*
X113504558Y-78902708D01*
X117482500Y-78902708D01*
X117482500Y-79034492D01*
X117499554Y-79098139D01*
X117516608Y-79161787D01*
X117525796Y-79177700D01*
X117582500Y-79275914D01*
X117675686Y-79369100D01*
X117789814Y-79434992D01*
X117917108Y-79469100D01*
X117917110Y-79469100D01*
X118048890Y-79469100D01*
X118048892Y-79469100D01*
X118176186Y-79434992D01*
X118290314Y-79369100D01*
X118383500Y-79275914D01*
X118449392Y-79161786D01*
X118483500Y-79034492D01*
X118483500Y-78902708D01*
X118449392Y-78775414D01*
X118383500Y-78661286D01*
X118290314Y-78568100D01*
X118233250Y-78535154D01*
X118176187Y-78502208D01*
X118112539Y-78485154D01*
X118048892Y-78468100D01*
X117917108Y-78468100D01*
X117789812Y-78502208D01*
X117675686Y-78568100D01*
X117675683Y-78568102D01*
X117582502Y-78661283D01*
X117582500Y-78661286D01*
X117516608Y-78775412D01*
X117493277Y-78862488D01*
X117482500Y-78902708D01*
X113504558Y-78902708D01*
X113530500Y-78805892D01*
X113530500Y-78674108D01*
X113496392Y-78546814D01*
X113470639Y-78502208D01*
X113428695Y-78429559D01*
X113412222Y-78361659D01*
X113435074Y-78295632D01*
X113448390Y-78279889D01*
X113525633Y-78202647D01*
X113591525Y-78088519D01*
X113625633Y-77961225D01*
X113625633Y-77829441D01*
X113591525Y-77702147D01*
X113525633Y-77588019D01*
X113432447Y-77494833D01*
X113362786Y-77454614D01*
X113318320Y-77428941D01*
X113254672Y-77411887D01*
X113191025Y-77394833D01*
X113059241Y-77394833D01*
X112931945Y-77428941D01*
X112817819Y-77494833D01*
X112817816Y-77494835D01*
X112724635Y-77588016D01*
X112724633Y-77588019D01*
X112658741Y-77702145D01*
X112638475Y-77777781D01*
X112624633Y-77829441D01*
X112624633Y-77961225D01*
X112657678Y-78084552D01*
X112658742Y-78088521D01*
X112658742Y-78088522D01*
X112726437Y-78205772D01*
X112742910Y-78273672D01*
X112720058Y-78339699D01*
X112706732Y-78355452D01*
X112629503Y-78432682D01*
X112629500Y-78432686D01*
X112563608Y-78546812D01*
X112529500Y-78674108D01*
X99060000Y-78674108D01*
X99060000Y-77581908D01*
X108440100Y-77581908D01*
X108440100Y-77713691D01*
X108474208Y-77840987D01*
X108507154Y-77898050D01*
X108540100Y-77955114D01*
X108633286Y-78048300D01*
X108747414Y-78114192D01*
X108874708Y-78148300D01*
X108874710Y-78148300D01*
X109006490Y-78148300D01*
X109006492Y-78148300D01*
X109133786Y-78114192D01*
X109247914Y-78048300D01*
X109341100Y-77955114D01*
X109406992Y-77840986D01*
X109441100Y-77713692D01*
X109441100Y-77581908D01*
X109406992Y-77454614D01*
X109341100Y-77340486D01*
X109247914Y-77247300D01*
X109190850Y-77214354D01*
X109133787Y-77181408D01*
X109070139Y-77164354D01*
X109006492Y-77147300D01*
X108874708Y-77147300D01*
X108747412Y-77181408D01*
X108633286Y-77247300D01*
X108633283Y-77247302D01*
X108540102Y-77340483D01*
X108540100Y-77340486D01*
X108474208Y-77454612D01*
X108440100Y-77581908D01*
X99060000Y-77581908D01*
X99060000Y-76320247D01*
X121052000Y-76320247D01*
X121052000Y-77959752D01*
X121063631Y-78018229D01*
X121063632Y-78018230D01*
X121107947Y-78084552D01*
X121174269Y-78128867D01*
X121174270Y-78128868D01*
X121232747Y-78140499D01*
X121232750Y-78140500D01*
X121232752Y-78140500D01*
X122872250Y-78140500D01*
X122872251Y-78140499D01*
X122887068Y-78137552D01*
X122930729Y-78128868D01*
X122930729Y-78128867D01*
X122930731Y-78128867D01*
X122997052Y-78084552D01*
X123041367Y-78018231D01*
X123041367Y-78018229D01*
X123041368Y-78018229D01*
X123052706Y-77961224D01*
X123053000Y-77959748D01*
X123053000Y-77238543D01*
X123551999Y-77238543D01*
X123590447Y-77431829D01*
X123590450Y-77431839D01*
X123665864Y-77613907D01*
X123665871Y-77613920D01*
X123775360Y-77777781D01*
X123775363Y-77777785D01*
X123914714Y-77917136D01*
X123914718Y-77917139D01*
X124078579Y-78026628D01*
X124078592Y-78026635D01*
X124260660Y-78102049D01*
X124260665Y-78102051D01*
X124260669Y-78102051D01*
X124260670Y-78102052D01*
X124453956Y-78140500D01*
X124453959Y-78140500D01*
X124651043Y-78140500D01*
X124783304Y-78114191D01*
X124844335Y-78102051D01*
X125026414Y-78026632D01*
X125190282Y-77917139D01*
X125329639Y-77777782D01*
X125439132Y-77613914D01*
X125514551Y-77431835D01*
X125532722Y-77340483D01*
X125553000Y-77238543D01*
X126051999Y-77238543D01*
X126090447Y-77431829D01*
X126090450Y-77431839D01*
X126165864Y-77613907D01*
X126165871Y-77613920D01*
X126275360Y-77777781D01*
X126275363Y-77777785D01*
X126414714Y-77917136D01*
X126414718Y-77917139D01*
X126578579Y-78026628D01*
X126578592Y-78026635D01*
X126760660Y-78102049D01*
X126760665Y-78102051D01*
X126760669Y-78102051D01*
X126760670Y-78102052D01*
X126953956Y-78140500D01*
X126953959Y-78140500D01*
X127151043Y-78140500D01*
X127283304Y-78114191D01*
X127344335Y-78102051D01*
X127526414Y-78026632D01*
X127690282Y-77917139D01*
X127829639Y-77777782D01*
X127939132Y-77613914D01*
X128014551Y-77431835D01*
X128032722Y-77340483D01*
X128053000Y-77238543D01*
X128053000Y-77041456D01*
X128014552Y-76848170D01*
X128014551Y-76848169D01*
X128014551Y-76848165D01*
X127962867Y-76723387D01*
X127939135Y-76666092D01*
X127939128Y-76666079D01*
X127844910Y-76525072D01*
X127829639Y-76502218D01*
X127829636Y-76502214D01*
X127791730Y-76464308D01*
X135745100Y-76464308D01*
X135745100Y-76596091D01*
X135779208Y-76723387D01*
X135812154Y-76780450D01*
X135845100Y-76837514D01*
X135938286Y-76930700D01*
X136052414Y-76996592D01*
X136179708Y-77030700D01*
X136179710Y-77030700D01*
X136311490Y-77030700D01*
X136311492Y-77030700D01*
X136438786Y-76996592D01*
X136552914Y-76930700D01*
X136646100Y-76837514D01*
X136711992Y-76723386D01*
X136746100Y-76596092D01*
X136746100Y-76464308D01*
X136711992Y-76337014D01*
X136646100Y-76222886D01*
X136552914Y-76129700D01*
X136495850Y-76096754D01*
X136438787Y-76063808D01*
X136375139Y-76046754D01*
X136311492Y-76029700D01*
X136179708Y-76029700D01*
X136052412Y-76063808D01*
X135938286Y-76129700D01*
X135938283Y-76129702D01*
X135845102Y-76222883D01*
X135845100Y-76222886D01*
X135779208Y-76337012D01*
X135745100Y-76464308D01*
X127791730Y-76464308D01*
X127690285Y-76362863D01*
X127690281Y-76362860D01*
X127526420Y-76253371D01*
X127526407Y-76253364D01*
X127344339Y-76177950D01*
X127344329Y-76177947D01*
X127151043Y-76139500D01*
X127151041Y-76139500D01*
X126953959Y-76139500D01*
X126953957Y-76139500D01*
X126760670Y-76177947D01*
X126760660Y-76177950D01*
X126578592Y-76253364D01*
X126578579Y-76253371D01*
X126414718Y-76362860D01*
X126414714Y-76362863D01*
X126275363Y-76502214D01*
X126275360Y-76502218D01*
X126165871Y-76666079D01*
X126165864Y-76666092D01*
X126090450Y-76848160D01*
X126090447Y-76848170D01*
X126052000Y-77041456D01*
X126052000Y-77041459D01*
X126052000Y-77238541D01*
X126052000Y-77238543D01*
X126051999Y-77238543D01*
X125553000Y-77238543D01*
X125553000Y-77041456D01*
X125514552Y-76848170D01*
X125514551Y-76848169D01*
X125514551Y-76848165D01*
X125462867Y-76723387D01*
X125439135Y-76666092D01*
X125439128Y-76666079D01*
X125329639Y-76502218D01*
X125329636Y-76502214D01*
X125190285Y-76362863D01*
X125190281Y-76362860D01*
X125026420Y-76253371D01*
X125026407Y-76253364D01*
X124844339Y-76177950D01*
X124844329Y-76177947D01*
X124651043Y-76139500D01*
X124651041Y-76139500D01*
X124453959Y-76139500D01*
X124453957Y-76139500D01*
X124260670Y-76177947D01*
X124260660Y-76177950D01*
X124078592Y-76253364D01*
X124078579Y-76253371D01*
X123914718Y-76362860D01*
X123914714Y-76362863D01*
X123775363Y-76502214D01*
X123775360Y-76502218D01*
X123665871Y-76666079D01*
X123665864Y-76666092D01*
X123590450Y-76848160D01*
X123590447Y-76848170D01*
X123552000Y-77041456D01*
X123552000Y-77041459D01*
X123552000Y-77238541D01*
X123552000Y-77238543D01*
X123551999Y-77238543D01*
X123053000Y-77238543D01*
X123053000Y-76320252D01*
X123053000Y-76320249D01*
X123052999Y-76320247D01*
X123041368Y-76261770D01*
X123041367Y-76261769D01*
X122997052Y-76195447D01*
X122930730Y-76151132D01*
X122930729Y-76151131D01*
X122872252Y-76139500D01*
X122872248Y-76139500D01*
X121232752Y-76139500D01*
X121232747Y-76139500D01*
X121174270Y-76151131D01*
X121174269Y-76151132D01*
X121107947Y-76195447D01*
X121063632Y-76261769D01*
X121063631Y-76261770D01*
X121052000Y-76320247D01*
X99060000Y-76320247D01*
X99060000Y-73949708D01*
X105620700Y-73949708D01*
X105620700Y-74081491D01*
X105654808Y-74208787D01*
X105685588Y-74262099D01*
X105720700Y-74322914D01*
X105813886Y-74416100D01*
X105928014Y-74481992D01*
X106055308Y-74516100D01*
X106055310Y-74516100D01*
X106187090Y-74516100D01*
X106187092Y-74516100D01*
X106314386Y-74481992D01*
X106428514Y-74416100D01*
X106521700Y-74322914D01*
X106587592Y-74208786D01*
X106621700Y-74081492D01*
X106621700Y-73949708D01*
X106587592Y-73822414D01*
X106521700Y-73708286D01*
X106509122Y-73695708D01*
X107220900Y-73695708D01*
X107220900Y-73827491D01*
X107255008Y-73954787D01*
X107271124Y-73982700D01*
X107320900Y-74068914D01*
X107414086Y-74162100D01*
X107528214Y-74227992D01*
X107655508Y-74262100D01*
X107655510Y-74262100D01*
X107787290Y-74262100D01*
X107787292Y-74262100D01*
X107914586Y-74227992D01*
X108028714Y-74162100D01*
X108121900Y-74068914D01*
X108187792Y-73954786D01*
X108221900Y-73827492D01*
X108221900Y-73695708D01*
X108187792Y-73568414D01*
X108121900Y-73454286D01*
X108083922Y-73416308D01*
X112939300Y-73416308D01*
X112939300Y-73548091D01*
X112973408Y-73675387D01*
X112985141Y-73695708D01*
X113039300Y-73789514D01*
X113132486Y-73882700D01*
X113246614Y-73948592D01*
X113373908Y-73982700D01*
X113373910Y-73982700D01*
X113505690Y-73982700D01*
X113505692Y-73982700D01*
X113632986Y-73948592D01*
X113747114Y-73882700D01*
X113840300Y-73789514D01*
X113906192Y-73675386D01*
X113940300Y-73548092D01*
X113940300Y-73416308D01*
X113906192Y-73289014D01*
X113840300Y-73174886D01*
X113747114Y-73081700D01*
X113653724Y-73027781D01*
X113632987Y-73015808D01*
X113569339Y-72998754D01*
X113505692Y-72981700D01*
X113373908Y-72981700D01*
X113246612Y-73015808D01*
X113132486Y-73081700D01*
X113132483Y-73081702D01*
X113039302Y-73174883D01*
X113039300Y-73174886D01*
X112973408Y-73289012D01*
X112939300Y-73416308D01*
X108083922Y-73416308D01*
X108028714Y-73361100D01*
X107968285Y-73326211D01*
X107914587Y-73295208D01*
X107845244Y-73276628D01*
X107787292Y-73261100D01*
X107655508Y-73261100D01*
X107528212Y-73295208D01*
X107414086Y-73361100D01*
X107414083Y-73361102D01*
X107320902Y-73454283D01*
X107320900Y-73454286D01*
X107255008Y-73568412D01*
X107220900Y-73695708D01*
X106509122Y-73695708D01*
X106428514Y-73615100D01*
X106347652Y-73568414D01*
X106314387Y-73549208D01*
X106250739Y-73532154D01*
X106187092Y-73515100D01*
X106055308Y-73515100D01*
X105928012Y-73549208D01*
X105813886Y-73615100D01*
X105813883Y-73615102D01*
X105720702Y-73708283D01*
X105720700Y-73708286D01*
X105654808Y-73822412D01*
X105620700Y-73949708D01*
X99060000Y-73949708D01*
X99060000Y-72953456D01*
X104602300Y-72953456D01*
X104602300Y-73045744D01*
X104614397Y-73090892D01*
X104626187Y-73134890D01*
X104626188Y-73134893D01*
X104672326Y-73214805D01*
X104672329Y-73214809D01*
X104672331Y-73214812D01*
X104737588Y-73280069D01*
X104737591Y-73280070D01*
X104737594Y-73280073D01*
X104817506Y-73326211D01*
X104817507Y-73326211D01*
X104817512Y-73326214D01*
X104906656Y-73350100D01*
X104906658Y-73350100D01*
X104998942Y-73350100D01*
X104998944Y-73350100D01*
X105088088Y-73326214D01*
X105168012Y-73280069D01*
X105233269Y-73214812D01*
X105279414Y-73134888D01*
X105303300Y-73045744D01*
X105303300Y-72959108D01*
X116060100Y-72959108D01*
X116060100Y-73090891D01*
X116094208Y-73218187D01*
X116118984Y-73261100D01*
X116160100Y-73332314D01*
X116253286Y-73425500D01*
X116367414Y-73491392D01*
X116494708Y-73525500D01*
X116494710Y-73525500D01*
X116626490Y-73525500D01*
X116626492Y-73525500D01*
X116753786Y-73491392D01*
X116867914Y-73425500D01*
X116961100Y-73332314D01*
X117026992Y-73218186D01*
X117061100Y-73090892D01*
X117061100Y-72959108D01*
X117026992Y-72831814D01*
X116961100Y-72717686D01*
X116867914Y-72624500D01*
X116810850Y-72591554D01*
X116753787Y-72558608D01*
X116690139Y-72541554D01*
X116626492Y-72524500D01*
X116494708Y-72524500D01*
X116367412Y-72558608D01*
X116253286Y-72624500D01*
X116253283Y-72624502D01*
X116160102Y-72717683D01*
X116160100Y-72717686D01*
X116094208Y-72831812D01*
X116060100Y-72959108D01*
X105303300Y-72959108D01*
X105303300Y-72953456D01*
X105279414Y-72864312D01*
X105279188Y-72863920D01*
X105233273Y-72784394D01*
X105233270Y-72784391D01*
X105233269Y-72784388D01*
X105168012Y-72719131D01*
X105168009Y-72719129D01*
X105168005Y-72719126D01*
X105088093Y-72672988D01*
X105088090Y-72672987D01*
X105088089Y-72672986D01*
X105088088Y-72672986D01*
X104998944Y-72649100D01*
X104906656Y-72649100D01*
X104817512Y-72672986D01*
X104817511Y-72672986D01*
X104817509Y-72672987D01*
X104817506Y-72672988D01*
X104737594Y-72719126D01*
X104737585Y-72719133D01*
X104672333Y-72784385D01*
X104672326Y-72784394D01*
X104626188Y-72864306D01*
X104626187Y-72864309D01*
X104626186Y-72864311D01*
X104626186Y-72864312D01*
X104602300Y-72953456D01*
X99060000Y-72953456D01*
X99060000Y-72488543D01*
X128619499Y-72488543D01*
X128657947Y-72681829D01*
X128657950Y-72681839D01*
X128733364Y-72863907D01*
X128733371Y-72863920D01*
X128842860Y-73027781D01*
X128842863Y-73027785D01*
X128982214Y-73167136D01*
X128982218Y-73167139D01*
X129146079Y-73276628D01*
X129146092Y-73276635D01*
X129280515Y-73332314D01*
X129328165Y-73352051D01*
X129328169Y-73352051D01*
X129328170Y-73352052D01*
X129521456Y-73390500D01*
X129521459Y-73390500D01*
X129718543Y-73390500D01*
X129866343Y-73361100D01*
X129911835Y-73352051D01*
X130093914Y-73276632D01*
X130257782Y-73167139D01*
X130397139Y-73027782D01*
X130506632Y-72863914D01*
X130582051Y-72681835D01*
X130606563Y-72558608D01*
X130620500Y-72488543D01*
X131119499Y-72488543D01*
X131157947Y-72681829D01*
X131157950Y-72681839D01*
X131233364Y-72863907D01*
X131233371Y-72863920D01*
X131342860Y-73027781D01*
X131342863Y-73027785D01*
X131482214Y-73167136D01*
X131482218Y-73167139D01*
X131646079Y-73276628D01*
X131646092Y-73276635D01*
X131780515Y-73332314D01*
X131828165Y-73352051D01*
X131828169Y-73352051D01*
X131828170Y-73352052D01*
X132021456Y-73390500D01*
X132021459Y-73390500D01*
X132218543Y-73390500D01*
X132366343Y-73361100D01*
X132411835Y-73352051D01*
X132593914Y-73276632D01*
X132757782Y-73167139D01*
X132897139Y-73027782D01*
X133006632Y-72863914D01*
X133082051Y-72681835D01*
X133106563Y-72558608D01*
X133120500Y-72488543D01*
X133619499Y-72488543D01*
X133657947Y-72681829D01*
X133657950Y-72681839D01*
X133733364Y-72863907D01*
X133733371Y-72863920D01*
X133842860Y-73027781D01*
X133842863Y-73027785D01*
X133982214Y-73167136D01*
X133982218Y-73167139D01*
X134146079Y-73276628D01*
X134146092Y-73276635D01*
X134280515Y-73332314D01*
X134328165Y-73352051D01*
X134328169Y-73352051D01*
X134328170Y-73352052D01*
X134521456Y-73390500D01*
X134521459Y-73390500D01*
X134718543Y-73390500D01*
X134866343Y-73361100D01*
X134911835Y-73352051D01*
X135093914Y-73276632D01*
X135257782Y-73167139D01*
X135397139Y-73027782D01*
X135506632Y-72863914D01*
X135582051Y-72681835D01*
X135606563Y-72558608D01*
X135620500Y-72488543D01*
X135620500Y-72291456D01*
X135582052Y-72098170D01*
X135582051Y-72098169D01*
X135582051Y-72098165D01*
X135582049Y-72098160D01*
X135506635Y-71916092D01*
X135506628Y-71916079D01*
X135397139Y-71752218D01*
X135397136Y-71752214D01*
X135257785Y-71612863D01*
X135257781Y-71612860D01*
X135093920Y-71503371D01*
X135093907Y-71503364D01*
X134911839Y-71427950D01*
X134911829Y-71427947D01*
X134718543Y-71389500D01*
X134718541Y-71389500D01*
X134521459Y-71389500D01*
X134521457Y-71389500D01*
X134328170Y-71427947D01*
X134328160Y-71427950D01*
X134146092Y-71503364D01*
X134146079Y-71503371D01*
X133982218Y-71612860D01*
X133982214Y-71612863D01*
X133842863Y-71752214D01*
X133842860Y-71752218D01*
X133733371Y-71916079D01*
X133733364Y-71916092D01*
X133657950Y-72098160D01*
X133657947Y-72098170D01*
X133619500Y-72291456D01*
X133619500Y-72291459D01*
X133619500Y-72488541D01*
X133619500Y-72488543D01*
X133619499Y-72488543D01*
X133120500Y-72488543D01*
X133120500Y-72291456D01*
X133082052Y-72098170D01*
X133082051Y-72098169D01*
X133082051Y-72098165D01*
X133082049Y-72098160D01*
X133006635Y-71916092D01*
X133006628Y-71916079D01*
X132897139Y-71752218D01*
X132897136Y-71752214D01*
X132757785Y-71612863D01*
X132757781Y-71612860D01*
X132593920Y-71503371D01*
X132593907Y-71503364D01*
X132411839Y-71427950D01*
X132411829Y-71427947D01*
X132218543Y-71389500D01*
X132218541Y-71389500D01*
X132021459Y-71389500D01*
X132021457Y-71389500D01*
X131828170Y-71427947D01*
X131828160Y-71427950D01*
X131646092Y-71503364D01*
X131646079Y-71503371D01*
X131482218Y-71612860D01*
X131482214Y-71612863D01*
X131342863Y-71752214D01*
X131342860Y-71752218D01*
X131233371Y-71916079D01*
X131233364Y-71916092D01*
X131157950Y-72098160D01*
X131157947Y-72098170D01*
X131119500Y-72291456D01*
X131119500Y-72291459D01*
X131119500Y-72488541D01*
X131119500Y-72488543D01*
X131119499Y-72488543D01*
X130620500Y-72488543D01*
X130620500Y-72291456D01*
X130582052Y-72098170D01*
X130582051Y-72098169D01*
X130582051Y-72098165D01*
X130582049Y-72098160D01*
X130506635Y-71916092D01*
X130506628Y-71916079D01*
X130397139Y-71752218D01*
X130397136Y-71752214D01*
X130257785Y-71612863D01*
X130257781Y-71612860D01*
X130093920Y-71503371D01*
X130093907Y-71503364D01*
X129911839Y-71427950D01*
X129911829Y-71427947D01*
X129718543Y-71389500D01*
X129718541Y-71389500D01*
X129521459Y-71389500D01*
X129521457Y-71389500D01*
X129328170Y-71427947D01*
X129328160Y-71427950D01*
X129146092Y-71503364D01*
X129146079Y-71503371D01*
X128982218Y-71612860D01*
X128982214Y-71612863D01*
X128842863Y-71752214D01*
X128842860Y-71752218D01*
X128733371Y-71916079D01*
X128733364Y-71916092D01*
X128657950Y-72098160D01*
X128657947Y-72098170D01*
X128619500Y-72291456D01*
X128619500Y-72291459D01*
X128619500Y-72488541D01*
X128619500Y-72488543D01*
X128619499Y-72488543D01*
X99060000Y-72488543D01*
X99060000Y-70689108D01*
X101048700Y-70689108D01*
X101048700Y-70820891D01*
X101082808Y-70948187D01*
X101115754Y-71005250D01*
X101148700Y-71062314D01*
X101241886Y-71155500D01*
X101356014Y-71221392D01*
X101483308Y-71255500D01*
X101483310Y-71255500D01*
X101615090Y-71255500D01*
X101615092Y-71255500D01*
X101742386Y-71221392D01*
X101780983Y-71199108D01*
X109735500Y-71199108D01*
X109735500Y-71330891D01*
X109769608Y-71458187D01*
X109795694Y-71503368D01*
X109835500Y-71572314D01*
X109928686Y-71665500D01*
X110042814Y-71731392D01*
X110170108Y-71765500D01*
X110170110Y-71765500D01*
X110301890Y-71765500D01*
X110301892Y-71765500D01*
X110429186Y-71731392D01*
X110543314Y-71665500D01*
X110636500Y-71572314D01*
X110702392Y-71458186D01*
X110736500Y-71330892D01*
X110736500Y-71199108D01*
X110702392Y-71071814D01*
X110636500Y-70957686D01*
X110543314Y-70864500D01*
X110467783Y-70820892D01*
X110429187Y-70798608D01*
X110365539Y-70781554D01*
X110301892Y-70764500D01*
X110170108Y-70764500D01*
X110042812Y-70798608D01*
X109928686Y-70864500D01*
X109928683Y-70864502D01*
X109835502Y-70957683D01*
X109835500Y-70957686D01*
X109769608Y-71071812D01*
X109735500Y-71199108D01*
X101780983Y-71199108D01*
X101856514Y-71155500D01*
X101949700Y-71062314D01*
X102015592Y-70948186D01*
X102049700Y-70820892D01*
X102049700Y-70689108D01*
X102015592Y-70561814D01*
X101949700Y-70447686D01*
X101856514Y-70354500D01*
X101799450Y-70321554D01*
X101742387Y-70288608D01*
X101678739Y-70271554D01*
X101615092Y-70254500D01*
X101483308Y-70254500D01*
X101356012Y-70288608D01*
X101241886Y-70354500D01*
X101241883Y-70354502D01*
X101148702Y-70447683D01*
X101148700Y-70447686D01*
X101082808Y-70561812D01*
X101048700Y-70689108D01*
X99060000Y-70689108D01*
X99060000Y-69682508D01*
X108109900Y-69682508D01*
X108109900Y-69814292D01*
X108126954Y-69877939D01*
X108144008Y-69941587D01*
X108158759Y-69967136D01*
X108209900Y-70055714D01*
X108303086Y-70148900D01*
X108417214Y-70214792D01*
X108544508Y-70248900D01*
X108544510Y-70248900D01*
X108676290Y-70248900D01*
X108676292Y-70248900D01*
X108803586Y-70214792D01*
X108917714Y-70148900D01*
X109010900Y-70055714D01*
X109076792Y-69941586D01*
X109110900Y-69814292D01*
X109110900Y-69682508D01*
X109076792Y-69555214D01*
X109010900Y-69441086D01*
X108917714Y-69347900D01*
X108860650Y-69314954D01*
X108803587Y-69282008D01*
X108774228Y-69274141D01*
X108676292Y-69247900D01*
X108544508Y-69247900D01*
X108417212Y-69282008D01*
X108303086Y-69347900D01*
X108303083Y-69347902D01*
X108209902Y-69441083D01*
X108209900Y-69441086D01*
X108144008Y-69555212D01*
X108114884Y-69663907D01*
X108109900Y-69682508D01*
X99060000Y-69682508D01*
X99060000Y-69149108D01*
X120784500Y-69149108D01*
X120784500Y-69280891D01*
X120818608Y-69408187D01*
X120837601Y-69441083D01*
X120884500Y-69522314D01*
X120977686Y-69615500D01*
X121091814Y-69681392D01*
X121219108Y-69715500D01*
X121219110Y-69715500D01*
X121350890Y-69715500D01*
X121350892Y-69715500D01*
X121478186Y-69681392D01*
X121592314Y-69615500D01*
X121685500Y-69522314D01*
X121751392Y-69408186D01*
X121785500Y-69280892D01*
X121785500Y-69149108D01*
X121751392Y-69021814D01*
X121685500Y-68907686D01*
X121592314Y-68814500D01*
X121535250Y-68781554D01*
X121478187Y-68748608D01*
X121356833Y-68716092D01*
X121350892Y-68714500D01*
X121219108Y-68714500D01*
X121091812Y-68748608D01*
X120977686Y-68814500D01*
X120977683Y-68814502D01*
X120884502Y-68907683D01*
X120884500Y-68907686D01*
X120818608Y-69021812D01*
X120784500Y-69149108D01*
X99060000Y-69149108D01*
X99060000Y-68370247D01*
X128619500Y-68370247D01*
X128619500Y-70009752D01*
X128631131Y-70068229D01*
X128631132Y-70068230D01*
X128675447Y-70134552D01*
X128741769Y-70178867D01*
X128741770Y-70178868D01*
X128800247Y-70190499D01*
X128800250Y-70190500D01*
X128800252Y-70190500D01*
X130439750Y-70190500D01*
X130439751Y-70190499D01*
X130454568Y-70187552D01*
X130498229Y-70178868D01*
X130498229Y-70178867D01*
X130498231Y-70178867D01*
X130564552Y-70134552D01*
X130608867Y-70068231D01*
X130608867Y-70068229D01*
X130608868Y-70068229D01*
X130620499Y-70009752D01*
X130620500Y-70009750D01*
X130620500Y-69288543D01*
X131119499Y-69288543D01*
X131157947Y-69481829D01*
X131157950Y-69481839D01*
X131233364Y-69663907D01*
X131233371Y-69663920D01*
X131342860Y-69827781D01*
X131342863Y-69827785D01*
X131482214Y-69967136D01*
X131482218Y-69967139D01*
X131646079Y-70076628D01*
X131646092Y-70076635D01*
X131820555Y-70148899D01*
X131828165Y-70152051D01*
X131828169Y-70152051D01*
X131828170Y-70152052D01*
X132021456Y-70190500D01*
X132021459Y-70190500D01*
X132218543Y-70190500D01*
X132348582Y-70164632D01*
X132411835Y-70152051D01*
X132593914Y-70076632D01*
X132757782Y-69967139D01*
X132897139Y-69827782D01*
X133006632Y-69663914D01*
X133082051Y-69481835D01*
X133120500Y-69288543D01*
X133619499Y-69288543D01*
X133657947Y-69481829D01*
X133657950Y-69481839D01*
X133733364Y-69663907D01*
X133733371Y-69663920D01*
X133842860Y-69827781D01*
X133842863Y-69827785D01*
X133982214Y-69967136D01*
X133982218Y-69967139D01*
X134146079Y-70076628D01*
X134146092Y-70076635D01*
X134320555Y-70148899D01*
X134328165Y-70152051D01*
X134328169Y-70152051D01*
X134328170Y-70152052D01*
X134521456Y-70190500D01*
X134521459Y-70190500D01*
X134718543Y-70190500D01*
X134848582Y-70164632D01*
X134911835Y-70152051D01*
X135093914Y-70076632D01*
X135257782Y-69967139D01*
X135397139Y-69827782D01*
X135506632Y-69663914D01*
X135582051Y-69481835D01*
X135620500Y-69288541D01*
X135620500Y-69091459D01*
X135620500Y-69091456D01*
X135582052Y-68898170D01*
X135582051Y-68898169D01*
X135582051Y-68898165D01*
X135520103Y-68748608D01*
X135506635Y-68716092D01*
X135506628Y-68716079D01*
X135397139Y-68552218D01*
X135397136Y-68552214D01*
X135257785Y-68412863D01*
X135257781Y-68412860D01*
X135093920Y-68303371D01*
X135093907Y-68303364D01*
X134911839Y-68227950D01*
X134911829Y-68227947D01*
X134718543Y-68189500D01*
X134718541Y-68189500D01*
X134521459Y-68189500D01*
X134521457Y-68189500D01*
X134328170Y-68227947D01*
X134328160Y-68227950D01*
X134146092Y-68303364D01*
X134146079Y-68303371D01*
X133982218Y-68412860D01*
X133982214Y-68412863D01*
X133842863Y-68552214D01*
X133842860Y-68552218D01*
X133733371Y-68716079D01*
X133733364Y-68716092D01*
X133657950Y-68898160D01*
X133657947Y-68898170D01*
X133619500Y-69091456D01*
X133619500Y-69091459D01*
X133619500Y-69288541D01*
X133619500Y-69288543D01*
X133619499Y-69288543D01*
X133120500Y-69288543D01*
X133120500Y-69288541D01*
X133120500Y-69091459D01*
X133120500Y-69091456D01*
X133082052Y-68898170D01*
X133082051Y-68898169D01*
X133082051Y-68898165D01*
X133020103Y-68748608D01*
X133006635Y-68716092D01*
X133006628Y-68716079D01*
X132897139Y-68552218D01*
X132897136Y-68552214D01*
X132757785Y-68412863D01*
X132757781Y-68412860D01*
X132593920Y-68303371D01*
X132593907Y-68303364D01*
X132411839Y-68227950D01*
X132411829Y-68227947D01*
X132218543Y-68189500D01*
X132218541Y-68189500D01*
X132021459Y-68189500D01*
X132021457Y-68189500D01*
X131828170Y-68227947D01*
X131828160Y-68227950D01*
X131646092Y-68303364D01*
X131646079Y-68303371D01*
X131482218Y-68412860D01*
X131482214Y-68412863D01*
X131342863Y-68552214D01*
X131342860Y-68552218D01*
X131233371Y-68716079D01*
X131233364Y-68716092D01*
X131157950Y-68898160D01*
X131157947Y-68898170D01*
X131119500Y-69091456D01*
X131119500Y-69091459D01*
X131119500Y-69288541D01*
X131119500Y-69288543D01*
X131119499Y-69288543D01*
X130620500Y-69288543D01*
X130620500Y-68370249D01*
X130620499Y-68370247D01*
X130608868Y-68311770D01*
X130608867Y-68311769D01*
X130564552Y-68245447D01*
X130498230Y-68201132D01*
X130498229Y-68201131D01*
X130439752Y-68189500D01*
X130439748Y-68189500D01*
X128800252Y-68189500D01*
X128800247Y-68189500D01*
X128741770Y-68201131D01*
X128741769Y-68201132D01*
X128675447Y-68245447D01*
X128631132Y-68311769D01*
X128631131Y-68311770D01*
X128619500Y-68370247D01*
X99060000Y-68370247D01*
X99060000Y-66609108D01*
X119514500Y-66609108D01*
X119514500Y-66740891D01*
X119548608Y-66868187D01*
X119581554Y-66925250D01*
X119614500Y-66982314D01*
X119707686Y-67075500D01*
X119821814Y-67141392D01*
X119949108Y-67175500D01*
X119949110Y-67175500D01*
X120080890Y-67175500D01*
X120080892Y-67175500D01*
X120208186Y-67141392D01*
X120322314Y-67075500D01*
X120415500Y-66982314D01*
X120481392Y-66868186D01*
X120515500Y-66740892D01*
X120515500Y-66609108D01*
X120481392Y-66481814D01*
X120415500Y-66367686D01*
X120322314Y-66274500D01*
X120265250Y-66241554D01*
X120208187Y-66208608D01*
X120144539Y-66191554D01*
X120080892Y-66174500D01*
X119949108Y-66174500D01*
X119821812Y-66208608D01*
X119707686Y-66274500D01*
X119707683Y-66274502D01*
X119614502Y-66367683D01*
X119614500Y-66367686D01*
X119548608Y-66481812D01*
X119514500Y-66609108D01*
X99060000Y-66609108D01*
X99060000Y-58718389D01*
X103784500Y-58718389D01*
X103784500Y-58891611D01*
X103811598Y-59062701D01*
X103855627Y-59198208D01*
X103865128Y-59227447D01*
X103931282Y-59357283D01*
X103943768Y-59381788D01*
X104045586Y-59521928D01*
X104168072Y-59644414D01*
X104308212Y-59746232D01*
X104462555Y-59824873D01*
X104627299Y-59878402D01*
X104798389Y-59905500D01*
X104798390Y-59905500D01*
X104971610Y-59905500D01*
X104971611Y-59905500D01*
X105142701Y-59878402D01*
X105307445Y-59824873D01*
X105461788Y-59746232D01*
X105601928Y-59644414D01*
X105647634Y-59598708D01*
X113955100Y-59598708D01*
X113955100Y-59730492D01*
X113972154Y-59794139D01*
X113989208Y-59857787D01*
X114016756Y-59905500D01*
X114055100Y-59971914D01*
X114148286Y-60065100D01*
X114262414Y-60130992D01*
X114389708Y-60165100D01*
X114389710Y-60165100D01*
X114521490Y-60165100D01*
X114521492Y-60165100D01*
X114648786Y-60130992D01*
X114762914Y-60065100D01*
X114856100Y-59971914D01*
X114921992Y-59857786D01*
X114956100Y-59730492D01*
X114956100Y-59598708D01*
X114921992Y-59471414D01*
X114856100Y-59357286D01*
X114762914Y-59264100D01*
X114699426Y-59227445D01*
X114648787Y-59198208D01*
X114585139Y-59181154D01*
X114521492Y-59164100D01*
X114389708Y-59164100D01*
X114262412Y-59198208D01*
X114148286Y-59264100D01*
X114148283Y-59264102D01*
X114055102Y-59357283D01*
X114055100Y-59357286D01*
X113989208Y-59471412D01*
X113975672Y-59521930D01*
X113955100Y-59598708D01*
X105647634Y-59598708D01*
X105724414Y-59521928D01*
X105826232Y-59381788D01*
X105904873Y-59227445D01*
X105958402Y-59062701D01*
X105985500Y-58891611D01*
X105985500Y-58718389D01*
X105958402Y-58547299D01*
X105904873Y-58382555D01*
X105904871Y-58382552D01*
X105904871Y-58382550D01*
X105890379Y-58354108D01*
X120149500Y-58354108D01*
X120149500Y-58485891D01*
X120183608Y-58613187D01*
X120216554Y-58670250D01*
X120249500Y-58727314D01*
X120342686Y-58820500D01*
X120456814Y-58886392D01*
X120584108Y-58920500D01*
X120584110Y-58920500D01*
X120715890Y-58920500D01*
X120715892Y-58920500D01*
X120843186Y-58886392D01*
X120957314Y-58820500D01*
X121050500Y-58727314D01*
X121116392Y-58613186D01*
X121150500Y-58485892D01*
X121150500Y-58354108D01*
X121116392Y-58226814D01*
X121050500Y-58112686D01*
X120957314Y-58019500D01*
X120900250Y-57986554D01*
X120843187Y-57953608D01*
X120779539Y-57936554D01*
X120715892Y-57919500D01*
X120584108Y-57919500D01*
X120456812Y-57953608D01*
X120342686Y-58019500D01*
X120342683Y-58019502D01*
X120249502Y-58112683D01*
X120249500Y-58112686D01*
X120183608Y-58226812D01*
X120149500Y-58354108D01*
X105890379Y-58354108D01*
X105826231Y-58228211D01*
X105825215Y-58226812D01*
X105724414Y-58088072D01*
X105601928Y-57965586D01*
X105461788Y-57863768D01*
X105307445Y-57785127D01*
X105142701Y-57731598D01*
X105142699Y-57731597D01*
X105142698Y-57731597D01*
X105011271Y-57710781D01*
X104971611Y-57704500D01*
X104798389Y-57704500D01*
X104758728Y-57710781D01*
X104627302Y-57731597D01*
X104462552Y-57785128D01*
X104308211Y-57863768D01*
X104231504Y-57919500D01*
X104168072Y-57965586D01*
X104168070Y-57965588D01*
X104168069Y-57965588D01*
X104045588Y-58088069D01*
X104045588Y-58088070D01*
X104045586Y-58088072D01*
X104027705Y-58112683D01*
X103943768Y-58228211D01*
X103865128Y-58382552D01*
X103811597Y-58547302D01*
X103801162Y-58613187D01*
X103784500Y-58718389D01*
X99060000Y-58718389D01*
X99060000Y-56849108D01*
X120149500Y-56849108D01*
X120149500Y-56980891D01*
X120183608Y-57108187D01*
X120216554Y-57165250D01*
X120249500Y-57222314D01*
X120342686Y-57315500D01*
X120456814Y-57381392D01*
X120584108Y-57415500D01*
X120584110Y-57415500D01*
X120715890Y-57415500D01*
X120715892Y-57415500D01*
X120843186Y-57381392D01*
X120957314Y-57315500D01*
X121050500Y-57222314D01*
X121116392Y-57108186D01*
X121150500Y-56980892D01*
X121150500Y-56849108D01*
X121116392Y-56721814D01*
X121050500Y-56607686D01*
X120957314Y-56514500D01*
X120900250Y-56481554D01*
X120843187Y-56448608D01*
X120779539Y-56431554D01*
X120715892Y-56414500D01*
X120584108Y-56414500D01*
X120456812Y-56448608D01*
X120342686Y-56514500D01*
X120342683Y-56514502D01*
X120249502Y-56607683D01*
X120249500Y-56607686D01*
X120183608Y-56721812D01*
X120149500Y-56849108D01*
X99060000Y-56849108D01*
X99060000Y-51718389D01*
X103784500Y-51718389D01*
X103784500Y-51891611D01*
X103811598Y-52062701D01*
X103865127Y-52227445D01*
X103943768Y-52381788D01*
X104045586Y-52521928D01*
X104168072Y-52644414D01*
X104308212Y-52746232D01*
X104462555Y-52824873D01*
X104627299Y-52878402D01*
X104798389Y-52905500D01*
X104798390Y-52905500D01*
X104971610Y-52905500D01*
X104971611Y-52905500D01*
X105142701Y-52878402D01*
X105307445Y-52824873D01*
X105461788Y-52746232D01*
X105539311Y-52689908D01*
X117114500Y-52689908D01*
X117114500Y-52821692D01*
X117121605Y-52848208D01*
X117148608Y-52948987D01*
X117181554Y-53006050D01*
X117214500Y-53063114D01*
X117307686Y-53156300D01*
X117421814Y-53222192D01*
X117549108Y-53256300D01*
X117549110Y-53256300D01*
X117680890Y-53256300D01*
X117680892Y-53256300D01*
X117808186Y-53222192D01*
X117922314Y-53156300D01*
X118015500Y-53063114D01*
X118081392Y-52948986D01*
X118115500Y-52821692D01*
X118115500Y-52689908D01*
X118081392Y-52562614D01*
X118015500Y-52448486D01*
X117922314Y-52355300D01*
X117865250Y-52322354D01*
X117808187Y-52289408D01*
X117744539Y-52272354D01*
X117680892Y-52255300D01*
X117549108Y-52255300D01*
X117421812Y-52289408D01*
X117307686Y-52355300D01*
X117307683Y-52355302D01*
X117214502Y-52448483D01*
X117214500Y-52448486D01*
X117148608Y-52562612D01*
X117140171Y-52594100D01*
X117114500Y-52689908D01*
X105539311Y-52689908D01*
X105601928Y-52644414D01*
X105724414Y-52521928D01*
X105826232Y-52381788D01*
X105904873Y-52227445D01*
X105958402Y-52062701D01*
X105985500Y-51891611D01*
X105985500Y-51718389D01*
X105958402Y-51547299D01*
X105904873Y-51382555D01*
X105826232Y-51228212D01*
X105724414Y-51088072D01*
X105601928Y-50965586D01*
X105461788Y-50863768D01*
X105406717Y-50835708D01*
X137049500Y-50835708D01*
X137049500Y-50967491D01*
X137083608Y-51094787D01*
X137116554Y-51151850D01*
X137149500Y-51208914D01*
X137242686Y-51302100D01*
X137356814Y-51367992D01*
X137484108Y-51402100D01*
X137484110Y-51402100D01*
X137615890Y-51402100D01*
X137615892Y-51402100D01*
X137743186Y-51367992D01*
X137857314Y-51302100D01*
X137950500Y-51208914D01*
X138016392Y-51094786D01*
X138050500Y-50967492D01*
X138050500Y-50835708D01*
X138016392Y-50708414D01*
X137950500Y-50594286D01*
X137857314Y-50501100D01*
X137800250Y-50468154D01*
X137743187Y-50435208D01*
X137679539Y-50418154D01*
X137615892Y-50401100D01*
X137484108Y-50401100D01*
X137356812Y-50435208D01*
X137242686Y-50501100D01*
X137242683Y-50501102D01*
X137149502Y-50594283D01*
X137149500Y-50594286D01*
X137083608Y-50708412D01*
X137049500Y-50835708D01*
X105406717Y-50835708D01*
X105307445Y-50785127D01*
X105142701Y-50731598D01*
X105142699Y-50731597D01*
X105142698Y-50731597D01*
X104996310Y-50708412D01*
X104971611Y-50704500D01*
X104798389Y-50704500D01*
X104773690Y-50708412D01*
X104627302Y-50731597D01*
X104462552Y-50785128D01*
X104308211Y-50863768D01*
X104228256Y-50921859D01*
X104168072Y-50965586D01*
X104168070Y-50965588D01*
X104168069Y-50965588D01*
X104045588Y-51088069D01*
X104045588Y-51088070D01*
X104045586Y-51088072D01*
X104001859Y-51148256D01*
X103943768Y-51228211D01*
X103865128Y-51382552D01*
X103811597Y-51547302D01*
X103784500Y-51718389D01*
X99060000Y-51718389D01*
X99060000Y-45709500D01*
X99079685Y-45642461D01*
X99132489Y-45596706D01*
X99184000Y-45585500D01*
X113143833Y-45585500D01*
X113210872Y-45605185D01*
G37*
%TD.AperFunction*%
%TA.AperFunction,Conductor*%
G36*
X115982531Y-45605185D02*
G01*
X116003173Y-45621819D01*
X116659791Y-46278437D01*
X116596207Y-46295475D01*
X116482193Y-46361301D01*
X116389101Y-46454393D01*
X116323275Y-46568407D01*
X116306237Y-46631991D01*
X115673928Y-45999682D01*
X115673927Y-45999682D01*
X115634580Y-46053839D01*
X115535894Y-46247521D01*
X115534878Y-46247003D01*
X115494412Y-46297213D01*
X115428116Y-46319272D01*
X115360418Y-46301988D01*
X115312812Y-46250847D01*
X115299700Y-46195351D01*
X115299700Y-45891649D01*
X115299699Y-45891647D01*
X115288068Y-45833171D01*
X115281981Y-45824061D01*
X115251464Y-45778390D01*
X115230587Y-45711714D01*
X115249071Y-45644334D01*
X115301049Y-45597643D01*
X115354567Y-45585500D01*
X115915492Y-45585500D01*
X115982531Y-45605185D01*
G37*
%TD.AperFunction*%
%TA.AperFunction,Conductor*%
G36*
X118866634Y-45605185D02*
G01*
X118912389Y-45657989D01*
X118922333Y-45727147D01*
X118893308Y-45790703D01*
X118847047Y-45824061D01*
X118831605Y-45830457D01*
X118659542Y-45945424D01*
X118513224Y-46091742D01*
X118398257Y-46263803D01*
X118330035Y-46428508D01*
X118286194Y-46482911D01*
X118219900Y-46504976D01*
X118152200Y-46487697D01*
X118104590Y-46436559D01*
X118097543Y-46419373D01*
X118040295Y-46243182D01*
X117943824Y-46053849D01*
X117904470Y-45999682D01*
X117904469Y-45999682D01*
X117272162Y-46631990D01*
X117255125Y-46568407D01*
X117189299Y-46454393D01*
X117096207Y-46361301D01*
X116982193Y-46295475D01*
X116918609Y-46278437D01*
X117575226Y-45621819D01*
X117636549Y-45588334D01*
X117662907Y-45585500D01*
X118799595Y-45585500D01*
X118866634Y-45605185D01*
G37*
%TD.AperFunction*%
%TD*%
M02*
