M48
; DRILL file KiCad 10.0.1 date 2026-07-02T11:13:46
; FORMAT={-:-/ absolute / metric / decimal}
; #@! TF.CreationDate,2026-07-02T11:13:46-06:00
; #@! TF.GenerationSoftware,Kicad,Pcbnew,10.0.1
; #@! TF.FileFunction,Plated,1,4,PTH
FMAT,2
METRIC
; #@! TA.AperFunction,Plated,PTH,ViaDrill
T1C0.100
; #@! TA.AperFunction,Plated,PTH,ComponentDrill
T2C0.200
; #@! TA.AperFunction,Plated,PTH,ViaDrill
T3C0.300
; #@! TA.AperFunction,Plated,PTH,ComponentDrill
T4C0.400
; #@! TA.AperFunction,Plated,PTH,ComponentDrill
T5C0.550
; #@! TA.AperFunction,Plated,PTH,ComponentDrill
T6C0.800
; #@! TA.AperFunction,Plated,PTH,ComponentDrill
T7C0.930
; #@! TA.AperFunction,Plated,PTH,ComponentDrill
T8C1.000
%
G90
G05
T1
X104.953Y-73.0
X110.39Y-113.38
X111.66Y-113.38
X120.929Y-104.826
X121.285Y-104.282
X121.786Y-109.23
X121.789Y-104.282
X121.886Y-107.256
X122.216Y-108.974
X122.381Y-107.181
X123.075Y-104.025
X123.181Y-103.382
X123.8Y-105.461
X124.425Y-105.303
X124.582Y-105.778
X129.888Y-129.108
X132.08Y-125.095
X132.22Y-119.875
X132.223Y-120.514
X132.26Y-117.474
X132.26Y-118.11
X132.588Y-126.797
X132.613Y-120.904
X133.096Y-125.476
T2
X112.395Y-122.047
X112.395Y-123.572
X113.157Y-121.285
X113.157Y-122.81
X113.157Y-124.335
X113.92Y-122.047
X113.92Y-123.572
X114.17Y-102.305
X114.17Y-103.505
X114.17Y-104.705
X114.682Y-121.285
X114.682Y-122.81
X114.682Y-124.335
X115.445Y-122.047
X115.445Y-123.572
X115.57Y-102.305
X115.57Y-103.505
X115.57Y-104.705
T3
X101.549Y-70.755
X101.837Y-85.593
X105.584Y-99.292
X106.121Y-74.016
X106.502Y-87.286
X106.553Y-132.182
X106.58Y-113.38
X107.09Y-99.2
X107.721Y-73.762
X107.772Y-79.578
X108.407Y-104.038
X108.585Y-111.608
X108.61Y-69.748
X108.941Y-77.648
X109.576Y-134.455
X110.236Y-71.265
X110.49Y-80.645
X110.566Y-94.132
X110.592Y-101.6
X110.684Y-132.444
X111.125Y-81.28
X111.125Y-117.475
X111.76Y-81.915
X112.065Y-110.668
X112.395Y-82.55
X112.502Y-116.733
X112.776Y-108.737
X112.827Y-98.07
X113.03Y-78.74
X113.125Y-77.895
X113.335Y-107.739
X113.44Y-73.482
X113.741Y-101.0
X114.224Y-111.785
X114.456Y-59.665
X114.706Y-63.983
X115.037Y-116.357
X115.042Y-107.208
X115.09Y-74.6
X115.113Y-132.867
X115.463Y-109.327
X115.545Y-81.61
X115.57Y-110.058
X115.982Y-91.288
X116.125Y-107.772
X116.205Y-111.125
X116.205Y-117.551
X116.312Y-108.478
X116.561Y-73.025
X116.84Y-111.76
X117.475Y-129.7
X117.582Y-119.908
X117.592Y-111.955
X117.615Y-52.756
X117.983Y-78.969
X118.003Y-107.208
X118.245Y-109.195
X118.618Y-128.778
X118.638Y-111.653
X119.326Y-58.373
X119.355Y-114.935
X119.685Y-110.947
X119.91Y-62.611
X119.964Y-108.356
X120.015Y-66.675
X120.498Y-110.385
X120.65Y-56.915
X120.65Y-58.42
X120.65Y-130.81
X121.285Y-69.215
X121.387Y-100.736
X121.793Y-102.692
X121.82Y-124.146
X121.969Y-111.961
X122.761Y-112.011
X123.165Y-100.94
X123.85Y-53.315
X124.155Y-113.868
X124.231Y-130.886
X124.308Y-96.291
X124.379Y-110.409
X124.413Y-111.208
X124.46Y-70.434
X125.73Y-109.855
X125.959Y-106.181
X125.984Y-127.84
X126.136Y-134.455
X126.512Y-106.759
X126.523Y-105.41
X126.889Y-104.699
X127.097Y-107.359
X127.305Y-94.3
X127.452Y-103.914
X127.635Y-109.855
X127.662Y-107.959
X128.27Y-103.505
X128.905Y-102.87
X128.905Y-121.285
X129.71Y-121.285
X129.946Y-124.536
X130.502Y-110.798
X130.81Y-102.54
X130.81Y-107.315
X130.886Y-122.86
X131.619Y-102.54
X132.419Y-102.54
X132.608Y-114.407
X132.715Y-116.205
X132.791Y-121.92
X133.219Y-102.54
X133.35Y-105.74
X134.019Y-102.54
X134.37Y-119.507
X134.671Y-93.14
X136.246Y-76.53
X136.347Y-122.34
X136.525Y-109.372
X136.957Y-119.812
X136.957Y-120.542
X137.55Y-50.902
X137.897Y-123.596
X138.219Y-113.241
X138.265Y-106.68
T4
X130.55Y-127.34
X130.95Y-128.24
X131.75Y-128.24
X132.15Y-127.34
X132.55Y-128.24
X132.95Y-127.34
X133.75Y-127.34
X134.15Y-128.24
X134.55Y-127.34
X134.95Y-128.24
X135.75Y-128.24
X136.15Y-127.34
T6
X122.052Y-77.14
X122.052Y-80.34
X124.552Y-77.14
X124.552Y-80.34
X127.052Y-77.14
X127.052Y-80.34
X129.62Y-69.19
X129.62Y-72.39
X132.12Y-69.19
X132.12Y-72.39
X134.62Y-69.19
X134.62Y-72.39
T8
X114.249Y-46.761
X116.789Y-46.761
X119.329Y-46.761
X121.869Y-46.761
X124.409Y-46.761
X126.949Y-46.761
X129.489Y-46.761
T5
X128.775Y-131.015G85X128.775Y-132.065
G05
X129.055Y-126.085G85X129.055Y-126.935
G05
X137.645Y-126.085G85X137.645Y-126.935
G05
X137.925Y-131.015G85X137.925Y-132.065
G05
T7
X128.96Y-128.165G85X128.96Y-128.815
G05
X137.74Y-128.165G85X137.74Y-128.815
G05
M30
