%TF.GenerationSoftware,KiCad,Pcbnew,10.0.1*%
%TF.CreationDate,2026-07-02T11:13:02-06:00*%
%TF.ProjectId,aeropod2,6165726f-706f-4643-922e-6b696361645f,rev?*%
%TF.SameCoordinates,Original*%
%TF.FileFunction,Copper,L4,Bot*%
%TF.FilePolarity,Positive*%
%FSLAX46Y46*%
G04 Gerber Fmt 4.6, Leading zero omitted, Abs format (unit mm)*
G04 Created by KiCad (PCBNEW 10.0.1) date 2026-07-02 11:13:02*
%MOMM*%
%LPD*%
G01*
G04 APERTURE LIST*
%TA.AperFunction,ComponentPad*%
%ADD10C,0.650000*%
%TD*%
%TA.AperFunction,ComponentPad*%
%ADD11O,0.950000X2.280000*%
%TD*%
%TA.AperFunction,ComponentPad*%
%ADD12O,1.330000X1.980000*%
%TD*%
%TA.AperFunction,ComponentPad*%
%ADD13O,0.950000X1.800000*%
%TD*%
%TA.AperFunction,ComponentPad*%
%ADD14R,1.600000X1.600000*%
%TD*%
%TA.AperFunction,ComponentPad*%
%ADD15C,1.600000*%
%TD*%
%TA.AperFunction,HeatsinkPad*%
%ADD16C,0.600000*%
%TD*%
%TA.AperFunction,ComponentPad*%
%ADD17R,1.700000X1.700000*%
%TD*%
%TA.AperFunction,ComponentPad*%
%ADD18C,1.700000*%
%TD*%
%TA.AperFunction,HeatsinkPad*%
%ADD19C,0.500000*%
%TD*%
%TA.AperFunction,HeatsinkPad*%
%ADD20R,1.900000X2.900000*%
%TD*%
%TA.AperFunction,ViaPad*%
%ADD21C,0.600000*%
%TD*%
%TA.AperFunction,ViaPad*%
%ADD22C,0.300000*%
%TD*%
%TA.AperFunction,Conductor*%
%ADD23C,0.200000*%
%TD*%
%TA.AperFunction,Conductor*%
%ADD24C,0.127000*%
%TD*%
G04 APERTURE END LIST*
D10*
%TO.P,J1,B1,GND_B1*%
%TO.N,GND*%
X136150000Y-127340000D03*
%TO.P,J1,B2*%
%TO.N,N/C*%
X135750000Y-128240000D03*
%TO.P,J1,B3*%
X134950000Y-128240000D03*
%TO.P,J1,B4,VBUS_B4*%
%TO.N,VBUS*%
X134550000Y-127340000D03*
%TO.P,J1,B5,CC2_B5*%
%TO.N,Net-(J1-CC2)*%
X134150000Y-128240000D03*
%TO.P,J1,B6,D+_B6*%
%TO.N,D+*%
X133750000Y-127340000D03*
%TO.P,J1,B7,D-_B7*%
%TO.N,D-*%
X132950000Y-127340000D03*
%TO.P,J1,B8*%
%TO.N,N/C*%
X132550000Y-128240000D03*
%TO.P,J1,B9,VBUS_B9*%
%TO.N,VBUS*%
X132150000Y-127340000D03*
%TO.P,J1,B10*%
%TO.N,N/C*%
X131750000Y-128240000D03*
%TO.P,J1,B11*%
X130950000Y-128240000D03*
%TO.P,J1,B12,GND_B12*%
%TO.N,GND*%
X130550000Y-127340000D03*
D11*
%TO.P,J1,SH,SHIELD_SH*%
X128775000Y-131400000D03*
D12*
X128960000Y-128490000D03*
D13*
X129055000Y-126510000D03*
X137645000Y-126510000D03*
D12*
X137740000Y-128490000D03*
D11*
X137925000Y-131400000D03*
%TD*%
D14*
%TO.P,SW2,1,A_1*%
%TO.N,Net-(SW2-A)*%
X122052500Y-77140000D03*
D15*
%TO.P,SW2,2,B_2*%
%TO.N,Net-(SW2-B)*%
X124552500Y-77140000D03*
%TO.P,SW2,3,C_3*%
%TO.N,GND*%
X127052500Y-77140000D03*
%TO.P,SW2,4*%
%TO.N,N/C*%
X122052500Y-80340000D03*
%TO.P,SW2,5*%
X124552500Y-80340000D03*
%TO.P,SW2,6*%
X127052500Y-80340000D03*
%TD*%
D14*
%TO.P,SW1,1,A_1*%
%TO.N,Net-(SW1-A)*%
X129620000Y-69190000D03*
D15*
%TO.P,SW1,2,B_2*%
%TO.N,Net-(SW1-B)*%
X132120000Y-69190000D03*
%TO.P,SW1,3,C_3*%
%TO.N,GND*%
X134620000Y-69190000D03*
%TO.P,SW1,4*%
%TO.N,N/C*%
X129620000Y-72390000D03*
%TO.P,SW1,5*%
X132120000Y-72390000D03*
%TO.P,SW1,6*%
X134620000Y-72390000D03*
%TD*%
D16*
%TO.P,U3,39,GND_39*%
%TO.N,GND*%
X113157500Y-124335000D03*
X114682500Y-124335000D03*
X112395000Y-123572500D03*
X113920000Y-123572500D03*
X115445000Y-123572500D03*
X113157500Y-122810000D03*
X114682500Y-122810000D03*
X112395000Y-122047500D03*
X113920000Y-122047500D03*
X115445000Y-122047500D03*
X113157500Y-121285000D03*
X114682500Y-121285000D03*
%TD*%
D17*
%TO.P,J6,1,Pin_1_1*%
%TO.N,GND*%
X114249200Y-46761400D03*
D18*
%TO.P,J6,2,Pin_2_2*%
%TO.N,+3.3V*%
X116789200Y-46761400D03*
%TO.P,J6,3,Pin_3_3*%
%TO.N,SCK{slash}CLK*%
X119329200Y-46761400D03*
%TO.P,J6,4,Pin_4_4*%
%TO.N,MOSI{slash}SDA*%
X121869200Y-46761400D03*
%TO.P,J6,5,Pin_5_5*%
%TO.N,RST_DISP*%
X124409200Y-46761400D03*
%TO.P,J6,6,Pin_6_6*%
%TO.N,DC*%
X126949200Y-46761400D03*
%TO.P,J6,7,Pin_7_7*%
%TO.N,CS_DISP*%
X129489200Y-46761400D03*
%TD*%
D19*
%TO.P,U1,9,EPAD_9*%
%TO.N,GND*%
X114170000Y-102305000D03*
X114170000Y-103505000D03*
X114170000Y-104705000D03*
D20*
X114870000Y-103505000D03*
D19*
X115570000Y-102305000D03*
X115570000Y-103505000D03*
X115570000Y-104705000D03*
%TD*%
D21*
%TO.N,Net-(SW2-B)*%
X138265000Y-106680000D03*
X124155200Y-113868200D03*
X132608235Y-114406765D03*
%TO.N,GND*%
X110236000Y-71265000D03*
X112776000Y-108737400D03*
X121285000Y-69215000D03*
X136525000Y-109372400D03*
X130886200Y-122859800D03*
X136956800Y-120541803D03*
X124307600Y-96291400D03*
X108940600Y-77647800D03*
X136245600Y-76530200D03*
X126136400Y-134455000D03*
X116125400Y-107772424D03*
X106502200Y-87285700D03*
X113439800Y-73482200D03*
X117983000Y-78968600D03*
X107772200Y-79578200D03*
X107721400Y-73761600D03*
X108407200Y-104038400D03*
X115981765Y-91287600D03*
X106580000Y-113380000D03*
X129946400Y-124536200D03*
X137896600Y-123596400D03*
X134369937Y-119507000D03*
X110591600Y-101600000D03*
X123850400Y-53314600D03*
X125984000Y-127840000D03*
X137550000Y-50901600D03*
X119964200Y-108356400D03*
X116560600Y-73025000D03*
X110566200Y-94132400D03*
X106553000Y-132181600D03*
X123164600Y-100939600D03*
%TO.N,VBUS*%
X113741200Y-101000000D03*
X112826800Y-98070000D03*
D22*
%TO.N,Net-(J1-CC1)*%
X129888500Y-129108200D03*
X132588000Y-126796800D03*
%TO.N,D+*%
X132080000Y-125095000D03*
X132219700Y-119875300D03*
%TO.N,D-*%
X132223405Y-120514005D03*
X133096000Y-125476000D03*
D21*
%TO.N,+3.3V*%
X114706400Y-63982600D03*
X119326482Y-58373118D03*
X115090000Y-74599800D03*
D22*
X120929400Y-104825800D03*
D21*
X132791200Y-121920000D03*
X119910000Y-62611000D03*
D22*
X132613400Y-120904000D03*
D21*
X108585000Y-111607600D03*
X136956800Y-119811800D03*
X136347200Y-122340000D03*
X127304800Y-94300000D03*
X121386600Y-100736400D03*
X124460000Y-70434200D03*
X121793000Y-102692200D03*
X115544600Y-81610200D03*
X112064800Y-110667800D03*
X109575600Y-134455000D03*
%TO.N,IRQ*%
X122760990Y-112011210D03*
X124413154Y-111208317D03*
%TO.N,I2C SCL*%
X115041765Y-107208235D03*
X113334800Y-107739264D03*
%TO.N,I2C SDA*%
X115463235Y-109326766D03*
X116311765Y-108478235D03*
%TO.N,Net-(U4-VREG)*%
X118003235Y-107208235D03*
X118245000Y-109194600D03*
D22*
%TO.N,Net-(J2-Pin_1)*%
X121786190Y-109229695D03*
D21*
X125959032Y-106180712D03*
%TO.N,Net-(J2-Pin_2)*%
X126522532Y-105410000D03*
D22*
X122216000Y-108974224D03*
D21*
%TO.N,Net-(J2-Pin_3)*%
X134670800Y-93140000D03*
X133350000Y-105740000D03*
X124379045Y-110409045D03*
X125730000Y-109855000D03*
X130810000Y-107315000D03*
X127635000Y-109855000D03*
D22*
%TO.N,Net-(J2-Pin_4)*%
X124582032Y-105777723D03*
D21*
X126888791Y-104698763D03*
%TO.N,Net-(J2-Pin_5)*%
X127452291Y-103914150D03*
D22*
X124424548Y-105303169D03*
%TO.N,Net-(J2-Pin_6)*%
X122380551Y-107181042D03*
D21*
X128270000Y-103505000D03*
%TO.N,Net-(J2-Pin_7)*%
X128905000Y-102870000D03*
D22*
X121886228Y-107256187D03*
%TO.N,Net-(J2-Pin_8)*%
X123799600Y-105460800D03*
D21*
X130810000Y-102540000D03*
%TO.N,Net-(J2-Pin_9)*%
X131619182Y-102540000D03*
D22*
X123075163Y-104025163D03*
D21*
%TO.N,Net-(J2-Pin_10)*%
X132419185Y-102540000D03*
D22*
X123180722Y-103382241D03*
%TO.N,Net-(J2-Pin_11)*%
X121789000Y-104282000D03*
D21*
X133219188Y-102540000D03*
D22*
%TO.N,Net-(J2-Pin_12)*%
X121285000Y-104282000D03*
D21*
X134019191Y-102540000D03*
%TO.N,Net-(U5-AVDD)*%
X101549200Y-70755000D03*
X106121200Y-74015600D03*
X108610400Y-69748400D03*
%TO.N,Net-(SW1-B)*%
X113030000Y-78740000D03*
X110684400Y-132444400D03*
X132715000Y-116205000D03*
%TO.N,B5*%
X138219265Y-113240735D03*
X115112800Y-132867400D03*
%TO.N,RST_DISP*%
X117615000Y-52755800D03*
X113125133Y-77895333D03*
X105584144Y-99292256D03*
%TO.N,LRCK*%
X117475000Y-129699998D03*
X111760000Y-81915000D03*
%TO.N,BCLK*%
X118618000Y-128778000D03*
X110490000Y-80645000D03*
%TO.N,DIN*%
X111125000Y-81280000D03*
X120650000Y-130810000D03*
%TO.N,B2*%
X121820000Y-124146470D03*
X127096813Y-107358970D03*
%TO.N,XSMT*%
X124231400Y-130886200D03*
X112395000Y-82550000D03*
%TO.N,B1*%
X117581765Y-119908235D03*
X126511858Y-106758970D03*
%TO.N,CS_DISP*%
X116205000Y-117551200D03*
X117592108Y-111955483D03*
X119684800Y-110947200D03*
%TO.N,DC*%
X115036600Y-116357400D03*
X115570000Y-110058200D03*
X114223800Y-111785400D03*
%TO.N,B3*%
X127662500Y-107958970D03*
X121968800Y-111961200D03*
%TO.N,B4*%
X130501765Y-110798235D03*
X119354600Y-114935000D03*
%TO.N,CS*%
X118638235Y-111653235D03*
X120650000Y-56915000D03*
%TO.N,SCK{slash}CLK*%
X116840000Y-111760000D03*
%TO.N,MOSI{slash}SDA*%
X116205000Y-111125000D03*
X120015000Y-66675000D03*
%TO.N,RXD*%
X128905000Y-121285000D03*
D22*
X111660000Y-113380000D03*
X132260000Y-117473605D03*
D21*
X112501765Y-116733235D03*
%TO.N,TXD*%
X111125000Y-117475000D03*
D22*
X132260000Y-118110000D03*
D21*
X129710000Y-121285000D03*
D22*
X110390000Y-113380000D03*
D21*
%TO.N,DI*%
X120497600Y-110385000D03*
X120650000Y-58420000D03*
%TO.N,Net-(D1-A)*%
X101836861Y-85592500D03*
X107089950Y-99200000D03*
%TO.N,Net-(U5-OUTL)*%
X114455600Y-59664600D03*
D22*
X104952800Y-72999600D03*
%TD*%
%TO.N,Net-(SW2-B)*%
D23*
X124155200Y-112314800D02*
X129790000Y-106680000D01*
X129790000Y-106680000D02*
X138265000Y-106680000D01*
X124643400Y-113380000D02*
X131581470Y-113380000D01*
X131581470Y-113380000D02*
X132608235Y-114406765D01*
X124155200Y-113868200D02*
X124155200Y-112314800D01*
X124155200Y-113868200D02*
X124643400Y-113380000D01*
%TO.N,VBUS*%
X112826800Y-98070000D02*
X112826800Y-100085600D01*
X112826800Y-100085600D02*
X113741200Y-101000000D01*
%TO.N,Net-(J1-CC1)*%
D24*
X130489876Y-125643724D02*
X129895600Y-126238000D01*
X129888500Y-126557419D02*
X129888500Y-129108200D01*
X129895600Y-126238000D02*
X129895600Y-126550319D01*
X129895600Y-126550319D02*
X129888500Y-126557419D01*
X132013724Y-125643724D02*
X130489876Y-125643724D01*
X132588000Y-126796800D02*
X132588000Y-126218000D01*
X132588000Y-126218000D02*
X132013724Y-125643724D01*
%TO.N,D+*%
X132219700Y-119875300D02*
X131445000Y-120650000D01*
X131445000Y-120650000D02*
X131445000Y-124460000D01*
X131445000Y-124460000D02*
X132080000Y-125095000D01*
%TO.N,D-*%
X133600000Y-126657735D02*
X132950000Y-127307735D01*
X133096000Y-125476000D02*
X133600000Y-125980000D01*
X132080000Y-124460000D02*
X133096000Y-125476000D01*
X132080000Y-120657409D02*
X132080000Y-124460000D01*
X132950000Y-127307735D02*
X132950000Y-127340000D01*
X132223405Y-120514005D02*
X132080000Y-120657409D01*
X133600000Y-125980000D02*
X133600000Y-126657735D01*
%TO.N,+3.3V*%
D23*
X132613400Y-120904000D02*
X132613400Y-120907998D01*
X120885000Y-102927334D02*
X120885000Y-104781400D01*
X132613400Y-120907998D02*
X132791200Y-121085798D01*
X132791200Y-121085798D02*
X132791200Y-121920000D01*
X121666000Y-102565200D02*
X121247134Y-102565200D01*
X120885000Y-104781400D02*
X120929400Y-104825800D01*
X121793000Y-102692200D02*
X121666000Y-102565200D01*
X121247134Y-102565200D02*
X120885000Y-102927334D01*
%TO.N,IRQ*%
D24*
X122760990Y-112011210D02*
X122938790Y-112011210D01*
X123741683Y-111208317D02*
X124413154Y-111208317D01*
X122938790Y-112011210D02*
X123741683Y-111208317D01*
%TO.N,I2C SCL*%
X114510736Y-107739264D02*
X115041765Y-107208235D01*
X113334800Y-107739264D02*
X114510736Y-107739264D01*
%TO.N,I2C SDA*%
D23*
X115463235Y-109326766D02*
X116311765Y-108478235D01*
%TO.N,Net-(U4-VREG)*%
D24*
X118175000Y-109124600D02*
X118175000Y-107380000D01*
X118175000Y-107380000D02*
X118003235Y-107208235D01*
X118245000Y-109194600D02*
X118175000Y-109124600D01*
%TO.N,Net-(J2-Pin_1)*%
X125594288Y-106180712D02*
X125959032Y-106180712D01*
X122387278Y-109387724D02*
X125594288Y-106180712D01*
X121786190Y-109229695D02*
X121886693Y-109229695D01*
X122044722Y-109387724D02*
X122387278Y-109387724D01*
X121886693Y-109229695D02*
X122044722Y-109387724D01*
%TO.N,Net-(J2-Pin_2)*%
X126522532Y-105410000D02*
X125780224Y-105410000D01*
X125780224Y-105410000D02*
X122216000Y-108974224D01*
%TO.N,Net-(J2-Pin_3)*%
X130175000Y-107315000D02*
X130810000Y-107315000D01*
X124379045Y-110409045D02*
X125175955Y-110409045D01*
X136525000Y-94994200D02*
X136525000Y-102565000D01*
X127635000Y-109855000D02*
X130175000Y-107315000D01*
X136525000Y-102565000D02*
X133350000Y-105740000D01*
X134670800Y-93140000D02*
X136525000Y-94994200D01*
X125175955Y-110409045D02*
X125730000Y-109855000D01*
%TO.N,Net-(J2-Pin_4)*%
X124582032Y-105777723D02*
X125660992Y-104698763D01*
X125660992Y-104698763D02*
X126888791Y-104698763D01*
%TO.N,Net-(J2-Pin_5)*%
X127452291Y-103914150D02*
X125813567Y-103914150D01*
X125813567Y-103914150D02*
X124424548Y-105303169D01*
%TO.N,Net-(J2-Pin_6)*%
X122380551Y-106229449D02*
X122380551Y-107181042D01*
X128115650Y-103350650D02*
X125259350Y-103350650D01*
X128270000Y-103505000D02*
X128115650Y-103350650D01*
X125259350Y-103350650D02*
X122380551Y-106229449D01*
%TO.N,Net-(J2-Pin_7)*%
X121886228Y-107256187D02*
X121886228Y-106261324D01*
X125277552Y-102870000D02*
X128905000Y-102870000D01*
X121886228Y-106261324D02*
X125277552Y-102870000D01*
%TO.N,Net-(J2-Pin_8)*%
X123364777Y-105895623D02*
X123364777Y-106781594D01*
X121472728Y-107427465D02*
X121472728Y-106212376D01*
X123364777Y-106781594D02*
X122476684Y-107669687D01*
X125450104Y-102235000D02*
X130505000Y-102235000D01*
X121714950Y-107669687D02*
X121472728Y-107427465D01*
X123799600Y-105460800D02*
X123364777Y-105895623D01*
X121472728Y-106212376D02*
X125450104Y-102235000D01*
X130505000Y-102235000D02*
X130810000Y-102540000D01*
X122476684Y-107669687D02*
X121714950Y-107669687D01*
%TO.N,Net-(J2-Pin_9)*%
X125725622Y-101422120D02*
X123098871Y-104048871D01*
X131619182Y-101774182D02*
X131267120Y-101422120D01*
X123098871Y-104048871D02*
X123075163Y-104025163D01*
X131267120Y-101422120D02*
X125725622Y-101422120D01*
X131619182Y-102540000D02*
X131619182Y-101774182D01*
%TO.N,Net-(J2-Pin_10)*%
X132419185Y-102111737D02*
X131402568Y-101095120D01*
X131402568Y-101095120D02*
X125467843Y-101095120D01*
X132419185Y-102540000D02*
X132419185Y-102111737D01*
X125467843Y-101095120D02*
X123180722Y-103382241D01*
%TO.N,Net-(J2-Pin_11)*%
X133219188Y-102540000D02*
X133219188Y-102449292D01*
X121789000Y-104189185D02*
X121789000Y-104282000D01*
X131538016Y-100768120D02*
X125210065Y-100768120D01*
X133219188Y-102449292D02*
X131538016Y-100768120D01*
X125210065Y-100768120D02*
X121789000Y-104189185D01*
%TO.N,Net-(J2-Pin_12)*%
X131920370Y-100441179D02*
X125045043Y-100441179D01*
X134019191Y-102540000D02*
X131920370Y-100441179D01*
X121285000Y-104201222D02*
X121285000Y-104282000D01*
X125045043Y-100441179D02*
X121285000Y-104201222D01*
%TO.N,Net-(U5-AVDD)*%
D23*
X106121200Y-72237600D02*
X106121200Y-74015600D01*
X101549200Y-70755000D02*
X102606886Y-71812686D01*
X102606886Y-71812686D02*
X103200200Y-71812686D01*
X108610400Y-69748400D02*
X106121200Y-72237600D01*
X105403114Y-74015600D02*
X106121200Y-74015600D01*
X103200200Y-71812686D02*
X105403114Y-74015600D01*
%TO.N,Net-(SW1-B)*%
X127635000Y-130810000D02*
X127635000Y-121285000D01*
X110684400Y-132444400D02*
X110718600Y-132410200D01*
X110718600Y-132410200D02*
X110718600Y-124098820D01*
X110684400Y-132444400D02*
X112895000Y-134655000D01*
X123790000Y-134655000D02*
X127635000Y-130810000D01*
X127635000Y-121285000D02*
X132715000Y-116205000D01*
X109190000Y-122570220D02*
X109190001Y-80629780D01*
X110718600Y-79715000D02*
X110718600Y-79002186D01*
X110104782Y-79715000D02*
X110718600Y-79715000D01*
X110718600Y-124098820D02*
X109190000Y-122570220D01*
X110980786Y-78740000D02*
X113030000Y-78740000D01*
X110718600Y-79002186D02*
X110980786Y-78740000D01*
X109190001Y-80629780D02*
X110104782Y-79715000D01*
X112895000Y-134655000D02*
X123790000Y-134655000D01*
%TO.N,B5*%
X133315000Y-119415000D02*
X138219265Y-114510735D01*
X127000000Y-121071471D02*
X132466471Y-115605000D01*
X132466471Y-115605000D02*
X132963529Y-115605000D01*
X123825000Y-133985000D02*
X127000000Y-130810000D01*
X117305000Y-133985000D02*
X123825000Y-133985000D01*
X115112800Y-132867400D02*
X116187400Y-132867400D01*
X132963529Y-115605000D02*
X133315000Y-115956471D01*
X127000000Y-130810000D02*
X127000000Y-121071471D01*
X133315000Y-115956471D02*
X133315000Y-119415000D01*
X116187400Y-132867400D02*
X117305000Y-133985000D01*
X138219265Y-114510735D02*
X138219265Y-113240735D01*
%TO.N,RST_DISP*%
X111358763Y-77895333D02*
X113125133Y-77895333D01*
X117615000Y-52755800D02*
X117894400Y-52476400D01*
X107309484Y-99730000D02*
X108790000Y-98249484D01*
X106021888Y-99730000D02*
X107309484Y-99730000D01*
X108790000Y-98249484D02*
X108790001Y-80464095D01*
X118694200Y-52476400D02*
X124409200Y-46761400D01*
X108790001Y-80464095D02*
X111358763Y-77895333D01*
X105584144Y-99292256D02*
X106021888Y-99730000D01*
X117894400Y-52476400D02*
X118694200Y-52476400D01*
%TO.N,LRCK*%
X109520000Y-80766471D02*
X110241472Y-80045000D01*
X116786468Y-129699998D02*
X109520000Y-122433530D01*
X109520000Y-122433530D02*
X109520000Y-80766471D01*
X110738529Y-80045000D02*
X111760000Y-81066471D01*
X117475000Y-129699998D02*
X116786468Y-129699998D01*
X111760000Y-81066471D02*
X111760000Y-81915000D01*
X110241472Y-80045000D02*
X110738529Y-80045000D01*
%TO.N,BCLK*%
X109920000Y-121985000D02*
X109920000Y-81215000D01*
X118618000Y-128778000D02*
X118491000Y-128651000D01*
X118491000Y-128651000D02*
X116586000Y-128651000D01*
X109920000Y-81215000D02*
X110490000Y-80645000D01*
X116586000Y-128651000D02*
X109920000Y-121985000D01*
%TO.N,DIN*%
X120015000Y-130175000D02*
X120650000Y-130810000D01*
X111125000Y-81280000D02*
X111125000Y-116205000D01*
X120015000Y-125095000D02*
X120015000Y-130175000D01*
X111125000Y-116205000D02*
X120015000Y-125095000D01*
%TO.N,B2*%
X125651373Y-107358970D02*
X127096813Y-107358970D01*
X121820000Y-124146470D02*
X118680000Y-121006470D01*
X120850342Y-112160000D02*
X125651373Y-107358970D01*
X119880000Y-112530000D02*
X120250000Y-112160000D01*
X118680000Y-121006470D02*
X118680000Y-113131471D01*
X119281471Y-112530000D02*
X119880000Y-112530000D01*
X120250000Y-112160000D02*
X120850342Y-112160000D01*
X118680000Y-113131471D02*
X119281471Y-112530000D01*
%TO.N,XSMT*%
X111506000Y-83439000D02*
X112395000Y-82550000D01*
X112096714Y-113214314D02*
X112060000Y-113214314D01*
X112217200Y-113334800D02*
X112096714Y-113214314D01*
X112060000Y-113214314D02*
X111825686Y-112980000D01*
X112217200Y-115392200D02*
X112217200Y-113334800D01*
X122555000Y-130345000D02*
X122555000Y-125730000D01*
X122555000Y-125730000D02*
X112217200Y-115392200D01*
X123096200Y-130886200D02*
X122555000Y-130345000D01*
X111825686Y-112980000D02*
X111506000Y-112980000D01*
X111506000Y-112980000D02*
X111506000Y-83439000D01*
X124231400Y-130886200D02*
X123096200Y-130886200D01*
%TO.N,B1*%
X125485687Y-106958970D02*
X120684657Y-111760000D01*
X126286030Y-106758970D02*
X126086030Y-106958970D01*
X116840000Y-119166470D02*
X117581765Y-119908235D01*
X116840000Y-114300000D02*
X116840000Y-119166470D01*
X126086030Y-106958970D02*
X125485687Y-106958970D01*
X126511858Y-106758970D02*
X126286030Y-106758970D01*
X120684657Y-111760000D02*
X119380000Y-111760000D01*
X119380000Y-111760000D02*
X116840000Y-114300000D01*
%TO.N,CS_DISP*%
X120684934Y-110947200D02*
X119684800Y-110947200D01*
X129489200Y-46761400D02*
X126022500Y-50228100D01*
X117592108Y-111955483D02*
X116205000Y-113342591D01*
X126022500Y-91187966D02*
X122660000Y-94550466D01*
X121027600Y-106778200D02*
X121027600Y-110604534D01*
X119710000Y-103352800D02*
X120497600Y-104140400D01*
X120497600Y-106248200D02*
X121027600Y-106778200D01*
X122660000Y-100402800D02*
X119710000Y-103352800D01*
X122660000Y-94550466D02*
X122660000Y-100402800D01*
X126022500Y-50228100D02*
X126022500Y-91187966D01*
X120497600Y-104140400D02*
X120497600Y-106248200D01*
X116205000Y-113342591D02*
X116205000Y-117551200D01*
X121027600Y-110604534D02*
X120684934Y-110947200D01*
%TO.N,DC*%
X114223800Y-111785400D02*
X114223800Y-115544600D01*
X114560000Y-73440466D02*
X114560000Y-83941545D01*
X116841765Y-108751545D02*
X115570000Y-110023310D01*
X114560000Y-83941545D02*
X116841765Y-86223310D01*
X115315600Y-58959375D02*
X115315600Y-72684866D01*
X114223800Y-115544600D02*
X115036600Y-116357400D01*
X115315600Y-72684866D02*
X114560000Y-73440466D01*
X126949200Y-47325775D02*
X115315600Y-58959375D01*
X126949200Y-46761400D02*
X126949200Y-47325775D01*
X116841765Y-86223310D02*
X116841765Y-108751545D01*
X115570000Y-110023310D02*
X115570000Y-110058200D01*
%TO.N,B3*%
X125971030Y-107958970D02*
X127662500Y-107958970D01*
X121968800Y-111961200D02*
X125971030Y-107958970D01*
%TO.N,B4*%
X119430800Y-115011200D02*
X120902330Y-115011200D01*
X133208235Y-114655294D02*
X133208235Y-113504705D01*
X120902330Y-115011200D02*
X120906765Y-115006765D01*
X133208235Y-113504705D02*
X130501765Y-110798235D01*
X132856764Y-115006765D02*
X133208235Y-114655294D01*
X120906765Y-115006765D02*
X132856764Y-115006765D01*
X119354600Y-114935000D02*
X119430800Y-115011200D01*
%TO.N,CS*%
X119040000Y-56915000D02*
X118775000Y-57180000D01*
X120650000Y-56915000D02*
X119040000Y-56915000D01*
X118775000Y-111516470D02*
X118638235Y-111653235D01*
X118775000Y-57180000D02*
X118775000Y-111516470D01*
%TO.N,SCK{slash}CLK*%
X114859534Y-57888751D02*
X114858800Y-57888751D01*
X113969800Y-74005266D02*
X113969800Y-62518890D01*
X113969800Y-74584734D02*
X114040000Y-74514534D01*
X116840000Y-111760000D02*
X115991471Y-111760000D01*
X114040000Y-74514534D02*
X114040000Y-74075466D01*
X114985600Y-61503090D02*
X114985600Y-58822685D01*
X113969800Y-62518890D02*
X114985600Y-61503090D01*
X113969800Y-83818035D02*
X113969800Y-74584734D01*
X116511765Y-106195435D02*
X116511765Y-86360000D01*
X114863235Y-110631764D02*
X114863235Y-109078236D01*
X114040000Y-74075466D02*
X113969800Y-74005266D01*
X114985600Y-58822685D02*
X115170000Y-58638285D01*
X116511765Y-86360000D02*
X113969800Y-83818035D01*
X114863235Y-109078236D02*
X115595400Y-108346071D01*
X114858800Y-57888751D02*
X114858800Y-51511200D01*
X115595400Y-107111800D02*
X116511765Y-106195435D01*
X115170000Y-58199217D02*
X114859534Y-57888751D01*
X114858800Y-51511200D02*
X119380000Y-46990000D01*
X115595400Y-108346071D02*
X115595400Y-107111800D01*
X115991471Y-111760000D02*
X114863235Y-110631764D01*
X115170000Y-58638285D02*
X115170000Y-58199217D01*
%TO.N,MOSI{slash}SDA*%
X116175000Y-67213478D02*
X116175000Y-59214314D01*
X116205000Y-109855000D02*
X117195600Y-108864400D01*
X116175000Y-59214314D02*
X119074314Y-56315000D01*
X120898529Y-56315000D02*
X121250000Y-56666471D01*
X119074314Y-56315000D02*
X120898529Y-56315000D01*
X116205000Y-111125000D02*
X116205000Y-109855000D01*
X117195600Y-108864400D02*
X117195600Y-68234078D01*
X121250000Y-65440000D02*
X120015000Y-66675000D01*
X117195600Y-68234078D02*
X116175000Y-67213478D01*
X121250000Y-56666471D02*
X121250000Y-65440000D01*
%TO.N,RXD*%
X111660000Y-115891470D02*
X111660000Y-113380000D01*
X128905000Y-120828605D02*
X128905000Y-121285000D01*
X132260000Y-117473605D02*
X128905000Y-120828605D01*
X112501765Y-116733235D02*
X111660000Y-115891470D01*
%TO.N,TXD*%
X129710000Y-120660000D02*
X129710000Y-121285000D01*
X110390000Y-116740000D02*
X110390000Y-113380000D01*
X111125000Y-117475000D02*
X110390000Y-116740000D01*
X132260000Y-118110000D02*
X129710000Y-120660000D01*
%TO.N,DI*%
X119380000Y-59690000D02*
X120650000Y-58420000D01*
X119380000Y-109267400D02*
X119380000Y-59690000D01*
X120497600Y-110385000D02*
X119380000Y-109267400D01*
%TO.N,Net-(D1-A)*%
X107089950Y-90845589D02*
X107089950Y-99200000D01*
X101836861Y-85592500D02*
X107089950Y-90845589D01*
%TO.N,Net-(U5-OUTL)*%
X104952800Y-72939310D02*
X104952800Y-72999600D01*
X107208655Y-70683455D02*
X104952800Y-72939310D01*
X114655600Y-61366400D02*
X107208655Y-68813345D01*
X107208655Y-68813345D02*
X107208655Y-70683455D01*
X114455600Y-59664600D02*
X114655600Y-59864600D01*
X114655600Y-59864600D02*
X114655600Y-61366400D01*
%TD*%
M02*
