%TF.GenerationSoftware,KiCad,Pcbnew,10.0.1*%
%TF.CreationDate,2026-07-02T11:13:02-06:00*%
%TF.ProjectId,aeropod2,6165726f-706f-4643-922e-6b696361645f,rev?*%
%TF.SameCoordinates,Original*%
%TF.FileFunction,Legend,Top*%
%TF.FilePolarity,Positive*%
%FSLAX46Y46*%
G04 Gerber Fmt 4.6, Leading zero omitted, Abs format (unit mm)*
G04 Created by KiCad (PCBNEW 10.0.1) date 2026-07-02 11:13:02*
%MOMM*%
%LPD*%
G01*
G04 APERTURE LIST*
%ADD10C,0.100000*%
%ADD11C,0.150000*%
%ADD12C,0.120000*%
%ADD13C,0.000000*%
G04 APERTURE END LIST*
D10*
X116302455Y-132968419D02*
X116302455Y-132444609D01*
X116302455Y-132444609D02*
X116254836Y-132349371D01*
X116254836Y-132349371D02*
X116159598Y-132301752D01*
X116159598Y-132301752D02*
X115969122Y-132301752D01*
X115969122Y-132301752D02*
X115873884Y-132349371D01*
X116302455Y-132920800D02*
X116207217Y-132968419D01*
X116207217Y-132968419D02*
X115969122Y-132968419D01*
X115969122Y-132968419D02*
X115873884Y-132920800D01*
X115873884Y-132920800D02*
X115826265Y-132825561D01*
X115826265Y-132825561D02*
X115826265Y-132730323D01*
X115826265Y-132730323D02*
X115873884Y-132635085D01*
X115873884Y-132635085D02*
X115969122Y-132587466D01*
X115969122Y-132587466D02*
X116207217Y-132587466D01*
X116207217Y-132587466D02*
X116302455Y-132539847D01*
X117159598Y-132920800D02*
X117064360Y-132968419D01*
X117064360Y-132968419D02*
X116873884Y-132968419D01*
X116873884Y-132968419D02*
X116778646Y-132920800D01*
X116778646Y-132920800D02*
X116731027Y-132825561D01*
X116731027Y-132825561D02*
X116731027Y-132444609D01*
X116731027Y-132444609D02*
X116778646Y-132349371D01*
X116778646Y-132349371D02*
X116873884Y-132301752D01*
X116873884Y-132301752D02*
X117064360Y-132301752D01*
X117064360Y-132301752D02*
X117159598Y-132349371D01*
X117159598Y-132349371D02*
X117207217Y-132444609D01*
X117207217Y-132444609D02*
X117207217Y-132539847D01*
X117207217Y-132539847D02*
X116731027Y-132635085D01*
X117635789Y-132968419D02*
X117635789Y-132301752D01*
X117635789Y-132492228D02*
X117683408Y-132396990D01*
X117683408Y-132396990D02*
X117731027Y-132349371D01*
X117731027Y-132349371D02*
X117826265Y-132301752D01*
X117826265Y-132301752D02*
X117921503Y-132301752D01*
X118397694Y-132968419D02*
X118302456Y-132920800D01*
X118302456Y-132920800D02*
X118254837Y-132873180D01*
X118254837Y-132873180D02*
X118207218Y-132777942D01*
X118207218Y-132777942D02*
X118207218Y-132492228D01*
X118207218Y-132492228D02*
X118254837Y-132396990D01*
X118254837Y-132396990D02*
X118302456Y-132349371D01*
X118302456Y-132349371D02*
X118397694Y-132301752D01*
X118397694Y-132301752D02*
X118540551Y-132301752D01*
X118540551Y-132301752D02*
X118635789Y-132349371D01*
X118635789Y-132349371D02*
X118683408Y-132396990D01*
X118683408Y-132396990D02*
X118731027Y-132492228D01*
X118731027Y-132492228D02*
X118731027Y-132777942D01*
X118731027Y-132777942D02*
X118683408Y-132873180D01*
X118683408Y-132873180D02*
X118635789Y-132920800D01*
X118635789Y-132920800D02*
X118540551Y-132968419D01*
X118540551Y-132968419D02*
X118397694Y-132968419D01*
X119159599Y-132301752D02*
X119159599Y-133301752D01*
X119159599Y-132349371D02*
X119254837Y-132301752D01*
X119254837Y-132301752D02*
X119445313Y-132301752D01*
X119445313Y-132301752D02*
X119540551Y-132349371D01*
X119540551Y-132349371D02*
X119588170Y-132396990D01*
X119588170Y-132396990D02*
X119635789Y-132492228D01*
X119635789Y-132492228D02*
X119635789Y-132777942D01*
X119635789Y-132777942D02*
X119588170Y-132873180D01*
X119588170Y-132873180D02*
X119540551Y-132920800D01*
X119540551Y-132920800D02*
X119445313Y-132968419D01*
X119445313Y-132968419D02*
X119254837Y-132968419D01*
X119254837Y-132968419D02*
X119159599Y-132920800D01*
X120207218Y-132968419D02*
X120111980Y-132920800D01*
X120111980Y-132920800D02*
X120064361Y-132873180D01*
X120064361Y-132873180D02*
X120016742Y-132777942D01*
X120016742Y-132777942D02*
X120016742Y-132492228D01*
X120016742Y-132492228D02*
X120064361Y-132396990D01*
X120064361Y-132396990D02*
X120111980Y-132349371D01*
X120111980Y-132349371D02*
X120207218Y-132301752D01*
X120207218Y-132301752D02*
X120350075Y-132301752D01*
X120350075Y-132301752D02*
X120445313Y-132349371D01*
X120445313Y-132349371D02*
X120492932Y-132396990D01*
X120492932Y-132396990D02*
X120540551Y-132492228D01*
X120540551Y-132492228D02*
X120540551Y-132777942D01*
X120540551Y-132777942D02*
X120492932Y-132873180D01*
X120492932Y-132873180D02*
X120445313Y-132920800D01*
X120445313Y-132920800D02*
X120350075Y-132968419D01*
X120350075Y-132968419D02*
X120207218Y-132968419D01*
X121397694Y-132968419D02*
X121397694Y-131968419D01*
X121397694Y-132920800D02*
X121302456Y-132968419D01*
X121302456Y-132968419D02*
X121111980Y-132968419D01*
X121111980Y-132968419D02*
X121016742Y-132920800D01*
X121016742Y-132920800D02*
X120969123Y-132873180D01*
X120969123Y-132873180D02*
X120921504Y-132777942D01*
X120921504Y-132777942D02*
X120921504Y-132492228D01*
X120921504Y-132492228D02*
X120969123Y-132396990D01*
X120969123Y-132396990D02*
X121016742Y-132349371D01*
X121016742Y-132349371D02*
X121111980Y-132301752D01*
X121111980Y-132301752D02*
X121302456Y-132301752D01*
X121302456Y-132301752D02*
X121397694Y-132349371D01*
X113689436Y-134190800D02*
X113594198Y-134238419D01*
X113594198Y-134238419D02*
X113403722Y-134238419D01*
X113403722Y-134238419D02*
X113308484Y-134190800D01*
X113308484Y-134190800D02*
X113260865Y-134095561D01*
X113260865Y-134095561D02*
X113260865Y-133714609D01*
X113260865Y-133714609D02*
X113308484Y-133619371D01*
X113308484Y-133619371D02*
X113403722Y-133571752D01*
X113403722Y-133571752D02*
X113594198Y-133571752D01*
X113594198Y-133571752D02*
X113689436Y-133619371D01*
X113689436Y-133619371D02*
X113737055Y-133714609D01*
X113737055Y-133714609D02*
X113737055Y-133809847D01*
X113737055Y-133809847D02*
X113260865Y-133905085D01*
X114070389Y-133571752D02*
X114308484Y-134238419D01*
X114308484Y-134238419D02*
X114546579Y-133571752D01*
X114832294Y-133571752D02*
X115070389Y-134238419D01*
X115308484Y-133571752D02*
X115070389Y-134238419D01*
X115070389Y-134238419D02*
X114975151Y-134476514D01*
X114975151Y-134476514D02*
X114927532Y-134524133D01*
X114927532Y-134524133D02*
X114832294Y-134571752D01*
X116403723Y-133333657D02*
X116451342Y-133286038D01*
X116451342Y-133286038D02*
X116546580Y-133238419D01*
X116546580Y-133238419D02*
X116784675Y-133238419D01*
X116784675Y-133238419D02*
X116879913Y-133286038D01*
X116879913Y-133286038D02*
X116927532Y-133333657D01*
X116927532Y-133333657D02*
X116975151Y-133428895D01*
X116975151Y-133428895D02*
X116975151Y-133524133D01*
X116975151Y-133524133D02*
X116927532Y-133666990D01*
X116927532Y-133666990D02*
X116356104Y-134238419D01*
X116356104Y-134238419D02*
X116975151Y-134238419D01*
X117594199Y-133238419D02*
X117689437Y-133238419D01*
X117689437Y-133238419D02*
X117784675Y-133286038D01*
X117784675Y-133286038D02*
X117832294Y-133333657D01*
X117832294Y-133333657D02*
X117879913Y-133428895D01*
X117879913Y-133428895D02*
X117927532Y-133619371D01*
X117927532Y-133619371D02*
X117927532Y-133857466D01*
X117927532Y-133857466D02*
X117879913Y-134047942D01*
X117879913Y-134047942D02*
X117832294Y-134143180D01*
X117832294Y-134143180D02*
X117784675Y-134190800D01*
X117784675Y-134190800D02*
X117689437Y-134238419D01*
X117689437Y-134238419D02*
X117594199Y-134238419D01*
X117594199Y-134238419D02*
X117498961Y-134190800D01*
X117498961Y-134190800D02*
X117451342Y-134143180D01*
X117451342Y-134143180D02*
X117403723Y-134047942D01*
X117403723Y-134047942D02*
X117356104Y-133857466D01*
X117356104Y-133857466D02*
X117356104Y-133619371D01*
X117356104Y-133619371D02*
X117403723Y-133428895D01*
X117403723Y-133428895D02*
X117451342Y-133333657D01*
X117451342Y-133333657D02*
X117498961Y-133286038D01*
X117498961Y-133286038D02*
X117594199Y-133238419D01*
X118308485Y-133333657D02*
X118356104Y-133286038D01*
X118356104Y-133286038D02*
X118451342Y-133238419D01*
X118451342Y-133238419D02*
X118689437Y-133238419D01*
X118689437Y-133238419D02*
X118784675Y-133286038D01*
X118784675Y-133286038D02*
X118832294Y-133333657D01*
X118832294Y-133333657D02*
X118879913Y-133428895D01*
X118879913Y-133428895D02*
X118879913Y-133524133D01*
X118879913Y-133524133D02*
X118832294Y-133666990D01*
X118832294Y-133666990D02*
X118260866Y-134238419D01*
X118260866Y-134238419D02*
X118879913Y-134238419D01*
X119737056Y-133238419D02*
X119546580Y-133238419D01*
X119546580Y-133238419D02*
X119451342Y-133286038D01*
X119451342Y-133286038D02*
X119403723Y-133333657D01*
X119403723Y-133333657D02*
X119308485Y-133476514D01*
X119308485Y-133476514D02*
X119260866Y-133666990D01*
X119260866Y-133666990D02*
X119260866Y-134047942D01*
X119260866Y-134047942D02*
X119308485Y-134143180D01*
X119308485Y-134143180D02*
X119356104Y-134190800D01*
X119356104Y-134190800D02*
X119451342Y-134238419D01*
X119451342Y-134238419D02*
X119641818Y-134238419D01*
X119641818Y-134238419D02*
X119737056Y-134190800D01*
X119737056Y-134190800D02*
X119784675Y-134143180D01*
X119784675Y-134143180D02*
X119832294Y-134047942D01*
X119832294Y-134047942D02*
X119832294Y-133809847D01*
X119832294Y-133809847D02*
X119784675Y-133714609D01*
X119784675Y-133714609D02*
X119737056Y-133666990D01*
X119737056Y-133666990D02*
X119641818Y-133619371D01*
X119641818Y-133619371D02*
X119451342Y-133619371D01*
X119451342Y-133619371D02*
X119356104Y-133666990D01*
X119356104Y-133666990D02*
X119308485Y-133714609D01*
X119308485Y-133714609D02*
X119260866Y-133809847D01*
D11*
X137025142Y-119536380D02*
X136977523Y-119584000D01*
X136977523Y-119584000D02*
X136834666Y-119631619D01*
X136834666Y-119631619D02*
X136739428Y-119631619D01*
X136739428Y-119631619D02*
X136596571Y-119584000D01*
X136596571Y-119584000D02*
X136501333Y-119488761D01*
X136501333Y-119488761D02*
X136453714Y-119393523D01*
X136453714Y-119393523D02*
X136406095Y-119203047D01*
X136406095Y-119203047D02*
X136406095Y-119060190D01*
X136406095Y-119060190D02*
X136453714Y-118869714D01*
X136453714Y-118869714D02*
X136501333Y-118774476D01*
X136501333Y-118774476D02*
X136596571Y-118679238D01*
X136596571Y-118679238D02*
X136739428Y-118631619D01*
X136739428Y-118631619D02*
X136834666Y-118631619D01*
X136834666Y-118631619D02*
X136977523Y-118679238D01*
X136977523Y-118679238D02*
X137025142Y-118726857D01*
X137358476Y-118631619D02*
X137977523Y-118631619D01*
X137977523Y-118631619D02*
X137644190Y-119012571D01*
X137644190Y-119012571D02*
X137787047Y-119012571D01*
X137787047Y-119012571D02*
X137882285Y-119060190D01*
X137882285Y-119060190D02*
X137929904Y-119107809D01*
X137929904Y-119107809D02*
X137977523Y-119203047D01*
X137977523Y-119203047D02*
X137977523Y-119441142D01*
X137977523Y-119441142D02*
X137929904Y-119536380D01*
X137929904Y-119536380D02*
X137882285Y-119584000D01*
X137882285Y-119584000D02*
X137787047Y-119631619D01*
X137787047Y-119631619D02*
X137501333Y-119631619D01*
X137501333Y-119631619D02*
X137406095Y-119584000D01*
X137406095Y-119584000D02*
X137358476Y-119536380D01*
X138596571Y-118631619D02*
X138691809Y-118631619D01*
X138691809Y-118631619D02*
X138787047Y-118679238D01*
X138787047Y-118679238D02*
X138834666Y-118726857D01*
X138834666Y-118726857D02*
X138882285Y-118822095D01*
X138882285Y-118822095D02*
X138929904Y-119012571D01*
X138929904Y-119012571D02*
X138929904Y-119250666D01*
X138929904Y-119250666D02*
X138882285Y-119441142D01*
X138882285Y-119441142D02*
X138834666Y-119536380D01*
X138834666Y-119536380D02*
X138787047Y-119584000D01*
X138787047Y-119584000D02*
X138691809Y-119631619D01*
X138691809Y-119631619D02*
X138596571Y-119631619D01*
X138596571Y-119631619D02*
X138501333Y-119584000D01*
X138501333Y-119584000D02*
X138453714Y-119536380D01*
X138453714Y-119536380D02*
X138406095Y-119441142D01*
X138406095Y-119441142D02*
X138358476Y-119250666D01*
X138358476Y-119250666D02*
X138358476Y-119012571D01*
X138358476Y-119012571D02*
X138406095Y-118822095D01*
X138406095Y-118822095D02*
X138453714Y-118726857D01*
X138453714Y-118726857D02*
X138501333Y-118679238D01*
X138501333Y-118679238D02*
X138596571Y-118631619D01*
X99153742Y-70768380D02*
X99106123Y-70816000D01*
X99106123Y-70816000D02*
X98963266Y-70863619D01*
X98963266Y-70863619D02*
X98868028Y-70863619D01*
X98868028Y-70863619D02*
X98725171Y-70816000D01*
X98725171Y-70816000D02*
X98629933Y-70720761D01*
X98629933Y-70720761D02*
X98582314Y-70625523D01*
X98582314Y-70625523D02*
X98534695Y-70435047D01*
X98534695Y-70435047D02*
X98534695Y-70292190D01*
X98534695Y-70292190D02*
X98582314Y-70101714D01*
X98582314Y-70101714D02*
X98629933Y-70006476D01*
X98629933Y-70006476D02*
X98725171Y-69911238D01*
X98725171Y-69911238D02*
X98868028Y-69863619D01*
X98868028Y-69863619D02*
X98963266Y-69863619D01*
X98963266Y-69863619D02*
X99106123Y-69911238D01*
X99106123Y-69911238D02*
X99153742Y-69958857D01*
X100106123Y-70863619D02*
X99534695Y-70863619D01*
X99820409Y-70863619D02*
X99820409Y-69863619D01*
X99820409Y-69863619D02*
X99725171Y-70006476D01*
X99725171Y-70006476D02*
X99629933Y-70101714D01*
X99629933Y-70101714D02*
X99534695Y-70149333D01*
X100677552Y-70292190D02*
X100582314Y-70244571D01*
X100582314Y-70244571D02*
X100534695Y-70196952D01*
X100534695Y-70196952D02*
X100487076Y-70101714D01*
X100487076Y-70101714D02*
X100487076Y-70054095D01*
X100487076Y-70054095D02*
X100534695Y-69958857D01*
X100534695Y-69958857D02*
X100582314Y-69911238D01*
X100582314Y-69911238D02*
X100677552Y-69863619D01*
X100677552Y-69863619D02*
X100868028Y-69863619D01*
X100868028Y-69863619D02*
X100963266Y-69911238D01*
X100963266Y-69911238D02*
X101010885Y-69958857D01*
X101010885Y-69958857D02*
X101058504Y-70054095D01*
X101058504Y-70054095D02*
X101058504Y-70101714D01*
X101058504Y-70101714D02*
X101010885Y-70196952D01*
X101010885Y-70196952D02*
X100963266Y-70244571D01*
X100963266Y-70244571D02*
X100868028Y-70292190D01*
X100868028Y-70292190D02*
X100677552Y-70292190D01*
X100677552Y-70292190D02*
X100582314Y-70339809D01*
X100582314Y-70339809D02*
X100534695Y-70387428D01*
X100534695Y-70387428D02*
X100487076Y-70482666D01*
X100487076Y-70482666D02*
X100487076Y-70673142D01*
X100487076Y-70673142D02*
X100534695Y-70768380D01*
X100534695Y-70768380D02*
X100582314Y-70816000D01*
X100582314Y-70816000D02*
X100677552Y-70863619D01*
X100677552Y-70863619D02*
X100868028Y-70863619D01*
X100868028Y-70863619D02*
X100963266Y-70816000D01*
X100963266Y-70816000D02*
X101010885Y-70768380D01*
X101010885Y-70768380D02*
X101058504Y-70673142D01*
X101058504Y-70673142D02*
X101058504Y-70482666D01*
X101058504Y-70482666D02*
X101010885Y-70387428D01*
X101010885Y-70387428D02*
X100963266Y-70339809D01*
X100963266Y-70339809D02*
X100868028Y-70292190D01*
X133016666Y-123864019D02*
X133016666Y-124578304D01*
X133016666Y-124578304D02*
X132969047Y-124721161D01*
X132969047Y-124721161D02*
X132873809Y-124816400D01*
X132873809Y-124816400D02*
X132730952Y-124864019D01*
X132730952Y-124864019D02*
X132635714Y-124864019D01*
X134016666Y-124864019D02*
X133445238Y-124864019D01*
X133730952Y-124864019D02*
X133730952Y-123864019D01*
X133730952Y-123864019D02*
X133635714Y-124006876D01*
X133635714Y-124006876D02*
X133540476Y-124102114D01*
X133540476Y-124102114D02*
X133445238Y-124149733D01*
X117625905Y-87272019D02*
X117625905Y-86272019D01*
X117625905Y-86272019D02*
X117864000Y-86272019D01*
X117864000Y-86272019D02*
X118006857Y-86319638D01*
X118006857Y-86319638D02*
X118102095Y-86414876D01*
X118102095Y-86414876D02*
X118149714Y-86510114D01*
X118149714Y-86510114D02*
X118197333Y-86700590D01*
X118197333Y-86700590D02*
X118197333Y-86843447D01*
X118197333Y-86843447D02*
X118149714Y-87033923D01*
X118149714Y-87033923D02*
X118102095Y-87129161D01*
X118102095Y-87129161D02*
X118006857Y-87224400D01*
X118006857Y-87224400D02*
X117864000Y-87272019D01*
X117864000Y-87272019D02*
X117625905Y-87272019D01*
X119102095Y-86272019D02*
X118625905Y-86272019D01*
X118625905Y-86272019D02*
X118578286Y-86748209D01*
X118578286Y-86748209D02*
X118625905Y-86700590D01*
X118625905Y-86700590D02*
X118721143Y-86652971D01*
X118721143Y-86652971D02*
X118959238Y-86652971D01*
X118959238Y-86652971D02*
X119054476Y-86700590D01*
X119054476Y-86700590D02*
X119102095Y-86748209D01*
X119102095Y-86748209D02*
X119149714Y-86843447D01*
X119149714Y-86843447D02*
X119149714Y-87081542D01*
X119149714Y-87081542D02*
X119102095Y-87176780D01*
X119102095Y-87176780D02*
X119054476Y-87224400D01*
X119054476Y-87224400D02*
X118959238Y-87272019D01*
X118959238Y-87272019D02*
X118721143Y-87272019D01*
X118721143Y-87272019D02*
X118625905Y-87224400D01*
X118625905Y-87224400D02*
X118578286Y-87176780D01*
X130497342Y-121136580D02*
X130449723Y-121184200D01*
X130449723Y-121184200D02*
X130306866Y-121231819D01*
X130306866Y-121231819D02*
X130211628Y-121231819D01*
X130211628Y-121231819D02*
X130068771Y-121184200D01*
X130068771Y-121184200D02*
X129973533Y-121088961D01*
X129973533Y-121088961D02*
X129925914Y-120993723D01*
X129925914Y-120993723D02*
X129878295Y-120803247D01*
X129878295Y-120803247D02*
X129878295Y-120660390D01*
X129878295Y-120660390D02*
X129925914Y-120469914D01*
X129925914Y-120469914D02*
X129973533Y-120374676D01*
X129973533Y-120374676D02*
X130068771Y-120279438D01*
X130068771Y-120279438D02*
X130211628Y-120231819D01*
X130211628Y-120231819D02*
X130306866Y-120231819D01*
X130306866Y-120231819D02*
X130449723Y-120279438D01*
X130449723Y-120279438D02*
X130497342Y-120327057D01*
X130878295Y-120327057D02*
X130925914Y-120279438D01*
X130925914Y-120279438D02*
X131021152Y-120231819D01*
X131021152Y-120231819D02*
X131259247Y-120231819D01*
X131259247Y-120231819D02*
X131354485Y-120279438D01*
X131354485Y-120279438D02*
X131402104Y-120327057D01*
X131402104Y-120327057D02*
X131449723Y-120422295D01*
X131449723Y-120422295D02*
X131449723Y-120517533D01*
X131449723Y-120517533D02*
X131402104Y-120660390D01*
X131402104Y-120660390D02*
X130830676Y-121231819D01*
X130830676Y-121231819D02*
X131449723Y-121231819D01*
X132021152Y-120660390D02*
X131925914Y-120612771D01*
X131925914Y-120612771D02*
X131878295Y-120565152D01*
X131878295Y-120565152D02*
X131830676Y-120469914D01*
X131830676Y-120469914D02*
X131830676Y-120422295D01*
X131830676Y-120422295D02*
X131878295Y-120327057D01*
X131878295Y-120327057D02*
X131925914Y-120279438D01*
X131925914Y-120279438D02*
X132021152Y-120231819D01*
X132021152Y-120231819D02*
X132211628Y-120231819D01*
X132211628Y-120231819D02*
X132306866Y-120279438D01*
X132306866Y-120279438D02*
X132354485Y-120327057D01*
X132354485Y-120327057D02*
X132402104Y-120422295D01*
X132402104Y-120422295D02*
X132402104Y-120469914D01*
X132402104Y-120469914D02*
X132354485Y-120565152D01*
X132354485Y-120565152D02*
X132306866Y-120612771D01*
X132306866Y-120612771D02*
X132211628Y-120660390D01*
X132211628Y-120660390D02*
X132021152Y-120660390D01*
X132021152Y-120660390D02*
X131925914Y-120708009D01*
X131925914Y-120708009D02*
X131878295Y-120755628D01*
X131878295Y-120755628D02*
X131830676Y-120850866D01*
X131830676Y-120850866D02*
X131830676Y-121041342D01*
X131830676Y-121041342D02*
X131878295Y-121136580D01*
X131878295Y-121136580D02*
X131925914Y-121184200D01*
X131925914Y-121184200D02*
X132021152Y-121231819D01*
X132021152Y-121231819D02*
X132211628Y-121231819D01*
X132211628Y-121231819D02*
X132306866Y-121184200D01*
X132306866Y-121184200D02*
X132354485Y-121136580D01*
X132354485Y-121136580D02*
X132402104Y-121041342D01*
X132402104Y-121041342D02*
X132402104Y-120850866D01*
X132402104Y-120850866D02*
X132354485Y-120755628D01*
X132354485Y-120755628D02*
X132306866Y-120708009D01*
X132306866Y-120708009D02*
X132211628Y-120660390D01*
X111117142Y-71069580D02*
X111069523Y-71117200D01*
X111069523Y-71117200D02*
X110926666Y-71164819D01*
X110926666Y-71164819D02*
X110831428Y-71164819D01*
X110831428Y-71164819D02*
X110688571Y-71117200D01*
X110688571Y-71117200D02*
X110593333Y-71021961D01*
X110593333Y-71021961D02*
X110545714Y-70926723D01*
X110545714Y-70926723D02*
X110498095Y-70736247D01*
X110498095Y-70736247D02*
X110498095Y-70593390D01*
X110498095Y-70593390D02*
X110545714Y-70402914D01*
X110545714Y-70402914D02*
X110593333Y-70307676D01*
X110593333Y-70307676D02*
X110688571Y-70212438D01*
X110688571Y-70212438D02*
X110831428Y-70164819D01*
X110831428Y-70164819D02*
X110926666Y-70164819D01*
X110926666Y-70164819D02*
X111069523Y-70212438D01*
X111069523Y-70212438D02*
X111117142Y-70260057D01*
X111498095Y-70260057D02*
X111545714Y-70212438D01*
X111545714Y-70212438D02*
X111640952Y-70164819D01*
X111640952Y-70164819D02*
X111879047Y-70164819D01*
X111879047Y-70164819D02*
X111974285Y-70212438D01*
X111974285Y-70212438D02*
X112021904Y-70260057D01*
X112021904Y-70260057D02*
X112069523Y-70355295D01*
X112069523Y-70355295D02*
X112069523Y-70450533D01*
X112069523Y-70450533D02*
X112021904Y-70593390D01*
X112021904Y-70593390D02*
X111450476Y-71164819D01*
X111450476Y-71164819D02*
X112069523Y-71164819D01*
X112402857Y-70164819D02*
X113069523Y-70164819D01*
X113069523Y-70164819D02*
X112640952Y-71164819D01*
X123219167Y-75897200D02*
X123362024Y-75944819D01*
X123362024Y-75944819D02*
X123600119Y-75944819D01*
X123600119Y-75944819D02*
X123695357Y-75897200D01*
X123695357Y-75897200D02*
X123742976Y-75849580D01*
X123742976Y-75849580D02*
X123790595Y-75754342D01*
X123790595Y-75754342D02*
X123790595Y-75659104D01*
X123790595Y-75659104D02*
X123742976Y-75563866D01*
X123742976Y-75563866D02*
X123695357Y-75516247D01*
X123695357Y-75516247D02*
X123600119Y-75468628D01*
X123600119Y-75468628D02*
X123409643Y-75421009D01*
X123409643Y-75421009D02*
X123314405Y-75373390D01*
X123314405Y-75373390D02*
X123266786Y-75325771D01*
X123266786Y-75325771D02*
X123219167Y-75230533D01*
X123219167Y-75230533D02*
X123219167Y-75135295D01*
X123219167Y-75135295D02*
X123266786Y-75040057D01*
X123266786Y-75040057D02*
X123314405Y-74992438D01*
X123314405Y-74992438D02*
X123409643Y-74944819D01*
X123409643Y-74944819D02*
X123647738Y-74944819D01*
X123647738Y-74944819D02*
X123790595Y-74992438D01*
X124123929Y-74944819D02*
X124362024Y-75944819D01*
X124362024Y-75944819D02*
X124552500Y-75230533D01*
X124552500Y-75230533D02*
X124742976Y-75944819D01*
X124742976Y-75944819D02*
X124981072Y-74944819D01*
X125314405Y-75040057D02*
X125362024Y-74992438D01*
X125362024Y-74992438D02*
X125457262Y-74944819D01*
X125457262Y-74944819D02*
X125695357Y-74944819D01*
X125695357Y-74944819D02*
X125790595Y-74992438D01*
X125790595Y-74992438D02*
X125838214Y-75040057D01*
X125838214Y-75040057D02*
X125885833Y-75135295D01*
X125885833Y-75135295D02*
X125885833Y-75230533D01*
X125885833Y-75230533D02*
X125838214Y-75373390D01*
X125838214Y-75373390D02*
X125266786Y-75944819D01*
X125266786Y-75944819D02*
X125885833Y-75944819D01*
X111594580Y-59062857D02*
X111642200Y-59110476D01*
X111642200Y-59110476D02*
X111689819Y-59253333D01*
X111689819Y-59253333D02*
X111689819Y-59348571D01*
X111689819Y-59348571D02*
X111642200Y-59491428D01*
X111642200Y-59491428D02*
X111546961Y-59586666D01*
X111546961Y-59586666D02*
X111451723Y-59634285D01*
X111451723Y-59634285D02*
X111261247Y-59681904D01*
X111261247Y-59681904D02*
X111118390Y-59681904D01*
X111118390Y-59681904D02*
X110927914Y-59634285D01*
X110927914Y-59634285D02*
X110832676Y-59586666D01*
X110832676Y-59586666D02*
X110737438Y-59491428D01*
X110737438Y-59491428D02*
X110689819Y-59348571D01*
X110689819Y-59348571D02*
X110689819Y-59253333D01*
X110689819Y-59253333D02*
X110737438Y-59110476D01*
X110737438Y-59110476D02*
X110785057Y-59062857D01*
X111689819Y-58110476D02*
X111689819Y-58681904D01*
X111689819Y-58396190D02*
X110689819Y-58396190D01*
X110689819Y-58396190D02*
X110832676Y-58491428D01*
X110832676Y-58491428D02*
X110927914Y-58586666D01*
X110927914Y-58586666D02*
X110975533Y-58681904D01*
X110689819Y-57205714D02*
X110689819Y-57681904D01*
X110689819Y-57681904D02*
X111166009Y-57729523D01*
X111166009Y-57729523D02*
X111118390Y-57681904D01*
X111118390Y-57681904D02*
X111070771Y-57586666D01*
X111070771Y-57586666D02*
X111070771Y-57348571D01*
X111070771Y-57348571D02*
X111118390Y-57253333D01*
X111118390Y-57253333D02*
X111166009Y-57205714D01*
X111166009Y-57205714D02*
X111261247Y-57158095D01*
X111261247Y-57158095D02*
X111499342Y-57158095D01*
X111499342Y-57158095D02*
X111594580Y-57205714D01*
X111594580Y-57205714D02*
X111642200Y-57253333D01*
X111642200Y-57253333D02*
X111689819Y-57348571D01*
X111689819Y-57348571D02*
X111689819Y-57586666D01*
X111689819Y-57586666D02*
X111642200Y-57681904D01*
X111642200Y-57681904D02*
X111594580Y-57729523D01*
X123277333Y-94110980D02*
X123229714Y-94158600D01*
X123229714Y-94158600D02*
X123086857Y-94206219D01*
X123086857Y-94206219D02*
X122991619Y-94206219D01*
X122991619Y-94206219D02*
X122848762Y-94158600D01*
X122848762Y-94158600D02*
X122753524Y-94063361D01*
X122753524Y-94063361D02*
X122705905Y-93968123D01*
X122705905Y-93968123D02*
X122658286Y-93777647D01*
X122658286Y-93777647D02*
X122658286Y-93634790D01*
X122658286Y-93634790D02*
X122705905Y-93444314D01*
X122705905Y-93444314D02*
X122753524Y-93349076D01*
X122753524Y-93349076D02*
X122848762Y-93253838D01*
X122848762Y-93253838D02*
X122991619Y-93206219D01*
X122991619Y-93206219D02*
X123086857Y-93206219D01*
X123086857Y-93206219D02*
X123229714Y-93253838D01*
X123229714Y-93253838D02*
X123277333Y-93301457D01*
X123610667Y-93206219D02*
X124229714Y-93206219D01*
X124229714Y-93206219D02*
X123896381Y-93587171D01*
X123896381Y-93587171D02*
X124039238Y-93587171D01*
X124039238Y-93587171D02*
X124134476Y-93634790D01*
X124134476Y-93634790D02*
X124182095Y-93682409D01*
X124182095Y-93682409D02*
X124229714Y-93777647D01*
X124229714Y-93777647D02*
X124229714Y-94015742D01*
X124229714Y-94015742D02*
X124182095Y-94110980D01*
X124182095Y-94110980D02*
X124134476Y-94158600D01*
X124134476Y-94158600D02*
X124039238Y-94206219D01*
X124039238Y-94206219D02*
X123753524Y-94206219D01*
X123753524Y-94206219D02*
X123658286Y-94158600D01*
X123658286Y-94158600D02*
X123610667Y-94110980D01*
X109821742Y-133760380D02*
X109774123Y-133808000D01*
X109774123Y-133808000D02*
X109631266Y-133855619D01*
X109631266Y-133855619D02*
X109536028Y-133855619D01*
X109536028Y-133855619D02*
X109393171Y-133808000D01*
X109393171Y-133808000D02*
X109297933Y-133712761D01*
X109297933Y-133712761D02*
X109250314Y-133617523D01*
X109250314Y-133617523D02*
X109202695Y-133427047D01*
X109202695Y-133427047D02*
X109202695Y-133284190D01*
X109202695Y-133284190D02*
X109250314Y-133093714D01*
X109250314Y-133093714D02*
X109297933Y-132998476D01*
X109297933Y-132998476D02*
X109393171Y-132903238D01*
X109393171Y-132903238D02*
X109536028Y-132855619D01*
X109536028Y-132855619D02*
X109631266Y-132855619D01*
X109631266Y-132855619D02*
X109774123Y-132903238D01*
X109774123Y-132903238D02*
X109821742Y-132950857D01*
X110202695Y-132950857D02*
X110250314Y-132903238D01*
X110250314Y-132903238D02*
X110345552Y-132855619D01*
X110345552Y-132855619D02*
X110583647Y-132855619D01*
X110583647Y-132855619D02*
X110678885Y-132903238D01*
X110678885Y-132903238D02*
X110726504Y-132950857D01*
X110726504Y-132950857D02*
X110774123Y-133046095D01*
X110774123Y-133046095D02*
X110774123Y-133141333D01*
X110774123Y-133141333D02*
X110726504Y-133284190D01*
X110726504Y-133284190D02*
X110155076Y-133855619D01*
X110155076Y-133855619D02*
X110774123Y-133855619D01*
X111107457Y-132855619D02*
X111726504Y-132855619D01*
X111726504Y-132855619D02*
X111393171Y-133236571D01*
X111393171Y-133236571D02*
X111536028Y-133236571D01*
X111536028Y-133236571D02*
X111631266Y-133284190D01*
X111631266Y-133284190D02*
X111678885Y-133331809D01*
X111678885Y-133331809D02*
X111726504Y-133427047D01*
X111726504Y-133427047D02*
X111726504Y-133665142D01*
X111726504Y-133665142D02*
X111678885Y-133760380D01*
X111678885Y-133760380D02*
X111631266Y-133808000D01*
X111631266Y-133808000D02*
X111536028Y-133855619D01*
X111536028Y-133855619D02*
X111250314Y-133855619D01*
X111250314Y-133855619D02*
X111155076Y-133808000D01*
X111155076Y-133808000D02*
X111107457Y-133760380D01*
X132783342Y-123644819D02*
X132450009Y-123168628D01*
X132211914Y-123644819D02*
X132211914Y-122644819D01*
X132211914Y-122644819D02*
X132592866Y-122644819D01*
X132592866Y-122644819D02*
X132688104Y-122692438D01*
X132688104Y-122692438D02*
X132735723Y-122740057D01*
X132735723Y-122740057D02*
X132783342Y-122835295D01*
X132783342Y-122835295D02*
X132783342Y-122978152D01*
X132783342Y-122978152D02*
X132735723Y-123073390D01*
X132735723Y-123073390D02*
X132688104Y-123121009D01*
X132688104Y-123121009D02*
X132592866Y-123168628D01*
X132592866Y-123168628D02*
X132211914Y-123168628D01*
X133735723Y-123644819D02*
X133164295Y-123644819D01*
X133450009Y-123644819D02*
X133450009Y-122644819D01*
X133450009Y-122644819D02*
X133354771Y-122787676D01*
X133354771Y-122787676D02*
X133259533Y-122882914D01*
X133259533Y-122882914D02*
X133164295Y-122930533D01*
X134592866Y-122978152D02*
X134592866Y-123644819D01*
X134354771Y-122597200D02*
X134116676Y-123311485D01*
X134116676Y-123311485D02*
X134735723Y-123311485D01*
X121040595Y-103334819D02*
X121040595Y-104144342D01*
X121040595Y-104144342D02*
X121088214Y-104239580D01*
X121088214Y-104239580D02*
X121135833Y-104287200D01*
X121135833Y-104287200D02*
X121231071Y-104334819D01*
X121231071Y-104334819D02*
X121421547Y-104334819D01*
X121421547Y-104334819D02*
X121516785Y-104287200D01*
X121516785Y-104287200D02*
X121564404Y-104239580D01*
X121564404Y-104239580D02*
X121612023Y-104144342D01*
X121612023Y-104144342D02*
X121612023Y-103334819D01*
X122516785Y-103668152D02*
X122516785Y-104334819D01*
X122278690Y-103287200D02*
X122040595Y-104001485D01*
X122040595Y-104001485D02*
X122659642Y-104001485D01*
X126128542Y-133042819D02*
X125795209Y-132566628D01*
X125557114Y-133042819D02*
X125557114Y-132042819D01*
X125557114Y-132042819D02*
X125938066Y-132042819D01*
X125938066Y-132042819D02*
X126033304Y-132090438D01*
X126033304Y-132090438D02*
X126080923Y-132138057D01*
X126080923Y-132138057D02*
X126128542Y-132233295D01*
X126128542Y-132233295D02*
X126128542Y-132376152D01*
X126128542Y-132376152D02*
X126080923Y-132471390D01*
X126080923Y-132471390D02*
X126033304Y-132519009D01*
X126033304Y-132519009D02*
X125938066Y-132566628D01*
X125938066Y-132566628D02*
X125557114Y-132566628D01*
X127080923Y-133042819D02*
X126509495Y-133042819D01*
X126795209Y-133042819D02*
X126795209Y-132042819D01*
X126795209Y-132042819D02*
X126699971Y-132185676D01*
X126699971Y-132185676D02*
X126604733Y-132280914D01*
X126604733Y-132280914D02*
X126509495Y-132328533D01*
X127414257Y-132042819D02*
X128033304Y-132042819D01*
X128033304Y-132042819D02*
X127699971Y-132423771D01*
X127699971Y-132423771D02*
X127842828Y-132423771D01*
X127842828Y-132423771D02*
X127938066Y-132471390D01*
X127938066Y-132471390D02*
X127985685Y-132519009D01*
X127985685Y-132519009D02*
X128033304Y-132614247D01*
X128033304Y-132614247D02*
X128033304Y-132852342D01*
X128033304Y-132852342D02*
X127985685Y-132947580D01*
X127985685Y-132947580D02*
X127938066Y-132995200D01*
X127938066Y-132995200D02*
X127842828Y-133042819D01*
X127842828Y-133042819D02*
X127557114Y-133042819D01*
X127557114Y-133042819D02*
X127461876Y-132995200D01*
X127461876Y-132995200D02*
X127414257Y-132947580D01*
X136501285Y-75013409D02*
X136644142Y-75061028D01*
X136644142Y-75061028D02*
X136691761Y-75108647D01*
X136691761Y-75108647D02*
X136739380Y-75203885D01*
X136739380Y-75203885D02*
X136739380Y-75346742D01*
X136739380Y-75346742D02*
X136691761Y-75441980D01*
X136691761Y-75441980D02*
X136644142Y-75489600D01*
X136644142Y-75489600D02*
X136548904Y-75537219D01*
X136548904Y-75537219D02*
X136167952Y-75537219D01*
X136167952Y-75537219D02*
X136167952Y-74537219D01*
X136167952Y-74537219D02*
X136501285Y-74537219D01*
X136501285Y-74537219D02*
X136596523Y-74584838D01*
X136596523Y-74584838D02*
X136644142Y-74632457D01*
X136644142Y-74632457D02*
X136691761Y-74727695D01*
X136691761Y-74727695D02*
X136691761Y-74822933D01*
X136691761Y-74822933D02*
X136644142Y-74918171D01*
X136644142Y-74918171D02*
X136596523Y-74965790D01*
X136596523Y-74965790D02*
X136501285Y-75013409D01*
X136501285Y-75013409D02*
X136167952Y-75013409D01*
X137025095Y-74537219D02*
X137596523Y-74537219D01*
X137310809Y-75537219D02*
X137310809Y-74537219D01*
X138453666Y-75537219D02*
X137882238Y-75537219D01*
X138167952Y-75537219D02*
X138167952Y-74537219D01*
X138167952Y-74537219D02*
X138072714Y-74680076D01*
X138072714Y-74680076D02*
X137977476Y-74775314D01*
X137977476Y-74775314D02*
X137882238Y-74822933D01*
X119448342Y-56857580D02*
X119400723Y-56905200D01*
X119400723Y-56905200D02*
X119257866Y-56952819D01*
X119257866Y-56952819D02*
X119162628Y-56952819D01*
X119162628Y-56952819D02*
X119019771Y-56905200D01*
X119019771Y-56905200D02*
X118924533Y-56809961D01*
X118924533Y-56809961D02*
X118876914Y-56714723D01*
X118876914Y-56714723D02*
X118829295Y-56524247D01*
X118829295Y-56524247D02*
X118829295Y-56381390D01*
X118829295Y-56381390D02*
X118876914Y-56190914D01*
X118876914Y-56190914D02*
X118924533Y-56095676D01*
X118924533Y-56095676D02*
X119019771Y-56000438D01*
X119019771Y-56000438D02*
X119162628Y-55952819D01*
X119162628Y-55952819D02*
X119257866Y-55952819D01*
X119257866Y-55952819D02*
X119400723Y-56000438D01*
X119400723Y-56000438D02*
X119448342Y-56048057D01*
X119829295Y-56048057D02*
X119876914Y-56000438D01*
X119876914Y-56000438D02*
X119972152Y-55952819D01*
X119972152Y-55952819D02*
X120210247Y-55952819D01*
X120210247Y-55952819D02*
X120305485Y-56000438D01*
X120305485Y-56000438D02*
X120353104Y-56048057D01*
X120353104Y-56048057D02*
X120400723Y-56143295D01*
X120400723Y-56143295D02*
X120400723Y-56238533D01*
X120400723Y-56238533D02*
X120353104Y-56381390D01*
X120353104Y-56381390D02*
X119781676Y-56952819D01*
X119781676Y-56952819D02*
X120400723Y-56952819D01*
X120781676Y-56048057D02*
X120829295Y-56000438D01*
X120829295Y-56000438D02*
X120924533Y-55952819D01*
X120924533Y-55952819D02*
X121162628Y-55952819D01*
X121162628Y-55952819D02*
X121257866Y-56000438D01*
X121257866Y-56000438D02*
X121305485Y-56048057D01*
X121305485Y-56048057D02*
X121353104Y-56143295D01*
X121353104Y-56143295D02*
X121353104Y-56238533D01*
X121353104Y-56238533D02*
X121305485Y-56381390D01*
X121305485Y-56381390D02*
X120734057Y-56952819D01*
X120734057Y-56952819D02*
X121353104Y-56952819D01*
X104944942Y-93596619D02*
X104611609Y-93120428D01*
X104373514Y-93596619D02*
X104373514Y-92596619D01*
X104373514Y-92596619D02*
X104754466Y-92596619D01*
X104754466Y-92596619D02*
X104849704Y-92644238D01*
X104849704Y-92644238D02*
X104897323Y-92691857D01*
X104897323Y-92691857D02*
X104944942Y-92787095D01*
X104944942Y-92787095D02*
X104944942Y-92929952D01*
X104944942Y-92929952D02*
X104897323Y-93025190D01*
X104897323Y-93025190D02*
X104849704Y-93072809D01*
X104849704Y-93072809D02*
X104754466Y-93120428D01*
X104754466Y-93120428D02*
X104373514Y-93120428D01*
X105897323Y-93596619D02*
X105325895Y-93596619D01*
X105611609Y-93596619D02*
X105611609Y-92596619D01*
X105611609Y-92596619D02*
X105516371Y-92739476D01*
X105516371Y-92739476D02*
X105421133Y-92834714D01*
X105421133Y-92834714D02*
X105325895Y-92882333D01*
X106754466Y-92596619D02*
X106563990Y-92596619D01*
X106563990Y-92596619D02*
X106468752Y-92644238D01*
X106468752Y-92644238D02*
X106421133Y-92691857D01*
X106421133Y-92691857D02*
X106325895Y-92834714D01*
X106325895Y-92834714D02*
X106278276Y-93025190D01*
X106278276Y-93025190D02*
X106278276Y-93406142D01*
X106278276Y-93406142D02*
X106325895Y-93501380D01*
X106325895Y-93501380D02*
X106373514Y-93549000D01*
X106373514Y-93549000D02*
X106468752Y-93596619D01*
X106468752Y-93596619D02*
X106659228Y-93596619D01*
X106659228Y-93596619D02*
X106754466Y-93549000D01*
X106754466Y-93549000D02*
X106802085Y-93501380D01*
X106802085Y-93501380D02*
X106849704Y-93406142D01*
X106849704Y-93406142D02*
X106849704Y-93168047D01*
X106849704Y-93168047D02*
X106802085Y-93072809D01*
X106802085Y-93072809D02*
X106754466Y-93025190D01*
X106754466Y-93025190D02*
X106659228Y-92977571D01*
X106659228Y-92977571D02*
X106468752Y-92977571D01*
X106468752Y-92977571D02*
X106373514Y-93025190D01*
X106373514Y-93025190D02*
X106325895Y-93072809D01*
X106325895Y-93072809D02*
X106278276Y-93168047D01*
X102862142Y-68144580D02*
X102814523Y-68192200D01*
X102814523Y-68192200D02*
X102671666Y-68239819D01*
X102671666Y-68239819D02*
X102576428Y-68239819D01*
X102576428Y-68239819D02*
X102433571Y-68192200D01*
X102433571Y-68192200D02*
X102338333Y-68096961D01*
X102338333Y-68096961D02*
X102290714Y-68001723D01*
X102290714Y-68001723D02*
X102243095Y-67811247D01*
X102243095Y-67811247D02*
X102243095Y-67668390D01*
X102243095Y-67668390D02*
X102290714Y-67477914D01*
X102290714Y-67477914D02*
X102338333Y-67382676D01*
X102338333Y-67382676D02*
X102433571Y-67287438D01*
X102433571Y-67287438D02*
X102576428Y-67239819D01*
X102576428Y-67239819D02*
X102671666Y-67239819D01*
X102671666Y-67239819D02*
X102814523Y-67287438D01*
X102814523Y-67287438D02*
X102862142Y-67335057D01*
X103814523Y-68239819D02*
X103243095Y-68239819D01*
X103528809Y-68239819D02*
X103528809Y-67239819D01*
X103528809Y-67239819D02*
X103433571Y-67382676D01*
X103433571Y-67382676D02*
X103338333Y-67477914D01*
X103338333Y-67477914D02*
X103243095Y-67525533D01*
X104290714Y-68239819D02*
X104481190Y-68239819D01*
X104481190Y-68239819D02*
X104576428Y-68192200D01*
X104576428Y-68192200D02*
X104624047Y-68144580D01*
X104624047Y-68144580D02*
X104719285Y-68001723D01*
X104719285Y-68001723D02*
X104766904Y-67811247D01*
X104766904Y-67811247D02*
X104766904Y-67430295D01*
X104766904Y-67430295D02*
X104719285Y-67335057D01*
X104719285Y-67335057D02*
X104671666Y-67287438D01*
X104671666Y-67287438D02*
X104576428Y-67239819D01*
X104576428Y-67239819D02*
X104385952Y-67239819D01*
X104385952Y-67239819D02*
X104290714Y-67287438D01*
X104290714Y-67287438D02*
X104243095Y-67335057D01*
X104243095Y-67335057D02*
X104195476Y-67430295D01*
X104195476Y-67430295D02*
X104195476Y-67668390D01*
X104195476Y-67668390D02*
X104243095Y-67763628D01*
X104243095Y-67763628D02*
X104290714Y-67811247D01*
X104290714Y-67811247D02*
X104385952Y-67858866D01*
X104385952Y-67858866D02*
X104576428Y-67858866D01*
X104576428Y-67858866D02*
X104671666Y-67811247D01*
X104671666Y-67811247D02*
X104719285Y-67763628D01*
X104719285Y-67763628D02*
X104766904Y-67668390D01*
X98848942Y-77448580D02*
X98801323Y-77496200D01*
X98801323Y-77496200D02*
X98658466Y-77543819D01*
X98658466Y-77543819D02*
X98563228Y-77543819D01*
X98563228Y-77543819D02*
X98420371Y-77496200D01*
X98420371Y-77496200D02*
X98325133Y-77400961D01*
X98325133Y-77400961D02*
X98277514Y-77305723D01*
X98277514Y-77305723D02*
X98229895Y-77115247D01*
X98229895Y-77115247D02*
X98229895Y-76972390D01*
X98229895Y-76972390D02*
X98277514Y-76781914D01*
X98277514Y-76781914D02*
X98325133Y-76686676D01*
X98325133Y-76686676D02*
X98420371Y-76591438D01*
X98420371Y-76591438D02*
X98563228Y-76543819D01*
X98563228Y-76543819D02*
X98658466Y-76543819D01*
X98658466Y-76543819D02*
X98801323Y-76591438D01*
X98801323Y-76591438D02*
X98848942Y-76639057D01*
X99801323Y-77543819D02*
X99229895Y-77543819D01*
X99515609Y-77543819D02*
X99515609Y-76543819D01*
X99515609Y-76543819D02*
X99420371Y-76686676D01*
X99420371Y-76686676D02*
X99325133Y-76781914D01*
X99325133Y-76781914D02*
X99229895Y-76829533D01*
X100420371Y-76543819D02*
X100515609Y-76543819D01*
X100515609Y-76543819D02*
X100610847Y-76591438D01*
X100610847Y-76591438D02*
X100658466Y-76639057D01*
X100658466Y-76639057D02*
X100706085Y-76734295D01*
X100706085Y-76734295D02*
X100753704Y-76924771D01*
X100753704Y-76924771D02*
X100753704Y-77162866D01*
X100753704Y-77162866D02*
X100706085Y-77353342D01*
X100706085Y-77353342D02*
X100658466Y-77448580D01*
X100658466Y-77448580D02*
X100610847Y-77496200D01*
X100610847Y-77496200D02*
X100515609Y-77543819D01*
X100515609Y-77543819D02*
X100420371Y-77543819D01*
X100420371Y-77543819D02*
X100325133Y-77496200D01*
X100325133Y-77496200D02*
X100277514Y-77448580D01*
X100277514Y-77448580D02*
X100229895Y-77353342D01*
X100229895Y-77353342D02*
X100182276Y-77162866D01*
X100182276Y-77162866D02*
X100182276Y-76924771D01*
X100182276Y-76924771D02*
X100229895Y-76734295D01*
X100229895Y-76734295D02*
X100277514Y-76639057D01*
X100277514Y-76639057D02*
X100325133Y-76591438D01*
X100325133Y-76591438D02*
X100420371Y-76543819D01*
X125930819Y-69381666D02*
X125454628Y-69714999D01*
X125930819Y-69953094D02*
X124930819Y-69953094D01*
X124930819Y-69953094D02*
X124930819Y-69572142D01*
X124930819Y-69572142D02*
X124978438Y-69476904D01*
X124978438Y-69476904D02*
X125026057Y-69429285D01*
X125026057Y-69429285D02*
X125121295Y-69381666D01*
X125121295Y-69381666D02*
X125264152Y-69381666D01*
X125264152Y-69381666D02*
X125359390Y-69429285D01*
X125359390Y-69429285D02*
X125407009Y-69476904D01*
X125407009Y-69476904D02*
X125454628Y-69572142D01*
X125454628Y-69572142D02*
X125454628Y-69953094D01*
X125264152Y-68524523D02*
X125930819Y-68524523D01*
X124883200Y-68762618D02*
X125597485Y-69000713D01*
X125597485Y-69000713D02*
X125597485Y-68381666D01*
X136517142Y-124965619D02*
X136183809Y-124489428D01*
X135945714Y-124965619D02*
X135945714Y-123965619D01*
X135945714Y-123965619D02*
X136326666Y-123965619D01*
X136326666Y-123965619D02*
X136421904Y-124013238D01*
X136421904Y-124013238D02*
X136469523Y-124060857D01*
X136469523Y-124060857D02*
X136517142Y-124156095D01*
X136517142Y-124156095D02*
X136517142Y-124298952D01*
X136517142Y-124298952D02*
X136469523Y-124394190D01*
X136469523Y-124394190D02*
X136421904Y-124441809D01*
X136421904Y-124441809D02*
X136326666Y-124489428D01*
X136326666Y-124489428D02*
X135945714Y-124489428D01*
X137469523Y-124965619D02*
X136898095Y-124965619D01*
X137183809Y-124965619D02*
X137183809Y-123965619D01*
X137183809Y-123965619D02*
X137088571Y-124108476D01*
X137088571Y-124108476D02*
X136993333Y-124203714D01*
X136993333Y-124203714D02*
X136898095Y-124251333D01*
X138374285Y-123965619D02*
X137898095Y-123965619D01*
X137898095Y-123965619D02*
X137850476Y-124441809D01*
X137850476Y-124441809D02*
X137898095Y-124394190D01*
X137898095Y-124394190D02*
X137993333Y-124346571D01*
X137993333Y-124346571D02*
X138231428Y-124346571D01*
X138231428Y-124346571D02*
X138326666Y-124394190D01*
X138326666Y-124394190D02*
X138374285Y-124441809D01*
X138374285Y-124441809D02*
X138421904Y-124537047D01*
X138421904Y-124537047D02*
X138421904Y-124775142D01*
X138421904Y-124775142D02*
X138374285Y-124870380D01*
X138374285Y-124870380D02*
X138326666Y-124918000D01*
X138326666Y-124918000D02*
X138231428Y-124965619D01*
X138231428Y-124965619D02*
X137993333Y-124965619D01*
X137993333Y-124965619D02*
X137898095Y-124918000D01*
X137898095Y-124918000D02*
X137850476Y-124870380D01*
X124752267Y-72594000D02*
X124895124Y-72641619D01*
X124895124Y-72641619D02*
X125133219Y-72641619D01*
X125133219Y-72641619D02*
X125228457Y-72594000D01*
X125228457Y-72594000D02*
X125276076Y-72546380D01*
X125276076Y-72546380D02*
X125323695Y-72451142D01*
X125323695Y-72451142D02*
X125323695Y-72355904D01*
X125323695Y-72355904D02*
X125276076Y-72260666D01*
X125276076Y-72260666D02*
X125228457Y-72213047D01*
X125228457Y-72213047D02*
X125133219Y-72165428D01*
X125133219Y-72165428D02*
X124942743Y-72117809D01*
X124942743Y-72117809D02*
X124847505Y-72070190D01*
X124847505Y-72070190D02*
X124799886Y-72022571D01*
X124799886Y-72022571D02*
X124752267Y-71927333D01*
X124752267Y-71927333D02*
X124752267Y-71832095D01*
X124752267Y-71832095D02*
X124799886Y-71736857D01*
X124799886Y-71736857D02*
X124847505Y-71689238D01*
X124847505Y-71689238D02*
X124942743Y-71641619D01*
X124942743Y-71641619D02*
X125180838Y-71641619D01*
X125180838Y-71641619D02*
X125323695Y-71689238D01*
X125657029Y-71641619D02*
X125895124Y-72641619D01*
X125895124Y-72641619D02*
X126085600Y-71927333D01*
X126085600Y-71927333D02*
X126276076Y-72641619D01*
X126276076Y-72641619D02*
X126514172Y-71641619D01*
X127418933Y-72641619D02*
X126847505Y-72641619D01*
X127133219Y-72641619D02*
X127133219Y-71641619D01*
X127133219Y-71641619D02*
X127037981Y-71784476D01*
X127037981Y-71784476D02*
X126942743Y-71879714D01*
X126942743Y-71879714D02*
X126847505Y-71927333D01*
X99151619Y-93829194D02*
X98151619Y-93829194D01*
X98151619Y-93829194D02*
X98151619Y-93591099D01*
X98151619Y-93591099D02*
X98199238Y-93448242D01*
X98199238Y-93448242D02*
X98294476Y-93353004D01*
X98294476Y-93353004D02*
X98389714Y-93305385D01*
X98389714Y-93305385D02*
X98580190Y-93257766D01*
X98580190Y-93257766D02*
X98723047Y-93257766D01*
X98723047Y-93257766D02*
X98913523Y-93305385D01*
X98913523Y-93305385D02*
X99008761Y-93353004D01*
X99008761Y-93353004D02*
X99104000Y-93448242D01*
X99104000Y-93448242D02*
X99151619Y-93591099D01*
X99151619Y-93591099D02*
X99151619Y-93829194D01*
X98246857Y-92876813D02*
X98199238Y-92829194D01*
X98199238Y-92829194D02*
X98151619Y-92733956D01*
X98151619Y-92733956D02*
X98151619Y-92495861D01*
X98151619Y-92495861D02*
X98199238Y-92400623D01*
X98199238Y-92400623D02*
X98246857Y-92353004D01*
X98246857Y-92353004D02*
X98342095Y-92305385D01*
X98342095Y-92305385D02*
X98437333Y-92305385D01*
X98437333Y-92305385D02*
X98580190Y-92353004D01*
X98580190Y-92353004D02*
X99151619Y-92924432D01*
X99151619Y-92924432D02*
X99151619Y-92305385D01*
X137075942Y-120984180D02*
X137028323Y-121031800D01*
X137028323Y-121031800D02*
X136885466Y-121079419D01*
X136885466Y-121079419D02*
X136790228Y-121079419D01*
X136790228Y-121079419D02*
X136647371Y-121031800D01*
X136647371Y-121031800D02*
X136552133Y-120936561D01*
X136552133Y-120936561D02*
X136504514Y-120841323D01*
X136504514Y-120841323D02*
X136456895Y-120650847D01*
X136456895Y-120650847D02*
X136456895Y-120507990D01*
X136456895Y-120507990D02*
X136504514Y-120317514D01*
X136504514Y-120317514D02*
X136552133Y-120222276D01*
X136552133Y-120222276D02*
X136647371Y-120127038D01*
X136647371Y-120127038D02*
X136790228Y-120079419D01*
X136790228Y-120079419D02*
X136885466Y-120079419D01*
X136885466Y-120079419D02*
X137028323Y-120127038D01*
X137028323Y-120127038D02*
X137075942Y-120174657D01*
X137409276Y-120079419D02*
X138028323Y-120079419D01*
X138028323Y-120079419D02*
X137694990Y-120460371D01*
X137694990Y-120460371D02*
X137837847Y-120460371D01*
X137837847Y-120460371D02*
X137933085Y-120507990D01*
X137933085Y-120507990D02*
X137980704Y-120555609D01*
X137980704Y-120555609D02*
X138028323Y-120650847D01*
X138028323Y-120650847D02*
X138028323Y-120888942D01*
X138028323Y-120888942D02*
X137980704Y-120984180D01*
X137980704Y-120984180D02*
X137933085Y-121031800D01*
X137933085Y-121031800D02*
X137837847Y-121079419D01*
X137837847Y-121079419D02*
X137552133Y-121079419D01*
X137552133Y-121079419D02*
X137456895Y-121031800D01*
X137456895Y-121031800D02*
X137409276Y-120984180D01*
X138980704Y-121079419D02*
X138409276Y-121079419D01*
X138694990Y-121079419D02*
X138694990Y-120079419D01*
X138694990Y-120079419D02*
X138599752Y-120222276D01*
X138599752Y-120222276D02*
X138504514Y-120317514D01*
X138504514Y-120317514D02*
X138409276Y-120365133D01*
X122498095Y-132194819D02*
X122498095Y-133004342D01*
X122498095Y-133004342D02*
X122545714Y-133099580D01*
X122545714Y-133099580D02*
X122593333Y-133147200D01*
X122593333Y-133147200D02*
X122688571Y-133194819D01*
X122688571Y-133194819D02*
X122879047Y-133194819D01*
X122879047Y-133194819D02*
X122974285Y-133147200D01*
X122974285Y-133147200D02*
X123021904Y-133099580D01*
X123021904Y-133099580D02*
X123069523Y-133004342D01*
X123069523Y-133004342D02*
X123069523Y-132194819D01*
X123450476Y-132194819D02*
X124069523Y-132194819D01*
X124069523Y-132194819D02*
X123736190Y-132575771D01*
X123736190Y-132575771D02*
X123879047Y-132575771D01*
X123879047Y-132575771D02*
X123974285Y-132623390D01*
X123974285Y-132623390D02*
X124021904Y-132671009D01*
X124021904Y-132671009D02*
X124069523Y-132766247D01*
X124069523Y-132766247D02*
X124069523Y-133004342D01*
X124069523Y-133004342D02*
X124021904Y-133099580D01*
X124021904Y-133099580D02*
X123974285Y-133147200D01*
X123974285Y-133147200D02*
X123879047Y-133194819D01*
X123879047Y-133194819D02*
X123593333Y-133194819D01*
X123593333Y-133194819D02*
X123498095Y-133147200D01*
X123498095Y-133147200D02*
X123450476Y-133099580D01*
X106081533Y-91209019D02*
X105605343Y-91209019D01*
X105605343Y-91209019D02*
X105605343Y-90209019D01*
X106938676Y-91209019D02*
X106367248Y-91209019D01*
X106652962Y-91209019D02*
X106652962Y-90209019D01*
X106652962Y-90209019D02*
X106557724Y-90351876D01*
X106557724Y-90351876D02*
X106462486Y-90447114D01*
X106462486Y-90447114D02*
X106367248Y-90494733D01*
X112082342Y-51845380D02*
X112034723Y-51893000D01*
X112034723Y-51893000D02*
X111891866Y-51940619D01*
X111891866Y-51940619D02*
X111796628Y-51940619D01*
X111796628Y-51940619D02*
X111653771Y-51893000D01*
X111653771Y-51893000D02*
X111558533Y-51797761D01*
X111558533Y-51797761D02*
X111510914Y-51702523D01*
X111510914Y-51702523D02*
X111463295Y-51512047D01*
X111463295Y-51512047D02*
X111463295Y-51369190D01*
X111463295Y-51369190D02*
X111510914Y-51178714D01*
X111510914Y-51178714D02*
X111558533Y-51083476D01*
X111558533Y-51083476D02*
X111653771Y-50988238D01*
X111653771Y-50988238D02*
X111796628Y-50940619D01*
X111796628Y-50940619D02*
X111891866Y-50940619D01*
X111891866Y-50940619D02*
X112034723Y-50988238D01*
X112034723Y-50988238D02*
X112082342Y-51035857D01*
X113034723Y-51940619D02*
X112463295Y-51940619D01*
X112749009Y-51940619D02*
X112749009Y-50940619D01*
X112749009Y-50940619D02*
X112653771Y-51083476D01*
X112653771Y-51083476D02*
X112558533Y-51178714D01*
X112558533Y-51178714D02*
X112463295Y-51226333D01*
X113891866Y-50940619D02*
X113701390Y-50940619D01*
X113701390Y-50940619D02*
X113606152Y-50988238D01*
X113606152Y-50988238D02*
X113558533Y-51035857D01*
X113558533Y-51035857D02*
X113463295Y-51178714D01*
X113463295Y-51178714D02*
X113415676Y-51369190D01*
X113415676Y-51369190D02*
X113415676Y-51750142D01*
X113415676Y-51750142D02*
X113463295Y-51845380D01*
X113463295Y-51845380D02*
X113510914Y-51893000D01*
X113510914Y-51893000D02*
X113606152Y-51940619D01*
X113606152Y-51940619D02*
X113796628Y-51940619D01*
X113796628Y-51940619D02*
X113891866Y-51893000D01*
X113891866Y-51893000D02*
X113939485Y-51845380D01*
X113939485Y-51845380D02*
X113987104Y-51750142D01*
X113987104Y-51750142D02*
X113987104Y-51512047D01*
X113987104Y-51512047D02*
X113939485Y-51416809D01*
X113939485Y-51416809D02*
X113891866Y-51369190D01*
X113891866Y-51369190D02*
X113796628Y-51321571D01*
X113796628Y-51321571D02*
X113606152Y-51321571D01*
X113606152Y-51321571D02*
X113510914Y-51369190D01*
X113510914Y-51369190D02*
X113463295Y-51416809D01*
X113463295Y-51416809D02*
X113415676Y-51512047D01*
X99954142Y-75398780D02*
X99906523Y-75446400D01*
X99906523Y-75446400D02*
X99763666Y-75494019D01*
X99763666Y-75494019D02*
X99668428Y-75494019D01*
X99668428Y-75494019D02*
X99525571Y-75446400D01*
X99525571Y-75446400D02*
X99430333Y-75351161D01*
X99430333Y-75351161D02*
X99382714Y-75255923D01*
X99382714Y-75255923D02*
X99335095Y-75065447D01*
X99335095Y-75065447D02*
X99335095Y-74922590D01*
X99335095Y-74922590D02*
X99382714Y-74732114D01*
X99382714Y-74732114D02*
X99430333Y-74636876D01*
X99430333Y-74636876D02*
X99525571Y-74541638D01*
X99525571Y-74541638D02*
X99668428Y-74494019D01*
X99668428Y-74494019D02*
X99763666Y-74494019D01*
X99763666Y-74494019D02*
X99906523Y-74541638D01*
X99906523Y-74541638D02*
X99954142Y-74589257D01*
X100906523Y-75494019D02*
X100335095Y-75494019D01*
X100620809Y-75494019D02*
X100620809Y-74494019D01*
X100620809Y-74494019D02*
X100525571Y-74636876D01*
X100525571Y-74636876D02*
X100430333Y-74732114D01*
X100430333Y-74732114D02*
X100335095Y-74779733D01*
X101239857Y-74494019D02*
X101906523Y-74494019D01*
X101906523Y-74494019D02*
X101477952Y-75494019D01*
X137884819Y-99977533D02*
X138599104Y-99977533D01*
X138599104Y-99977533D02*
X138741961Y-100025152D01*
X138741961Y-100025152D02*
X138837200Y-100120390D01*
X138837200Y-100120390D02*
X138884819Y-100263247D01*
X138884819Y-100263247D02*
X138884819Y-100358485D01*
X137980057Y-99548961D02*
X137932438Y-99501342D01*
X137932438Y-99501342D02*
X137884819Y-99406104D01*
X137884819Y-99406104D02*
X137884819Y-99168009D01*
X137884819Y-99168009D02*
X137932438Y-99072771D01*
X137932438Y-99072771D02*
X137980057Y-99025152D01*
X137980057Y-99025152D02*
X138075295Y-98977533D01*
X138075295Y-98977533D02*
X138170533Y-98977533D01*
X138170533Y-98977533D02*
X138313390Y-99025152D01*
X138313390Y-99025152D02*
X138884819Y-99596580D01*
X138884819Y-99596580D02*
X138884819Y-98977533D01*
X127417533Y-95609580D02*
X127369914Y-95657200D01*
X127369914Y-95657200D02*
X127227057Y-95704819D01*
X127227057Y-95704819D02*
X127131819Y-95704819D01*
X127131819Y-95704819D02*
X126988962Y-95657200D01*
X126988962Y-95657200D02*
X126893724Y-95561961D01*
X126893724Y-95561961D02*
X126846105Y-95466723D01*
X126846105Y-95466723D02*
X126798486Y-95276247D01*
X126798486Y-95276247D02*
X126798486Y-95133390D01*
X126798486Y-95133390D02*
X126846105Y-94942914D01*
X126846105Y-94942914D02*
X126893724Y-94847676D01*
X126893724Y-94847676D02*
X126988962Y-94752438D01*
X126988962Y-94752438D02*
X127131819Y-94704819D01*
X127131819Y-94704819D02*
X127227057Y-94704819D01*
X127227057Y-94704819D02*
X127369914Y-94752438D01*
X127369914Y-94752438D02*
X127417533Y-94800057D01*
X128274676Y-95038152D02*
X128274676Y-95704819D01*
X128036581Y-94657200D02*
X127798486Y-95371485D01*
X127798486Y-95371485D02*
X128417533Y-95371485D01*
X117625905Y-89837419D02*
X117625905Y-88837419D01*
X117625905Y-88837419D02*
X117864000Y-88837419D01*
X117864000Y-88837419D02*
X118006857Y-88885038D01*
X118006857Y-88885038D02*
X118102095Y-88980276D01*
X118102095Y-88980276D02*
X118149714Y-89075514D01*
X118149714Y-89075514D02*
X118197333Y-89265990D01*
X118197333Y-89265990D02*
X118197333Y-89408847D01*
X118197333Y-89408847D02*
X118149714Y-89599323D01*
X118149714Y-89599323D02*
X118102095Y-89694561D01*
X118102095Y-89694561D02*
X118006857Y-89789800D01*
X118006857Y-89789800D02*
X117864000Y-89837419D01*
X117864000Y-89837419D02*
X117625905Y-89837419D01*
X118530667Y-88837419D02*
X119149714Y-88837419D01*
X119149714Y-88837419D02*
X118816381Y-89218371D01*
X118816381Y-89218371D02*
X118959238Y-89218371D01*
X118959238Y-89218371D02*
X119054476Y-89265990D01*
X119054476Y-89265990D02*
X119102095Y-89313609D01*
X119102095Y-89313609D02*
X119149714Y-89408847D01*
X119149714Y-89408847D02*
X119149714Y-89646942D01*
X119149714Y-89646942D02*
X119102095Y-89742180D01*
X119102095Y-89742180D02*
X119054476Y-89789800D01*
X119054476Y-89789800D02*
X118959238Y-89837419D01*
X118959238Y-89837419D02*
X118673524Y-89837419D01*
X118673524Y-89837419D02*
X118578286Y-89789800D01*
X118578286Y-89789800D02*
X118530667Y-89742180D01*
X119848333Y-101004819D02*
X119515000Y-100528628D01*
X119276905Y-101004819D02*
X119276905Y-100004819D01*
X119276905Y-100004819D02*
X119657857Y-100004819D01*
X119657857Y-100004819D02*
X119753095Y-100052438D01*
X119753095Y-100052438D02*
X119800714Y-100100057D01*
X119800714Y-100100057D02*
X119848333Y-100195295D01*
X119848333Y-100195295D02*
X119848333Y-100338152D01*
X119848333Y-100338152D02*
X119800714Y-100433390D01*
X119800714Y-100433390D02*
X119753095Y-100481009D01*
X119753095Y-100481009D02*
X119657857Y-100528628D01*
X119657857Y-100528628D02*
X119276905Y-100528628D01*
X120181667Y-100004819D02*
X120800714Y-100004819D01*
X120800714Y-100004819D02*
X120467381Y-100385771D01*
X120467381Y-100385771D02*
X120610238Y-100385771D01*
X120610238Y-100385771D02*
X120705476Y-100433390D01*
X120705476Y-100433390D02*
X120753095Y-100481009D01*
X120753095Y-100481009D02*
X120800714Y-100576247D01*
X120800714Y-100576247D02*
X120800714Y-100814342D01*
X120800714Y-100814342D02*
X120753095Y-100909580D01*
X120753095Y-100909580D02*
X120705476Y-100957200D01*
X120705476Y-100957200D02*
X120610238Y-101004819D01*
X120610238Y-101004819D02*
X120324524Y-101004819D01*
X120324524Y-101004819D02*
X120229286Y-100957200D01*
X120229286Y-100957200D02*
X120181667Y-100909580D01*
X114927142Y-75179580D02*
X114879523Y-75227200D01*
X114879523Y-75227200D02*
X114736666Y-75274819D01*
X114736666Y-75274819D02*
X114641428Y-75274819D01*
X114641428Y-75274819D02*
X114498571Y-75227200D01*
X114498571Y-75227200D02*
X114403333Y-75131961D01*
X114403333Y-75131961D02*
X114355714Y-75036723D01*
X114355714Y-75036723D02*
X114308095Y-74846247D01*
X114308095Y-74846247D02*
X114308095Y-74703390D01*
X114308095Y-74703390D02*
X114355714Y-74512914D01*
X114355714Y-74512914D02*
X114403333Y-74417676D01*
X114403333Y-74417676D02*
X114498571Y-74322438D01*
X114498571Y-74322438D02*
X114641428Y-74274819D01*
X114641428Y-74274819D02*
X114736666Y-74274819D01*
X114736666Y-74274819D02*
X114879523Y-74322438D01*
X114879523Y-74322438D02*
X114927142Y-74370057D01*
X115879523Y-75274819D02*
X115308095Y-75274819D01*
X115593809Y-75274819D02*
X115593809Y-74274819D01*
X115593809Y-74274819D02*
X115498571Y-74417676D01*
X115498571Y-74417676D02*
X115403333Y-74512914D01*
X115403333Y-74512914D02*
X115308095Y-74560533D01*
X116736666Y-74608152D02*
X116736666Y-75274819D01*
X116498571Y-74227200D02*
X116260476Y-74941485D01*
X116260476Y-74941485D02*
X116879523Y-74941485D01*
X117398895Y-90204819D02*
X117398895Y-91014342D01*
X117398895Y-91014342D02*
X117446514Y-91109580D01*
X117446514Y-91109580D02*
X117494133Y-91157200D01*
X117494133Y-91157200D02*
X117589371Y-91204819D01*
X117589371Y-91204819D02*
X117779847Y-91204819D01*
X117779847Y-91204819D02*
X117875085Y-91157200D01*
X117875085Y-91157200D02*
X117922704Y-91109580D01*
X117922704Y-91109580D02*
X117970323Y-91014342D01*
X117970323Y-91014342D02*
X117970323Y-90204819D01*
X118398895Y-90300057D02*
X118446514Y-90252438D01*
X118446514Y-90252438D02*
X118541752Y-90204819D01*
X118541752Y-90204819D02*
X118779847Y-90204819D01*
X118779847Y-90204819D02*
X118875085Y-90252438D01*
X118875085Y-90252438D02*
X118922704Y-90300057D01*
X118922704Y-90300057D02*
X118970323Y-90395295D01*
X118970323Y-90395295D02*
X118970323Y-90490533D01*
X118970323Y-90490533D02*
X118922704Y-90633390D01*
X118922704Y-90633390D02*
X118351276Y-91204819D01*
X118351276Y-91204819D02*
X118970323Y-91204819D01*
X112387142Y-75822980D02*
X112339523Y-75870600D01*
X112339523Y-75870600D02*
X112196666Y-75918219D01*
X112196666Y-75918219D02*
X112101428Y-75918219D01*
X112101428Y-75918219D02*
X111958571Y-75870600D01*
X111958571Y-75870600D02*
X111863333Y-75775361D01*
X111863333Y-75775361D02*
X111815714Y-75680123D01*
X111815714Y-75680123D02*
X111768095Y-75489647D01*
X111768095Y-75489647D02*
X111768095Y-75346790D01*
X111768095Y-75346790D02*
X111815714Y-75156314D01*
X111815714Y-75156314D02*
X111863333Y-75061076D01*
X111863333Y-75061076D02*
X111958571Y-74965838D01*
X111958571Y-74965838D02*
X112101428Y-74918219D01*
X112101428Y-74918219D02*
X112196666Y-74918219D01*
X112196666Y-74918219D02*
X112339523Y-74965838D01*
X112339523Y-74965838D02*
X112387142Y-75013457D01*
X112768095Y-75013457D02*
X112815714Y-74965838D01*
X112815714Y-74965838D02*
X112910952Y-74918219D01*
X112910952Y-74918219D02*
X113149047Y-74918219D01*
X113149047Y-74918219D02*
X113244285Y-74965838D01*
X113244285Y-74965838D02*
X113291904Y-75013457D01*
X113291904Y-75013457D02*
X113339523Y-75108695D01*
X113339523Y-75108695D02*
X113339523Y-75203933D01*
X113339523Y-75203933D02*
X113291904Y-75346790D01*
X113291904Y-75346790D02*
X112720476Y-75918219D01*
X112720476Y-75918219D02*
X113339523Y-75918219D01*
X114291904Y-75918219D02*
X113720476Y-75918219D01*
X114006190Y-75918219D02*
X114006190Y-74918219D01*
X114006190Y-74918219D02*
X113910952Y-75061076D01*
X113910952Y-75061076D02*
X113815714Y-75156314D01*
X113815714Y-75156314D02*
X113720476Y-75203933D01*
X120457933Y-110690819D02*
X120124600Y-110214628D01*
X119886505Y-110690819D02*
X119886505Y-109690819D01*
X119886505Y-109690819D02*
X120267457Y-109690819D01*
X120267457Y-109690819D02*
X120362695Y-109738438D01*
X120362695Y-109738438D02*
X120410314Y-109786057D01*
X120410314Y-109786057D02*
X120457933Y-109881295D01*
X120457933Y-109881295D02*
X120457933Y-110024152D01*
X120457933Y-110024152D02*
X120410314Y-110119390D01*
X120410314Y-110119390D02*
X120362695Y-110167009D01*
X120362695Y-110167009D02*
X120267457Y-110214628D01*
X120267457Y-110214628D02*
X119886505Y-110214628D01*
X121315076Y-109690819D02*
X121124600Y-109690819D01*
X121124600Y-109690819D02*
X121029362Y-109738438D01*
X121029362Y-109738438D02*
X120981743Y-109786057D01*
X120981743Y-109786057D02*
X120886505Y-109928914D01*
X120886505Y-109928914D02*
X120838886Y-110119390D01*
X120838886Y-110119390D02*
X120838886Y-110500342D01*
X120838886Y-110500342D02*
X120886505Y-110595580D01*
X120886505Y-110595580D02*
X120934124Y-110643200D01*
X120934124Y-110643200D02*
X121029362Y-110690819D01*
X121029362Y-110690819D02*
X121219838Y-110690819D01*
X121219838Y-110690819D02*
X121315076Y-110643200D01*
X121315076Y-110643200D02*
X121362695Y-110595580D01*
X121362695Y-110595580D02*
X121410314Y-110500342D01*
X121410314Y-110500342D02*
X121410314Y-110262247D01*
X121410314Y-110262247D02*
X121362695Y-110167009D01*
X121362695Y-110167009D02*
X121315076Y-110119390D01*
X121315076Y-110119390D02*
X121219838Y-110071771D01*
X121219838Y-110071771D02*
X121029362Y-110071771D01*
X121029362Y-110071771D02*
X120934124Y-110119390D01*
X120934124Y-110119390D02*
X120886505Y-110167009D01*
X120886505Y-110167009D02*
X120838886Y-110262247D01*
X114133333Y-107784580D02*
X114085714Y-107832200D01*
X114085714Y-107832200D02*
X113942857Y-107879819D01*
X113942857Y-107879819D02*
X113847619Y-107879819D01*
X113847619Y-107879819D02*
X113704762Y-107832200D01*
X113704762Y-107832200D02*
X113609524Y-107736961D01*
X113609524Y-107736961D02*
X113561905Y-107641723D01*
X113561905Y-107641723D02*
X113514286Y-107451247D01*
X113514286Y-107451247D02*
X113514286Y-107308390D01*
X113514286Y-107308390D02*
X113561905Y-107117914D01*
X113561905Y-107117914D02*
X113609524Y-107022676D01*
X113609524Y-107022676D02*
X113704762Y-106927438D01*
X113704762Y-106927438D02*
X113847619Y-106879819D01*
X113847619Y-106879819D02*
X113942857Y-106879819D01*
X113942857Y-106879819D02*
X114085714Y-106927438D01*
X114085714Y-106927438D02*
X114133333Y-106975057D01*
X115085714Y-107879819D02*
X114514286Y-107879819D01*
X114800000Y-107879819D02*
X114800000Y-106879819D01*
X114800000Y-106879819D02*
X114704762Y-107022676D01*
X114704762Y-107022676D02*
X114609524Y-107117914D01*
X114609524Y-107117914D02*
X114514286Y-107165533D01*
X136517142Y-116039580D02*
X136469523Y-116087200D01*
X136469523Y-116087200D02*
X136326666Y-116134819D01*
X136326666Y-116134819D02*
X136231428Y-116134819D01*
X136231428Y-116134819D02*
X136088571Y-116087200D01*
X136088571Y-116087200D02*
X135993333Y-115991961D01*
X135993333Y-115991961D02*
X135945714Y-115896723D01*
X135945714Y-115896723D02*
X135898095Y-115706247D01*
X135898095Y-115706247D02*
X135898095Y-115563390D01*
X135898095Y-115563390D02*
X135945714Y-115372914D01*
X135945714Y-115372914D02*
X135993333Y-115277676D01*
X135993333Y-115277676D02*
X136088571Y-115182438D01*
X136088571Y-115182438D02*
X136231428Y-115134819D01*
X136231428Y-115134819D02*
X136326666Y-115134819D01*
X136326666Y-115134819D02*
X136469523Y-115182438D01*
X136469523Y-115182438D02*
X136517142Y-115230057D01*
X136898095Y-115230057D02*
X136945714Y-115182438D01*
X136945714Y-115182438D02*
X137040952Y-115134819D01*
X137040952Y-115134819D02*
X137279047Y-115134819D01*
X137279047Y-115134819D02*
X137374285Y-115182438D01*
X137374285Y-115182438D02*
X137421904Y-115230057D01*
X137421904Y-115230057D02*
X137469523Y-115325295D01*
X137469523Y-115325295D02*
X137469523Y-115420533D01*
X137469523Y-115420533D02*
X137421904Y-115563390D01*
X137421904Y-115563390D02*
X136850476Y-116134819D01*
X136850476Y-116134819D02*
X137469523Y-116134819D01*
X137945714Y-116134819D02*
X138136190Y-116134819D01*
X138136190Y-116134819D02*
X138231428Y-116087200D01*
X138231428Y-116087200D02*
X138279047Y-116039580D01*
X138279047Y-116039580D02*
X138374285Y-115896723D01*
X138374285Y-115896723D02*
X138421904Y-115706247D01*
X138421904Y-115706247D02*
X138421904Y-115325295D01*
X138421904Y-115325295D02*
X138374285Y-115230057D01*
X138374285Y-115230057D02*
X138326666Y-115182438D01*
X138326666Y-115182438D02*
X138231428Y-115134819D01*
X138231428Y-115134819D02*
X138040952Y-115134819D01*
X138040952Y-115134819D02*
X137945714Y-115182438D01*
X137945714Y-115182438D02*
X137898095Y-115230057D01*
X137898095Y-115230057D02*
X137850476Y-115325295D01*
X137850476Y-115325295D02*
X137850476Y-115563390D01*
X137850476Y-115563390D02*
X137898095Y-115658628D01*
X137898095Y-115658628D02*
X137945714Y-115706247D01*
X137945714Y-115706247D02*
X138040952Y-115753866D01*
X138040952Y-115753866D02*
X138231428Y-115753866D01*
X138231428Y-115753866D02*
X138326666Y-115706247D01*
X138326666Y-115706247D02*
X138374285Y-115658628D01*
X138374285Y-115658628D02*
X138421904Y-115563390D01*
X102115580Y-80231257D02*
X102163200Y-80278876D01*
X102163200Y-80278876D02*
X102210819Y-80421733D01*
X102210819Y-80421733D02*
X102210819Y-80516971D01*
X102210819Y-80516971D02*
X102163200Y-80659828D01*
X102163200Y-80659828D02*
X102067961Y-80755066D01*
X102067961Y-80755066D02*
X101972723Y-80802685D01*
X101972723Y-80802685D02*
X101782247Y-80850304D01*
X101782247Y-80850304D02*
X101639390Y-80850304D01*
X101639390Y-80850304D02*
X101448914Y-80802685D01*
X101448914Y-80802685D02*
X101353676Y-80755066D01*
X101353676Y-80755066D02*
X101258438Y-80659828D01*
X101258438Y-80659828D02*
X101210819Y-80516971D01*
X101210819Y-80516971D02*
X101210819Y-80421733D01*
X101210819Y-80421733D02*
X101258438Y-80278876D01*
X101258438Y-80278876D02*
X101306057Y-80231257D01*
X101306057Y-79850304D02*
X101258438Y-79802685D01*
X101258438Y-79802685D02*
X101210819Y-79707447D01*
X101210819Y-79707447D02*
X101210819Y-79469352D01*
X101210819Y-79469352D02*
X101258438Y-79374114D01*
X101258438Y-79374114D02*
X101306057Y-79326495D01*
X101306057Y-79326495D02*
X101401295Y-79278876D01*
X101401295Y-79278876D02*
X101496533Y-79278876D01*
X101496533Y-79278876D02*
X101639390Y-79326495D01*
X101639390Y-79326495D02*
X102210819Y-79897923D01*
X102210819Y-79897923D02*
X102210819Y-79278876D01*
X101210819Y-78374114D02*
X101210819Y-78850304D01*
X101210819Y-78850304D02*
X101687009Y-78897923D01*
X101687009Y-78897923D02*
X101639390Y-78850304D01*
X101639390Y-78850304D02*
X101591771Y-78755066D01*
X101591771Y-78755066D02*
X101591771Y-78516971D01*
X101591771Y-78516971D02*
X101639390Y-78421733D01*
X101639390Y-78421733D02*
X101687009Y-78374114D01*
X101687009Y-78374114D02*
X101782247Y-78326495D01*
X101782247Y-78326495D02*
X102020342Y-78326495D01*
X102020342Y-78326495D02*
X102115580Y-78374114D01*
X102115580Y-78374114D02*
X102163200Y-78421733D01*
X102163200Y-78421733D02*
X102210819Y-78516971D01*
X102210819Y-78516971D02*
X102210819Y-78755066D01*
X102210819Y-78755066D02*
X102163200Y-78850304D01*
X102163200Y-78850304D02*
X102115580Y-78897923D01*
X114685866Y-63804409D02*
X114352533Y-63804409D01*
X114352533Y-64328219D02*
X114352533Y-63328219D01*
X114352533Y-63328219D02*
X114828723Y-63328219D01*
X115543009Y-63804409D02*
X115685866Y-63852028D01*
X115685866Y-63852028D02*
X115733485Y-63899647D01*
X115733485Y-63899647D02*
X115781104Y-63994885D01*
X115781104Y-63994885D02*
X115781104Y-64137742D01*
X115781104Y-64137742D02*
X115733485Y-64232980D01*
X115733485Y-64232980D02*
X115685866Y-64280600D01*
X115685866Y-64280600D02*
X115590628Y-64328219D01*
X115590628Y-64328219D02*
X115209676Y-64328219D01*
X115209676Y-64328219D02*
X115209676Y-63328219D01*
X115209676Y-63328219D02*
X115543009Y-63328219D01*
X115543009Y-63328219D02*
X115638247Y-63375838D01*
X115638247Y-63375838D02*
X115685866Y-63423457D01*
X115685866Y-63423457D02*
X115733485Y-63518695D01*
X115733485Y-63518695D02*
X115733485Y-63613933D01*
X115733485Y-63613933D02*
X115685866Y-63709171D01*
X115685866Y-63709171D02*
X115638247Y-63756790D01*
X115638247Y-63756790D02*
X115543009Y-63804409D01*
X115543009Y-63804409D02*
X115209676Y-63804409D01*
X116733485Y-64328219D02*
X116162057Y-64328219D01*
X116447771Y-64328219D02*
X116447771Y-63328219D01*
X116447771Y-63328219D02*
X116352533Y-63471076D01*
X116352533Y-63471076D02*
X116257295Y-63566314D01*
X116257295Y-63566314D02*
X116162057Y-63613933D01*
X104551666Y-43859819D02*
X104551666Y-44574104D01*
X104551666Y-44574104D02*
X104504047Y-44716961D01*
X104504047Y-44716961D02*
X104408809Y-44812200D01*
X104408809Y-44812200D02*
X104265952Y-44859819D01*
X104265952Y-44859819D02*
X104170714Y-44859819D01*
X105456428Y-44193152D02*
X105456428Y-44859819D01*
X105218333Y-43812200D02*
X104980238Y-44526485D01*
X104980238Y-44526485D02*
X105599285Y-44526485D01*
X99151619Y-85955094D02*
X98151619Y-85955094D01*
X98151619Y-85955094D02*
X98151619Y-85716999D01*
X98151619Y-85716999D02*
X98199238Y-85574142D01*
X98199238Y-85574142D02*
X98294476Y-85478904D01*
X98294476Y-85478904D02*
X98389714Y-85431285D01*
X98389714Y-85431285D02*
X98580190Y-85383666D01*
X98580190Y-85383666D02*
X98723047Y-85383666D01*
X98723047Y-85383666D02*
X98913523Y-85431285D01*
X98913523Y-85431285D02*
X99008761Y-85478904D01*
X99008761Y-85478904D02*
X99104000Y-85574142D01*
X99104000Y-85574142D02*
X99151619Y-85716999D01*
X99151619Y-85716999D02*
X99151619Y-85955094D01*
X99151619Y-84431285D02*
X99151619Y-85002713D01*
X99151619Y-84716999D02*
X98151619Y-84716999D01*
X98151619Y-84716999D02*
X98294476Y-84812237D01*
X98294476Y-84812237D02*
X98389714Y-84907475D01*
X98389714Y-84907475D02*
X98437333Y-85002713D01*
X114133333Y-59924819D02*
X113800000Y-59448628D01*
X113561905Y-59924819D02*
X113561905Y-58924819D01*
X113561905Y-58924819D02*
X113942857Y-58924819D01*
X113942857Y-58924819D02*
X114038095Y-58972438D01*
X114038095Y-58972438D02*
X114085714Y-59020057D01*
X114085714Y-59020057D02*
X114133333Y-59115295D01*
X114133333Y-59115295D02*
X114133333Y-59258152D01*
X114133333Y-59258152D02*
X114085714Y-59353390D01*
X114085714Y-59353390D02*
X114038095Y-59401009D01*
X114038095Y-59401009D02*
X113942857Y-59448628D01*
X113942857Y-59448628D02*
X113561905Y-59448628D01*
X114609524Y-59924819D02*
X114800000Y-59924819D01*
X114800000Y-59924819D02*
X114895238Y-59877200D01*
X114895238Y-59877200D02*
X114942857Y-59829580D01*
X114942857Y-59829580D02*
X115038095Y-59686723D01*
X115038095Y-59686723D02*
X115085714Y-59496247D01*
X115085714Y-59496247D02*
X115085714Y-59115295D01*
X115085714Y-59115295D02*
X115038095Y-59020057D01*
X115038095Y-59020057D02*
X114990476Y-58972438D01*
X114990476Y-58972438D02*
X114895238Y-58924819D01*
X114895238Y-58924819D02*
X114704762Y-58924819D01*
X114704762Y-58924819D02*
X114609524Y-58972438D01*
X114609524Y-58972438D02*
X114561905Y-59020057D01*
X114561905Y-59020057D02*
X114514286Y-59115295D01*
X114514286Y-59115295D02*
X114514286Y-59353390D01*
X114514286Y-59353390D02*
X114561905Y-59448628D01*
X114561905Y-59448628D02*
X114609524Y-59496247D01*
X114609524Y-59496247D02*
X114704762Y-59543866D01*
X114704762Y-59543866D02*
X114895238Y-59543866D01*
X114895238Y-59543866D02*
X114990476Y-59496247D01*
X114990476Y-59496247D02*
X115038095Y-59448628D01*
X115038095Y-59448628D02*
X115085714Y-59353390D01*
X104919542Y-95577819D02*
X104586209Y-95101628D01*
X104348114Y-95577819D02*
X104348114Y-94577819D01*
X104348114Y-94577819D02*
X104729066Y-94577819D01*
X104729066Y-94577819D02*
X104824304Y-94625438D01*
X104824304Y-94625438D02*
X104871923Y-94673057D01*
X104871923Y-94673057D02*
X104919542Y-94768295D01*
X104919542Y-94768295D02*
X104919542Y-94911152D01*
X104919542Y-94911152D02*
X104871923Y-95006390D01*
X104871923Y-95006390D02*
X104824304Y-95054009D01*
X104824304Y-95054009D02*
X104729066Y-95101628D01*
X104729066Y-95101628D02*
X104348114Y-95101628D01*
X105871923Y-95577819D02*
X105300495Y-95577819D01*
X105586209Y-95577819D02*
X105586209Y-94577819D01*
X105586209Y-94577819D02*
X105490971Y-94720676D01*
X105490971Y-94720676D02*
X105395733Y-94815914D01*
X105395733Y-94815914D02*
X105300495Y-94863533D01*
X106205257Y-94577819D02*
X106871923Y-94577819D01*
X106871923Y-94577819D02*
X106443352Y-95577819D01*
X119052142Y-65004819D02*
X118718809Y-64528628D01*
X118480714Y-65004819D02*
X118480714Y-64004819D01*
X118480714Y-64004819D02*
X118861666Y-64004819D01*
X118861666Y-64004819D02*
X118956904Y-64052438D01*
X118956904Y-64052438D02*
X119004523Y-64100057D01*
X119004523Y-64100057D02*
X119052142Y-64195295D01*
X119052142Y-64195295D02*
X119052142Y-64338152D01*
X119052142Y-64338152D02*
X119004523Y-64433390D01*
X119004523Y-64433390D02*
X118956904Y-64481009D01*
X118956904Y-64481009D02*
X118861666Y-64528628D01*
X118861666Y-64528628D02*
X118480714Y-64528628D01*
X120004523Y-65004819D02*
X119433095Y-65004819D01*
X119718809Y-65004819D02*
X119718809Y-64004819D01*
X119718809Y-64004819D02*
X119623571Y-64147676D01*
X119623571Y-64147676D02*
X119528333Y-64242914D01*
X119528333Y-64242914D02*
X119433095Y-64290533D01*
X120956904Y-65004819D02*
X120385476Y-65004819D01*
X120671190Y-65004819D02*
X120671190Y-64004819D01*
X120671190Y-64004819D02*
X120575952Y-64147676D01*
X120575952Y-64147676D02*
X120480714Y-64242914D01*
X120480714Y-64242914D02*
X120385476Y-64290533D01*
X114292142Y-54209819D02*
X113958809Y-53733628D01*
X113720714Y-54209819D02*
X113720714Y-53209819D01*
X113720714Y-53209819D02*
X114101666Y-53209819D01*
X114101666Y-53209819D02*
X114196904Y-53257438D01*
X114196904Y-53257438D02*
X114244523Y-53305057D01*
X114244523Y-53305057D02*
X114292142Y-53400295D01*
X114292142Y-53400295D02*
X114292142Y-53543152D01*
X114292142Y-53543152D02*
X114244523Y-53638390D01*
X114244523Y-53638390D02*
X114196904Y-53686009D01*
X114196904Y-53686009D02*
X114101666Y-53733628D01*
X114101666Y-53733628D02*
X113720714Y-53733628D01*
X115244523Y-54209819D02*
X114673095Y-54209819D01*
X114958809Y-54209819D02*
X114958809Y-53209819D01*
X114958809Y-53209819D02*
X114863571Y-53352676D01*
X114863571Y-53352676D02*
X114768333Y-53447914D01*
X114768333Y-53447914D02*
X114673095Y-53495533D01*
X115863571Y-53209819D02*
X115958809Y-53209819D01*
X115958809Y-53209819D02*
X116054047Y-53257438D01*
X116054047Y-53257438D02*
X116101666Y-53305057D01*
X116101666Y-53305057D02*
X116149285Y-53400295D01*
X116149285Y-53400295D02*
X116196904Y-53590771D01*
X116196904Y-53590771D02*
X116196904Y-53828866D01*
X116196904Y-53828866D02*
X116149285Y-54019342D01*
X116149285Y-54019342D02*
X116101666Y-54114580D01*
X116101666Y-54114580D02*
X116054047Y-54162200D01*
X116054047Y-54162200D02*
X115958809Y-54209819D01*
X115958809Y-54209819D02*
X115863571Y-54209819D01*
X115863571Y-54209819D02*
X115768333Y-54162200D01*
X115768333Y-54162200D02*
X115720714Y-54114580D01*
X115720714Y-54114580D02*
X115673095Y-54019342D01*
X115673095Y-54019342D02*
X115625476Y-53828866D01*
X115625476Y-53828866D02*
X115625476Y-53590771D01*
X115625476Y-53590771D02*
X115673095Y-53400295D01*
X115673095Y-53400295D02*
X115720714Y-53305057D01*
X115720714Y-53305057D02*
X115768333Y-53257438D01*
X115768333Y-53257438D02*
X115863571Y-53209819D01*
X122801142Y-134439819D02*
X122467809Y-133963628D01*
X122229714Y-134439819D02*
X122229714Y-133439819D01*
X122229714Y-133439819D02*
X122610666Y-133439819D01*
X122610666Y-133439819D02*
X122705904Y-133487438D01*
X122705904Y-133487438D02*
X122753523Y-133535057D01*
X122753523Y-133535057D02*
X122801142Y-133630295D01*
X122801142Y-133630295D02*
X122801142Y-133773152D01*
X122801142Y-133773152D02*
X122753523Y-133868390D01*
X122753523Y-133868390D02*
X122705904Y-133916009D01*
X122705904Y-133916009D02*
X122610666Y-133963628D01*
X122610666Y-133963628D02*
X122229714Y-133963628D01*
X123753523Y-134439819D02*
X123182095Y-134439819D01*
X123467809Y-134439819D02*
X123467809Y-133439819D01*
X123467809Y-133439819D02*
X123372571Y-133582676D01*
X123372571Y-133582676D02*
X123277333Y-133677914D01*
X123277333Y-133677914D02*
X123182095Y-133725533D01*
X124134476Y-133535057D02*
X124182095Y-133487438D01*
X124182095Y-133487438D02*
X124277333Y-133439819D01*
X124277333Y-133439819D02*
X124515428Y-133439819D01*
X124515428Y-133439819D02*
X124610666Y-133487438D01*
X124610666Y-133487438D02*
X124658285Y-133535057D01*
X124658285Y-133535057D02*
X124705904Y-133630295D01*
X124705904Y-133630295D02*
X124705904Y-133725533D01*
X124705904Y-133725533D02*
X124658285Y-133868390D01*
X124658285Y-133868390D02*
X124086857Y-134439819D01*
X124086857Y-134439819D02*
X124705904Y-134439819D01*
X108560533Y-102300219D02*
X108227200Y-101824028D01*
X107989105Y-102300219D02*
X107989105Y-101300219D01*
X107989105Y-101300219D02*
X108370057Y-101300219D01*
X108370057Y-101300219D02*
X108465295Y-101347838D01*
X108465295Y-101347838D02*
X108512914Y-101395457D01*
X108512914Y-101395457D02*
X108560533Y-101490695D01*
X108560533Y-101490695D02*
X108560533Y-101633552D01*
X108560533Y-101633552D02*
X108512914Y-101728790D01*
X108512914Y-101728790D02*
X108465295Y-101776409D01*
X108465295Y-101776409D02*
X108370057Y-101824028D01*
X108370057Y-101824028D02*
X107989105Y-101824028D01*
X109512914Y-102300219D02*
X108941486Y-102300219D01*
X109227200Y-102300219D02*
X109227200Y-101300219D01*
X109227200Y-101300219D02*
X109131962Y-101443076D01*
X109131962Y-101443076D02*
X109036724Y-101538314D01*
X109036724Y-101538314D02*
X108941486Y-101585933D01*
X111324019Y-47094733D02*
X112038304Y-47094733D01*
X112038304Y-47094733D02*
X112181161Y-47142352D01*
X112181161Y-47142352D02*
X112276400Y-47237590D01*
X112276400Y-47237590D02*
X112324019Y-47380447D01*
X112324019Y-47380447D02*
X112324019Y-47475685D01*
X111324019Y-46189971D02*
X111324019Y-46380447D01*
X111324019Y-46380447D02*
X111371638Y-46475685D01*
X111371638Y-46475685D02*
X111419257Y-46523304D01*
X111419257Y-46523304D02*
X111562114Y-46618542D01*
X111562114Y-46618542D02*
X111752590Y-46666161D01*
X111752590Y-46666161D02*
X112133542Y-46666161D01*
X112133542Y-46666161D02*
X112228780Y-46618542D01*
X112228780Y-46618542D02*
X112276400Y-46570923D01*
X112276400Y-46570923D02*
X112324019Y-46475685D01*
X112324019Y-46475685D02*
X112324019Y-46285209D01*
X112324019Y-46285209D02*
X112276400Y-46189971D01*
X112276400Y-46189971D02*
X112228780Y-46142352D01*
X112228780Y-46142352D02*
X112133542Y-46094733D01*
X112133542Y-46094733D02*
X111895447Y-46094733D01*
X111895447Y-46094733D02*
X111800209Y-46142352D01*
X111800209Y-46142352D02*
X111752590Y-46189971D01*
X111752590Y-46189971D02*
X111704971Y-46285209D01*
X111704971Y-46285209D02*
X111704971Y-46475685D01*
X111704971Y-46475685D02*
X111752590Y-46570923D01*
X111752590Y-46570923D02*
X111800209Y-46618542D01*
X111800209Y-46618542D02*
X111895447Y-46666161D01*
X125729580Y-99706666D02*
X125777200Y-99754285D01*
X125777200Y-99754285D02*
X125824819Y-99897142D01*
X125824819Y-99897142D02*
X125824819Y-99992380D01*
X125824819Y-99992380D02*
X125777200Y-100135237D01*
X125777200Y-100135237D02*
X125681961Y-100230475D01*
X125681961Y-100230475D02*
X125586723Y-100278094D01*
X125586723Y-100278094D02*
X125396247Y-100325713D01*
X125396247Y-100325713D02*
X125253390Y-100325713D01*
X125253390Y-100325713D02*
X125062914Y-100278094D01*
X125062914Y-100278094D02*
X124967676Y-100230475D01*
X124967676Y-100230475D02*
X124872438Y-100135237D01*
X124872438Y-100135237D02*
X124824819Y-99992380D01*
X124824819Y-99992380D02*
X124824819Y-99897142D01*
X124824819Y-99897142D02*
X124872438Y-99754285D01*
X124872438Y-99754285D02*
X124920057Y-99706666D01*
X124920057Y-99325713D02*
X124872438Y-99278094D01*
X124872438Y-99278094D02*
X124824819Y-99182856D01*
X124824819Y-99182856D02*
X124824819Y-98944761D01*
X124824819Y-98944761D02*
X124872438Y-98849523D01*
X124872438Y-98849523D02*
X124920057Y-98801904D01*
X124920057Y-98801904D02*
X125015295Y-98754285D01*
X125015295Y-98754285D02*
X125110533Y-98754285D01*
X125110533Y-98754285D02*
X125253390Y-98801904D01*
X125253390Y-98801904D02*
X125824819Y-99373332D01*
X125824819Y-99373332D02*
X125824819Y-98754285D01*
X122708333Y-70734580D02*
X122660714Y-70782200D01*
X122660714Y-70782200D02*
X122517857Y-70829819D01*
X122517857Y-70829819D02*
X122422619Y-70829819D01*
X122422619Y-70829819D02*
X122279762Y-70782200D01*
X122279762Y-70782200D02*
X122184524Y-70686961D01*
X122184524Y-70686961D02*
X122136905Y-70591723D01*
X122136905Y-70591723D02*
X122089286Y-70401247D01*
X122089286Y-70401247D02*
X122089286Y-70258390D01*
X122089286Y-70258390D02*
X122136905Y-70067914D01*
X122136905Y-70067914D02*
X122184524Y-69972676D01*
X122184524Y-69972676D02*
X122279762Y-69877438D01*
X122279762Y-69877438D02*
X122422619Y-69829819D01*
X122422619Y-69829819D02*
X122517857Y-69829819D01*
X122517857Y-69829819D02*
X122660714Y-69877438D01*
X122660714Y-69877438D02*
X122708333Y-69925057D01*
X123613095Y-69829819D02*
X123136905Y-69829819D01*
X123136905Y-69829819D02*
X123089286Y-70306009D01*
X123089286Y-70306009D02*
X123136905Y-70258390D01*
X123136905Y-70258390D02*
X123232143Y-70210771D01*
X123232143Y-70210771D02*
X123470238Y-70210771D01*
X123470238Y-70210771D02*
X123565476Y-70258390D01*
X123565476Y-70258390D02*
X123613095Y-70306009D01*
X123613095Y-70306009D02*
X123660714Y-70401247D01*
X123660714Y-70401247D02*
X123660714Y-70639342D01*
X123660714Y-70639342D02*
X123613095Y-70734580D01*
X123613095Y-70734580D02*
X123565476Y-70782200D01*
X123565476Y-70782200D02*
X123470238Y-70829819D01*
X123470238Y-70829819D02*
X123232143Y-70829819D01*
X123232143Y-70829819D02*
X123136905Y-70782200D01*
X123136905Y-70782200D02*
X123089286Y-70734580D01*
X116673333Y-108834580D02*
X116625714Y-108882200D01*
X116625714Y-108882200D02*
X116482857Y-108929819D01*
X116482857Y-108929819D02*
X116387619Y-108929819D01*
X116387619Y-108929819D02*
X116244762Y-108882200D01*
X116244762Y-108882200D02*
X116149524Y-108786961D01*
X116149524Y-108786961D02*
X116101905Y-108691723D01*
X116101905Y-108691723D02*
X116054286Y-108501247D01*
X116054286Y-108501247D02*
X116054286Y-108358390D01*
X116054286Y-108358390D02*
X116101905Y-108167914D01*
X116101905Y-108167914D02*
X116149524Y-108072676D01*
X116149524Y-108072676D02*
X116244762Y-107977438D01*
X116244762Y-107977438D02*
X116387619Y-107929819D01*
X116387619Y-107929819D02*
X116482857Y-107929819D01*
X116482857Y-107929819D02*
X116625714Y-107977438D01*
X116625714Y-107977438D02*
X116673333Y-108025057D01*
X117244762Y-108358390D02*
X117149524Y-108310771D01*
X117149524Y-108310771D02*
X117101905Y-108263152D01*
X117101905Y-108263152D02*
X117054286Y-108167914D01*
X117054286Y-108167914D02*
X117054286Y-108120295D01*
X117054286Y-108120295D02*
X117101905Y-108025057D01*
X117101905Y-108025057D02*
X117149524Y-107977438D01*
X117149524Y-107977438D02*
X117244762Y-107929819D01*
X117244762Y-107929819D02*
X117435238Y-107929819D01*
X117435238Y-107929819D02*
X117530476Y-107977438D01*
X117530476Y-107977438D02*
X117578095Y-108025057D01*
X117578095Y-108025057D02*
X117625714Y-108120295D01*
X117625714Y-108120295D02*
X117625714Y-108167914D01*
X117625714Y-108167914D02*
X117578095Y-108263152D01*
X117578095Y-108263152D02*
X117530476Y-108310771D01*
X117530476Y-108310771D02*
X117435238Y-108358390D01*
X117435238Y-108358390D02*
X117244762Y-108358390D01*
X117244762Y-108358390D02*
X117149524Y-108406009D01*
X117149524Y-108406009D02*
X117101905Y-108453628D01*
X117101905Y-108453628D02*
X117054286Y-108548866D01*
X117054286Y-108548866D02*
X117054286Y-108739342D01*
X117054286Y-108739342D02*
X117101905Y-108834580D01*
X117101905Y-108834580D02*
X117149524Y-108882200D01*
X117149524Y-108882200D02*
X117244762Y-108929819D01*
X117244762Y-108929819D02*
X117435238Y-108929819D01*
X117435238Y-108929819D02*
X117530476Y-108882200D01*
X117530476Y-108882200D02*
X117578095Y-108834580D01*
X117578095Y-108834580D02*
X117625714Y-108739342D01*
X117625714Y-108739342D02*
X117625714Y-108548866D01*
X117625714Y-108548866D02*
X117578095Y-108453628D01*
X117578095Y-108453628D02*
X117530476Y-108406009D01*
X117530476Y-108406009D02*
X117435238Y-108358390D01*
X108458095Y-84340519D02*
X108458095Y-85150042D01*
X108458095Y-85150042D02*
X108505714Y-85245280D01*
X108505714Y-85245280D02*
X108553333Y-85292900D01*
X108553333Y-85292900D02*
X108648571Y-85340519D01*
X108648571Y-85340519D02*
X108839047Y-85340519D01*
X108839047Y-85340519D02*
X108934285Y-85292900D01*
X108934285Y-85292900D02*
X108981904Y-85245280D01*
X108981904Y-85245280D02*
X109029523Y-85150042D01*
X109029523Y-85150042D02*
X109029523Y-84340519D01*
X109410476Y-84340519D02*
X110077142Y-84340519D01*
X110077142Y-84340519D02*
X109648571Y-85340519D01*
X108738333Y-110239819D02*
X108405000Y-109763628D01*
X108166905Y-110239819D02*
X108166905Y-109239819D01*
X108166905Y-109239819D02*
X108547857Y-109239819D01*
X108547857Y-109239819D02*
X108643095Y-109287438D01*
X108643095Y-109287438D02*
X108690714Y-109335057D01*
X108690714Y-109335057D02*
X108738333Y-109430295D01*
X108738333Y-109430295D02*
X108738333Y-109573152D01*
X108738333Y-109573152D02*
X108690714Y-109668390D01*
X108690714Y-109668390D02*
X108643095Y-109716009D01*
X108643095Y-109716009D02*
X108547857Y-109763628D01*
X108547857Y-109763628D02*
X108166905Y-109763628D01*
X109309762Y-109668390D02*
X109214524Y-109620771D01*
X109214524Y-109620771D02*
X109166905Y-109573152D01*
X109166905Y-109573152D02*
X109119286Y-109477914D01*
X109119286Y-109477914D02*
X109119286Y-109430295D01*
X109119286Y-109430295D02*
X109166905Y-109335057D01*
X109166905Y-109335057D02*
X109214524Y-109287438D01*
X109214524Y-109287438D02*
X109309762Y-109239819D01*
X109309762Y-109239819D02*
X109500238Y-109239819D01*
X109500238Y-109239819D02*
X109595476Y-109287438D01*
X109595476Y-109287438D02*
X109643095Y-109335057D01*
X109643095Y-109335057D02*
X109690714Y-109430295D01*
X109690714Y-109430295D02*
X109690714Y-109477914D01*
X109690714Y-109477914D02*
X109643095Y-109573152D01*
X109643095Y-109573152D02*
X109595476Y-109620771D01*
X109595476Y-109620771D02*
X109500238Y-109668390D01*
X109500238Y-109668390D02*
X109309762Y-109668390D01*
X109309762Y-109668390D02*
X109214524Y-109716009D01*
X109214524Y-109716009D02*
X109166905Y-109763628D01*
X109166905Y-109763628D02*
X109119286Y-109858866D01*
X109119286Y-109858866D02*
X109119286Y-110049342D01*
X109119286Y-110049342D02*
X109166905Y-110144580D01*
X109166905Y-110144580D02*
X109214524Y-110192200D01*
X109214524Y-110192200D02*
X109309762Y-110239819D01*
X109309762Y-110239819D02*
X109500238Y-110239819D01*
X109500238Y-110239819D02*
X109595476Y-110192200D01*
X109595476Y-110192200D02*
X109643095Y-110144580D01*
X109643095Y-110144580D02*
X109690714Y-110049342D01*
X109690714Y-110049342D02*
X109690714Y-109858866D01*
X109690714Y-109858866D02*
X109643095Y-109763628D01*
X109643095Y-109763628D02*
X109595476Y-109716009D01*
X109595476Y-109716009D02*
X109500238Y-109668390D01*
X114927142Y-70434580D02*
X114879523Y-70482200D01*
X114879523Y-70482200D02*
X114736666Y-70529819D01*
X114736666Y-70529819D02*
X114641428Y-70529819D01*
X114641428Y-70529819D02*
X114498571Y-70482200D01*
X114498571Y-70482200D02*
X114403333Y-70386961D01*
X114403333Y-70386961D02*
X114355714Y-70291723D01*
X114355714Y-70291723D02*
X114308095Y-70101247D01*
X114308095Y-70101247D02*
X114308095Y-69958390D01*
X114308095Y-69958390D02*
X114355714Y-69767914D01*
X114355714Y-69767914D02*
X114403333Y-69672676D01*
X114403333Y-69672676D02*
X114498571Y-69577438D01*
X114498571Y-69577438D02*
X114641428Y-69529819D01*
X114641428Y-69529819D02*
X114736666Y-69529819D01*
X114736666Y-69529819D02*
X114879523Y-69577438D01*
X114879523Y-69577438D02*
X114927142Y-69625057D01*
X115308095Y-69625057D02*
X115355714Y-69577438D01*
X115355714Y-69577438D02*
X115450952Y-69529819D01*
X115450952Y-69529819D02*
X115689047Y-69529819D01*
X115689047Y-69529819D02*
X115784285Y-69577438D01*
X115784285Y-69577438D02*
X115831904Y-69625057D01*
X115831904Y-69625057D02*
X115879523Y-69720295D01*
X115879523Y-69720295D02*
X115879523Y-69815533D01*
X115879523Y-69815533D02*
X115831904Y-69958390D01*
X115831904Y-69958390D02*
X115260476Y-70529819D01*
X115260476Y-70529819D02*
X115879523Y-70529819D01*
X116736666Y-69529819D02*
X116546190Y-69529819D01*
X116546190Y-69529819D02*
X116450952Y-69577438D01*
X116450952Y-69577438D02*
X116403333Y-69625057D01*
X116403333Y-69625057D02*
X116308095Y-69767914D01*
X116308095Y-69767914D02*
X116260476Y-69958390D01*
X116260476Y-69958390D02*
X116260476Y-70339342D01*
X116260476Y-70339342D02*
X116308095Y-70434580D01*
X116308095Y-70434580D02*
X116355714Y-70482200D01*
X116355714Y-70482200D02*
X116450952Y-70529819D01*
X116450952Y-70529819D02*
X116641428Y-70529819D01*
X116641428Y-70529819D02*
X116736666Y-70482200D01*
X116736666Y-70482200D02*
X116784285Y-70434580D01*
X116784285Y-70434580D02*
X116831904Y-70339342D01*
X116831904Y-70339342D02*
X116831904Y-70101247D01*
X116831904Y-70101247D02*
X116784285Y-70006009D01*
X116784285Y-70006009D02*
X116736666Y-69958390D01*
X116736666Y-69958390D02*
X116641428Y-69910771D01*
X116641428Y-69910771D02*
X116450952Y-69910771D01*
X116450952Y-69910771D02*
X116355714Y-69958390D01*
X116355714Y-69958390D02*
X116308095Y-70006009D01*
X116308095Y-70006009D02*
X116260476Y-70101247D01*
X112228333Y-109259819D02*
X111895000Y-108783628D01*
X111656905Y-109259819D02*
X111656905Y-108259819D01*
X111656905Y-108259819D02*
X112037857Y-108259819D01*
X112037857Y-108259819D02*
X112133095Y-108307438D01*
X112133095Y-108307438D02*
X112180714Y-108355057D01*
X112180714Y-108355057D02*
X112228333Y-108450295D01*
X112228333Y-108450295D02*
X112228333Y-108593152D01*
X112228333Y-108593152D02*
X112180714Y-108688390D01*
X112180714Y-108688390D02*
X112133095Y-108736009D01*
X112133095Y-108736009D02*
X112037857Y-108783628D01*
X112037857Y-108783628D02*
X111656905Y-108783628D01*
X112561667Y-108259819D02*
X113228333Y-108259819D01*
X113228333Y-108259819D02*
X112799762Y-109259819D01*
X110418542Y-96676380D02*
X110370923Y-96724000D01*
X110370923Y-96724000D02*
X110228066Y-96771619D01*
X110228066Y-96771619D02*
X110132828Y-96771619D01*
X110132828Y-96771619D02*
X109989971Y-96724000D01*
X109989971Y-96724000D02*
X109894733Y-96628761D01*
X109894733Y-96628761D02*
X109847114Y-96533523D01*
X109847114Y-96533523D02*
X109799495Y-96343047D01*
X109799495Y-96343047D02*
X109799495Y-96200190D01*
X109799495Y-96200190D02*
X109847114Y-96009714D01*
X109847114Y-96009714D02*
X109894733Y-95914476D01*
X109894733Y-95914476D02*
X109989971Y-95819238D01*
X109989971Y-95819238D02*
X110132828Y-95771619D01*
X110132828Y-95771619D02*
X110228066Y-95771619D01*
X110228066Y-95771619D02*
X110370923Y-95819238D01*
X110370923Y-95819238D02*
X110418542Y-95866857D01*
X111370923Y-96771619D02*
X110799495Y-96771619D01*
X111085209Y-96771619D02*
X111085209Y-95771619D01*
X111085209Y-95771619D02*
X110989971Y-95914476D01*
X110989971Y-95914476D02*
X110894733Y-96009714D01*
X110894733Y-96009714D02*
X110799495Y-96057333D01*
X112323304Y-96771619D02*
X111751876Y-96771619D01*
X112037590Y-96771619D02*
X112037590Y-95771619D01*
X112037590Y-95771619D02*
X111942352Y-95914476D01*
X111942352Y-95914476D02*
X111847114Y-96009714D01*
X111847114Y-96009714D02*
X111751876Y-96057333D01*
X114108095Y-99559819D02*
X114108095Y-100369342D01*
X114108095Y-100369342D02*
X114155714Y-100464580D01*
X114155714Y-100464580D02*
X114203333Y-100512200D01*
X114203333Y-100512200D02*
X114298571Y-100559819D01*
X114298571Y-100559819D02*
X114489047Y-100559819D01*
X114489047Y-100559819D02*
X114584285Y-100512200D01*
X114584285Y-100512200D02*
X114631904Y-100464580D01*
X114631904Y-100464580D02*
X114679523Y-100369342D01*
X114679523Y-100369342D02*
X114679523Y-99559819D01*
X115679523Y-100559819D02*
X115108095Y-100559819D01*
X115393809Y-100559819D02*
X115393809Y-99559819D01*
X115393809Y-99559819D02*
X115298571Y-99702676D01*
X115298571Y-99702676D02*
X115203333Y-99797914D01*
X115203333Y-99797914D02*
X115108095Y-99845533D01*
X117816333Y-79353580D02*
X117768714Y-79401200D01*
X117768714Y-79401200D02*
X117625857Y-79448819D01*
X117625857Y-79448819D02*
X117530619Y-79448819D01*
X117530619Y-79448819D02*
X117387762Y-79401200D01*
X117387762Y-79401200D02*
X117292524Y-79305961D01*
X117292524Y-79305961D02*
X117244905Y-79210723D01*
X117244905Y-79210723D02*
X117197286Y-79020247D01*
X117197286Y-79020247D02*
X117197286Y-78877390D01*
X117197286Y-78877390D02*
X117244905Y-78686914D01*
X117244905Y-78686914D02*
X117292524Y-78591676D01*
X117292524Y-78591676D02*
X117387762Y-78496438D01*
X117387762Y-78496438D02*
X117530619Y-78448819D01*
X117530619Y-78448819D02*
X117625857Y-78448819D01*
X117625857Y-78448819D02*
X117768714Y-78496438D01*
X117768714Y-78496438D02*
X117816333Y-78544057D01*
X118673476Y-78448819D02*
X118483000Y-78448819D01*
X118483000Y-78448819D02*
X118387762Y-78496438D01*
X118387762Y-78496438D02*
X118340143Y-78544057D01*
X118340143Y-78544057D02*
X118244905Y-78686914D01*
X118244905Y-78686914D02*
X118197286Y-78877390D01*
X118197286Y-78877390D02*
X118197286Y-79258342D01*
X118197286Y-79258342D02*
X118244905Y-79353580D01*
X118244905Y-79353580D02*
X118292524Y-79401200D01*
X118292524Y-79401200D02*
X118387762Y-79448819D01*
X118387762Y-79448819D02*
X118578238Y-79448819D01*
X118578238Y-79448819D02*
X118673476Y-79401200D01*
X118673476Y-79401200D02*
X118721095Y-79353580D01*
X118721095Y-79353580D02*
X118768714Y-79258342D01*
X118768714Y-79258342D02*
X118768714Y-79020247D01*
X118768714Y-79020247D02*
X118721095Y-78925009D01*
X118721095Y-78925009D02*
X118673476Y-78877390D01*
X118673476Y-78877390D02*
X118578238Y-78829771D01*
X118578238Y-78829771D02*
X118387762Y-78829771D01*
X118387762Y-78829771D02*
X118292524Y-78877390D01*
X118292524Y-78877390D02*
X118244905Y-78925009D01*
X118244905Y-78925009D02*
X118197286Y-79020247D01*
X105283095Y-68914819D02*
X105283095Y-69724342D01*
X105283095Y-69724342D02*
X105330714Y-69819580D01*
X105330714Y-69819580D02*
X105378333Y-69867200D01*
X105378333Y-69867200D02*
X105473571Y-69914819D01*
X105473571Y-69914819D02*
X105664047Y-69914819D01*
X105664047Y-69914819D02*
X105759285Y-69867200D01*
X105759285Y-69867200D02*
X105806904Y-69819580D01*
X105806904Y-69819580D02*
X105854523Y-69724342D01*
X105854523Y-69724342D02*
X105854523Y-68914819D01*
X106806904Y-68914819D02*
X106330714Y-68914819D01*
X106330714Y-68914819D02*
X106283095Y-69391009D01*
X106283095Y-69391009D02*
X106330714Y-69343390D01*
X106330714Y-69343390D02*
X106425952Y-69295771D01*
X106425952Y-69295771D02*
X106664047Y-69295771D01*
X106664047Y-69295771D02*
X106759285Y-69343390D01*
X106759285Y-69343390D02*
X106806904Y-69391009D01*
X106806904Y-69391009D02*
X106854523Y-69486247D01*
X106854523Y-69486247D02*
X106854523Y-69724342D01*
X106854523Y-69724342D02*
X106806904Y-69819580D01*
X106806904Y-69819580D02*
X106759285Y-69867200D01*
X106759285Y-69867200D02*
X106664047Y-69914819D01*
X106664047Y-69914819D02*
X106425952Y-69914819D01*
X106425952Y-69914819D02*
X106330714Y-69867200D01*
X106330714Y-69867200D02*
X106283095Y-69819580D01*
X121931133Y-101053580D02*
X121883514Y-101101200D01*
X121883514Y-101101200D02*
X121740657Y-101148819D01*
X121740657Y-101148819D02*
X121645419Y-101148819D01*
X121645419Y-101148819D02*
X121502562Y-101101200D01*
X121502562Y-101101200D02*
X121407324Y-101005961D01*
X121407324Y-101005961D02*
X121359705Y-100910723D01*
X121359705Y-100910723D02*
X121312086Y-100720247D01*
X121312086Y-100720247D02*
X121312086Y-100577390D01*
X121312086Y-100577390D02*
X121359705Y-100386914D01*
X121359705Y-100386914D02*
X121407324Y-100291676D01*
X121407324Y-100291676D02*
X121502562Y-100196438D01*
X121502562Y-100196438D02*
X121645419Y-100148819D01*
X121645419Y-100148819D02*
X121740657Y-100148819D01*
X121740657Y-100148819D02*
X121883514Y-100196438D01*
X121883514Y-100196438D02*
X121931133Y-100244057D01*
X122264467Y-100148819D02*
X122931133Y-100148819D01*
X122931133Y-100148819D02*
X122502562Y-101148819D01*
X120104819Y-60098333D02*
X120819104Y-60098333D01*
X120819104Y-60098333D02*
X120961961Y-60145952D01*
X120961961Y-60145952D02*
X121057200Y-60241190D01*
X121057200Y-60241190D02*
X121104819Y-60384047D01*
X121104819Y-60384047D02*
X121104819Y-60479285D01*
X120104819Y-59145952D02*
X120104819Y-59622142D01*
X120104819Y-59622142D02*
X120581009Y-59669761D01*
X120581009Y-59669761D02*
X120533390Y-59622142D01*
X120533390Y-59622142D02*
X120485771Y-59526904D01*
X120485771Y-59526904D02*
X120485771Y-59288809D01*
X120485771Y-59288809D02*
X120533390Y-59193571D01*
X120533390Y-59193571D02*
X120581009Y-59145952D01*
X120581009Y-59145952D02*
X120676247Y-59098333D01*
X120676247Y-59098333D02*
X120914342Y-59098333D01*
X120914342Y-59098333D02*
X121009580Y-59145952D01*
X121009580Y-59145952D02*
X121057200Y-59193571D01*
X121057200Y-59193571D02*
X121104819Y-59288809D01*
X121104819Y-59288809D02*
X121104819Y-59526904D01*
X121104819Y-59526904D02*
X121057200Y-59622142D01*
X121057200Y-59622142D02*
X121009580Y-59669761D01*
X115693333Y-80049819D02*
X115360000Y-79573628D01*
X115121905Y-80049819D02*
X115121905Y-79049819D01*
X115121905Y-79049819D02*
X115502857Y-79049819D01*
X115502857Y-79049819D02*
X115598095Y-79097438D01*
X115598095Y-79097438D02*
X115645714Y-79145057D01*
X115645714Y-79145057D02*
X115693333Y-79240295D01*
X115693333Y-79240295D02*
X115693333Y-79383152D01*
X115693333Y-79383152D02*
X115645714Y-79478390D01*
X115645714Y-79478390D02*
X115598095Y-79526009D01*
X115598095Y-79526009D02*
X115502857Y-79573628D01*
X115502857Y-79573628D02*
X115121905Y-79573628D01*
X116598095Y-79049819D02*
X116121905Y-79049819D01*
X116121905Y-79049819D02*
X116074286Y-79526009D01*
X116074286Y-79526009D02*
X116121905Y-79478390D01*
X116121905Y-79478390D02*
X116217143Y-79430771D01*
X116217143Y-79430771D02*
X116455238Y-79430771D01*
X116455238Y-79430771D02*
X116550476Y-79478390D01*
X116550476Y-79478390D02*
X116598095Y-79526009D01*
X116598095Y-79526009D02*
X116645714Y-79621247D01*
X116645714Y-79621247D02*
X116645714Y-79859342D01*
X116645714Y-79859342D02*
X116598095Y-79954580D01*
X116598095Y-79954580D02*
X116550476Y-80002200D01*
X116550476Y-80002200D02*
X116455238Y-80049819D01*
X116455238Y-80049819D02*
X116217143Y-80049819D01*
X116217143Y-80049819D02*
X116121905Y-80002200D01*
X116121905Y-80002200D02*
X116074286Y-79954580D01*
X133608032Y-116345619D02*
X133608032Y-117155142D01*
X133608032Y-117155142D02*
X133655651Y-117250380D01*
X133655651Y-117250380D02*
X133703270Y-117298000D01*
X133703270Y-117298000D02*
X133798508Y-117345619D01*
X133798508Y-117345619D02*
X133988984Y-117345619D01*
X133988984Y-117345619D02*
X134084222Y-117298000D01*
X134084222Y-117298000D02*
X134131841Y-117250380D01*
X134131841Y-117250380D02*
X134179460Y-117155142D01*
X134179460Y-117155142D02*
X134179460Y-116345619D01*
X135084222Y-116345619D02*
X134893746Y-116345619D01*
X134893746Y-116345619D02*
X134798508Y-116393238D01*
X134798508Y-116393238D02*
X134750889Y-116440857D01*
X134750889Y-116440857D02*
X134655651Y-116583714D01*
X134655651Y-116583714D02*
X134608032Y-116774190D01*
X134608032Y-116774190D02*
X134608032Y-117155142D01*
X134608032Y-117155142D02*
X134655651Y-117250380D01*
X134655651Y-117250380D02*
X134703270Y-117298000D01*
X134703270Y-117298000D02*
X134798508Y-117345619D01*
X134798508Y-117345619D02*
X134988984Y-117345619D01*
X134988984Y-117345619D02*
X135084222Y-117298000D01*
X135084222Y-117298000D02*
X135131841Y-117250380D01*
X135131841Y-117250380D02*
X135179460Y-117155142D01*
X135179460Y-117155142D02*
X135179460Y-116917047D01*
X135179460Y-116917047D02*
X135131841Y-116821809D01*
X135131841Y-116821809D02*
X135084222Y-116774190D01*
X135084222Y-116774190D02*
X134988984Y-116726571D01*
X134988984Y-116726571D02*
X134798508Y-116726571D01*
X134798508Y-116726571D02*
X134703270Y-116774190D01*
X134703270Y-116774190D02*
X134655651Y-116821809D01*
X134655651Y-116821809D02*
X134608032Y-116917047D01*
X131927600Y-117580567D02*
X131927600Y-117818662D01*
X131689505Y-117723424D02*
X131927600Y-117818662D01*
X131927600Y-117818662D02*
X132165695Y-117723424D01*
X131784743Y-118009138D02*
X131927600Y-117818662D01*
X131927600Y-117818662D02*
X132070457Y-118009138D01*
X131931537Y-118174419D02*
X131931537Y-118412514D01*
X131693442Y-118317276D02*
X131931537Y-118412514D01*
X131931537Y-118412514D02*
X132169632Y-118317276D01*
X131788680Y-118602990D02*
X131931537Y-118412514D01*
X131931537Y-118412514D02*
X132074394Y-118602990D01*
X119873333Y-104340819D02*
X119540000Y-103864628D01*
X119301905Y-104340819D02*
X119301905Y-103340819D01*
X119301905Y-103340819D02*
X119682857Y-103340819D01*
X119682857Y-103340819D02*
X119778095Y-103388438D01*
X119778095Y-103388438D02*
X119825714Y-103436057D01*
X119825714Y-103436057D02*
X119873333Y-103531295D01*
X119873333Y-103531295D02*
X119873333Y-103674152D01*
X119873333Y-103674152D02*
X119825714Y-103769390D01*
X119825714Y-103769390D02*
X119778095Y-103817009D01*
X119778095Y-103817009D02*
X119682857Y-103864628D01*
X119682857Y-103864628D02*
X119301905Y-103864628D01*
X120254286Y-103436057D02*
X120301905Y-103388438D01*
X120301905Y-103388438D02*
X120397143Y-103340819D01*
X120397143Y-103340819D02*
X120635238Y-103340819D01*
X120635238Y-103340819D02*
X120730476Y-103388438D01*
X120730476Y-103388438D02*
X120778095Y-103436057D01*
X120778095Y-103436057D02*
X120825714Y-103531295D01*
X120825714Y-103531295D02*
X120825714Y-103626533D01*
X120825714Y-103626533D02*
X120778095Y-103769390D01*
X120778095Y-103769390D02*
X120206667Y-104340819D01*
X120206667Y-104340819D02*
X120825714Y-104340819D01*
X110894733Y-92313780D02*
X110847114Y-92361400D01*
X110847114Y-92361400D02*
X110704257Y-92409019D01*
X110704257Y-92409019D02*
X110609019Y-92409019D01*
X110609019Y-92409019D02*
X110466162Y-92361400D01*
X110466162Y-92361400D02*
X110370924Y-92266161D01*
X110370924Y-92266161D02*
X110323305Y-92170923D01*
X110323305Y-92170923D02*
X110275686Y-91980447D01*
X110275686Y-91980447D02*
X110275686Y-91837590D01*
X110275686Y-91837590D02*
X110323305Y-91647114D01*
X110323305Y-91647114D02*
X110370924Y-91551876D01*
X110370924Y-91551876D02*
X110466162Y-91456638D01*
X110466162Y-91456638D02*
X110609019Y-91409019D01*
X110609019Y-91409019D02*
X110704257Y-91409019D01*
X110704257Y-91409019D02*
X110847114Y-91456638D01*
X110847114Y-91456638D02*
X110894733Y-91504257D01*
X111370924Y-92409019D02*
X111561400Y-92409019D01*
X111561400Y-92409019D02*
X111656638Y-92361400D01*
X111656638Y-92361400D02*
X111704257Y-92313780D01*
X111704257Y-92313780D02*
X111799495Y-92170923D01*
X111799495Y-92170923D02*
X111847114Y-91980447D01*
X111847114Y-91980447D02*
X111847114Y-91599495D01*
X111847114Y-91599495D02*
X111799495Y-91504257D01*
X111799495Y-91504257D02*
X111751876Y-91456638D01*
X111751876Y-91456638D02*
X111656638Y-91409019D01*
X111656638Y-91409019D02*
X111466162Y-91409019D01*
X111466162Y-91409019D02*
X111370924Y-91456638D01*
X111370924Y-91456638D02*
X111323305Y-91504257D01*
X111323305Y-91504257D02*
X111275686Y-91599495D01*
X111275686Y-91599495D02*
X111275686Y-91837590D01*
X111275686Y-91837590D02*
X111323305Y-91932828D01*
X111323305Y-91932828D02*
X111370924Y-91980447D01*
X111370924Y-91980447D02*
X111466162Y-92028066D01*
X111466162Y-92028066D02*
X111656638Y-92028066D01*
X111656638Y-92028066D02*
X111751876Y-91980447D01*
X111751876Y-91980447D02*
X111799495Y-91932828D01*
X111799495Y-91932828D02*
X111847114Y-91837590D01*
X114171505Y-82166619D02*
X114171505Y-81166619D01*
X114171505Y-81166619D02*
X114409600Y-81166619D01*
X114409600Y-81166619D02*
X114552457Y-81214238D01*
X114552457Y-81214238D02*
X114647695Y-81309476D01*
X114647695Y-81309476D02*
X114695314Y-81404714D01*
X114695314Y-81404714D02*
X114742933Y-81595190D01*
X114742933Y-81595190D02*
X114742933Y-81738047D01*
X114742933Y-81738047D02*
X114695314Y-81928523D01*
X114695314Y-81928523D02*
X114647695Y-82023761D01*
X114647695Y-82023761D02*
X114552457Y-82119000D01*
X114552457Y-82119000D02*
X114409600Y-82166619D01*
X114409600Y-82166619D02*
X114171505Y-82166619D01*
X115600076Y-81499952D02*
X115600076Y-82166619D01*
X115361981Y-81119000D02*
X115123886Y-81833285D01*
X115123886Y-81833285D02*
X115742933Y-81833285D01*
%TO.C,C30*%
D12*
X137302164Y-117750000D02*
X137517836Y-117750000D01*
X137302164Y-118470000D02*
X137517836Y-118470000D01*
%TO.C,C18*%
X99937180Y-71321200D02*
X99656020Y-71321200D01*
X99937180Y-72341200D02*
X99656020Y-72341200D01*
%TO.C,J1*%
X128650000Y-133090000D02*
X128650000Y-134040000D01*
X130350000Y-124740000D02*
X130600000Y-125090000D01*
X130600000Y-125090000D02*
X130850000Y-124740000D01*
X130700000Y-125320000D02*
X136000000Y-125320000D01*
X138050000Y-134040000D02*
X138050000Y-133090000D01*
%TO.C,D5*%
X117269600Y-85817200D02*
X113259600Y-85817200D01*
X117269600Y-87817200D02*
X113259600Y-87817200D01*
X117269600Y-87817200D02*
X117269600Y-85817200D01*
%TO.C,C28*%
X131337164Y-121560000D02*
X131552836Y-121560000D01*
X131337164Y-122280000D02*
X131552836Y-122280000D01*
%TO.C,C27*%
X111498748Y-71655000D02*
X112021252Y-71655000D01*
X111498748Y-73125000D02*
X112021252Y-73125000D01*
%TO.C,SW2*%
X119902500Y-76590000D02*
X120902500Y-76590000D01*
X119902500Y-77590000D02*
X119902500Y-76590000D01*
X120202500Y-76890000D02*
X121052500Y-76890000D01*
X120202500Y-80590000D02*
X120202500Y-76890000D01*
X121082500Y-80590000D02*
X120202500Y-80590000D01*
X123052500Y-76890000D02*
X123582500Y-76890000D01*
X123582500Y-80590000D02*
X123022500Y-80590000D01*
X125522500Y-76890000D02*
X126082500Y-76890000D01*
X126072500Y-80590000D02*
X125522500Y-80590000D01*
X128022500Y-76890000D02*
X128902500Y-76890000D01*
X128902500Y-76890000D02*
X128902500Y-80590000D01*
X128902500Y-80590000D02*
X128032500Y-80590000D01*
%TO.C,C15*%
X112035000Y-58527836D02*
X112035000Y-58312164D01*
X112755000Y-58527836D02*
X112755000Y-58312164D01*
%TO.C,C3*%
X122830000Y-95357836D02*
X122830000Y-95142164D01*
X123550000Y-95357836D02*
X123550000Y-95142164D01*
%TO.C,C23*%
X107028348Y-132665800D02*
X107550852Y-132665800D01*
X107028348Y-134135800D02*
X107550852Y-134135800D01*
%TO.C,U4*%
X120192500Y-105070000D02*
X120642500Y-105070000D01*
X120192500Y-105520000D02*
X120192500Y-105070000D01*
X120192500Y-108290000D02*
X120192500Y-107840000D01*
X120642500Y-108290000D02*
X120192500Y-108290000D01*
X122962500Y-105070000D02*
X123412500Y-105070000D01*
X123412500Y-105070000D02*
X123412500Y-105520000D01*
X123412500Y-107840000D02*
X123412500Y-108290000D01*
X123412500Y-108290000D02*
X122962500Y-108290000D01*
X119682500Y-105880000D02*
X119352500Y-106120000D01*
X119352500Y-105640000D01*
X119682500Y-105880000D01*
G36*
X119682500Y-105880000D02*
G01*
X119352500Y-106120000D01*
X119352500Y-105640000D01*
X119682500Y-105880000D01*
G37*
%TO.C,BT1*%
X129925000Y-76065000D02*
X130945000Y-76065000D01*
X129925000Y-80315000D02*
X129925000Y-76065000D01*
X130945000Y-76065000D02*
X130945000Y-77665000D01*
X130945000Y-77665000D02*
X132225000Y-77665000D01*
X131645000Y-83885000D02*
X136325000Y-83885000D01*
X132225000Y-77665000D02*
X132225000Y-74775000D01*
X137025000Y-76065000D02*
X137025000Y-77665000D01*
X137025000Y-77665000D02*
X135745000Y-77665000D01*
X138045000Y-76065000D02*
X137025000Y-76065000D01*
X138045000Y-80315000D02*
X138045000Y-76065000D01*
%TO.C,C22*%
X119983364Y-57298000D02*
X120199036Y-57298000D01*
X119983364Y-58018000D02*
X120199036Y-58018000D01*
%TO.C,R16*%
X108017759Y-92744200D02*
X108325041Y-92744200D01*
X108017759Y-93504200D02*
X108325041Y-93504200D01*
%TO.C,C19*%
X103364420Y-68705000D02*
X103645580Y-68705000D01*
X103364420Y-69725000D02*
X103645580Y-69725000D01*
%TO.C,C10*%
X99409364Y-75662200D02*
X99625036Y-75662200D01*
X99409364Y-76382200D02*
X99625036Y-76382200D01*
%TO.C,SW1*%
X127470000Y-68640000D02*
X128470000Y-68640000D01*
X127470000Y-69640000D02*
X127470000Y-68640000D01*
X127770000Y-68940000D02*
X128620000Y-68940000D01*
X127770000Y-72640000D02*
X127770000Y-68940000D01*
X128650000Y-72640000D02*
X127770000Y-72640000D01*
X130620000Y-68940000D02*
X131150000Y-68940000D01*
X131150000Y-72640000D02*
X130590000Y-72640000D01*
X133090000Y-68940000D02*
X133650000Y-68940000D01*
X133640000Y-72640000D02*
X133090000Y-72640000D01*
X135590000Y-68940000D02*
X136470000Y-68940000D01*
X136470000Y-68940000D02*
X136470000Y-72640000D01*
X136470000Y-72640000D02*
X135600000Y-72640000D01*
%TO.C,D2*%
X99391800Y-92291100D02*
X99391800Y-94576100D01*
X99391800Y-94576100D02*
X100861800Y-94576100D01*
X100861800Y-94576100D02*
X100861800Y-92291100D01*
%TO.C,C31*%
X137521836Y-121280600D02*
X137306164Y-121280600D01*
X137521836Y-122000600D02*
X137306164Y-122000600D01*
%TO.C,U3*%
X98970000Y-113010000D02*
X105385000Y-113010000D01*
X98970000Y-131250000D02*
X98970000Y-113010000D01*
X98970000Y-131250000D02*
X105130000Y-131250000D01*
X123930000Y-113010000D02*
X124710000Y-113010000D01*
X123930000Y-131250000D02*
X124710000Y-131250000D01*
X124710000Y-113010000D02*
X124710000Y-114010000D01*
X124710000Y-131250000D02*
X124710000Y-130250000D01*
X105855000Y-131755000D02*
X105355000Y-131255000D01*
X105855000Y-131255000D01*
X105855000Y-131755000D01*
G36*
X105855000Y-131755000D02*
G01*
X105355000Y-131255000D01*
X105855000Y-131255000D01*
X105855000Y-131755000D01*
G37*
%TO.C,L1*%
X109391022Y-90194200D02*
X108591778Y-90194200D01*
X109391022Y-91314200D02*
X108591778Y-91314200D01*
%TO.C,C16*%
X112365200Y-52825764D02*
X112365200Y-53041436D01*
X113085200Y-52825764D02*
X113085200Y-53041436D01*
%TO.C,C17*%
X100788380Y-73150000D02*
X100507220Y-73150000D01*
X100788380Y-74170000D02*
X100507220Y-74170000D01*
%TO.C,J2*%
X130015000Y-86570000D02*
X131125000Y-86570000D01*
X130015000Y-112710000D02*
X130015000Y-86570000D01*
X131125000Y-86570000D02*
X131125000Y-87595000D01*
X131125000Y-87595000D02*
X131665000Y-87595000D01*
X131125000Y-111685000D02*
X131125000Y-112710000D01*
X131125000Y-112710000D02*
X130015000Y-112710000D01*
X131665000Y-111685000D02*
X131125000Y-111685000D01*
X135635000Y-89750000D02*
X135635000Y-90575000D01*
X135635000Y-90575000D02*
X137435000Y-90575000D01*
X135635000Y-108705000D02*
X135635000Y-109530000D01*
%TO.C,C4*%
X124995000Y-95511252D02*
X124995000Y-94988748D01*
X126465000Y-95511252D02*
X126465000Y-94988748D01*
%TO.C,D3*%
X117244200Y-88687400D02*
X113234200Y-88687400D01*
X117244200Y-90687400D02*
X113234200Y-90687400D01*
X117244200Y-90687400D02*
X117244200Y-88687400D01*
%TO.C,C14*%
X115677836Y-73300000D02*
X115462164Y-73300000D01*
X115677836Y-74020000D02*
X115462164Y-74020000D01*
%TO.C,U2*%
X116260000Y-91840000D02*
X120020000Y-91840000D01*
X116260000Y-98660000D02*
X120020000Y-98660000D01*
X120020000Y-91840000D02*
X120020000Y-93100000D01*
X120020000Y-98660000D02*
X120020000Y-97400000D01*
X114980000Y-91940000D02*
X114740000Y-91610000D01*
X115220000Y-91610000D01*
X114980000Y-91940000D01*
G36*
X114980000Y-91940000D02*
G01*
X114740000Y-91610000D01*
X115220000Y-91610000D01*
X114980000Y-91940000D01*
G37*
%TO.C,C21*%
X112922164Y-73935000D02*
X113137836Y-73935000D01*
X112922164Y-74655000D02*
X113137836Y-74655000D01*
%TO.C,C1*%
X114192164Y-108225000D02*
X114407836Y-108225000D01*
X114192164Y-108945000D02*
X114407836Y-108945000D01*
%TO.C,C29*%
X137052164Y-116480000D02*
X137267836Y-116480000D01*
X137052164Y-117200000D02*
X137267836Y-117200000D01*
%TO.C,C25*%
X99341000Y-79327148D02*
X99341000Y-79849652D01*
X100811000Y-79327148D02*
X100811000Y-79849652D01*
%TO.C,FB1*%
X115281942Y-64780900D02*
X115756458Y-64780900D01*
X115281942Y-65825900D02*
X115756458Y-65825900D01*
%TO.C,J4*%
X101785000Y-48205000D02*
X102285000Y-48205000D01*
X101785000Y-49405000D02*
X99785000Y-49405000D01*
X101785000Y-49405000D02*
X101785000Y-48205000D01*
X101785000Y-52005000D02*
X99785000Y-52005000D01*
X101785000Y-58505000D02*
X101785000Y-52005000D01*
X101785000Y-62905000D02*
X101785000Y-61705000D01*
X102285000Y-45705000D02*
X107485000Y-45705000D01*
X102285000Y-48205000D02*
X102285000Y-45705000D01*
X107485000Y-45705000D02*
X107485000Y-48205000D01*
X107485000Y-48205000D02*
X107985000Y-48205000D01*
X107985000Y-48205000D02*
X107985000Y-51405000D01*
X107985000Y-54005000D02*
X107985000Y-62905000D01*
X107985000Y-62905000D02*
X101785000Y-62905000D01*
%TO.C,D1*%
X99391800Y-84417000D02*
X99391800Y-86702000D01*
X99391800Y-86702000D02*
X100861800Y-86702000D01*
X100861800Y-86702000D02*
X100861800Y-84417000D01*
%TO.C,R17*%
X108017759Y-94734200D02*
X108325041Y-94734200D01*
X108017759Y-95494200D02*
X108325041Y-95494200D01*
%TO.C,J6*%
X112869200Y-48141400D02*
X112869200Y-46761400D01*
X114249200Y-48141400D02*
X112869200Y-48141400D01*
X115519200Y-45381400D02*
X130869200Y-45381400D01*
X115519200Y-48141400D02*
X115519200Y-45381400D01*
X115519200Y-48141400D02*
X130869200Y-48141400D01*
X130869200Y-48141400D02*
X130869200Y-45381400D01*
%TO.C,C2*%
X123850000Y-99432164D02*
X123850000Y-99647836D01*
X124570000Y-99432164D02*
X124570000Y-99647836D01*
%TO.C,C5*%
X122982836Y-68855000D02*
X122767164Y-68855000D01*
X122982836Y-69575000D02*
X122767164Y-69575000D01*
%TO.C,C8*%
X116947836Y-106955000D02*
X116732164Y-106955000D01*
X116947836Y-107675000D02*
X116732164Y-107675000D01*
%TO.C,U7*%
X108310000Y-85725700D02*
X110130000Y-85725700D01*
X108310000Y-85775700D02*
X108310000Y-85725700D01*
X108310000Y-88845700D02*
X108310000Y-88795700D01*
X110130000Y-85725700D02*
X110130000Y-85775700D01*
X110130000Y-88795700D02*
X110130000Y-88845700D01*
X110130000Y-88845700D02*
X108310000Y-88845700D01*
X107770000Y-85775700D02*
X107530000Y-85445700D01*
X108010000Y-85445700D01*
X107770000Y-85775700D01*
G36*
X107770000Y-85775700D02*
G01*
X107530000Y-85445700D01*
X108010000Y-85445700D01*
X107770000Y-85775700D01*
G37*
%TO.C,C26*%
X115308748Y-71020000D02*
X115831252Y-71020000D01*
X115308748Y-72490000D02*
X115831252Y-72490000D01*
%TO.C,C11*%
X110953564Y-94724200D02*
X111169236Y-94724200D01*
X110953564Y-95444200D02*
X111169236Y-95444200D01*
%TO.C,U1*%
X112810000Y-100945000D02*
X116930000Y-100945000D01*
X112810000Y-101040000D02*
X112810000Y-100945000D01*
X112810000Y-106065000D02*
X112810000Y-105970000D01*
X116930000Y-100945000D02*
X116930000Y-101040000D01*
X116930000Y-105970000D02*
X116930000Y-106065000D01*
X116930000Y-106065000D02*
X112810000Y-106065000D01*
X112270000Y-101035000D02*
X112030000Y-100705000D01*
X112510000Y-100705000D01*
X112270000Y-101035000D01*
G36*
X112270000Y-101035000D02*
G01*
X112030000Y-100705000D01*
X112510000Y-100705000D01*
X112270000Y-101035000D01*
G37*
%TO.C,C6*%
X117623000Y-80549636D02*
X117623000Y-80333964D01*
X118343000Y-80549636D02*
X118343000Y-80333964D01*
%TO.C,U5*%
X103735000Y-70275000D02*
X108355000Y-70275000D01*
X108355000Y-77045000D02*
X103735000Y-77045000D01*
X102185000Y-70730000D02*
X101855000Y-70970000D01*
X101855000Y-70490000D01*
X102185000Y-70730000D01*
G36*
X102185000Y-70730000D02*
G01*
X101855000Y-70970000D01*
X101855000Y-70490000D01*
X102185000Y-70730000D01*
G37*
%TO.C,C7*%
X121989964Y-101494000D02*
X122205636Y-101494000D01*
X121989964Y-102214000D02*
X122205636Y-102214000D01*
%TO.C,J5*%
X122290000Y-52695000D02*
X136300000Y-52695000D01*
X122290000Y-54615000D02*
X122290000Y-52695000D01*
X122290000Y-66215000D02*
X122290000Y-66665000D01*
X122290000Y-66665000D02*
X125900000Y-66665000D01*
X127600000Y-66665000D02*
X132300000Y-66665000D01*
X133600000Y-66665000D02*
X135400000Y-66665000D01*
X138210000Y-63565000D02*
X138210000Y-57195000D01*
X138210000Y-63565000D02*
X138360000Y-63565000D01*
X138360000Y-54175000D02*
X138360000Y-53915000D01*
X138560000Y-54375000D02*
X138360000Y-54175000D01*
X138560000Y-54375000D02*
X138560000Y-56685000D01*
X138560000Y-56685000D02*
X138210000Y-57195000D01*
X138560000Y-63775000D02*
X138360000Y-63565000D01*
X138560000Y-65635000D02*
X138360000Y-65835000D01*
X138560000Y-65635000D02*
X138560000Y-63775000D01*
D13*
%TO.C,U6*%
G36*
X136681337Y-119947563D02*
G01*
X136427337Y-119947563D01*
X136427337Y-119566563D01*
X136681337Y-119566563D01*
X136681337Y-119947563D01*
G37*
%TO.C,C9*%
D12*
X110953564Y-92754200D02*
X111169236Y-92754200D01*
X110953564Y-93474200D02*
X111169236Y-93474200D01*
%TO.C,D4*%
X117269600Y-82467200D02*
X113259600Y-82467200D01*
X117269600Y-84467200D02*
X113259600Y-84467200D01*
X117269600Y-84467200D02*
X117269600Y-82467200D01*
%TD*%
M02*
