%TF.GenerationSoftware,KiCad,Pcbnew,10.0.1*%
%TF.CreationDate,2026-07-02T11:13:02-06:00*%
%TF.ProjectId,aeropod2,6165726f-706f-4643-922e-6b696361645f,rev?*%
%TF.SameCoordinates,Original*%
%TF.FileFunction,Paste,Top*%
%TF.FilePolarity,Positive*%
%FSLAX46Y46*%
G04 Gerber Fmt 4.6, Leading zero omitted, Abs format (unit mm)*
G04 Created by KiCad (PCBNEW 10.0.1) date 2026-07-02 11:13:02*
%MOMM*%
%LPD*%
G01*
G04 APERTURE LIST*
G04 Aperture macros list*
%AMRoundRect*
0 Rectangle with rounded corners*
0 $1 Rounding radius*
0 $2 $3 $4 $5 $6 $7 $8 $9 X,Y pos of 4 corners*
0 Add a 4 corners polygon primitive as box body*
4,1,4,$2,$3,$4,$5,$6,$7,$8,$9,$2,$3,0*
0 Add four circle primitives for the rounded corners*
1,1,$1+$1,$2,$3*
1,1,$1+$1,$4,$5*
1,1,$1+$1,$6,$7*
1,1,$1+$1,$8,$9*
0 Add four rect primitives between the rounded corners*
20,1,$1+$1,$2,$3,$4,$5,0*
20,1,$1+$1,$4,$5,$6,$7,0*
20,1,$1+$1,$6,$7,$8,$9,0*
20,1,$1+$1,$8,$9,$2,$3,0*%
%AMFreePoly0*
4,1,14,0.354215,0.088284,0.450784,-0.008285,0.462500,-0.036569,0.462500,-0.060000,0.450784,-0.088284,0.422500,-0.100000,-0.422500,-0.100000,-0.450784,-0.088284,-0.462500,-0.060000,-0.462500,0.060000,-0.450784,0.088284,-0.422500,0.100000,0.325931,0.100000,0.354215,0.088284,0.354215,0.088284,$1*%
%AMFreePoly1*
4,1,14,0.450784,0.088284,0.462500,0.060000,0.462500,0.036569,0.450784,0.008285,0.354215,-0.088284,0.325931,-0.100000,-0.422500,-0.100000,-0.450784,-0.088284,-0.462500,-0.060000,-0.462500,0.060000,-0.450784,0.088284,-0.422500,0.100000,0.422500,0.100000,0.450784,0.088284,0.450784,0.088284,$1*%
%AMFreePoly2*
4,1,14,0.088284,0.450784,0.100000,0.422500,0.100000,-0.422500,0.088284,-0.450784,0.060000,-0.462500,-0.060000,-0.462500,-0.088284,-0.450784,-0.100000,-0.422500,-0.100000,0.325931,-0.088284,0.354215,0.008285,0.450784,0.036569,0.462500,0.060000,0.462500,0.088284,0.450784,0.088284,0.450784,$1*%
%AMFreePoly3*
4,1,14,-0.008285,0.450784,0.088284,0.354215,0.100000,0.325931,0.100000,-0.422500,0.088284,-0.450784,0.060000,-0.462500,-0.060000,-0.462500,-0.088284,-0.450784,-0.100000,-0.422500,-0.100000,0.422500,-0.088284,0.450784,-0.060000,0.462500,-0.036569,0.462500,-0.008285,0.450784,-0.008285,0.450784,$1*%
%AMFreePoly4*
4,1,14,0.450784,0.088284,0.462500,0.060000,0.462500,-0.060000,0.450784,-0.088284,0.422500,-0.100000,-0.325931,-0.100000,-0.354215,-0.088284,-0.450784,0.008285,-0.462500,0.036569,-0.462500,0.060000,-0.450784,0.088284,-0.422500,0.100000,0.422500,0.100000,0.450784,0.088284,0.450784,0.088284,$1*%
%AMFreePoly5*
4,1,14,0.450784,0.088284,0.462500,0.060000,0.462500,-0.060000,0.450784,-0.088284,0.422500,-0.100000,-0.422500,-0.100000,-0.450784,-0.088284,-0.462500,-0.060000,-0.462500,-0.036569,-0.450784,-0.008285,-0.354215,0.088284,-0.325931,0.100000,0.422500,0.100000,0.450784,0.088284,0.450784,0.088284,$1*%
%AMFreePoly6*
4,1,14,0.088284,0.450784,0.100000,0.422500,0.100000,-0.325931,0.088284,-0.354215,-0.008285,-0.450784,-0.036569,-0.462500,-0.060000,-0.462500,-0.088284,-0.450784,-0.100000,-0.422500,-0.100000,0.422500,-0.088284,0.450784,-0.060000,0.462500,0.060000,0.462500,0.088284,0.450784,0.088284,0.450784,$1*%
%AMFreePoly7*
4,1,14,0.088284,0.450784,0.100000,0.422500,0.100000,-0.422500,0.088284,-0.450784,0.060000,-0.462500,0.036569,-0.462500,0.008285,-0.450784,-0.088284,-0.354215,-0.100000,-0.325931,-0.100000,0.422500,-0.088284,0.450784,-0.060000,0.462500,0.060000,0.462500,0.088284,0.450784,0.088284,0.450784,$1*%
G04 Aperture macros list end*
%ADD10RoundRect,0.140000X-0.140000X-0.170000X0.140000X-0.170000X0.140000X0.170000X-0.140000X0.170000X0*%
%ADD11RoundRect,0.225000X0.225000X0.250000X-0.225000X0.250000X-0.225000X-0.250000X0.225000X-0.250000X0*%
%ADD12RoundRect,0.075000X-0.075000X-0.275000X0.075000X-0.275000X0.075000X0.275000X-0.075000X0.275000X0*%
%ADD13C,0.650000*%
%ADD14O,0.950000X2.280000*%
%ADD15O,1.330000X1.980000*%
%ADD16O,0.950000X1.800000*%
%ADD17RoundRect,0.087500X-0.262500X-0.087500X0.262500X-0.087500X0.262500X0.087500X-0.262500X0.087500X0*%
%ADD18RoundRect,0.225000X0.225000X0.375000X-0.225000X0.375000X-0.225000X-0.375000X0.225000X-0.375000X0*%
%ADD19RoundRect,0.250000X-0.250000X-0.475000X0.250000X-0.475000X0.250000X0.475000X-0.250000X0.475000X0*%
%ADD20RoundRect,0.140000X0.170000X-0.140000X0.170000X0.140000X-0.170000X0.140000X-0.170000X-0.140000X0*%
%ADD21RoundRect,0.079500X0.100500X-0.079500X0.100500X0.079500X-0.100500X0.079500X-0.100500X-0.079500X0*%
%ADD22FreePoly0,0.000000*%
%ADD23RoundRect,0.050000X-0.412500X-0.050000X0.412500X-0.050000X0.412500X0.050000X-0.412500X0.050000X0*%
%ADD24FreePoly1,0.000000*%
%ADD25FreePoly2,0.000000*%
%ADD26RoundRect,0.050000X-0.050000X-0.412500X0.050000X-0.412500X0.050000X0.412500X-0.050000X0.412500X0*%
%ADD27FreePoly3,0.000000*%
%ADD28FreePoly4,0.000000*%
%ADD29FreePoly5,0.000000*%
%ADD30FreePoly6,0.000000*%
%ADD31FreePoly7,0.000000*%
%ADD32RoundRect,0.250000X-0.250000X-1.500000X0.250000X-1.500000X0.250000X1.500000X-0.250000X1.500000X0*%
%ADD33RoundRect,0.250001X-0.499999X-1.449999X0.499999X-1.449999X0.499999X1.449999X-0.499999X1.449999X0*%
%ADD34RoundRect,0.135000X-0.135000X-0.185000X0.135000X-0.185000X0.135000X0.185000X-0.135000X0.185000X0*%
%ADD35RoundRect,0.225000X-0.225000X-0.250000X0.225000X-0.250000X0.225000X0.250000X-0.225000X0.250000X0*%
%ADD36RoundRect,0.218750X0.256250X-0.218750X0.256250X0.218750X-0.256250X0.218750X-0.256250X-0.218750X0*%
%ADD37RoundRect,0.140000X0.140000X0.170000X-0.140000X0.170000X-0.140000X-0.170000X0.140000X-0.170000X0*%
%ADD38R,0.900000X1.500000*%
%ADD39R,1.500000X0.900000*%
%ADD40R,1.050000X1.050000*%
%ADD41RoundRect,0.218750X0.218750X0.381250X-0.218750X0.381250X-0.218750X-0.381250X0.218750X-0.381250X0*%
%ADD42RoundRect,0.140000X-0.170000X0.140000X-0.170000X-0.140000X0.170000X-0.140000X0.170000X0.140000X0*%
%ADD43R,2.000000X0.610000*%
%ADD44R,3.600000X2.680000*%
%ADD45RoundRect,0.250000X0.475000X-0.250000X0.475000X0.250000X-0.475000X0.250000X-0.475000X-0.250000X0*%
%ADD46RoundRect,0.079500X-0.079500X-0.100500X0.079500X-0.100500X0.079500X0.100500X-0.079500X0.100500X0*%
%ADD47RoundRect,0.375000X-0.625000X-0.375000X0.625000X-0.375000X0.625000X0.375000X-0.625000X0.375000X0*%
%ADD48RoundRect,0.500000X-0.500000X-1.400000X0.500000X-1.400000X0.500000X1.400000X-0.500000X1.400000X0*%
%ADD49RoundRect,0.250000X-0.475000X0.250000X-0.475000X-0.250000X0.475000X-0.250000X0.475000X0.250000X0*%
%ADD50RoundRect,0.200000X-0.200000X-0.275000X0.200000X-0.275000X0.200000X0.275000X-0.200000X0.275000X0*%
%ADD51R,2.800000X2.200000*%
%ADD52R,2.800000X2.800000*%
%ADD53RoundRect,0.079500X0.079500X0.100500X-0.079500X0.100500X-0.079500X-0.100500X0.079500X-0.100500X0*%
%ADD54RoundRect,0.079500X-0.100500X0.079500X-0.100500X-0.079500X0.100500X-0.079500X0.100500X0.079500X0*%
%ADD55RoundRect,0.150000X-0.512500X-0.150000X0.512500X-0.150000X0.512500X0.150000X-0.512500X0.150000X0*%
%ADD56RoundRect,0.250000X-0.255000X-0.440000X0.255000X-0.440000X0.255000X0.440000X-0.255000X0.440000X0*%
%ADD57RoundRect,0.150000X-0.825000X-0.150000X0.825000X-0.150000X0.825000X0.150000X-0.825000X0.150000X0*%
%ADD58RoundRect,0.100000X-0.637500X-0.100000X0.637500X-0.100000X0.637500X0.100000X-0.637500X0.100000X0*%
%ADD59R,1.200000X0.700000*%
%ADD60R,0.800000X1.000000*%
%ADD61R,1.200000X1.000000*%
%ADD62R,2.800000X1.000000*%
%ADD63R,1.900000X1.300000*%
%ADD64R,0.355600X0.355600*%
%ADD65R,0.812800X0.254000*%
%ADD66R,0.254000X0.812800*%
%ADD67R,1.701800X1.701800*%
G04 APERTURE END LIST*
D10*
%TO.C,C30*%
X136930000Y-118110000D03*
X137890000Y-118110000D03*
%TD*%
D11*
%TO.C,C18*%
X100571600Y-71831200D03*
X99021600Y-71831200D03*
%TD*%
D12*
%TO.C,J1*%
X130600000Y-126230000D03*
X131100000Y-126230000D03*
X131600000Y-126230000D03*
X132100000Y-126230000D03*
X132600000Y-126230000D03*
X133100000Y-126230000D03*
X133600000Y-126230000D03*
X134100000Y-126230000D03*
X134600000Y-126230000D03*
X135100000Y-126230000D03*
X135600000Y-126230000D03*
X136100000Y-126230000D03*
D13*
X136150000Y-127340000D03*
X135750000Y-128240000D03*
X134950000Y-128240000D03*
X134550000Y-127340000D03*
X134150000Y-128240000D03*
X133750000Y-127340000D03*
X132950000Y-127340000D03*
X132550000Y-128240000D03*
X132150000Y-127340000D03*
X131750000Y-128240000D03*
X130950000Y-128240000D03*
X130550000Y-127340000D03*
D14*
X128775000Y-131400000D03*
D15*
X128960000Y-128490000D03*
D16*
X129055000Y-126510000D03*
D17*
X129975000Y-125445000D03*
X136725000Y-125445000D03*
D16*
X137645000Y-126510000D03*
D15*
X137740000Y-128490000D03*
D14*
X137925000Y-131400000D03*
%TD*%
D18*
%TO.C,D5*%
X116559600Y-86817200D03*
X113259600Y-86817200D03*
%TD*%
D10*
%TO.C,C28*%
X130965000Y-121920000D03*
X131925000Y-121920000D03*
%TD*%
D19*
%TO.C,C27*%
X110810000Y-72390000D03*
X112710000Y-72390000D03*
%TD*%
D20*
%TO.C,C15*%
X112395000Y-58900000D03*
X112395000Y-57940000D03*
%TD*%
%TO.C,C3*%
X123190000Y-95730000D03*
X123190000Y-94770000D03*
%TD*%
D19*
%TO.C,C23*%
X106339600Y-133400800D03*
X108239600Y-133400800D03*
%TD*%
D21*
%TO.C,R14*%
X135255000Y-123535000D03*
X135255000Y-122845000D03*
%TD*%
D22*
%TO.C,U4*%
X120415000Y-105880000D03*
D23*
X120415000Y-106280000D03*
X120415000Y-106680000D03*
X120415000Y-107080000D03*
D24*
X120415000Y-107480000D03*
D25*
X121002500Y-108067500D03*
D26*
X121402500Y-108067500D03*
X121802500Y-108067500D03*
X122202500Y-108067500D03*
D27*
X122602500Y-108067500D03*
D28*
X123190000Y-107480000D03*
D23*
X123190000Y-107080000D03*
X123190000Y-106680000D03*
X123190000Y-106280000D03*
D29*
X123190000Y-105880000D03*
D30*
X122602500Y-105292500D03*
D26*
X122202500Y-105292500D03*
X121802500Y-105292500D03*
X121402500Y-105292500D03*
D31*
X121002500Y-105292500D03*
%TD*%
D21*
%TO.C,R13*%
X127000000Y-134330000D03*
X127000000Y-133640000D03*
%TD*%
D32*
%TO.C,BT1*%
X132985000Y-76525000D03*
X134985000Y-76525000D03*
D33*
X130635000Y-82275000D03*
X137335000Y-82275000D03*
%TD*%
D10*
%TO.C,C22*%
X119611200Y-57658000D03*
X120571200Y-57658000D03*
%TD*%
D34*
%TO.C,R16*%
X107661400Y-93124200D03*
X108681400Y-93124200D03*
%TD*%
D35*
%TO.C,C19*%
X102730000Y-69215000D03*
X104280000Y-69215000D03*
%TD*%
D10*
%TO.C,C10*%
X99037200Y-76022200D03*
X99997200Y-76022200D03*
%TD*%
D21*
%TO.C,R4*%
X124460000Y-69560000D03*
X124460000Y-68870000D03*
%TD*%
%TO.C,R15*%
X137160000Y-123535000D03*
X137160000Y-122845000D03*
%TD*%
D36*
%TO.C,D2*%
X100126800Y-93878600D03*
X100126800Y-92303600D03*
%TD*%
D37*
%TO.C,C31*%
X137894000Y-121640600D03*
X136934000Y-121640600D03*
%TD*%
D38*
%TO.C,U3*%
X106580000Y-130880000D03*
X107850000Y-130880000D03*
X109120000Y-130880000D03*
X110390000Y-130880000D03*
X111660000Y-130880000D03*
X112930000Y-130880000D03*
X114200000Y-130880000D03*
X115470000Y-130880000D03*
X116740000Y-130880000D03*
X118010000Y-130880000D03*
X119280000Y-130880000D03*
X120550000Y-130880000D03*
X121820000Y-130880000D03*
X123090000Y-130880000D03*
D39*
X124340000Y-127840000D03*
X124340000Y-126570000D03*
X124340000Y-125300000D03*
X124340000Y-124030000D03*
X124340000Y-122760000D03*
X124340000Y-121490000D03*
X124340000Y-120220000D03*
X124340000Y-118950000D03*
X124340000Y-117680000D03*
X124340000Y-116410000D03*
D38*
X123090000Y-113380000D03*
X121820000Y-113380000D03*
X120550000Y-113380000D03*
X119280000Y-113380000D03*
X118010000Y-113380000D03*
X116740000Y-113380000D03*
X115470000Y-113380000D03*
X114200000Y-113380000D03*
X112930000Y-113380000D03*
X111660000Y-113380000D03*
X110390000Y-113380000D03*
X109120000Y-113380000D03*
X107850000Y-113380000D03*
X106580000Y-113380000D03*
D40*
X112395000Y-124335000D03*
X113920000Y-124335000D03*
X115445000Y-124335000D03*
X112395000Y-122810000D03*
X113920000Y-122810000D03*
X115445000Y-122810000D03*
X112395000Y-121285000D03*
X113920000Y-121285000D03*
X115445000Y-121285000D03*
%TD*%
D41*
%TO.C,L1*%
X110053900Y-90754200D03*
X107928900Y-90754200D03*
%TD*%
D42*
%TO.C,C16*%
X112725200Y-52453600D03*
X112725200Y-53413600D03*
%TD*%
D11*
%TO.C,C17*%
X101422800Y-73660000D03*
X99872800Y-73660000D03*
%TD*%
D43*
%TO.C,J2*%
X136525000Y-91140000D03*
X136525000Y-92140000D03*
X136525000Y-93140000D03*
X136525000Y-94140000D03*
X136525000Y-95140000D03*
X136525000Y-96140000D03*
X136525000Y-97140000D03*
X136525000Y-98140000D03*
X136525000Y-99140000D03*
X136525000Y-100140000D03*
X136525000Y-101140000D03*
X136525000Y-102140000D03*
X136525000Y-103140000D03*
X136525000Y-104140000D03*
X136525000Y-105140000D03*
X136525000Y-106140000D03*
X136525000Y-107140000D03*
X136525000Y-108140000D03*
D44*
X133725000Y-88150000D03*
X133725000Y-111130000D03*
%TD*%
D45*
%TO.C,C4*%
X125730000Y-96200000D03*
X125730000Y-94300000D03*
%TD*%
D18*
%TO.C,D3*%
X116534200Y-89687400D03*
X113234200Y-89687400D03*
%TD*%
D46*
%TO.C,R3*%
X119670000Y-101600000D03*
X120360000Y-101600000D03*
%TD*%
D37*
%TO.C,C14*%
X116050000Y-73660000D03*
X115090000Y-73660000D03*
%TD*%
D47*
%TO.C,U2*%
X114960000Y-92950000D03*
X114960000Y-95250000D03*
D48*
X121260000Y-95250000D03*
D47*
X114960000Y-97550000D03*
%TD*%
D10*
%TO.C,C21*%
X112550000Y-74295000D03*
X113510000Y-74295000D03*
%TD*%
D46*
%TO.C,R6*%
X120305000Y-109220000D03*
X120995000Y-109220000D03*
%TD*%
D10*
%TO.C,C1*%
X113820000Y-108585000D03*
X114780000Y-108585000D03*
%TD*%
%TO.C,C29*%
X136680000Y-116840000D03*
X137640000Y-116840000D03*
%TD*%
D49*
%TO.C,C25*%
X100076000Y-78638400D03*
X100076000Y-80538400D03*
%TD*%
D50*
%TO.C,FB1*%
X114694200Y-65303400D03*
X116344200Y-65303400D03*
%TD*%
D51*
%TO.C,J4*%
X108585000Y-52705000D03*
X101185000Y-50705000D03*
D52*
X101185000Y-60105000D03*
%TD*%
D36*
%TO.C,D1*%
X100126800Y-86004500D03*
X100126800Y-84429500D03*
%TD*%
D53*
%TO.C,R9*%
X114645000Y-58420000D03*
X113955000Y-58420000D03*
%TD*%
D34*
%TO.C,R17*%
X107661400Y-95114200D03*
X108681400Y-95114200D03*
%TD*%
D53*
%TO.C,R11*%
X120040000Y-63500000D03*
X119350000Y-63500000D03*
%TD*%
%TO.C,R10*%
X115280000Y-52705000D03*
X114590000Y-52705000D03*
%TD*%
D54*
%TO.C,R12*%
X125385000Y-133640000D03*
X125385000Y-134330000D03*
%TD*%
D46*
%TO.C,R1*%
X108382200Y-102895400D03*
X109072200Y-102895400D03*
%TD*%
D42*
%TO.C,C2*%
X124210000Y-99060000D03*
X124210000Y-100020000D03*
%TD*%
D37*
%TO.C,C5*%
X123355000Y-69215000D03*
X122395000Y-69215000D03*
%TD*%
%TO.C,C8*%
X117320000Y-107315000D03*
X116360000Y-107315000D03*
%TD*%
D55*
%TO.C,U7*%
X108082500Y-86335700D03*
X108082500Y-87285700D03*
X108082500Y-88235700D03*
X110357500Y-88235700D03*
X110357500Y-87285700D03*
X110357500Y-86335700D03*
%TD*%
D46*
%TO.C,R8*%
X108560000Y-110835000D03*
X109250000Y-110835000D03*
%TD*%
D19*
%TO.C,C26*%
X114620000Y-71755000D03*
X116520000Y-71755000D03*
%TD*%
D46*
%TO.C,R7*%
X112050000Y-109855000D03*
X112740000Y-109855000D03*
%TD*%
D10*
%TO.C,C11*%
X110581400Y-95084200D03*
X111541400Y-95084200D03*
%TD*%
D56*
%TO.C,U1*%
X114270000Y-102680000D03*
X114270000Y-104330000D03*
X115470000Y-102680000D03*
X115470000Y-104330000D03*
D57*
X112395000Y-101600000D03*
X112395000Y-102870000D03*
X112395000Y-104140000D03*
X112395000Y-105410000D03*
X117345000Y-105410000D03*
X117345000Y-104140000D03*
X117345000Y-102870000D03*
X117345000Y-101600000D03*
%TD*%
D20*
%TO.C,C6*%
X117983000Y-80921800D03*
X117983000Y-79961800D03*
%TD*%
D58*
%TO.C,U5*%
X103182500Y-70735000D03*
X103182500Y-71385000D03*
X103182500Y-72035000D03*
X103182500Y-72685000D03*
X103182500Y-73335000D03*
X103182500Y-73985000D03*
X103182500Y-74635000D03*
X103182500Y-75285000D03*
X103182500Y-75935000D03*
X103182500Y-76585000D03*
X108907500Y-76585000D03*
X108907500Y-75935000D03*
X108907500Y-75285000D03*
X108907500Y-74635000D03*
X108907500Y-73985000D03*
X108907500Y-73335000D03*
X108907500Y-72685000D03*
X108907500Y-72035000D03*
X108907500Y-71385000D03*
X108907500Y-70735000D03*
%TD*%
D10*
%TO.C,C7*%
X121617800Y-101854000D03*
X122577800Y-101854000D03*
%TD*%
D59*
%TO.C,J5*%
X122450000Y-56915000D03*
X122450000Y-58015000D03*
X122450000Y-59115000D03*
X122450000Y-60215000D03*
X122450000Y-61315000D03*
X122450000Y-62415000D03*
X122450000Y-63515000D03*
X122450000Y-64615000D03*
X122450000Y-65565000D03*
D60*
X132950000Y-66515000D03*
D61*
X126750000Y-66515000D03*
D62*
X137100000Y-66515000D03*
D61*
X122450000Y-55365000D03*
D63*
X137550000Y-53015000D03*
%TD*%
D46*
%TO.C,R5*%
X115515000Y-80645000D03*
X116205000Y-80645000D03*
%TD*%
D64*
%TO.C,U6*%
X133119937Y-118256939D03*
D65*
X132972937Y-118756811D03*
X132972937Y-119256937D03*
X132972937Y-119757063D03*
X132972937Y-120257189D03*
D64*
X133119937Y-120757061D03*
D66*
X133619748Y-120904000D03*
X134119874Y-120904000D03*
X134620000Y-120904000D03*
X135120126Y-120904000D03*
D64*
X135619937Y-120757061D03*
D65*
X135766937Y-120257189D03*
X135766937Y-119757063D03*
X135766937Y-119256937D03*
X135766937Y-118756811D03*
D64*
X135619937Y-118256939D03*
D66*
X135120126Y-118110000D03*
X134620000Y-118110000D03*
X134119874Y-118110000D03*
X133619748Y-118110000D03*
D67*
X134369937Y-119507000D03*
%TD*%
D46*
%TO.C,R2*%
X119695000Y-102870000D03*
X120385000Y-102870000D03*
%TD*%
D10*
%TO.C,C9*%
X110581400Y-93114200D03*
X111541400Y-93114200D03*
%TD*%
D18*
%TO.C,D4*%
X116559600Y-83467200D03*
X113259600Y-83467200D03*
%TD*%
M02*
