%TF.GenerationSoftware,KiCad,Pcbnew,10.0.1*%
%TF.CreationDate,2026-07-02T11:13:02-06:00*%
%TF.ProjectId,aeropod2,6165726f-706f-4643-922e-6b696361645f,rev?*%
%TF.SameCoordinates,Original*%
%TF.FileFunction,Copper,L2,Inr*%
%TF.FilePolarity,Positive*%
%FSLAX46Y46*%
G04 Gerber Fmt 4.6, Leading zero omitted, Abs format (unit mm)*
G04 Created by KiCad (PCBNEW 10.0.1) date 2026-07-02 11:13:02*
%MOMM*%
%LPD*%
G01*
G04 APERTURE LIST*
%TA.AperFunction,ComponentPad*%
%ADD10C,0.650000*%
%TD*%
%TA.AperFunction,ComponentPad*%
%ADD11O,0.950000X2.280000*%
%TD*%
%TA.AperFunction,ComponentPad*%
%ADD12O,1.330000X1.980000*%
%TD*%
%TA.AperFunction,ComponentPad*%
%ADD13O,0.950000X1.800000*%
%TD*%
%TA.AperFunction,ComponentPad*%
%ADD14R,1.600000X1.600000*%
%TD*%
%TA.AperFunction,ComponentPad*%
%ADD15C,1.600000*%
%TD*%
%TA.AperFunction,HeatsinkPad*%
%ADD16C,0.600000*%
%TD*%
%TA.AperFunction,ComponentPad*%
%ADD17R,1.700000X1.700000*%
%TD*%
%TA.AperFunction,ComponentPad*%
%ADD18C,1.700000*%
%TD*%
%TA.AperFunction,HeatsinkPad*%
%ADD19C,0.500000*%
%TD*%
%TA.AperFunction,ViaPad*%
%ADD20C,0.600000*%
%TD*%
%TA.AperFunction,ViaPad*%
%ADD21C,0.300000*%
%TD*%
G04 APERTURE END LIST*
D10*
%TO.N,GND*%
%TO.C,J1*%
X136150000Y-127340000D03*
%TO.N,N/C*%
X135750000Y-128240000D03*
X134950000Y-128240000D03*
%TO.N,VBUS*%
X134550000Y-127340000D03*
%TO.N,Net-(J1-CC2)*%
X134150000Y-128240000D03*
%TO.N,D+*%
X133750000Y-127340000D03*
%TO.N,D-*%
X132950000Y-127340000D03*
%TO.N,N/C*%
X132550000Y-128240000D03*
%TO.N,VBUS*%
X132150000Y-127340000D03*
%TO.N,N/C*%
X131750000Y-128240000D03*
X130950000Y-128240000D03*
%TO.N,GND*%
X130550000Y-127340000D03*
D11*
X128775000Y-131400000D03*
D12*
X128960000Y-128490000D03*
D13*
X129055000Y-126510000D03*
X137645000Y-126510000D03*
D12*
X137740000Y-128490000D03*
D11*
X137925000Y-131400000D03*
%TD*%
D14*
%TO.N,Net-(SW2-A)*%
%TO.C,SW2*%
X122052500Y-77140000D03*
D15*
%TO.N,Net-(SW2-B)*%
X124552500Y-77140000D03*
%TO.N,GND*%
X127052500Y-77140000D03*
%TO.N,N/C*%
X122052500Y-80340000D03*
X124552500Y-80340000D03*
X127052500Y-80340000D03*
%TD*%
D14*
%TO.N,Net-(SW1-A)*%
%TO.C,SW1*%
X129620000Y-69190000D03*
D15*
%TO.N,Net-(SW1-B)*%
X132120000Y-69190000D03*
%TO.N,GND*%
X134620000Y-69190000D03*
%TO.N,N/C*%
X129620000Y-72390000D03*
X132120000Y-72390000D03*
X134620000Y-72390000D03*
%TD*%
D16*
%TO.N,GND*%
%TO.C,U3*%
X113157500Y-124335000D03*
X114682500Y-124335000D03*
X112395000Y-123572500D03*
X113920000Y-123572500D03*
X115445000Y-123572500D03*
X113157500Y-122810000D03*
X114682500Y-122810000D03*
X112395000Y-122047500D03*
X113920000Y-122047500D03*
X115445000Y-122047500D03*
X113157500Y-121285000D03*
X114682500Y-121285000D03*
%TD*%
D17*
%TO.N,GND*%
%TO.C,J6*%
X114249200Y-46761400D03*
D18*
%TO.N,+3.3V*%
X116789200Y-46761400D03*
%TO.N,SCK{slash}CLK*%
X119329200Y-46761400D03*
%TO.N,MOSI{slash}SDA*%
X121869200Y-46761400D03*
%TO.N,RST_DISP*%
X124409200Y-46761400D03*
%TO.N,DC*%
X126949200Y-46761400D03*
%TO.N,CS_DISP*%
X129489200Y-46761400D03*
%TD*%
D19*
%TO.N,GND*%
%TO.C,U1*%
X114170000Y-102305000D03*
X114170000Y-103505000D03*
X114170000Y-104705000D03*
X115570000Y-102305000D03*
X115570000Y-103505000D03*
X115570000Y-104705000D03*
%TD*%
D20*
%TO.N,Net-(SW2-B)*%
X138265000Y-106680000D03*
X124155200Y-113868200D03*
X132608235Y-114406765D03*
%TO.N,GND*%
X110236000Y-71265000D03*
X112776000Y-108737400D03*
X121285000Y-69215000D03*
X136525000Y-109372400D03*
X130886200Y-122859800D03*
X136956800Y-120541803D03*
X124307600Y-96291400D03*
X108940600Y-77647800D03*
X136245600Y-76530200D03*
X126136400Y-134455000D03*
X116125400Y-107772424D03*
X106502200Y-87285700D03*
X113439800Y-73482200D03*
X117983000Y-78968600D03*
X107772200Y-79578200D03*
X107721400Y-73761600D03*
X108407200Y-104038400D03*
X115981765Y-91287600D03*
X106580000Y-113380000D03*
X129946400Y-124536200D03*
X137896600Y-123596400D03*
X134369937Y-119507000D03*
X110591600Y-101600000D03*
X123850400Y-53314600D03*
X125984000Y-127840000D03*
X137550000Y-50901600D03*
X119964200Y-108356400D03*
X116560600Y-73025000D03*
X110566200Y-94132400D03*
X106553000Y-132181600D03*
X123164600Y-100939600D03*
%TO.N,VBUS*%
X113741200Y-101000000D03*
X112826800Y-98070000D03*
D21*
%TO.N,Net-(J1-CC1)*%
X129888500Y-129108200D03*
X132588000Y-126796800D03*
%TO.N,D+*%
X132080000Y-125095000D03*
X132219700Y-119875300D03*
%TO.N,D-*%
X132223405Y-120514005D03*
X133096000Y-125476000D03*
D20*
%TO.N,+3.3V*%
X114706400Y-63982600D03*
X119326482Y-58373118D03*
X115090000Y-74599800D03*
D21*
X120929400Y-104825800D03*
D20*
X132791200Y-121920000D03*
X119910000Y-62611000D03*
D21*
X132613400Y-120904000D03*
D20*
X108585000Y-111607600D03*
X136956800Y-119811800D03*
X136347200Y-122340000D03*
X127304800Y-94300000D03*
X121386600Y-100736400D03*
X124460000Y-70434200D03*
X121793000Y-102692200D03*
X115544600Y-81610200D03*
X112064800Y-110667800D03*
X109575600Y-134455000D03*
%TO.N,IRQ*%
X122760990Y-112011210D03*
X124413154Y-111208317D03*
%TO.N,I2C SCL*%
X115041765Y-107208235D03*
X113334800Y-107739264D03*
%TO.N,I2C SDA*%
X115463235Y-109326766D03*
X116311765Y-108478235D03*
%TO.N,Net-(U4-VREG)*%
X118003235Y-107208235D03*
X118245000Y-109194600D03*
D21*
%TO.N,Net-(J2-Pin_1)*%
X121786190Y-109229695D03*
D20*
X125959032Y-106180712D03*
%TO.N,Net-(J2-Pin_2)*%
X126522532Y-105410000D03*
D21*
X122216000Y-108974224D03*
D20*
%TO.N,Net-(J2-Pin_3)*%
X134670800Y-93140000D03*
X133350000Y-105740000D03*
X124379045Y-110409045D03*
X125730000Y-109855000D03*
X130810000Y-107315000D03*
X127635000Y-109855000D03*
D21*
%TO.N,Net-(J2-Pin_4)*%
X124582032Y-105777723D03*
D20*
X126888791Y-104698763D03*
%TO.N,Net-(J2-Pin_5)*%
X127452291Y-103914150D03*
D21*
X124424548Y-105303169D03*
%TO.N,Net-(J2-Pin_6)*%
X122380551Y-107181042D03*
D20*
X128270000Y-103505000D03*
%TO.N,Net-(J2-Pin_7)*%
X128905000Y-102870000D03*
D21*
X121886228Y-107256187D03*
%TO.N,Net-(J2-Pin_8)*%
X123799600Y-105460800D03*
D20*
X130810000Y-102540000D03*
%TO.N,Net-(J2-Pin_9)*%
X131619182Y-102540000D03*
D21*
X123075163Y-104025163D03*
D20*
%TO.N,Net-(J2-Pin_10)*%
X132419185Y-102540000D03*
D21*
X123180722Y-103382241D03*
%TO.N,Net-(J2-Pin_11)*%
X121789000Y-104282000D03*
D20*
X133219188Y-102540000D03*
D21*
%TO.N,Net-(J2-Pin_12)*%
X121285000Y-104282000D03*
D20*
X134019191Y-102540000D03*
%TO.N,Net-(U5-AVDD)*%
X101549200Y-70755000D03*
X106121200Y-74015600D03*
X108610400Y-69748400D03*
%TO.N,Net-(SW1-B)*%
X113030000Y-78740000D03*
X110684400Y-132444400D03*
X132715000Y-116205000D03*
%TO.N,B5*%
X138219265Y-113240735D03*
X115112800Y-132867400D03*
%TO.N,RST_DISP*%
X117615000Y-52755800D03*
X113125133Y-77895333D03*
X105584144Y-99292256D03*
%TO.N,LRCK*%
X117475000Y-129699998D03*
X111760000Y-81915000D03*
%TO.N,BCLK*%
X118618000Y-128778000D03*
X110490000Y-80645000D03*
%TO.N,DIN*%
X111125000Y-81280000D03*
X120650000Y-130810000D03*
%TO.N,B2*%
X121820000Y-124146470D03*
X127096813Y-107358970D03*
%TO.N,XSMT*%
X124231400Y-130886200D03*
X112395000Y-82550000D03*
%TO.N,B1*%
X117581765Y-119908235D03*
X126511858Y-106758970D03*
%TO.N,CS_DISP*%
X116205000Y-117551200D03*
X117592108Y-111955483D03*
X119684800Y-110947200D03*
%TO.N,DC*%
X115036600Y-116357400D03*
X115570000Y-110058200D03*
X114223800Y-111785400D03*
%TO.N,B3*%
X127662500Y-107958970D03*
X121968800Y-111961200D03*
%TO.N,B4*%
X130501765Y-110798235D03*
X119354600Y-114935000D03*
%TO.N,CS*%
X118638235Y-111653235D03*
X120650000Y-56915000D03*
%TO.N,SCK{slash}CLK*%
X116840000Y-111760000D03*
%TO.N,MOSI{slash}SDA*%
X116205000Y-111125000D03*
X120015000Y-66675000D03*
%TO.N,RXD*%
X128905000Y-121285000D03*
D21*
X111660000Y-113380000D03*
X132260000Y-117473605D03*
D20*
X112501765Y-116733235D03*
%TO.N,TXD*%
X111125000Y-117475000D03*
D21*
X132260000Y-118110000D03*
D20*
X129710000Y-121285000D03*
D21*
X110390000Y-113380000D03*
D20*
%TO.N,DI*%
X120497600Y-110385000D03*
X120650000Y-58420000D03*
%TO.N,Net-(D1-A)*%
X101836861Y-85592500D03*
X107089950Y-99200000D03*
%TO.N,Net-(U5-OUTL)*%
X114455600Y-59664600D03*
D21*
X104952800Y-72999600D03*
%TD*%
%TA.AperFunction,Conductor*%
%TO.N,GND*%
G36*
X113037332Y-45605185D02*
G01*
X113083087Y-45657989D01*
X113093031Y-45727147D01*
X113081693Y-45763961D01*
X113059111Y-45810151D01*
X113049200Y-45878180D01*
X113049200Y-46511400D01*
X113816188Y-46511400D01*
X113783275Y-46568407D01*
X113749200Y-46695574D01*
X113749200Y-46827226D01*
X113783275Y-46954393D01*
X113816188Y-47011400D01*
X113049201Y-47011400D01*
X113049201Y-47644617D01*
X113059112Y-47712649D01*
X113110415Y-47817591D01*
X113193011Y-47900187D01*
X113297948Y-47951487D01*
X113297951Y-47951488D01*
X113365980Y-47961399D01*
X113999199Y-47961399D01*
X113999200Y-47961398D01*
X113999200Y-47194412D01*
X114056207Y-47227325D01*
X114183374Y-47261400D01*
X114315026Y-47261400D01*
X114442193Y-47227325D01*
X114499200Y-47194412D01*
X114499200Y-47961399D01*
X115132418Y-47961399D01*
X115200449Y-47951487D01*
X115305391Y-47900184D01*
X115387987Y-47817588D01*
X115439287Y-47712651D01*
X115439288Y-47712648D01*
X115449200Y-47644619D01*
X115449200Y-47011400D01*
X114682212Y-47011400D01*
X114715125Y-46954393D01*
X114749200Y-46827226D01*
X114749200Y-46695574D01*
X114715125Y-46568407D01*
X114682212Y-46511400D01*
X115449199Y-46511400D01*
X115449199Y-45878182D01*
X115439287Y-45810150D01*
X115416706Y-45763960D01*
X115404947Y-45695087D01*
X115432291Y-45630790D01*
X115490055Y-45591483D01*
X115528107Y-45585500D01*
X116259595Y-45585500D01*
X116326634Y-45605185D01*
X116372389Y-45657989D01*
X116382333Y-45727147D01*
X116353308Y-45790703D01*
X116307047Y-45824061D01*
X116291605Y-45830457D01*
X116119542Y-45945424D01*
X115973224Y-46091742D01*
X115858258Y-46263803D01*
X115779070Y-46454979D01*
X115779068Y-46454987D01*
X115738700Y-46657930D01*
X115738700Y-46864869D01*
X115779068Y-47067812D01*
X115779070Y-47067820D01*
X115858258Y-47258996D01*
X115973224Y-47431057D01*
X116119542Y-47577375D01*
X116119545Y-47577377D01*
X116291602Y-47692341D01*
X116482780Y-47771530D01*
X116685730Y-47811899D01*
X116685734Y-47811900D01*
X116685735Y-47811900D01*
X116892666Y-47811900D01*
X116892667Y-47811899D01*
X117095620Y-47771530D01*
X117286798Y-47692341D01*
X117458855Y-47577377D01*
X117605177Y-47431055D01*
X117720141Y-47258998D01*
X117799330Y-47067820D01*
X117839700Y-46864865D01*
X117839700Y-46657935D01*
X117799330Y-46454980D01*
X117720141Y-46263802D01*
X117605177Y-46091745D01*
X117605175Y-46091742D01*
X117458857Y-45945424D01*
X117358218Y-45878180D01*
X117286798Y-45830459D01*
X117286795Y-45830457D01*
X117286794Y-45830457D01*
X117271353Y-45824061D01*
X117216949Y-45780221D01*
X117194884Y-45713927D01*
X117212163Y-45646227D01*
X117263300Y-45598616D01*
X117318805Y-45585500D01*
X118799595Y-45585500D01*
X118866634Y-45605185D01*
X118912389Y-45657989D01*
X118922333Y-45727147D01*
X118893308Y-45790703D01*
X118847047Y-45824061D01*
X118831605Y-45830457D01*
X118659542Y-45945424D01*
X118513224Y-46091742D01*
X118398258Y-46263803D01*
X118319070Y-46454979D01*
X118319068Y-46454987D01*
X118278700Y-46657930D01*
X118278700Y-46864869D01*
X118319068Y-47067812D01*
X118319070Y-47067820D01*
X118398258Y-47258996D01*
X118513224Y-47431057D01*
X118659542Y-47577375D01*
X118659545Y-47577377D01*
X118831602Y-47692341D01*
X119022780Y-47771530D01*
X119225730Y-47811899D01*
X119225734Y-47811900D01*
X119225735Y-47811900D01*
X119432666Y-47811900D01*
X119432667Y-47811899D01*
X119635620Y-47771530D01*
X119826798Y-47692341D01*
X119998855Y-47577377D01*
X120145177Y-47431055D01*
X120260141Y-47258998D01*
X120339330Y-47067820D01*
X120379700Y-46864865D01*
X120379700Y-46657935D01*
X120339330Y-46454980D01*
X120260141Y-46263802D01*
X120145177Y-46091745D01*
X120145175Y-46091742D01*
X119998857Y-45945424D01*
X119898218Y-45878180D01*
X119826798Y-45830459D01*
X119826795Y-45830457D01*
X119826794Y-45830457D01*
X119811353Y-45824061D01*
X119756949Y-45780221D01*
X119734884Y-45713927D01*
X119752163Y-45646227D01*
X119803300Y-45598616D01*
X119858805Y-45585500D01*
X121339595Y-45585500D01*
X121406634Y-45605185D01*
X121452389Y-45657989D01*
X121462333Y-45727147D01*
X121433308Y-45790703D01*
X121387047Y-45824061D01*
X121371605Y-45830457D01*
X121199542Y-45945424D01*
X121053224Y-46091742D01*
X120938258Y-46263803D01*
X120859070Y-46454979D01*
X120859068Y-46454987D01*
X120818700Y-46657930D01*
X120818700Y-46864869D01*
X120859068Y-47067812D01*
X120859070Y-47067820D01*
X120938258Y-47258996D01*
X121053224Y-47431057D01*
X121199542Y-47577375D01*
X121199545Y-47577377D01*
X121371602Y-47692341D01*
X121562780Y-47771530D01*
X121765730Y-47811899D01*
X121765734Y-47811900D01*
X121765735Y-47811900D01*
X121972666Y-47811900D01*
X121972667Y-47811899D01*
X122175620Y-47771530D01*
X122366798Y-47692341D01*
X122538855Y-47577377D01*
X122685177Y-47431055D01*
X122800141Y-47258998D01*
X122879330Y-47067820D01*
X122919700Y-46864865D01*
X122919700Y-46657935D01*
X122879330Y-46454980D01*
X122800141Y-46263802D01*
X122685177Y-46091745D01*
X122685175Y-46091742D01*
X122538857Y-45945424D01*
X122438218Y-45878180D01*
X122366798Y-45830459D01*
X122366795Y-45830457D01*
X122366794Y-45830457D01*
X122351353Y-45824061D01*
X122296949Y-45780221D01*
X122274884Y-45713927D01*
X122292163Y-45646227D01*
X122343300Y-45598616D01*
X122398805Y-45585500D01*
X123879595Y-45585500D01*
X123946634Y-45605185D01*
X123992389Y-45657989D01*
X124002333Y-45727147D01*
X123973308Y-45790703D01*
X123927047Y-45824061D01*
X123911605Y-45830457D01*
X123739542Y-45945424D01*
X123593224Y-46091742D01*
X123478258Y-46263803D01*
X123399070Y-46454979D01*
X123399068Y-46454987D01*
X123358700Y-46657930D01*
X123358700Y-46864869D01*
X123399068Y-47067812D01*
X123399070Y-47067820D01*
X123478258Y-47258996D01*
X123593224Y-47431057D01*
X123739542Y-47577375D01*
X123739545Y-47577377D01*
X123911602Y-47692341D01*
X124102780Y-47771530D01*
X124305730Y-47811899D01*
X124305734Y-47811900D01*
X124305735Y-47811900D01*
X124512666Y-47811900D01*
X124512667Y-47811899D01*
X124715620Y-47771530D01*
X124906798Y-47692341D01*
X125078855Y-47577377D01*
X125225177Y-47431055D01*
X125340141Y-47258998D01*
X125419330Y-47067820D01*
X125459700Y-46864865D01*
X125459700Y-46657935D01*
X125419330Y-46454980D01*
X125340141Y-46263802D01*
X125225177Y-46091745D01*
X125225175Y-46091742D01*
X125078857Y-45945424D01*
X124978218Y-45878180D01*
X124906798Y-45830459D01*
X124906795Y-45830457D01*
X124906794Y-45830457D01*
X124891353Y-45824061D01*
X124836949Y-45780221D01*
X124814884Y-45713927D01*
X124832163Y-45646227D01*
X124883300Y-45598616D01*
X124938805Y-45585500D01*
X126419595Y-45585500D01*
X126486634Y-45605185D01*
X126532389Y-45657989D01*
X126542333Y-45727147D01*
X126513308Y-45790703D01*
X126467047Y-45824061D01*
X126451605Y-45830457D01*
X126279542Y-45945424D01*
X126133224Y-46091742D01*
X126018258Y-46263803D01*
X125939070Y-46454979D01*
X125939068Y-46454987D01*
X125898700Y-46657930D01*
X125898700Y-46864869D01*
X125939068Y-47067812D01*
X125939070Y-47067820D01*
X126018258Y-47258996D01*
X126133224Y-47431057D01*
X126279542Y-47577375D01*
X126279545Y-47577377D01*
X126451602Y-47692341D01*
X126642780Y-47771530D01*
X126845730Y-47811899D01*
X126845734Y-47811900D01*
X126845735Y-47811900D01*
X127052666Y-47811900D01*
X127052667Y-47811899D01*
X127255620Y-47771530D01*
X127446798Y-47692341D01*
X127618855Y-47577377D01*
X127765177Y-47431055D01*
X127880141Y-47258998D01*
X127959330Y-47067820D01*
X127999700Y-46864865D01*
X127999700Y-46657935D01*
X127959330Y-46454980D01*
X127880141Y-46263802D01*
X127765177Y-46091745D01*
X127765175Y-46091742D01*
X127618857Y-45945424D01*
X127518218Y-45878180D01*
X127446798Y-45830459D01*
X127446795Y-45830457D01*
X127446794Y-45830457D01*
X127431353Y-45824061D01*
X127376949Y-45780221D01*
X127354884Y-45713927D01*
X127372163Y-45646227D01*
X127423300Y-45598616D01*
X127478805Y-45585500D01*
X128959595Y-45585500D01*
X129026634Y-45605185D01*
X129072389Y-45657989D01*
X129082333Y-45727147D01*
X129053308Y-45790703D01*
X129007047Y-45824061D01*
X128991605Y-45830457D01*
X128819542Y-45945424D01*
X128673224Y-46091742D01*
X128558258Y-46263803D01*
X128479070Y-46454979D01*
X128479068Y-46454987D01*
X128438700Y-46657930D01*
X128438700Y-46864869D01*
X128479068Y-47067812D01*
X128479070Y-47067820D01*
X128558258Y-47258996D01*
X128673224Y-47431057D01*
X128819542Y-47577375D01*
X128819545Y-47577377D01*
X128991602Y-47692341D01*
X129182780Y-47771530D01*
X129385730Y-47811899D01*
X129385734Y-47811900D01*
X129385735Y-47811900D01*
X129592666Y-47811900D01*
X129592667Y-47811899D01*
X129795620Y-47771530D01*
X129986798Y-47692341D01*
X130158855Y-47577377D01*
X130305177Y-47431055D01*
X130420141Y-47258998D01*
X130499330Y-47067820D01*
X130539700Y-46864865D01*
X130539700Y-46657935D01*
X130499330Y-46454980D01*
X130420141Y-46263802D01*
X130305177Y-46091745D01*
X130305175Y-46091742D01*
X130158857Y-45945424D01*
X130058218Y-45878180D01*
X129986798Y-45830459D01*
X129986795Y-45830457D01*
X129986794Y-45830457D01*
X129971353Y-45824061D01*
X129916949Y-45780221D01*
X129894884Y-45713927D01*
X129912163Y-45646227D01*
X129963300Y-45598616D01*
X130018805Y-45585500D01*
X138440500Y-45585500D01*
X138507539Y-45605185D01*
X138553294Y-45657989D01*
X138564500Y-45709500D01*
X138564500Y-53851000D01*
X138544815Y-53918039D01*
X138492011Y-53963794D01*
X138440500Y-53975000D01*
X123190000Y-53975000D01*
X123190000Y-66040000D01*
X138440500Y-66040000D01*
X138507539Y-66059685D01*
X138553294Y-66112489D01*
X138564500Y-66164000D01*
X138564500Y-106080495D01*
X138544815Y-106147534D01*
X138492011Y-106193289D01*
X138422853Y-106203233D01*
X138408407Y-106200270D01*
X138330892Y-106179500D01*
X138199108Y-106179500D01*
X138071812Y-106213608D01*
X137957686Y-106279500D01*
X137957683Y-106279502D01*
X137864502Y-106372683D01*
X137864500Y-106372686D01*
X137798608Y-106486812D01*
X137777449Y-106565782D01*
X137764500Y-106614108D01*
X137764500Y-106745892D01*
X137775242Y-106785981D01*
X137798608Y-106873187D01*
X137822461Y-106914500D01*
X137864500Y-106987314D01*
X137957686Y-107080500D01*
X138071814Y-107146392D01*
X138199108Y-107180500D01*
X138199110Y-107180500D01*
X138330889Y-107180500D01*
X138330892Y-107180500D01*
X138408410Y-107159729D01*
X138478256Y-107161392D01*
X138536118Y-107200554D01*
X138563623Y-107264782D01*
X138564500Y-107279504D01*
X138564500Y-112653484D01*
X138544815Y-112720523D01*
X138492011Y-112766278D01*
X138422853Y-112776222D01*
X138408407Y-112773259D01*
X138332898Y-112753027D01*
X138285157Y-112740235D01*
X138153373Y-112740235D01*
X138026077Y-112774343D01*
X137911951Y-112840235D01*
X137911948Y-112840237D01*
X137818767Y-112933418D01*
X137818765Y-112933421D01*
X137752873Y-113047547D01*
X137738944Y-113099533D01*
X137718765Y-113174843D01*
X137718765Y-113306627D01*
X137735129Y-113367700D01*
X137752873Y-113433922D01*
X137785819Y-113490985D01*
X137818765Y-113548049D01*
X137911951Y-113641235D01*
X138026079Y-113707127D01*
X138153373Y-113741235D01*
X138153375Y-113741235D01*
X138285155Y-113741235D01*
X138285157Y-113741235D01*
X138408408Y-113708210D01*
X138478256Y-113709873D01*
X138536119Y-113749036D01*
X138563623Y-113813264D01*
X138564500Y-113827985D01*
X138564500Y-125567394D01*
X138544815Y-125634433D01*
X138492011Y-125680188D01*
X138422853Y-125690132D01*
X138359297Y-125661107D01*
X138337398Y-125636285D01*
X138285819Y-125559093D01*
X138285816Y-125559089D01*
X138170910Y-125444183D01*
X138170906Y-125444180D01*
X138035781Y-125353892D01*
X137895000Y-125295579D01*
X137895000Y-125969943D01*
X137878134Y-125929225D01*
X137800775Y-125851866D01*
X137699701Y-125810000D01*
X137590299Y-125810000D01*
X137489225Y-125851866D01*
X137411866Y-125929225D01*
X137395000Y-125969943D01*
X137395000Y-125295579D01*
X137394999Y-125295579D01*
X137254218Y-125353892D01*
X137119093Y-125444180D01*
X137119089Y-125444183D01*
X137004183Y-125559089D01*
X137004180Y-125559093D01*
X136913892Y-125694218D01*
X136913891Y-125694220D01*
X136851705Y-125844351D01*
X136851702Y-125844363D01*
X136820000Y-126003740D01*
X136820000Y-126260000D01*
X137370000Y-126260000D01*
X137370000Y-126760000D01*
X136820000Y-126760000D01*
X136820000Y-126871557D01*
X136829439Y-126894345D01*
X136827562Y-126895122D01*
X136841801Y-126921197D01*
X136836817Y-126990889D01*
X136808316Y-127035236D01*
X136414457Y-127429095D01*
X136353134Y-127462580D01*
X136313124Y-127459718D01*
X136319552Y-127453291D01*
X136350000Y-127379782D01*
X136350000Y-127300218D01*
X136319552Y-127226709D01*
X136263291Y-127170448D01*
X136189782Y-127140000D01*
X136110218Y-127140000D01*
X136036709Y-127170448D01*
X135980448Y-127226709D01*
X135950000Y-127300218D01*
X135950000Y-127379782D01*
X135980448Y-127453291D01*
X135988978Y-127461821D01*
X135929889Y-127457596D01*
X135885542Y-127429095D01*
X135529824Y-127073377D01*
X135500940Y-127143109D01*
X135500938Y-127143115D01*
X135475000Y-127273515D01*
X135475000Y-127406484D01*
X135474999Y-127406484D01*
X135500938Y-127536884D01*
X135500940Y-127536890D01*
X135539587Y-127630192D01*
X135543298Y-127664715D01*
X135547137Y-127699209D01*
X135547030Y-127699423D01*
X135547056Y-127699662D01*
X135531537Y-127730662D01*
X135516094Y-127761804D01*
X135515853Y-127761996D01*
X135515781Y-127762141D01*
X135488695Y-127784051D01*
X135487840Y-127784562D01*
X135427335Y-127819495D01*
X135424170Y-127822659D01*
X135413669Y-127828943D01*
X135386493Y-127835986D01*
X135360312Y-127846107D01*
X135353132Y-127844634D01*
X135346034Y-127846474D01*
X135319360Y-127837706D01*
X135291868Y-127832066D01*
X135281044Y-127825110D01*
X135279658Y-127824655D01*
X135278918Y-127823744D01*
X135274517Y-127820916D01*
X135272662Y-127819493D01*
X135152838Y-127750313D01*
X135152837Y-127750312D01*
X135152836Y-127750312D01*
X135107200Y-127738084D01*
X135047541Y-127701720D01*
X135017012Y-127638873D01*
X135025306Y-127569498D01*
X135031908Y-127556311D01*
X135039688Y-127542836D01*
X135075500Y-127409183D01*
X135075500Y-127270817D01*
X135039688Y-127137164D01*
X134979004Y-127032055D01*
X134970507Y-127017338D01*
X134970503Y-127017333D01*
X134872666Y-126919496D01*
X134872661Y-126919492D01*
X134783518Y-126868026D01*
X134752838Y-126850313D01*
X134752837Y-126850312D01*
X134752836Y-126850312D01*
X134619183Y-126814500D01*
X134480817Y-126814500D01*
X134347164Y-126850312D01*
X134347161Y-126850313D01*
X134227337Y-126919493D01*
X134225483Y-126920916D01*
X134223637Y-126921629D01*
X134220297Y-126923558D01*
X134219996Y-126923036D01*
X134160312Y-126946107D01*
X134091868Y-126932066D01*
X134074517Y-126920916D01*
X134072662Y-126919493D01*
X133952838Y-126850313D01*
X133952837Y-126850312D01*
X133952836Y-126850312D01*
X133819183Y-126814500D01*
X133680817Y-126814500D01*
X133547164Y-126850312D01*
X133547161Y-126850313D01*
X133427337Y-126919493D01*
X133425483Y-126920916D01*
X133423637Y-126921629D01*
X133420297Y-126923558D01*
X133419996Y-126923036D01*
X133360312Y-126946107D01*
X133291868Y-126932066D01*
X133274517Y-126920916D01*
X133272662Y-126919493D01*
X133152838Y-126850313D01*
X133152837Y-126850312D01*
X133019840Y-126814676D01*
X132960180Y-126778311D01*
X132932160Y-126726996D01*
X132930238Y-126719824D01*
X135883377Y-126719824D01*
X136150000Y-126986446D01*
X136150001Y-126986446D01*
X136416621Y-126719824D01*
X136346890Y-126690940D01*
X136346884Y-126690938D01*
X136216484Y-126665000D01*
X136083516Y-126665000D01*
X135953115Y-126690938D01*
X135953109Y-126690940D01*
X135883377Y-126719824D01*
X132930238Y-126719824D01*
X132914614Y-126661512D01*
X132914611Y-126661506D01*
X132868473Y-126581594D01*
X132868470Y-126581591D01*
X132868469Y-126581588D01*
X132803212Y-126516331D01*
X132803209Y-126516329D01*
X132803205Y-126516326D01*
X132723293Y-126470188D01*
X132723290Y-126470187D01*
X132723289Y-126470186D01*
X132723288Y-126470186D01*
X132634144Y-126446300D01*
X132541856Y-126446300D01*
X132452712Y-126470186D01*
X132452711Y-126470186D01*
X132452709Y-126470187D01*
X132452706Y-126470188D01*
X132372794Y-126516326D01*
X132372785Y-126516333D01*
X132307533Y-126581585D01*
X132307526Y-126581594D01*
X132261388Y-126661506D01*
X132261387Y-126661509D01*
X132261386Y-126661511D01*
X132261386Y-126661512D01*
X132245018Y-126722594D01*
X132208655Y-126782254D01*
X132145808Y-126812783D01*
X132125245Y-126814500D01*
X132080817Y-126814500D01*
X131947164Y-126850312D01*
X131947161Y-126850313D01*
X131827338Y-126919492D01*
X131827333Y-126919496D01*
X131729496Y-127017333D01*
X131729492Y-127017338D01*
X131660313Y-127137161D01*
X131660312Y-127137164D01*
X131624500Y-127270817D01*
X131624500Y-127409183D01*
X131660312Y-127542836D01*
X131668089Y-127556307D01*
X131668092Y-127556311D01*
X131684564Y-127624211D01*
X131661711Y-127690238D01*
X131615683Y-127729455D01*
X131604666Y-127734904D01*
X131547164Y-127750312D01*
X131427335Y-127819495D01*
X131421144Y-127825685D01*
X131404979Y-127833682D01*
X131382038Y-127837708D01*
X131360312Y-127846107D01*
X131348269Y-127843636D01*
X131336162Y-127845762D01*
X131314685Y-127836746D01*
X131291868Y-127832066D01*
X131274517Y-127820916D01*
X131272665Y-127819495D01*
X131244131Y-127803021D01*
X131212973Y-127785031D01*
X131164758Y-127734466D01*
X131151534Y-127665859D01*
X131160412Y-127630191D01*
X131199060Y-127536886D01*
X131199061Y-127536884D01*
X131225000Y-127406484D01*
X131225000Y-127273515D01*
X131199061Y-127143114D01*
X131199057Y-127143101D01*
X131170176Y-127073378D01*
X131170174Y-127073378D01*
X130814457Y-127429095D01*
X130753134Y-127462580D01*
X130713124Y-127459718D01*
X130719552Y-127453291D01*
X130750000Y-127379782D01*
X130750000Y-127300218D01*
X130719552Y-127226709D01*
X130663291Y-127170448D01*
X130589782Y-127140000D01*
X130510218Y-127140000D01*
X130436709Y-127170448D01*
X130380448Y-127226709D01*
X130350000Y-127300218D01*
X130350000Y-127379782D01*
X130380448Y-127453291D01*
X130388978Y-127461821D01*
X130329889Y-127457596D01*
X130285542Y-127429095D01*
X129891683Y-127035236D01*
X129858198Y-126973913D01*
X129856427Y-126931352D01*
X129879012Y-126760000D01*
X129330000Y-126760000D01*
X129330000Y-126719824D01*
X130283377Y-126719824D01*
X130550000Y-126986446D01*
X130550001Y-126986446D01*
X130816621Y-126719824D01*
X130746890Y-126690940D01*
X130746884Y-126690938D01*
X130616484Y-126665000D01*
X130483516Y-126665000D01*
X130353115Y-126690938D01*
X130353109Y-126690940D01*
X130283377Y-126719824D01*
X129330000Y-126719824D01*
X129330000Y-126260000D01*
X129880000Y-126260000D01*
X129880000Y-126003744D01*
X129879999Y-126003740D01*
X129848297Y-125844363D01*
X129848294Y-125844351D01*
X129786108Y-125694220D01*
X129786107Y-125694218D01*
X129695819Y-125559093D01*
X129695816Y-125559089D01*
X129580910Y-125444183D01*
X129580906Y-125444180D01*
X129445781Y-125353892D01*
X129305000Y-125295579D01*
X129305000Y-125969943D01*
X129288134Y-125929225D01*
X129210775Y-125851866D01*
X129109701Y-125810000D01*
X129000299Y-125810000D01*
X128899225Y-125851866D01*
X128821866Y-125929225D01*
X128805000Y-125969943D01*
X128805000Y-125295579D01*
X128804999Y-125295579D01*
X128664218Y-125353892D01*
X128529093Y-125444180D01*
X128529089Y-125444183D01*
X128414183Y-125559089D01*
X128414180Y-125559093D01*
X128323892Y-125694218D01*
X128323891Y-125694220D01*
X128261705Y-125844351D01*
X128261702Y-125844363D01*
X128230000Y-126003740D01*
X128230000Y-126260000D01*
X128780000Y-126260000D01*
X128780000Y-126760000D01*
X128230000Y-126760000D01*
X128230000Y-127016259D01*
X128261702Y-127175636D01*
X128261705Y-127175648D01*
X128303871Y-127277447D01*
X128311340Y-127346917D01*
X128280064Y-127409396D01*
X128276992Y-127412580D01*
X128171597Y-127517975D01*
X128060522Y-127684210D01*
X128060517Y-127684219D01*
X127984006Y-127868934D01*
X127984004Y-127868942D01*
X127945000Y-128065026D01*
X127945000Y-128240000D01*
X128495000Y-128240000D01*
X128495000Y-128740000D01*
X127945000Y-128740000D01*
X127945000Y-128914973D01*
X127984004Y-129111057D01*
X127984006Y-129111065D01*
X128060517Y-129295780D01*
X128060522Y-129295789D01*
X128171597Y-129462024D01*
X128171600Y-129462028D01*
X128312971Y-129603399D01*
X128312975Y-129603402D01*
X128479210Y-129714477D01*
X128479220Y-129714482D01*
X128500568Y-129723325D01*
X128669271Y-129780000D01*
X128710000Y-129780000D01*
X128710000Y-129207597D01*
X128780517Y-129248311D01*
X128898782Y-129280000D01*
X129021218Y-129280000D01*
X129139483Y-129248311D01*
X129210000Y-129207597D01*
X129210000Y-129807159D01*
X129225955Y-129797304D01*
X129234573Y-129795268D01*
X129256061Y-129790994D01*
X129256070Y-129790991D01*
X129440776Y-129714484D01*
X129440789Y-129714477D01*
X129607024Y-129603402D01*
X129607028Y-129603399D01*
X129720255Y-129490171D01*
X129781578Y-129456685D01*
X129834259Y-129457940D01*
X129834299Y-129457639D01*
X129837101Y-129458008D01*
X129840034Y-129458077D01*
X129842356Y-129458700D01*
X129842358Y-129458700D01*
X129934642Y-129458700D01*
X129934644Y-129458700D01*
X130023788Y-129434814D01*
X130103712Y-129388669D01*
X130168969Y-129323412D01*
X130215114Y-129243488D01*
X130239000Y-129154344D01*
X130239000Y-129062056D01*
X130215114Y-128972912D01*
X130215111Y-128972906D01*
X130168973Y-128892994D01*
X130168970Y-128892991D01*
X130168969Y-128892988D01*
X130103712Y-128827731D01*
X130023788Y-128781586D01*
X130023785Y-128781585D01*
X130020884Y-128779910D01*
X129995204Y-128760204D01*
X129975000Y-128740000D01*
X129425000Y-128740000D01*
X129425000Y-128240000D01*
X129975000Y-128240000D01*
X129975000Y-128065028D01*
X129974999Y-128065026D01*
X129965175Y-128015634D01*
X129971402Y-127946043D01*
X130014265Y-127890865D01*
X130080155Y-127867621D01*
X130148152Y-127883689D01*
X130155683Y-127888341D01*
X130230268Y-127938177D01*
X130358738Y-127991391D01*
X130357862Y-127993504D01*
X130407770Y-128026209D01*
X130436229Y-128090020D01*
X130433114Y-128138667D01*
X130424500Y-128170815D01*
X130424500Y-128170817D01*
X130424500Y-128309183D01*
X130442806Y-128377500D01*
X130460312Y-128442835D01*
X130460313Y-128442838D01*
X130529492Y-128562661D01*
X130529494Y-128562664D01*
X130529495Y-128562665D01*
X130627335Y-128660505D01*
X130747164Y-128729688D01*
X130880817Y-128765500D01*
X130880819Y-128765500D01*
X131019181Y-128765500D01*
X131019183Y-128765500D01*
X131152836Y-128729688D01*
X131272665Y-128660505D01*
X131272670Y-128660499D01*
X131274510Y-128659089D01*
X131276351Y-128658377D01*
X131279703Y-128656442D01*
X131280004Y-128656964D01*
X131339678Y-128633892D01*
X131408124Y-128647928D01*
X131425490Y-128659089D01*
X131427332Y-128660502D01*
X131427335Y-128660505D01*
X131547164Y-128729688D01*
X131680817Y-128765500D01*
X131680819Y-128765500D01*
X131819181Y-128765500D01*
X131819183Y-128765500D01*
X131952836Y-128729688D01*
X132072665Y-128660505D01*
X132072670Y-128660499D01*
X132074510Y-128659089D01*
X132076351Y-128658377D01*
X132079703Y-128656442D01*
X132080004Y-128656964D01*
X132139678Y-128633892D01*
X132208124Y-128647928D01*
X132225490Y-128659089D01*
X132227332Y-128660502D01*
X132227335Y-128660505D01*
X132347164Y-128729688D01*
X132480817Y-128765500D01*
X132480819Y-128765500D01*
X132619181Y-128765500D01*
X132619183Y-128765500D01*
X132752836Y-128729688D01*
X132872665Y-128660505D01*
X132970505Y-128562665D01*
X133039688Y-128442836D01*
X133075500Y-128309183D01*
X133075500Y-128170817D01*
X133039688Y-128037164D01*
X133031907Y-128023686D01*
X133015435Y-127955790D01*
X133038287Y-127889763D01*
X133084316Y-127850544D01*
X133095326Y-127845097D01*
X133152836Y-127829688D01*
X133272665Y-127760505D01*
X133278857Y-127754312D01*
X133295021Y-127746317D01*
X133317954Y-127742291D01*
X133339678Y-127733892D01*
X133351727Y-127736362D01*
X133363838Y-127734237D01*
X133385307Y-127743249D01*
X133408124Y-127747928D01*
X133425490Y-127759089D01*
X133427332Y-127760502D01*
X133427335Y-127760505D01*
X133547164Y-127829688D01*
X133592797Y-127841915D01*
X133652457Y-127878278D01*
X133682987Y-127941124D01*
X133674693Y-128010500D01*
X133668093Y-128023686D01*
X133660313Y-128037161D01*
X133660312Y-128037164D01*
X133624500Y-128170817D01*
X133624500Y-128309183D01*
X133642806Y-128377500D01*
X133660312Y-128442835D01*
X133660313Y-128442838D01*
X133729492Y-128562661D01*
X133729494Y-128562664D01*
X133729495Y-128562665D01*
X133827335Y-128660505D01*
X133947164Y-128729688D01*
X134080817Y-128765500D01*
X134080819Y-128765500D01*
X134219181Y-128765500D01*
X134219183Y-128765500D01*
X134352836Y-128729688D01*
X134472665Y-128660505D01*
X134472670Y-128660499D01*
X134474510Y-128659089D01*
X134476351Y-128658377D01*
X134479703Y-128656442D01*
X134480004Y-128656964D01*
X134539678Y-128633892D01*
X134608124Y-128647928D01*
X134625490Y-128659089D01*
X134627332Y-128660502D01*
X134627335Y-128660505D01*
X134747164Y-128729688D01*
X134880817Y-128765500D01*
X134880819Y-128765500D01*
X135019181Y-128765500D01*
X135019183Y-128765500D01*
X135152836Y-128729688D01*
X135272665Y-128660505D01*
X135272670Y-128660499D01*
X135274510Y-128659089D01*
X135276351Y-128658377D01*
X135279703Y-128656442D01*
X135280004Y-128656964D01*
X135339678Y-128633892D01*
X135408124Y-128647928D01*
X135425490Y-128659089D01*
X135427332Y-128660502D01*
X135427335Y-128660505D01*
X135547164Y-128729688D01*
X135680817Y-128765500D01*
X135680819Y-128765500D01*
X135819181Y-128765500D01*
X135819183Y-128765500D01*
X135952836Y-128729688D01*
X136072665Y-128660505D01*
X136170505Y-128562665D01*
X136239688Y-128442836D01*
X136275500Y-128309183D01*
X136275500Y-128170817D01*
X136266885Y-128138665D01*
X136268548Y-128068820D01*
X136307710Y-128010957D01*
X136341794Y-127992676D01*
X136341262Y-127991391D01*
X136469731Y-127938177D01*
X136544316Y-127888341D01*
X136610993Y-127867463D01*
X136678373Y-127885947D01*
X136725064Y-127937926D01*
X136736240Y-128006896D01*
X136734825Y-128015632D01*
X136725000Y-128065029D01*
X136725000Y-128240000D01*
X137275000Y-128240000D01*
X137275000Y-128740000D01*
X136725000Y-128740000D01*
X136725000Y-128914973D01*
X136764004Y-129111057D01*
X136764006Y-129111065D01*
X136840517Y-129295780D01*
X136840522Y-129295789D01*
X136951597Y-129462024D01*
X136951600Y-129462028D01*
X137092971Y-129603399D01*
X137092975Y-129603402D01*
X137259210Y-129714477D01*
X137259223Y-129714484D01*
X137430762Y-129785537D01*
X137490000Y-129758756D01*
X137490000Y-129207597D01*
X137560517Y-129248311D01*
X137678782Y-129280000D01*
X137801218Y-129280000D01*
X137919483Y-129248311D01*
X137990000Y-129207597D01*
X137990000Y-129780000D01*
X138051000Y-129780000D01*
X138118039Y-129799685D01*
X138163794Y-129852489D01*
X138175000Y-129904000D01*
X138175000Y-130899943D01*
X138158134Y-130859225D01*
X138080775Y-130781866D01*
X137979701Y-130740000D01*
X137870299Y-130740000D01*
X137769225Y-130781866D01*
X137691866Y-130859225D01*
X137675000Y-130899943D01*
X137675000Y-129960000D01*
X137646875Y-129960000D01*
X137501632Y-130025665D01*
X137399093Y-130094180D01*
X137399089Y-130094183D01*
X137284183Y-130209089D01*
X137284180Y-130209093D01*
X137193892Y-130344218D01*
X137193891Y-130344220D01*
X137131705Y-130494351D01*
X137131702Y-130494363D01*
X137100000Y-130653740D01*
X137100000Y-131150000D01*
X137650000Y-131150000D01*
X137650000Y-131650000D01*
X137100000Y-131650000D01*
X137100000Y-132146259D01*
X137131702Y-132305636D01*
X137131705Y-132305648D01*
X137193891Y-132455779D01*
X137193892Y-132455781D01*
X137284180Y-132590906D01*
X137284183Y-132590910D01*
X137399089Y-132705816D01*
X137399093Y-132705819D01*
X137534209Y-132796102D01*
X137534222Y-132796109D01*
X137674999Y-132854420D01*
X137675000Y-132854420D01*
X137675000Y-132180056D01*
X137691866Y-132220775D01*
X137769225Y-132298134D01*
X137870299Y-132340000D01*
X137979701Y-132340000D01*
X138080775Y-132298134D01*
X138158134Y-132220775D01*
X138175000Y-132180056D01*
X138175000Y-132854420D01*
X138315777Y-132796109D01*
X138315789Y-132796102D01*
X138371609Y-132758805D01*
X138438286Y-132737927D01*
X138505666Y-132756411D01*
X138552357Y-132808390D01*
X138564500Y-132861907D01*
X138564500Y-134630500D01*
X138544815Y-134697539D01*
X138492011Y-134743294D01*
X138440500Y-134754500D01*
X110175105Y-134754500D01*
X110108066Y-134734815D01*
X110062311Y-134682011D01*
X110052367Y-134612853D01*
X110055330Y-134598407D01*
X110076100Y-134520892D01*
X110076100Y-134389108D01*
X110041992Y-134261814D01*
X109976100Y-134147686D01*
X109882914Y-134054500D01*
X109825850Y-134021554D01*
X109768787Y-133988608D01*
X109705139Y-133971554D01*
X109641492Y-133954500D01*
X109509708Y-133954500D01*
X109382412Y-133988608D01*
X109268286Y-134054500D01*
X109268283Y-134054502D01*
X109175102Y-134147683D01*
X109175100Y-134147686D01*
X109109208Y-134261812D01*
X109075100Y-134389108D01*
X109075100Y-134520891D01*
X109095870Y-134598407D01*
X109094207Y-134668257D01*
X109055044Y-134726119D01*
X108990816Y-134753623D01*
X108976095Y-134754500D01*
X105534000Y-134754500D01*
X105466961Y-134734815D01*
X105421206Y-134682011D01*
X105410000Y-134630500D01*
X105410000Y-132378508D01*
X110183900Y-132378508D01*
X110183900Y-132510291D01*
X110218008Y-132637587D01*
X110239154Y-132674212D01*
X110283900Y-132751714D01*
X110377086Y-132844900D01*
X110491214Y-132910792D01*
X110618508Y-132944900D01*
X110618510Y-132944900D01*
X110750290Y-132944900D01*
X110750292Y-132944900D01*
X110877586Y-132910792D01*
X110991714Y-132844900D01*
X111035106Y-132801508D01*
X114612300Y-132801508D01*
X114612300Y-132933292D01*
X114629354Y-132996939D01*
X114646408Y-133060587D01*
X114679354Y-133117650D01*
X114712300Y-133174714D01*
X114805486Y-133267900D01*
X114919614Y-133333792D01*
X115046908Y-133367900D01*
X115046910Y-133367900D01*
X115178690Y-133367900D01*
X115178692Y-133367900D01*
X115305986Y-133333792D01*
X115420114Y-133267900D01*
X115513300Y-133174714D01*
X115579192Y-133060586D01*
X115613300Y-132933292D01*
X115613300Y-132801508D01*
X115579192Y-132674214D01*
X115513300Y-132560086D01*
X115420114Y-132466900D01*
X115363050Y-132433954D01*
X115305987Y-132401008D01*
X115242339Y-132383954D01*
X115178692Y-132366900D01*
X115046908Y-132366900D01*
X114919612Y-132401008D01*
X114805486Y-132466900D01*
X114805483Y-132466902D01*
X114712302Y-132560083D01*
X114712300Y-132560086D01*
X114646408Y-132674212D01*
X114613747Y-132796109D01*
X114612300Y-132801508D01*
X111035106Y-132801508D01*
X111084900Y-132751714D01*
X111150792Y-132637586D01*
X111184900Y-132510292D01*
X111184900Y-132378508D01*
X111150792Y-132251214D01*
X111084900Y-132137086D01*
X110991714Y-132043900D01*
X110934650Y-132010954D01*
X110877587Y-131978008D01*
X110813939Y-131960954D01*
X110750292Y-131943900D01*
X110618508Y-131943900D01*
X110491212Y-131978008D01*
X110377086Y-132043900D01*
X110377083Y-132043902D01*
X110283902Y-132137083D01*
X110283900Y-132137086D01*
X110218008Y-132251212D01*
X110183900Y-132378508D01*
X105410000Y-132378508D01*
X105410000Y-130744108D01*
X120149500Y-130744108D01*
X120149500Y-130875891D01*
X120183608Y-131003187D01*
X120216554Y-131060250D01*
X120249500Y-131117314D01*
X120342686Y-131210500D01*
X120456814Y-131276392D01*
X120584108Y-131310500D01*
X120584110Y-131310500D01*
X120715890Y-131310500D01*
X120715892Y-131310500D01*
X120843186Y-131276392D01*
X120957314Y-131210500D01*
X121050500Y-131117314D01*
X121116392Y-131003186D01*
X121150500Y-130875892D01*
X121150500Y-130820308D01*
X123730900Y-130820308D01*
X123730900Y-130952092D01*
X123744591Y-131003187D01*
X123765008Y-131079387D01*
X123786905Y-131117313D01*
X123830900Y-131193514D01*
X123924086Y-131286700D01*
X124038214Y-131352592D01*
X124165508Y-131386700D01*
X124165510Y-131386700D01*
X124297290Y-131386700D01*
X124297292Y-131386700D01*
X124424586Y-131352592D01*
X124538714Y-131286700D01*
X124631900Y-131193514D01*
X124697792Y-131079386D01*
X124731900Y-130952092D01*
X124731900Y-130820308D01*
X124697792Y-130693014D01*
X124675117Y-130653740D01*
X127950000Y-130653740D01*
X127950000Y-131150000D01*
X128500000Y-131150000D01*
X128500000Y-131650000D01*
X127950000Y-131650000D01*
X127950000Y-132146259D01*
X127981702Y-132305636D01*
X127981705Y-132305648D01*
X128043891Y-132455779D01*
X128043892Y-132455781D01*
X128134180Y-132590906D01*
X128134183Y-132590910D01*
X128249089Y-132705816D01*
X128249093Y-132705819D01*
X128384209Y-132796102D01*
X128384222Y-132796109D01*
X128524999Y-132854420D01*
X128525000Y-132854420D01*
X128525000Y-132180056D01*
X128541866Y-132220775D01*
X128619225Y-132298134D01*
X128720299Y-132340000D01*
X128829701Y-132340000D01*
X128930775Y-132298134D01*
X129008134Y-132220775D01*
X129025000Y-132180056D01*
X129025000Y-132854420D01*
X129165777Y-132796109D01*
X129165790Y-132796102D01*
X129300906Y-132705819D01*
X129300910Y-132705816D01*
X129415816Y-132590910D01*
X129415819Y-132590906D01*
X129506107Y-132455781D01*
X129506108Y-132455779D01*
X129568294Y-132305648D01*
X129568297Y-132305636D01*
X129599999Y-132146259D01*
X129600000Y-132146256D01*
X129600000Y-131650000D01*
X129050000Y-131650000D01*
X129050000Y-131150000D01*
X129600000Y-131150000D01*
X129600000Y-130653744D01*
X129599999Y-130653740D01*
X129568297Y-130494363D01*
X129568294Y-130494351D01*
X129506108Y-130344220D01*
X129506107Y-130344218D01*
X129415819Y-130209093D01*
X129415816Y-130209089D01*
X129300910Y-130094183D01*
X129300906Y-130094180D01*
X129189870Y-130019988D01*
X129145065Y-129966376D01*
X129142715Y-129947666D01*
X129140803Y-129948720D01*
X129137511Y-129951573D01*
X129134964Y-129951939D01*
X129129805Y-129954784D01*
X129025000Y-129994360D01*
X129025000Y-130899943D01*
X129008134Y-130859225D01*
X128930775Y-130781866D01*
X128829701Y-130740000D01*
X128720299Y-130740000D01*
X128619225Y-130781866D01*
X128541866Y-130859225D01*
X128525000Y-130899943D01*
X128525000Y-129993152D01*
X128461581Y-129971847D01*
X128384218Y-130003892D01*
X128249093Y-130094180D01*
X128249089Y-130094183D01*
X128134183Y-130209089D01*
X128134180Y-130209093D01*
X128043892Y-130344218D01*
X128043891Y-130344220D01*
X127981705Y-130494351D01*
X127981702Y-130494363D01*
X127950000Y-130653740D01*
X124675117Y-130653740D01*
X124631900Y-130578886D01*
X124538714Y-130485700D01*
X124481650Y-130452754D01*
X124424587Y-130419808D01*
X124360939Y-130402754D01*
X124297292Y-130385700D01*
X124165508Y-130385700D01*
X124038212Y-130419808D01*
X123924086Y-130485700D01*
X123924083Y-130485702D01*
X123830902Y-130578883D01*
X123830900Y-130578886D01*
X123765008Y-130693012D01*
X123751317Y-130744110D01*
X123730900Y-130820308D01*
X121150500Y-130820308D01*
X121150500Y-130744108D01*
X121116392Y-130616814D01*
X121050500Y-130502686D01*
X120957314Y-130409500D01*
X120900250Y-130376554D01*
X120843187Y-130343608D01*
X120779539Y-130326554D01*
X120715892Y-130309500D01*
X120584108Y-130309500D01*
X120456812Y-130343608D01*
X120342686Y-130409500D01*
X120342683Y-130409502D01*
X120249502Y-130502683D01*
X120249500Y-130502686D01*
X120183608Y-130616812D01*
X120149500Y-130744108D01*
X105410000Y-130744108D01*
X105410000Y-129634106D01*
X116974500Y-129634106D01*
X116974500Y-129765890D01*
X116981226Y-129790991D01*
X117008608Y-129893185D01*
X117040063Y-129947666D01*
X117074500Y-130007312D01*
X117167686Y-130100498D01*
X117281814Y-130166390D01*
X117409108Y-130200498D01*
X117409110Y-130200498D01*
X117540890Y-130200498D01*
X117540892Y-130200498D01*
X117668186Y-130166390D01*
X117782314Y-130100498D01*
X117875500Y-130007312D01*
X117941392Y-129893184D01*
X117975500Y-129765890D01*
X117975500Y-129634106D01*
X117941392Y-129506812D01*
X117875500Y-129392684D01*
X117782314Y-129299498D01*
X117693656Y-129248311D01*
X117668187Y-129233606D01*
X117604539Y-129216552D01*
X117540892Y-129199498D01*
X117409108Y-129199498D01*
X117281812Y-129233606D01*
X117167686Y-129299498D01*
X117167683Y-129299500D01*
X117074502Y-129392681D01*
X117074500Y-129392684D01*
X117008608Y-129506810D01*
X116982728Y-129603399D01*
X116974500Y-129634106D01*
X105410000Y-129634106D01*
X105410000Y-128712108D01*
X118117500Y-128712108D01*
X118117500Y-128843891D01*
X118151608Y-128971187D01*
X118184554Y-129028250D01*
X118217500Y-129085314D01*
X118310686Y-129178500D01*
X118406132Y-129233606D01*
X118423251Y-129243490D01*
X118424814Y-129244392D01*
X118552108Y-129278500D01*
X118552110Y-129278500D01*
X118683890Y-129278500D01*
X118683892Y-129278500D01*
X118811186Y-129244392D01*
X118925314Y-129178500D01*
X119018500Y-129085314D01*
X119084392Y-128971186D01*
X119118500Y-128843892D01*
X119118500Y-128712108D01*
X119084392Y-128584814D01*
X119018500Y-128470686D01*
X118925314Y-128377500D01*
X118868250Y-128344554D01*
X118811187Y-128311608D01*
X118747539Y-128294554D01*
X118683892Y-128277500D01*
X118552108Y-128277500D01*
X118424812Y-128311608D01*
X118310686Y-128377500D01*
X118310683Y-128377502D01*
X118217502Y-128470683D01*
X118217500Y-128470686D01*
X118151608Y-128584812D01*
X118117500Y-128712108D01*
X105410000Y-128712108D01*
X105410000Y-125048856D01*
X131729500Y-125048856D01*
X131729500Y-125141144D01*
X131744073Y-125195533D01*
X131753387Y-125230290D01*
X131753388Y-125230293D01*
X131799526Y-125310205D01*
X131799529Y-125310209D01*
X131799531Y-125310212D01*
X131864788Y-125375469D01*
X131864791Y-125375470D01*
X131864794Y-125375473D01*
X131944706Y-125421611D01*
X131944707Y-125421611D01*
X131944712Y-125421614D01*
X132033856Y-125445500D01*
X132033858Y-125445500D01*
X132126142Y-125445500D01*
X132126144Y-125445500D01*
X132184528Y-125429856D01*
X132745500Y-125429856D01*
X132745500Y-125522144D01*
X132755400Y-125559093D01*
X132769387Y-125611290D01*
X132769388Y-125611293D01*
X132815526Y-125691205D01*
X132815529Y-125691209D01*
X132815531Y-125691212D01*
X132880788Y-125756469D01*
X132880791Y-125756470D01*
X132880794Y-125756473D01*
X132960706Y-125802611D01*
X132960707Y-125802611D01*
X132960712Y-125802614D01*
X133049856Y-125826500D01*
X133049858Y-125826500D01*
X133142142Y-125826500D01*
X133142144Y-125826500D01*
X133231288Y-125802614D01*
X133311212Y-125756469D01*
X133376469Y-125691212D01*
X133422614Y-125611288D01*
X133446500Y-125522144D01*
X133446500Y-125429856D01*
X133422614Y-125340712D01*
X133422611Y-125340706D01*
X133376473Y-125260794D01*
X133376470Y-125260791D01*
X133376469Y-125260788D01*
X133311212Y-125195531D01*
X133311209Y-125195529D01*
X133311205Y-125195526D01*
X133231293Y-125149388D01*
X133231290Y-125149387D01*
X133231289Y-125149386D01*
X133231288Y-125149386D01*
X133142144Y-125125500D01*
X133049856Y-125125500D01*
X132960712Y-125149386D01*
X132960711Y-125149386D01*
X132960709Y-125149387D01*
X132960706Y-125149388D01*
X132880794Y-125195526D01*
X132880785Y-125195533D01*
X132815533Y-125260785D01*
X132815526Y-125260794D01*
X132769388Y-125340706D01*
X132769387Y-125340709D01*
X132769386Y-125340711D01*
X132769386Y-125340712D01*
X132745500Y-125429856D01*
X132184528Y-125429856D01*
X132215288Y-125421614D01*
X132295212Y-125375469D01*
X132360469Y-125310212D01*
X132406614Y-125230288D01*
X132430500Y-125141144D01*
X132430500Y-125048856D01*
X132406614Y-124959712D01*
X132406611Y-124959706D01*
X132360473Y-124879794D01*
X132360470Y-124879791D01*
X132360469Y-124879788D01*
X132295212Y-124814531D01*
X132295209Y-124814529D01*
X132295205Y-124814526D01*
X132215293Y-124768388D01*
X132215290Y-124768387D01*
X132215289Y-124768386D01*
X132215288Y-124768386D01*
X132126144Y-124744500D01*
X132033856Y-124744500D01*
X131944712Y-124768386D01*
X131944711Y-124768386D01*
X131944709Y-124768387D01*
X131944706Y-124768388D01*
X131864794Y-124814526D01*
X131864785Y-124814533D01*
X131799533Y-124879785D01*
X131799526Y-124879794D01*
X131753388Y-124959706D01*
X131753387Y-124959709D01*
X131753386Y-124959711D01*
X131753386Y-124959712D01*
X131729500Y-125048856D01*
X105410000Y-125048856D01*
X105410000Y-124080578D01*
X121319500Y-124080578D01*
X121319500Y-124212361D01*
X121353608Y-124339657D01*
X121386554Y-124396720D01*
X121419500Y-124453784D01*
X121512686Y-124546970D01*
X121626814Y-124612862D01*
X121754108Y-124646970D01*
X121754110Y-124646970D01*
X121885890Y-124646970D01*
X121885892Y-124646970D01*
X122013186Y-124612862D01*
X122127314Y-124546970D01*
X122220500Y-124453784D01*
X122286392Y-124339656D01*
X122320500Y-124212362D01*
X122320500Y-124080578D01*
X122286392Y-123953284D01*
X122220500Y-123839156D01*
X122127314Y-123745970D01*
X122070250Y-123713024D01*
X122013187Y-123680078D01*
X121949539Y-123663024D01*
X121885892Y-123645970D01*
X121754108Y-123645970D01*
X121626812Y-123680078D01*
X121512686Y-123745970D01*
X121512683Y-123745972D01*
X121419502Y-123839153D01*
X121419500Y-123839156D01*
X121353608Y-123953282D01*
X121319500Y-124080578D01*
X105410000Y-124080578D01*
X105410000Y-121219108D01*
X128404500Y-121219108D01*
X128404500Y-121350891D01*
X128438608Y-121478187D01*
X128462461Y-121519500D01*
X128504500Y-121592314D01*
X128597686Y-121685500D01*
X128711814Y-121751392D01*
X128839108Y-121785500D01*
X128839110Y-121785500D01*
X128970890Y-121785500D01*
X128970892Y-121785500D01*
X129098186Y-121751392D01*
X129212314Y-121685500D01*
X129219819Y-121677995D01*
X129281142Y-121644510D01*
X129350834Y-121649494D01*
X129395181Y-121677995D01*
X129402686Y-121685500D01*
X129516814Y-121751392D01*
X129644108Y-121785500D01*
X129644110Y-121785500D01*
X129775890Y-121785500D01*
X129775892Y-121785500D01*
X129903186Y-121751392D01*
X130017314Y-121685500D01*
X130110500Y-121592314D01*
X130176392Y-121478186D01*
X130210500Y-121350892D01*
X130210500Y-121219108D01*
X130176392Y-121091814D01*
X130110500Y-120977686D01*
X130017314Y-120884500D01*
X129941310Y-120840619D01*
X129903187Y-120818608D01*
X129839539Y-120801554D01*
X129775892Y-120784500D01*
X129644108Y-120784500D01*
X129516812Y-120818608D01*
X129402686Y-120884500D01*
X129402685Y-120884500D01*
X129395178Y-120892008D01*
X129333854Y-120925490D01*
X129264162Y-120920503D01*
X129219822Y-120892008D01*
X129212314Y-120884500D01*
X129136310Y-120840619D01*
X129098187Y-120818608D01*
X129034539Y-120801554D01*
X128970892Y-120784500D01*
X128839108Y-120784500D01*
X128711812Y-120818608D01*
X128597686Y-120884500D01*
X128597683Y-120884502D01*
X128504502Y-120977683D01*
X128504500Y-120977686D01*
X128438608Y-121091812D01*
X128404500Y-121219108D01*
X105410000Y-121219108D01*
X105410000Y-119842343D01*
X117081265Y-119842343D01*
X117081265Y-119974126D01*
X117115373Y-120101422D01*
X117125588Y-120119114D01*
X117181265Y-120215549D01*
X117274451Y-120308735D01*
X117388579Y-120374627D01*
X117515873Y-120408735D01*
X117515875Y-120408735D01*
X117647655Y-120408735D01*
X117647657Y-120408735D01*
X117774951Y-120374627D01*
X117889079Y-120308735D01*
X117982265Y-120215549D01*
X118048157Y-120101421D01*
X118082265Y-119974127D01*
X118082265Y-119842343D01*
X118078732Y-119829156D01*
X131869200Y-119829156D01*
X131869200Y-119921444D01*
X131891585Y-120004987D01*
X131893087Y-120010590D01*
X131893088Y-120010593D01*
X131939226Y-120090505D01*
X131939229Y-120090509D01*
X131939231Y-120090512D01*
X131939232Y-120090513D01*
X131939234Y-120090515D01*
X131957544Y-120108826D01*
X131991028Y-120170149D01*
X131986042Y-120239841D01*
X131957544Y-120284184D01*
X131942939Y-120298788D01*
X131942931Y-120298799D01*
X131896793Y-120378711D01*
X131896792Y-120378714D01*
X131896792Y-120378715D01*
X131896791Y-120378717D01*
X131872905Y-120467861D01*
X131872905Y-120560149D01*
X131889888Y-120623531D01*
X131896792Y-120649295D01*
X131896793Y-120649298D01*
X131942931Y-120729210D01*
X131942934Y-120729214D01*
X131942936Y-120729217D01*
X132008193Y-120794474D01*
X132008196Y-120794475D01*
X132008199Y-120794478D01*
X132088111Y-120840616D01*
X132088115Y-120840618D01*
X132088117Y-120840619D01*
X132175652Y-120864073D01*
X132235310Y-120900436D01*
X132263330Y-120951751D01*
X132286786Y-121039288D01*
X132286787Y-121039290D01*
X132286788Y-121039293D01*
X132332926Y-121119205D01*
X132332929Y-121119209D01*
X132332931Y-121119212D01*
X132398188Y-121184469D01*
X132398191Y-121184470D01*
X132398194Y-121184473D01*
X132478106Y-121230611D01*
X132478110Y-121230613D01*
X132478112Y-121230614D01*
X132534650Y-121245763D01*
X132594309Y-121282126D01*
X132624839Y-121344973D01*
X132616545Y-121414348D01*
X132572060Y-121468227D01*
X132564557Y-121472924D01*
X132483886Y-121519500D01*
X132483883Y-121519502D01*
X132390702Y-121612683D01*
X132390700Y-121612686D01*
X132324808Y-121726812D01*
X132309083Y-121785500D01*
X132290700Y-121854108D01*
X132290700Y-121985892D01*
X132303238Y-122032686D01*
X132324808Y-122113187D01*
X132344222Y-122146812D01*
X132390700Y-122227314D01*
X132483886Y-122320500D01*
X132598014Y-122386392D01*
X132725308Y-122420500D01*
X132725310Y-122420500D01*
X132857090Y-122420500D01*
X132857092Y-122420500D01*
X132984386Y-122386392D01*
X133098514Y-122320500D01*
X133144906Y-122274108D01*
X135846700Y-122274108D01*
X135846700Y-122405891D01*
X135880808Y-122533187D01*
X135913754Y-122590250D01*
X135946700Y-122647314D01*
X136039886Y-122740500D01*
X136154014Y-122806392D01*
X136281308Y-122840500D01*
X136281310Y-122840500D01*
X136413090Y-122840500D01*
X136413092Y-122840500D01*
X136540386Y-122806392D01*
X136654514Y-122740500D01*
X136747700Y-122647314D01*
X136813592Y-122533186D01*
X136847700Y-122405892D01*
X136847700Y-122274108D01*
X136813592Y-122146814D01*
X136747700Y-122032686D01*
X136654514Y-121939500D01*
X136597450Y-121906554D01*
X136540387Y-121873608D01*
X136467610Y-121854108D01*
X136413092Y-121839500D01*
X136281308Y-121839500D01*
X136154012Y-121873608D01*
X136039886Y-121939500D01*
X136039883Y-121939502D01*
X135946702Y-122032683D01*
X135946700Y-122032686D01*
X135880808Y-122146812D01*
X135846700Y-122274108D01*
X133144906Y-122274108D01*
X133191700Y-122227314D01*
X133257592Y-122113186D01*
X133291700Y-121985892D01*
X133291700Y-121854108D01*
X133257592Y-121726814D01*
X133191700Y-121612686D01*
X133098514Y-121519500D01*
X133026956Y-121478186D01*
X132984387Y-121453608D01*
X132928599Y-121438660D01*
X132857092Y-121419500D01*
X132857091Y-121419500D01*
X132849242Y-121417397D01*
X132850119Y-121414122D01*
X132800530Y-121392094D01*
X132762148Y-121333711D01*
X132761424Y-121263845D01*
X132798588Y-121204678D01*
X132818756Y-121190158D01*
X132828612Y-121184469D01*
X132893869Y-121119212D01*
X132940014Y-121039288D01*
X132963900Y-120950144D01*
X132963900Y-120857856D01*
X132940014Y-120768712D01*
X132940011Y-120768706D01*
X132893873Y-120688794D01*
X132893870Y-120688791D01*
X132893869Y-120688788D01*
X132828612Y-120623531D01*
X132828609Y-120623529D01*
X132828605Y-120623526D01*
X132748693Y-120577388D01*
X132748690Y-120577387D01*
X132748689Y-120577386D01*
X132748688Y-120577386D01*
X132661152Y-120553930D01*
X132601493Y-120517567D01*
X132573474Y-120466252D01*
X132550019Y-120378717D01*
X132550018Y-120378715D01*
X132550016Y-120378711D01*
X132503878Y-120298799D01*
X132503876Y-120298796D01*
X132503874Y-120298793D01*
X132503869Y-120298788D01*
X132485560Y-120280478D01*
X132452076Y-120219155D01*
X132457062Y-120149463D01*
X132485562Y-120105118D01*
X132500169Y-120090512D01*
X132546314Y-120010588D01*
X132570200Y-119921444D01*
X132570200Y-119829156D01*
X132547894Y-119745908D01*
X136456300Y-119745908D01*
X136456300Y-119877691D01*
X136490408Y-120004987D01*
X136493642Y-120010588D01*
X136556300Y-120119114D01*
X136649486Y-120212300D01*
X136763614Y-120278192D01*
X136890908Y-120312300D01*
X136890910Y-120312300D01*
X137022690Y-120312300D01*
X137022692Y-120312300D01*
X137149986Y-120278192D01*
X137264114Y-120212300D01*
X137357300Y-120119114D01*
X137423192Y-120004986D01*
X137457300Y-119877692D01*
X137457300Y-119745908D01*
X137423192Y-119618614D01*
X137357300Y-119504486D01*
X137264114Y-119411300D01*
X137207050Y-119378354D01*
X137149987Y-119345408D01*
X137086339Y-119328354D01*
X137022692Y-119311300D01*
X136890908Y-119311300D01*
X136763612Y-119345408D01*
X136649486Y-119411300D01*
X136649483Y-119411302D01*
X136556302Y-119504483D01*
X136556300Y-119504486D01*
X136490408Y-119618612D01*
X136456300Y-119745908D01*
X132547894Y-119745908D01*
X132546314Y-119740012D01*
X132546311Y-119740006D01*
X132500173Y-119660094D01*
X132500170Y-119660091D01*
X132500169Y-119660088D01*
X132434912Y-119594831D01*
X132434909Y-119594829D01*
X132434905Y-119594826D01*
X132354993Y-119548688D01*
X132354990Y-119548687D01*
X132354989Y-119548686D01*
X132354988Y-119548686D01*
X132265844Y-119524800D01*
X132173556Y-119524800D01*
X132084412Y-119548686D01*
X132084411Y-119548686D01*
X132084409Y-119548687D01*
X132084406Y-119548688D01*
X132004494Y-119594826D01*
X132004485Y-119594833D01*
X131939233Y-119660085D01*
X131939226Y-119660094D01*
X131893088Y-119740006D01*
X131893087Y-119740009D01*
X131893086Y-119740011D01*
X131893086Y-119740012D01*
X131869200Y-119829156D01*
X118078732Y-119829156D01*
X118048157Y-119715049D01*
X117982265Y-119600921D01*
X117889079Y-119507735D01*
X117832015Y-119474789D01*
X117774952Y-119441843D01*
X117660969Y-119411302D01*
X117647657Y-119407735D01*
X117515873Y-119407735D01*
X117388577Y-119441843D01*
X117274451Y-119507735D01*
X117274448Y-119507737D01*
X117181267Y-119600918D01*
X117181265Y-119600921D01*
X117115373Y-119715047D01*
X117081265Y-119842343D01*
X105410000Y-119842343D01*
X105410000Y-117409108D01*
X110624500Y-117409108D01*
X110624500Y-117540891D01*
X110658608Y-117668187D01*
X110670515Y-117688810D01*
X110724500Y-117782314D01*
X110817686Y-117875500D01*
X110931814Y-117941392D01*
X111059108Y-117975500D01*
X111059110Y-117975500D01*
X111190890Y-117975500D01*
X111190892Y-117975500D01*
X111318186Y-117941392D01*
X111432314Y-117875500D01*
X111525500Y-117782314D01*
X111591392Y-117668186D01*
X111625500Y-117540892D01*
X111625500Y-117485308D01*
X115704500Y-117485308D01*
X115704500Y-117617092D01*
X115718191Y-117668187D01*
X115738608Y-117744387D01*
X115744201Y-117754074D01*
X115804500Y-117858514D01*
X115897686Y-117951700D01*
X116011814Y-118017592D01*
X116139108Y-118051700D01*
X116139110Y-118051700D01*
X116270890Y-118051700D01*
X116270892Y-118051700D01*
X116398186Y-118017592D01*
X116512314Y-117951700D01*
X116605500Y-117858514D01*
X116671392Y-117744386D01*
X116705500Y-117617092D01*
X116705500Y-117485308D01*
X116690000Y-117427461D01*
X131909500Y-117427461D01*
X131909500Y-117519749D01*
X131915165Y-117540892D01*
X131933387Y-117608895D01*
X131933388Y-117608898D01*
X131979526Y-117688810D01*
X131979533Y-117688819D01*
X131994835Y-117704121D01*
X132028320Y-117765444D01*
X132023336Y-117835136D01*
X131994837Y-117879481D01*
X131979534Y-117894784D01*
X131979526Y-117894794D01*
X131933388Y-117974706D01*
X131933387Y-117974709D01*
X131909500Y-118063856D01*
X131909500Y-118156143D01*
X131933387Y-118245290D01*
X131933388Y-118245293D01*
X131979526Y-118325205D01*
X131979529Y-118325209D01*
X131979531Y-118325212D01*
X132044788Y-118390469D01*
X132044791Y-118390470D01*
X132044794Y-118390473D01*
X132124706Y-118436611D01*
X132124707Y-118436611D01*
X132124712Y-118436614D01*
X132213856Y-118460500D01*
X132213858Y-118460500D01*
X132306142Y-118460500D01*
X132306144Y-118460500D01*
X132395288Y-118436614D01*
X132475212Y-118390469D01*
X132540469Y-118325212D01*
X132586614Y-118245288D01*
X132610500Y-118156144D01*
X132610500Y-118063856D01*
X132586614Y-117974712D01*
X132573328Y-117951700D01*
X132540473Y-117894794D01*
X132540470Y-117894791D01*
X132540469Y-117894788D01*
X132525164Y-117879483D01*
X132491679Y-117818160D01*
X132496663Y-117748468D01*
X132525164Y-117704121D01*
X132540469Y-117688817D01*
X132586614Y-117608893D01*
X132610500Y-117519749D01*
X132610500Y-117427461D01*
X132586614Y-117338317D01*
X132586611Y-117338311D01*
X132540473Y-117258399D01*
X132540470Y-117258396D01*
X132540469Y-117258393D01*
X132475212Y-117193136D01*
X132475209Y-117193134D01*
X132475205Y-117193131D01*
X132395293Y-117146993D01*
X132395290Y-117146992D01*
X132395289Y-117146991D01*
X132395288Y-117146991D01*
X132306144Y-117123105D01*
X132213856Y-117123105D01*
X132124712Y-117146991D01*
X132124711Y-117146991D01*
X132124709Y-117146992D01*
X132124706Y-117146993D01*
X132044794Y-117193131D01*
X132044785Y-117193138D01*
X131979533Y-117258390D01*
X131979526Y-117258399D01*
X131933388Y-117338311D01*
X131933387Y-117338314D01*
X131933386Y-117338316D01*
X131933386Y-117338317D01*
X131909500Y-117427461D01*
X116690000Y-117427461D01*
X116671392Y-117358014D01*
X116605500Y-117243886D01*
X116512314Y-117150700D01*
X116455250Y-117117754D01*
X116398187Y-117084808D01*
X116334539Y-117067754D01*
X116270892Y-117050700D01*
X116139108Y-117050700D01*
X116011812Y-117084808D01*
X115897686Y-117150700D01*
X115897683Y-117150702D01*
X115804502Y-117243883D01*
X115804500Y-117243886D01*
X115738608Y-117358012D01*
X115724917Y-117409110D01*
X115704500Y-117485308D01*
X111625500Y-117485308D01*
X111625500Y-117409108D01*
X111591392Y-117281814D01*
X111525500Y-117167686D01*
X111432314Y-117074500D01*
X111373508Y-117040548D01*
X111318187Y-117008608D01*
X111254539Y-116991554D01*
X111190892Y-116974500D01*
X111059108Y-116974500D01*
X110931812Y-117008608D01*
X110817686Y-117074500D01*
X110817683Y-117074502D01*
X110724502Y-117167683D01*
X110724500Y-117167686D01*
X110658608Y-117281812D01*
X110624500Y-117409108D01*
X105410000Y-117409108D01*
X105410000Y-116667343D01*
X112001265Y-116667343D01*
X112001265Y-116799126D01*
X112035373Y-116926422D01*
X112063131Y-116974500D01*
X112101265Y-117040549D01*
X112194451Y-117133735D01*
X112308579Y-117199627D01*
X112435873Y-117233735D01*
X112435875Y-117233735D01*
X112567655Y-117233735D01*
X112567657Y-117233735D01*
X112694951Y-117199627D01*
X112809079Y-117133735D01*
X112902265Y-117040549D01*
X112968157Y-116926421D01*
X113002265Y-116799127D01*
X113002265Y-116667343D01*
X112968157Y-116540049D01*
X112902265Y-116425921D01*
X112809079Y-116332735D01*
X112752015Y-116299789D01*
X112737672Y-116291508D01*
X114536100Y-116291508D01*
X114536100Y-116423292D01*
X114553154Y-116486939D01*
X114570208Y-116550587D01*
X114601911Y-116605497D01*
X114636100Y-116664714D01*
X114729286Y-116757900D01*
X114843414Y-116823792D01*
X114970708Y-116857900D01*
X114970710Y-116857900D01*
X115102490Y-116857900D01*
X115102492Y-116857900D01*
X115229786Y-116823792D01*
X115343914Y-116757900D01*
X115437100Y-116664714D01*
X115502992Y-116550586D01*
X115537100Y-116423292D01*
X115537100Y-116291508D01*
X115502992Y-116164214D01*
X115488497Y-116139108D01*
X132214500Y-116139108D01*
X132214500Y-116270891D01*
X132248608Y-116398187D01*
X132263102Y-116423290D01*
X132314500Y-116512314D01*
X132407686Y-116605500D01*
X132521814Y-116671392D01*
X132649108Y-116705500D01*
X132649110Y-116705500D01*
X132780890Y-116705500D01*
X132780892Y-116705500D01*
X132908186Y-116671392D01*
X133022314Y-116605500D01*
X133115500Y-116512314D01*
X133181392Y-116398186D01*
X133215500Y-116270892D01*
X133215500Y-116139108D01*
X133181392Y-116011814D01*
X133115500Y-115897686D01*
X133022314Y-115804500D01*
X132965250Y-115771554D01*
X132908187Y-115738608D01*
X132844539Y-115721554D01*
X132780892Y-115704500D01*
X132649108Y-115704500D01*
X132521812Y-115738608D01*
X132407686Y-115804500D01*
X132407683Y-115804502D01*
X132314502Y-115897683D01*
X132314500Y-115897686D01*
X132248608Y-116011812D01*
X132214500Y-116139108D01*
X115488497Y-116139108D01*
X115437100Y-116050086D01*
X115343914Y-115956900D01*
X115241353Y-115897686D01*
X115229787Y-115891008D01*
X115166139Y-115873954D01*
X115102492Y-115856900D01*
X114970708Y-115856900D01*
X114843412Y-115891008D01*
X114729286Y-115956900D01*
X114729283Y-115956902D01*
X114636102Y-116050083D01*
X114636100Y-116050086D01*
X114570208Y-116164212D01*
X114541624Y-116270891D01*
X114536100Y-116291508D01*
X112737672Y-116291508D01*
X112694952Y-116266843D01*
X112631304Y-116249789D01*
X112567657Y-116232735D01*
X112435873Y-116232735D01*
X112308577Y-116266843D01*
X112194451Y-116332735D01*
X112194448Y-116332737D01*
X112101267Y-116425918D01*
X112101265Y-116425921D01*
X112035373Y-116540047D01*
X112001265Y-116667343D01*
X105410000Y-116667343D01*
X105410000Y-114869108D01*
X118854100Y-114869108D01*
X118854100Y-115000891D01*
X118888208Y-115128187D01*
X118921154Y-115185250D01*
X118954100Y-115242314D01*
X119047286Y-115335500D01*
X119161414Y-115401392D01*
X119288708Y-115435500D01*
X119288710Y-115435500D01*
X119420490Y-115435500D01*
X119420492Y-115435500D01*
X119547786Y-115401392D01*
X119661914Y-115335500D01*
X119755100Y-115242314D01*
X119820992Y-115128186D01*
X119855100Y-115000892D01*
X119855100Y-114869108D01*
X119820992Y-114741814D01*
X119755100Y-114627686D01*
X119661914Y-114534500D01*
X119604850Y-114501554D01*
X119547787Y-114468608D01*
X119484139Y-114451554D01*
X119420492Y-114434500D01*
X119288708Y-114434500D01*
X119161412Y-114468608D01*
X119047286Y-114534500D01*
X119047283Y-114534502D01*
X118954102Y-114627683D01*
X118954100Y-114627686D01*
X118888208Y-114741812D01*
X118854100Y-114869108D01*
X105410000Y-114869108D01*
X105410000Y-113802308D01*
X123654700Y-113802308D01*
X123654700Y-113934091D01*
X123688808Y-114061387D01*
X123710783Y-114099448D01*
X123754700Y-114175514D01*
X123847886Y-114268700D01*
X123962014Y-114334592D01*
X124089308Y-114368700D01*
X124089310Y-114368700D01*
X124221090Y-114368700D01*
X124221092Y-114368700D01*
X124324945Y-114340873D01*
X132107735Y-114340873D01*
X132107735Y-114472656D01*
X132141843Y-114599952D01*
X132157854Y-114627683D01*
X132207735Y-114714079D01*
X132300921Y-114807265D01*
X132415049Y-114873157D01*
X132542343Y-114907265D01*
X132542345Y-114907265D01*
X132674125Y-114907265D01*
X132674127Y-114907265D01*
X132801421Y-114873157D01*
X132915549Y-114807265D01*
X133008735Y-114714079D01*
X133074627Y-114599951D01*
X133108735Y-114472657D01*
X133108735Y-114340873D01*
X133074627Y-114213579D01*
X133008735Y-114099451D01*
X132915549Y-114006265D01*
X132858485Y-113973319D01*
X132801422Y-113940373D01*
X132737774Y-113923319D01*
X132674127Y-113906265D01*
X132542343Y-113906265D01*
X132415047Y-113940373D01*
X132300921Y-114006265D01*
X132300918Y-114006267D01*
X132207737Y-114099448D01*
X132207735Y-114099451D01*
X132141843Y-114213577D01*
X132107735Y-114340873D01*
X124324945Y-114340873D01*
X124348386Y-114334592D01*
X124462514Y-114268700D01*
X124555700Y-114175514D01*
X124621592Y-114061386D01*
X124655700Y-113934092D01*
X124655700Y-113802308D01*
X124621592Y-113675014D01*
X124555700Y-113560886D01*
X124462514Y-113467700D01*
X124390537Y-113426144D01*
X124348387Y-113401808D01*
X124284739Y-113384754D01*
X124221092Y-113367700D01*
X124089308Y-113367700D01*
X123962012Y-113401808D01*
X123847886Y-113467700D01*
X123847883Y-113467702D01*
X123754702Y-113560883D01*
X123754700Y-113560886D01*
X123688808Y-113675012D01*
X123654700Y-113802308D01*
X105410000Y-113802308D01*
X105410000Y-113333856D01*
X110039500Y-113333856D01*
X110039500Y-113426144D01*
X110050635Y-113467702D01*
X110063387Y-113515290D01*
X110063388Y-113515293D01*
X110109526Y-113595205D01*
X110109529Y-113595209D01*
X110109531Y-113595212D01*
X110174788Y-113660469D01*
X110174791Y-113660470D01*
X110174794Y-113660473D01*
X110254706Y-113706611D01*
X110254707Y-113706611D01*
X110254712Y-113706614D01*
X110343856Y-113730500D01*
X110343858Y-113730500D01*
X110436142Y-113730500D01*
X110436144Y-113730500D01*
X110525288Y-113706614D01*
X110605212Y-113660469D01*
X110670469Y-113595212D01*
X110716614Y-113515288D01*
X110740500Y-113426144D01*
X110740500Y-113333856D01*
X111309500Y-113333856D01*
X111309500Y-113426144D01*
X111320635Y-113467702D01*
X111333387Y-113515290D01*
X111333388Y-113515293D01*
X111379526Y-113595205D01*
X111379529Y-113595209D01*
X111379531Y-113595212D01*
X111444788Y-113660469D01*
X111444791Y-113660470D01*
X111444794Y-113660473D01*
X111524706Y-113706611D01*
X111524707Y-113706611D01*
X111524712Y-113706614D01*
X111613856Y-113730500D01*
X111613858Y-113730500D01*
X111706142Y-113730500D01*
X111706144Y-113730500D01*
X111795288Y-113706614D01*
X111800395Y-113703664D01*
X111829616Y-113686795D01*
X111850023Y-113675012D01*
X111875212Y-113660469D01*
X111940469Y-113595212D01*
X111986614Y-113515288D01*
X112010500Y-113426144D01*
X112010500Y-113333856D01*
X111986614Y-113244712D01*
X111986611Y-113244706D01*
X111940473Y-113164794D01*
X111940470Y-113164791D01*
X111940469Y-113164788D01*
X111875212Y-113099531D01*
X111875209Y-113099529D01*
X111875205Y-113099526D01*
X111795293Y-113053388D01*
X111795290Y-113053387D01*
X111795289Y-113053386D01*
X111795288Y-113053386D01*
X111706144Y-113029500D01*
X111613856Y-113029500D01*
X111524712Y-113053386D01*
X111524711Y-113053386D01*
X111524709Y-113053387D01*
X111524706Y-113053388D01*
X111444794Y-113099526D01*
X111444785Y-113099533D01*
X111379533Y-113164785D01*
X111379526Y-113164794D01*
X111333388Y-113244706D01*
X111333387Y-113244709D01*
X111333386Y-113244711D01*
X111333386Y-113244712D01*
X111309500Y-113333856D01*
X110740500Y-113333856D01*
X110716614Y-113244712D01*
X110716611Y-113244706D01*
X110670473Y-113164794D01*
X110670470Y-113164791D01*
X110670469Y-113164788D01*
X110605212Y-113099531D01*
X110605209Y-113099529D01*
X110605205Y-113099526D01*
X110525293Y-113053388D01*
X110525290Y-113053387D01*
X110525289Y-113053386D01*
X110525288Y-113053386D01*
X110436144Y-113029500D01*
X110343856Y-113029500D01*
X110254712Y-113053386D01*
X110254711Y-113053386D01*
X110254709Y-113053387D01*
X110254706Y-113053388D01*
X110174794Y-113099526D01*
X110174785Y-113099533D01*
X110109533Y-113164785D01*
X110109526Y-113164794D01*
X110063388Y-113244706D01*
X110063387Y-113244709D01*
X110063386Y-113244711D01*
X110063386Y-113244712D01*
X110039500Y-113333856D01*
X105410000Y-113333856D01*
X105410000Y-111541708D01*
X108084500Y-111541708D01*
X108084500Y-111673492D01*
X108096728Y-111719127D01*
X108118608Y-111800787D01*
X108128559Y-111818022D01*
X108184500Y-111914914D01*
X108277686Y-112008100D01*
X108391814Y-112073992D01*
X108519108Y-112108100D01*
X108519110Y-112108100D01*
X108650890Y-112108100D01*
X108650892Y-112108100D01*
X108778186Y-112073992D01*
X108892314Y-112008100D01*
X108985500Y-111914914D01*
X109051392Y-111800786D01*
X109073170Y-111719508D01*
X113723300Y-111719508D01*
X113723300Y-111851291D01*
X113757408Y-111978587D01*
X113774446Y-112008097D01*
X113823300Y-112092714D01*
X113916486Y-112185900D01*
X114030614Y-112251792D01*
X114157908Y-112285900D01*
X114157910Y-112285900D01*
X114289690Y-112285900D01*
X114289692Y-112285900D01*
X114416986Y-112251792D01*
X114531114Y-112185900D01*
X114624300Y-112092714D01*
X114690192Y-111978586D01*
X114724300Y-111851292D01*
X114724300Y-111719508D01*
X114690192Y-111592214D01*
X114689717Y-111591392D01*
X114668698Y-111554985D01*
X114624300Y-111478086D01*
X114531114Y-111384900D01*
X114463601Y-111345921D01*
X114416987Y-111319008D01*
X114341325Y-111298735D01*
X114289692Y-111284900D01*
X114157908Y-111284900D01*
X114030612Y-111319008D01*
X113916486Y-111384900D01*
X113916483Y-111384902D01*
X113823302Y-111478083D01*
X113823300Y-111478086D01*
X113757408Y-111592212D01*
X113723300Y-111719508D01*
X109073170Y-111719508D01*
X109085500Y-111673492D01*
X109085500Y-111541708D01*
X109051392Y-111414414D01*
X109050917Y-111413592D01*
X109019687Y-111359500D01*
X108985500Y-111300286D01*
X108892314Y-111207100D01*
X108825109Y-111168299D01*
X108778187Y-111141208D01*
X108714539Y-111124154D01*
X108650892Y-111107100D01*
X108519108Y-111107100D01*
X108391812Y-111141208D01*
X108277686Y-111207100D01*
X108277683Y-111207102D01*
X108184502Y-111300283D01*
X108184500Y-111300286D01*
X108118608Y-111414412D01*
X108091487Y-111515631D01*
X108084500Y-111541708D01*
X105410000Y-111541708D01*
X105410000Y-110601908D01*
X111564300Y-110601908D01*
X111564300Y-110733692D01*
X111569745Y-110754012D01*
X111598408Y-110860987D01*
X111631354Y-110918050D01*
X111664300Y-110975114D01*
X111757486Y-111068300D01*
X111871614Y-111134192D01*
X111998908Y-111168300D01*
X111998910Y-111168300D01*
X112130690Y-111168300D01*
X112130692Y-111168300D01*
X112257986Y-111134192D01*
X112372114Y-111068300D01*
X112381306Y-111059108D01*
X115704500Y-111059108D01*
X115704500Y-111190892D01*
X115717609Y-111239815D01*
X115738608Y-111318187D01*
X115754619Y-111345918D01*
X115804500Y-111432314D01*
X115897686Y-111525500D01*
X116011814Y-111591392D01*
X116139108Y-111625500D01*
X116139110Y-111625500D01*
X116215500Y-111625500D01*
X116282539Y-111645185D01*
X116328294Y-111697989D01*
X116339500Y-111749500D01*
X116339500Y-111825891D01*
X116373608Y-111953187D01*
X116404527Y-112006740D01*
X116439500Y-112067314D01*
X116532686Y-112160500D01*
X116631521Y-112217563D01*
X116646810Y-112226390D01*
X116646814Y-112226392D01*
X116774108Y-112260500D01*
X116774110Y-112260500D01*
X116905890Y-112260500D01*
X116905892Y-112260500D01*
X117033186Y-112226392D01*
X117033193Y-112226387D01*
X117040700Y-112223280D01*
X117041659Y-112225596D01*
X117097306Y-112212082D01*
X117163339Y-112234918D01*
X117189814Y-112260458D01*
X117191605Y-112262793D01*
X117191608Y-112262797D01*
X117284794Y-112355983D01*
X117398922Y-112421875D01*
X117526216Y-112455983D01*
X117526218Y-112455983D01*
X117657998Y-112455983D01*
X117658000Y-112455983D01*
X117785294Y-112421875D01*
X117899422Y-112355983D01*
X117992608Y-112262797D01*
X118058500Y-112148669D01*
X118080543Y-112066399D01*
X118116908Y-112006740D01*
X118179755Y-111976211D01*
X118249130Y-111984506D01*
X118287999Y-112010813D01*
X118330921Y-112053735D01*
X118445049Y-112119627D01*
X118572343Y-112153735D01*
X118572345Y-112153735D01*
X118704125Y-112153735D01*
X118704127Y-112153735D01*
X118831421Y-112119627D01*
X118945549Y-112053735D01*
X119038735Y-111960549D01*
X119076402Y-111895308D01*
X121468300Y-111895308D01*
X121468300Y-112027092D01*
X121481700Y-112077102D01*
X121502408Y-112154387D01*
X121531281Y-112204396D01*
X121568300Y-112268514D01*
X121661486Y-112361700D01*
X121775614Y-112427592D01*
X121902908Y-112461700D01*
X121902910Y-112461700D01*
X122034690Y-112461700D01*
X122034692Y-112461700D01*
X122161986Y-112427592D01*
X122274578Y-112362586D01*
X122342476Y-112346114D01*
X122408503Y-112368966D01*
X122424257Y-112382292D01*
X122453672Y-112411706D01*
X122453676Y-112411710D01*
X122567804Y-112477602D01*
X122695098Y-112511710D01*
X122695100Y-112511710D01*
X122826880Y-112511710D01*
X122826882Y-112511710D01*
X122954176Y-112477602D01*
X123068304Y-112411710D01*
X123161490Y-112318524D01*
X123227382Y-112204396D01*
X123261490Y-112077102D01*
X123261490Y-111945318D01*
X123227382Y-111818024D01*
X123161490Y-111703896D01*
X123068304Y-111610710D01*
X122981688Y-111560702D01*
X122954177Y-111544818D01*
X122890529Y-111527764D01*
X122826882Y-111510710D01*
X122695098Y-111510710D01*
X122567802Y-111544818D01*
X122455210Y-111609823D01*
X122387310Y-111626295D01*
X122321283Y-111603442D01*
X122305530Y-111590116D01*
X122276116Y-111560702D01*
X122276114Y-111560700D01*
X122198056Y-111515633D01*
X122161987Y-111494808D01*
X122098339Y-111477754D01*
X122034692Y-111460700D01*
X121902908Y-111460700D01*
X121775612Y-111494808D01*
X121661486Y-111560700D01*
X121661483Y-111560702D01*
X121568302Y-111653883D01*
X121568300Y-111653886D01*
X121502408Y-111768012D01*
X121481399Y-111846421D01*
X121468300Y-111895308D01*
X119076402Y-111895308D01*
X119104627Y-111846421D01*
X119138735Y-111719127D01*
X119138735Y-111587343D01*
X119104627Y-111460049D01*
X119100372Y-111452680D01*
X119088614Y-111432314D01*
X119038735Y-111345921D01*
X118945549Y-111252735D01*
X118866507Y-111207100D01*
X118831422Y-111186843D01*
X118762213Y-111168299D01*
X118704127Y-111152735D01*
X118572343Y-111152735D01*
X118445047Y-111186843D01*
X118330921Y-111252735D01*
X118330918Y-111252737D01*
X118237737Y-111345918D01*
X118237735Y-111345921D01*
X118171842Y-111460049D01*
X118149798Y-111542318D01*
X118113433Y-111601978D01*
X118050586Y-111632506D01*
X117981210Y-111624211D01*
X117942343Y-111597904D01*
X117899424Y-111554985D01*
X117899422Y-111554983D01*
X117810073Y-111503397D01*
X117785295Y-111489091D01*
X117679336Y-111460700D01*
X117658000Y-111454983D01*
X117526216Y-111454983D01*
X117398922Y-111489091D01*
X117391412Y-111492202D01*
X117390456Y-111489894D01*
X117334740Y-111503397D01*
X117268719Y-111480529D01*
X117242291Y-111455022D01*
X117240504Y-111452693D01*
X117240500Y-111452686D01*
X117147314Y-111359500D01*
X117044753Y-111300286D01*
X117033187Y-111293608D01*
X116960787Y-111274209D01*
X116905892Y-111259500D01*
X116829500Y-111259500D01*
X116762461Y-111239815D01*
X116716706Y-111187011D01*
X116705500Y-111135500D01*
X116705500Y-111059110D01*
X116705500Y-111059108D01*
X116671392Y-110931814D01*
X116671390Y-110931811D01*
X116671391Y-110931811D01*
X116642232Y-110881308D01*
X119184300Y-110881308D01*
X119184300Y-111013092D01*
X119196630Y-111059108D01*
X119218408Y-111140387D01*
X119234524Y-111168300D01*
X119284300Y-111254514D01*
X119377486Y-111347700D01*
X119491614Y-111413592D01*
X119618908Y-111447700D01*
X119618910Y-111447700D01*
X119750690Y-111447700D01*
X119750692Y-111447700D01*
X119877986Y-111413592D01*
X119992114Y-111347700D01*
X120085300Y-111254514D01*
X120151192Y-111140386D01*
X120185300Y-111013092D01*
X120185300Y-110981075D01*
X120204985Y-110914036D01*
X120257789Y-110868281D01*
X120326947Y-110858337D01*
X120341386Y-110861298D01*
X120431708Y-110885500D01*
X120431710Y-110885500D01*
X120563490Y-110885500D01*
X120563492Y-110885500D01*
X120690786Y-110851392D01*
X120804914Y-110785500D01*
X120898100Y-110692314D01*
X120963992Y-110578186D01*
X120998100Y-110450892D01*
X120998100Y-110343153D01*
X123878545Y-110343153D01*
X123878545Y-110474936D01*
X123912653Y-110602232D01*
X123925510Y-110624500D01*
X123978545Y-110716359D01*
X123978547Y-110716361D01*
X124001118Y-110738932D01*
X124034603Y-110800255D01*
X124029619Y-110869947D01*
X124016415Y-110893791D01*
X124016718Y-110893966D01*
X124012656Y-110901000D01*
X124012654Y-110901003D01*
X123969866Y-110975113D01*
X123946762Y-111015130D01*
X123922535Y-111105548D01*
X123912654Y-111142425D01*
X123912654Y-111274209D01*
X123924438Y-111318187D01*
X123946762Y-111401504D01*
X123954215Y-111414412D01*
X124012654Y-111515631D01*
X124105840Y-111608817D01*
X124183902Y-111653886D01*
X124217856Y-111673490D01*
X124219968Y-111674709D01*
X124347262Y-111708817D01*
X124347264Y-111708817D01*
X124479044Y-111708817D01*
X124479046Y-111708817D01*
X124606340Y-111674709D01*
X124720468Y-111608817D01*
X124813654Y-111515631D01*
X124879546Y-111401503D01*
X124913654Y-111274209D01*
X124913654Y-111142425D01*
X124879546Y-111015131D01*
X124813654Y-110901003D01*
X124791079Y-110878428D01*
X124777407Y-110853389D01*
X124761127Y-110829966D01*
X124760878Y-110823118D01*
X124757595Y-110817104D01*
X124759630Y-110788651D01*
X124758598Y-110760142D01*
X124762201Y-110752720D01*
X124762581Y-110747412D01*
X124769786Y-110732343D01*
X130001265Y-110732343D01*
X130001265Y-110864127D01*
X130009260Y-110893966D01*
X130035373Y-110991422D01*
X130049061Y-111015129D01*
X130101265Y-111105549D01*
X130194451Y-111198735D01*
X130308579Y-111264627D01*
X130435873Y-111298735D01*
X130435875Y-111298735D01*
X130567655Y-111298735D01*
X130567657Y-111298735D01*
X130694951Y-111264627D01*
X130809079Y-111198735D01*
X130902265Y-111105549D01*
X130968157Y-110991421D01*
X131002265Y-110864127D01*
X131002265Y-110732343D01*
X130968157Y-110605049D01*
X130902265Y-110490921D01*
X130809079Y-110397735D01*
X130735926Y-110355500D01*
X130694952Y-110331843D01*
X130631304Y-110314789D01*
X130567657Y-110297735D01*
X130435873Y-110297735D01*
X130308577Y-110331843D01*
X130194451Y-110397735D01*
X130194448Y-110397737D01*
X130101267Y-110490918D01*
X130101265Y-110490921D01*
X130035373Y-110605047D01*
X130003366Y-110724502D01*
X130001265Y-110732343D01*
X124769786Y-110732343D01*
X124772088Y-110727528D01*
X124777488Y-110718415D01*
X124779545Y-110716359D01*
X124845437Y-110602231D01*
X124879545Y-110474937D01*
X124879545Y-110343153D01*
X124845437Y-110215859D01*
X124779545Y-110101731D01*
X124686359Y-110008545D01*
X124629295Y-109975599D01*
X124572232Y-109942653D01*
X124491013Y-109920891D01*
X124444937Y-109908545D01*
X124313153Y-109908545D01*
X124185857Y-109942653D01*
X124071731Y-110008545D01*
X124071728Y-110008547D01*
X123978547Y-110101728D01*
X123978545Y-110101731D01*
X123912653Y-110215857D01*
X123878545Y-110343153D01*
X120998100Y-110343153D01*
X120998100Y-110319108D01*
X120963992Y-110191814D01*
X120898100Y-110077686D01*
X120804914Y-109984500D01*
X120732433Y-109942653D01*
X120690787Y-109918608D01*
X120666949Y-109912221D01*
X120563492Y-109884500D01*
X120431708Y-109884500D01*
X120304412Y-109918608D01*
X120190286Y-109984500D01*
X120190283Y-109984502D01*
X120097102Y-110077683D01*
X120097100Y-110077686D01*
X120031208Y-110191812D01*
X119997100Y-110319108D01*
X119997100Y-110351124D01*
X119977415Y-110418163D01*
X119924611Y-110463918D01*
X119855453Y-110473862D01*
X119841008Y-110470899D01*
X119750693Y-110446700D01*
X119750692Y-110446700D01*
X119618908Y-110446700D01*
X119491612Y-110480808D01*
X119377486Y-110546700D01*
X119377483Y-110546702D01*
X119284302Y-110639883D01*
X119284300Y-110639886D01*
X119218408Y-110754012D01*
X119187344Y-110869947D01*
X119184300Y-110881308D01*
X116642232Y-110881308D01*
X116634711Y-110868281D01*
X116605500Y-110817686D01*
X116512314Y-110724500D01*
X116455250Y-110691554D01*
X116398187Y-110658608D01*
X116328303Y-110639883D01*
X116270892Y-110624500D01*
X116139108Y-110624500D01*
X116019638Y-110656511D01*
X116019636Y-110656512D01*
X116011814Y-110658608D01*
X115897686Y-110724500D01*
X115882660Y-110739525D01*
X115882658Y-110739527D01*
X115804500Y-110817686D01*
X115738608Y-110931812D01*
X115722636Y-110991422D01*
X115704500Y-111059108D01*
X112381306Y-111059108D01*
X112465300Y-110975114D01*
X112531192Y-110860986D01*
X112565300Y-110733692D01*
X112565300Y-110601908D01*
X112531192Y-110474614D01*
X112465300Y-110360486D01*
X112372114Y-110267300D01*
X112283016Y-110215859D01*
X112257987Y-110201408D01*
X112194339Y-110184354D01*
X112130692Y-110167300D01*
X111998908Y-110167300D01*
X111871612Y-110201408D01*
X111757486Y-110267300D01*
X111757483Y-110267302D01*
X111664302Y-110360483D01*
X111664300Y-110360486D01*
X111598408Y-110474612D01*
X111579093Y-110546700D01*
X111564300Y-110601908D01*
X105410000Y-110601908D01*
X105410000Y-109260874D01*
X114962735Y-109260874D01*
X114962735Y-109392658D01*
X114979305Y-109454500D01*
X114996843Y-109519953D01*
X115017834Y-109556309D01*
X115062735Y-109634080D01*
X115062738Y-109634083D01*
X115105895Y-109677241D01*
X115139379Y-109738564D01*
X115134394Y-109808256D01*
X115125601Y-109826920D01*
X115103608Y-109865012D01*
X115082805Y-109942653D01*
X115069500Y-109992308D01*
X115069500Y-110124092D01*
X115086554Y-110187739D01*
X115103608Y-110251387D01*
X115105983Y-110255500D01*
X115169500Y-110365514D01*
X115262686Y-110458700D01*
X115376814Y-110524592D01*
X115504108Y-110558700D01*
X115504110Y-110558700D01*
X115635890Y-110558700D01*
X115635892Y-110558700D01*
X115763186Y-110524592D01*
X115877314Y-110458700D01*
X115970500Y-110365514D01*
X116036392Y-110251386D01*
X116070500Y-110124092D01*
X116070500Y-109992308D01*
X116036392Y-109865014D01*
X115992568Y-109789108D01*
X125229500Y-109789108D01*
X125229500Y-109920891D01*
X125263608Y-110048187D01*
X125280638Y-110077683D01*
X125329500Y-110162314D01*
X125422686Y-110255500D01*
X125536814Y-110321392D01*
X125664108Y-110355500D01*
X125664110Y-110355500D01*
X125795890Y-110355500D01*
X125795892Y-110355500D01*
X125923186Y-110321392D01*
X126037314Y-110255500D01*
X126130500Y-110162314D01*
X126196392Y-110048186D01*
X126230500Y-109920892D01*
X126230500Y-109789108D01*
X127134500Y-109789108D01*
X127134500Y-109920891D01*
X127168608Y-110048187D01*
X127185638Y-110077683D01*
X127234500Y-110162314D01*
X127327686Y-110255500D01*
X127441814Y-110321392D01*
X127569108Y-110355500D01*
X127569110Y-110355500D01*
X127700890Y-110355500D01*
X127700892Y-110355500D01*
X127828186Y-110321392D01*
X127942314Y-110255500D01*
X128035500Y-110162314D01*
X128101392Y-110048186D01*
X128135500Y-109920892D01*
X128135500Y-109789108D01*
X128101392Y-109661814D01*
X128100917Y-109660992D01*
X128085379Y-109634079D01*
X128035500Y-109547686D01*
X127942314Y-109454500D01*
X127885250Y-109421554D01*
X127828187Y-109388608D01*
X127740015Y-109364983D01*
X127700892Y-109354500D01*
X127569108Y-109354500D01*
X127441812Y-109388608D01*
X127327686Y-109454500D01*
X127327683Y-109454502D01*
X127234502Y-109547683D01*
X127234500Y-109547686D01*
X127168608Y-109661812D01*
X127134500Y-109789108D01*
X126230500Y-109789108D01*
X126196392Y-109661814D01*
X126195917Y-109660992D01*
X126180379Y-109634079D01*
X126130500Y-109547686D01*
X126037314Y-109454500D01*
X125980250Y-109421554D01*
X125923187Y-109388608D01*
X125835015Y-109364983D01*
X125795892Y-109354500D01*
X125664108Y-109354500D01*
X125536812Y-109388608D01*
X125422686Y-109454500D01*
X125422683Y-109454502D01*
X125329502Y-109547683D01*
X125329500Y-109547686D01*
X125263608Y-109661812D01*
X125229500Y-109789108D01*
X115992568Y-109789108D01*
X115970500Y-109750886D01*
X115927340Y-109707726D01*
X115893855Y-109646403D01*
X115898839Y-109576711D01*
X115907631Y-109558048D01*
X115929627Y-109519952D01*
X115963735Y-109392658D01*
X115963735Y-109260874D01*
X115929627Y-109133580D01*
X115926814Y-109128708D01*
X117744500Y-109128708D01*
X117744500Y-109260492D01*
X117744603Y-109260876D01*
X117778608Y-109387787D01*
X117811554Y-109444850D01*
X117844500Y-109501914D01*
X117937686Y-109595100D01*
X118051814Y-109660992D01*
X118179108Y-109695100D01*
X118179110Y-109695100D01*
X118310890Y-109695100D01*
X118310892Y-109695100D01*
X118438186Y-109660992D01*
X118552314Y-109595100D01*
X118645500Y-109501914D01*
X118711392Y-109387786D01*
X118745500Y-109260492D01*
X118745500Y-109183551D01*
X121435690Y-109183551D01*
X121435690Y-109275839D01*
X121456767Y-109354500D01*
X121459577Y-109364985D01*
X121459578Y-109364988D01*
X121505716Y-109444900D01*
X121505719Y-109444904D01*
X121505721Y-109444907D01*
X121570978Y-109510164D01*
X121570981Y-109510165D01*
X121570984Y-109510168D01*
X121650896Y-109556306D01*
X121650897Y-109556306D01*
X121650902Y-109556309D01*
X121740046Y-109580195D01*
X121740048Y-109580195D01*
X121832332Y-109580195D01*
X121832334Y-109580195D01*
X121921478Y-109556309D01*
X122001402Y-109510164D01*
X122066659Y-109444907D01*
X122096826Y-109392658D01*
X122100253Y-109386723D01*
X122150820Y-109338508D01*
X122207639Y-109324724D01*
X122262142Y-109324724D01*
X122262144Y-109324724D01*
X122351288Y-109300838D01*
X122431212Y-109254693D01*
X122496469Y-109189436D01*
X122542614Y-109109512D01*
X122566500Y-109020368D01*
X122566500Y-108928080D01*
X122542614Y-108838936D01*
X122516729Y-108794102D01*
X122496473Y-108759018D01*
X122496470Y-108759015D01*
X122496469Y-108759012D01*
X122431212Y-108693755D01*
X122431209Y-108693753D01*
X122431205Y-108693750D01*
X122351293Y-108647612D01*
X122351290Y-108647611D01*
X122351289Y-108647610D01*
X122351288Y-108647610D01*
X122262144Y-108623724D01*
X122169856Y-108623724D01*
X122080712Y-108647610D01*
X122080711Y-108647610D01*
X122080709Y-108647611D01*
X122080706Y-108647612D01*
X122000794Y-108693750D01*
X122000785Y-108693757D01*
X121935533Y-108759009D01*
X121935529Y-108759015D01*
X121925095Y-108777085D01*
X121901937Y-108817196D01*
X121851372Y-108865411D01*
X121794552Y-108879195D01*
X121740046Y-108879195D01*
X121650902Y-108903081D01*
X121650901Y-108903081D01*
X121650899Y-108903082D01*
X121650896Y-108903083D01*
X121570984Y-108949221D01*
X121570975Y-108949228D01*
X121505723Y-109014480D01*
X121505716Y-109014489D01*
X121459578Y-109094401D01*
X121459577Y-109094404D01*
X121459576Y-109094406D01*
X121459576Y-109094407D01*
X121435690Y-109183551D01*
X118745500Y-109183551D01*
X118745500Y-109128708D01*
X118711392Y-109001414D01*
X118645500Y-108887286D01*
X118552314Y-108794100D01*
X118491535Y-108759009D01*
X118438187Y-108728208D01*
X118374539Y-108711154D01*
X118310892Y-108694100D01*
X118179108Y-108694100D01*
X118051812Y-108728208D01*
X117937686Y-108794100D01*
X117937683Y-108794102D01*
X117844502Y-108887283D01*
X117844500Y-108887286D01*
X117778608Y-109001412D01*
X117749643Y-109109514D01*
X117744500Y-109128708D01*
X115926814Y-109128708D01*
X115900136Y-109082500D01*
X115897812Y-109077493D01*
X115893414Y-109048188D01*
X115886427Y-109019387D01*
X115888286Y-109014015D01*
X115887443Y-109008397D01*
X115899584Y-108981369D01*
X115909279Y-108953360D01*
X115913746Y-108949847D01*
X115916075Y-108944663D01*
X115940908Y-108928486D01*
X115964200Y-108910170D01*
X115969856Y-108909629D01*
X115974620Y-108906527D01*
X116004259Y-108906344D01*
X116033754Y-108903528D01*
X116040703Y-108906120D01*
X116044488Y-108906097D01*
X116049985Y-108909582D01*
X116072288Y-108917901D01*
X116118573Y-108944624D01*
X116118574Y-108944624D01*
X116118579Y-108944627D01*
X116245873Y-108978735D01*
X116245875Y-108978735D01*
X116377655Y-108978735D01*
X116377657Y-108978735D01*
X116504951Y-108944627D01*
X116619079Y-108878735D01*
X116712265Y-108785549D01*
X116778157Y-108671421D01*
X116812265Y-108544127D01*
X116812265Y-108412343D01*
X116778157Y-108285049D01*
X116712265Y-108170921D01*
X116619079Y-108077735D01*
X116527499Y-108024861D01*
X116504952Y-108011843D01*
X116441304Y-107994789D01*
X116377657Y-107977735D01*
X116245873Y-107977735D01*
X116118577Y-108011843D01*
X116004451Y-108077735D01*
X116004448Y-108077737D01*
X115911267Y-108170918D01*
X115911265Y-108170921D01*
X115845373Y-108285047D01*
X115825433Y-108359467D01*
X115811265Y-108412343D01*
X115811265Y-108544127D01*
X115838993Y-108647612D01*
X115845374Y-108671423D01*
X115845374Y-108671424D01*
X115872099Y-108717713D01*
X115888572Y-108785613D01*
X115865719Y-108851640D01*
X115810798Y-108894831D01*
X115741245Y-108901472D01*
X115702712Y-108887100D01*
X115684114Y-108876363D01*
X115656422Y-108860374D01*
X115592774Y-108843320D01*
X115529127Y-108826266D01*
X115397343Y-108826266D01*
X115270047Y-108860374D01*
X115155921Y-108926266D01*
X115155918Y-108926268D01*
X115062737Y-109019449D01*
X115062735Y-109019452D01*
X114996843Y-109133578D01*
X114981876Y-109189438D01*
X114962735Y-109260874D01*
X105410000Y-109260874D01*
X105410000Y-107673372D01*
X112834300Y-107673372D01*
X112834300Y-107805156D01*
X112837072Y-107815500D01*
X112868408Y-107932451D01*
X112894553Y-107977735D01*
X112934300Y-108046578D01*
X113027486Y-108139764D01*
X113141614Y-108205656D01*
X113268908Y-108239764D01*
X113268910Y-108239764D01*
X113400690Y-108239764D01*
X113400692Y-108239764D01*
X113527986Y-108205656D01*
X113642114Y-108139764D01*
X113735300Y-108046578D01*
X113801192Y-107932450D01*
X113835300Y-107805156D01*
X113835300Y-107673372D01*
X113801192Y-107546078D01*
X113795750Y-107536653D01*
X113783565Y-107515548D01*
X113735300Y-107431950D01*
X113642114Y-107338764D01*
X113562984Y-107293078D01*
X113527987Y-107272872D01*
X113493001Y-107263498D01*
X113400692Y-107238764D01*
X113268908Y-107238764D01*
X113141612Y-107272872D01*
X113027486Y-107338764D01*
X113027483Y-107338766D01*
X112934302Y-107431947D01*
X112934300Y-107431950D01*
X112868408Y-107546076D01*
X112840119Y-107651656D01*
X112834300Y-107673372D01*
X105410000Y-107673372D01*
X105410000Y-107142343D01*
X114541265Y-107142343D01*
X114541265Y-107274127D01*
X114556761Y-107331959D01*
X114575373Y-107401422D01*
X114592997Y-107431947D01*
X114641265Y-107515549D01*
X114734451Y-107608735D01*
X114848579Y-107674627D01*
X114975873Y-107708735D01*
X114975875Y-107708735D01*
X115107655Y-107708735D01*
X115107657Y-107708735D01*
X115234951Y-107674627D01*
X115349079Y-107608735D01*
X115442265Y-107515549D01*
X115508157Y-107401421D01*
X115542265Y-107274127D01*
X115542265Y-107142343D01*
X117502735Y-107142343D01*
X117502735Y-107274127D01*
X117518231Y-107331959D01*
X117536843Y-107401422D01*
X117554467Y-107431947D01*
X117602735Y-107515549D01*
X117695921Y-107608735D01*
X117810049Y-107674627D01*
X117937343Y-107708735D01*
X117937345Y-107708735D01*
X118069125Y-107708735D01*
X118069127Y-107708735D01*
X118196421Y-107674627D01*
X118310549Y-107608735D01*
X118403735Y-107515549D01*
X118469627Y-107401421D01*
X118503735Y-107274127D01*
X118503735Y-107210043D01*
X121535728Y-107210043D01*
X121535728Y-107302331D01*
X121557469Y-107383470D01*
X121559615Y-107391477D01*
X121559616Y-107391480D01*
X121605754Y-107471392D01*
X121605757Y-107471396D01*
X121605759Y-107471399D01*
X121671016Y-107536656D01*
X121671019Y-107536657D01*
X121671022Y-107536660D01*
X121750934Y-107582798D01*
X121750935Y-107582798D01*
X121750940Y-107582801D01*
X121840084Y-107606687D01*
X121840086Y-107606687D01*
X121932370Y-107606687D01*
X121932372Y-107606687D01*
X122021516Y-107582801D01*
X122101440Y-107536656D01*
X122105482Y-107532613D01*
X122166800Y-107499128D01*
X122236492Y-107504109D01*
X122240611Y-107505729D01*
X122245256Y-107507652D01*
X122245263Y-107507656D01*
X122334407Y-107531542D01*
X122334409Y-107531542D01*
X122426693Y-107531542D01*
X122426695Y-107531542D01*
X122515839Y-107507656D01*
X122595763Y-107461511D01*
X122661020Y-107396254D01*
X122707165Y-107316330D01*
X122731051Y-107227186D01*
X122731051Y-107134898D01*
X122707165Y-107045754D01*
X122707162Y-107045748D01*
X122661024Y-106965836D01*
X122661021Y-106965833D01*
X122661020Y-106965830D01*
X122595763Y-106900573D01*
X122595760Y-106900571D01*
X122595756Y-106900568D01*
X122515844Y-106854430D01*
X122515841Y-106854429D01*
X122515840Y-106854428D01*
X122515839Y-106854428D01*
X122426695Y-106830542D01*
X122334407Y-106830542D01*
X122245263Y-106854428D01*
X122245262Y-106854428D01*
X122245260Y-106854429D01*
X122245257Y-106854430D01*
X122165345Y-106900568D01*
X122165337Y-106900574D01*
X122161291Y-106904621D01*
X122099966Y-106938103D01*
X122030275Y-106933115D01*
X122026172Y-106931501D01*
X122021518Y-106929574D01*
X122021517Y-106929573D01*
X122021516Y-106929573D01*
X121932372Y-106905687D01*
X121840084Y-106905687D01*
X121750940Y-106929573D01*
X121750939Y-106929573D01*
X121750937Y-106929574D01*
X121750934Y-106929575D01*
X121671022Y-106975713D01*
X121671013Y-106975720D01*
X121605761Y-107040972D01*
X121605754Y-107040981D01*
X121559616Y-107120893D01*
X121559615Y-107120896D01*
X121559614Y-107120898D01*
X121559614Y-107120899D01*
X121535728Y-107210043D01*
X118503735Y-107210043D01*
X118503735Y-107142343D01*
X118469627Y-107015049D01*
X118403735Y-106900921D01*
X118310549Y-106807735D01*
X118216960Y-106753701D01*
X118196422Y-106741843D01*
X118132774Y-106724789D01*
X118069127Y-106707735D01*
X117937343Y-106707735D01*
X117810047Y-106741843D01*
X117695921Y-106807735D01*
X117695918Y-106807737D01*
X117602737Y-106900918D01*
X117602735Y-106900921D01*
X117536843Y-107015047D01*
X117518097Y-107085011D01*
X117502735Y-107142343D01*
X115542265Y-107142343D01*
X115508157Y-107015049D01*
X115442265Y-106900921D01*
X115349079Y-106807735D01*
X115255490Y-106753701D01*
X115234952Y-106741843D01*
X115171304Y-106724789D01*
X115107657Y-106707735D01*
X114975873Y-106707735D01*
X114848577Y-106741843D01*
X114734451Y-106807735D01*
X114734448Y-106807737D01*
X114641267Y-106900918D01*
X114641265Y-106900921D01*
X114575373Y-107015047D01*
X114556627Y-107085011D01*
X114541265Y-107142343D01*
X105410000Y-107142343D01*
X105410000Y-105414656D01*
X123449100Y-105414656D01*
X123449100Y-105506944D01*
X123463988Y-105562508D01*
X123472987Y-105596090D01*
X123472988Y-105596093D01*
X123519126Y-105676005D01*
X123519129Y-105676009D01*
X123519131Y-105676012D01*
X123584388Y-105741269D01*
X123584391Y-105741270D01*
X123584394Y-105741273D01*
X123664306Y-105787411D01*
X123664307Y-105787411D01*
X123664312Y-105787414D01*
X123753456Y-105811300D01*
X123753458Y-105811300D01*
X123845742Y-105811300D01*
X123845744Y-105811300D01*
X123934888Y-105787414D01*
X124014812Y-105741269D01*
X124019851Y-105736230D01*
X124081174Y-105702745D01*
X124150866Y-105707729D01*
X124206799Y-105749601D01*
X124231216Y-105815065D01*
X124231529Y-105823847D01*
X124231532Y-105823865D01*
X124231532Y-105823867D01*
X124254980Y-105911377D01*
X124255419Y-105913013D01*
X124255420Y-105913016D01*
X124301558Y-105992928D01*
X124301561Y-105992932D01*
X124301563Y-105992935D01*
X124366820Y-106058192D01*
X124366823Y-106058193D01*
X124366826Y-106058196D01*
X124446738Y-106104334D01*
X124446739Y-106104334D01*
X124446744Y-106104337D01*
X124535888Y-106128223D01*
X124535890Y-106128223D01*
X124628174Y-106128223D01*
X124628176Y-106128223D01*
X124678197Y-106114820D01*
X125458532Y-106114820D01*
X125458532Y-106246604D01*
X125467347Y-106279502D01*
X125492640Y-106373899D01*
X125525586Y-106430962D01*
X125558532Y-106488026D01*
X125651718Y-106581212D01*
X125765846Y-106647104D01*
X125893140Y-106681212D01*
X125893148Y-106681212D01*
X125901200Y-106682273D01*
X125900819Y-106685164D01*
X125954397Y-106700897D01*
X126000152Y-106753701D01*
X126011358Y-106805212D01*
X126011358Y-106824862D01*
X126024306Y-106873186D01*
X126045466Y-106952157D01*
X126077525Y-107007683D01*
X126111358Y-107066284D01*
X126204544Y-107159470D01*
X126318672Y-107225362D01*
X126445966Y-107259470D01*
X126445968Y-107259470D01*
X126472313Y-107259470D01*
X126539352Y-107279155D01*
X126585107Y-107331959D01*
X126596313Y-107383470D01*
X126596313Y-107424862D01*
X126608783Y-107471401D01*
X126630421Y-107552157D01*
X126648112Y-107582798D01*
X126696313Y-107666284D01*
X126789499Y-107759470D01*
X126903627Y-107825362D01*
X127030921Y-107859470D01*
X127030923Y-107859470D01*
X127038000Y-107859470D01*
X127105039Y-107879155D01*
X127150794Y-107931959D01*
X127162000Y-107983470D01*
X127162000Y-108024862D01*
X127167819Y-108046578D01*
X127196108Y-108152157D01*
X127206940Y-108170918D01*
X127262000Y-108266284D01*
X127355186Y-108359470D01*
X127469314Y-108425362D01*
X127596608Y-108459470D01*
X127596610Y-108459470D01*
X127728390Y-108459470D01*
X127728392Y-108459470D01*
X127855686Y-108425362D01*
X127969814Y-108359470D01*
X128063000Y-108266284D01*
X128128892Y-108152156D01*
X128163000Y-108024862D01*
X128163000Y-107893078D01*
X128128892Y-107765784D01*
X128063000Y-107651656D01*
X127969814Y-107558470D01*
X127912750Y-107525524D01*
X127855687Y-107492578D01*
X127792039Y-107475524D01*
X127728392Y-107458470D01*
X127721313Y-107458470D01*
X127718809Y-107457734D01*
X127716276Y-107458368D01*
X127685465Y-107447944D01*
X127654274Y-107438785D01*
X127652564Y-107436812D01*
X127650092Y-107435976D01*
X127629806Y-107410548D01*
X127608519Y-107385981D01*
X127607646Y-107382770D01*
X127606519Y-107381357D01*
X127604581Y-107371486D01*
X127597960Y-107347117D01*
X127597313Y-107340807D01*
X127597313Y-107293078D01*
X127585531Y-107249108D01*
X130309500Y-107249108D01*
X130309500Y-107380892D01*
X130313616Y-107396254D01*
X130343608Y-107508187D01*
X130372641Y-107558472D01*
X130409500Y-107622314D01*
X130502686Y-107715500D01*
X130616814Y-107781392D01*
X130744108Y-107815500D01*
X130744110Y-107815500D01*
X130875890Y-107815500D01*
X130875892Y-107815500D01*
X131003186Y-107781392D01*
X131117314Y-107715500D01*
X131210500Y-107622314D01*
X131276392Y-107508186D01*
X131310500Y-107380892D01*
X131310500Y-107249108D01*
X131276392Y-107121814D01*
X131210500Y-107007686D01*
X131117314Y-106914500D01*
X131045756Y-106873186D01*
X131003187Y-106848608D01*
X130935762Y-106830542D01*
X130875892Y-106814500D01*
X130744108Y-106814500D01*
X130616812Y-106848608D01*
X130502686Y-106914500D01*
X130502683Y-106914502D01*
X130409502Y-107007683D01*
X130409500Y-107007686D01*
X130343608Y-107121812D01*
X130327883Y-107180500D01*
X130309500Y-107249108D01*
X127585531Y-107249108D01*
X127563205Y-107165784D01*
X127497313Y-107051656D01*
X127404127Y-106958470D01*
X127347063Y-106925524D01*
X127290000Y-106892578D01*
X127217626Y-106873186D01*
X127162705Y-106858470D01*
X127136358Y-106858470D01*
X127069319Y-106838785D01*
X127023564Y-106785981D01*
X127012358Y-106734470D01*
X127012358Y-106693080D01*
X127012358Y-106693078D01*
X126978250Y-106565784D01*
X126912358Y-106451656D01*
X126819172Y-106358470D01*
X126762108Y-106325524D01*
X126705045Y-106292578D01*
X126639397Y-106274988D01*
X126577750Y-106258470D01*
X126577749Y-106258470D01*
X126569690Y-106257409D01*
X126570070Y-106254517D01*
X126516493Y-106238785D01*
X126470738Y-106185981D01*
X126461317Y-106155434D01*
X126459532Y-106145027D01*
X126459532Y-106114820D01*
X126445131Y-106061077D01*
X126444169Y-106055464D01*
X126447570Y-106026197D01*
X126448272Y-105996744D01*
X126451558Y-105991887D01*
X126452236Y-105986061D01*
X126470920Y-105963280D01*
X126487434Y-105938881D01*
X126492826Y-105936571D01*
X126496545Y-105932038D01*
X126524576Y-105922975D01*
X126551662Y-105911377D01*
X126562439Y-105910734D01*
X126563027Y-105910545D01*
X126563505Y-105910671D01*
X126566384Y-105910500D01*
X126588422Y-105910500D01*
X126588424Y-105910500D01*
X126715718Y-105876392D01*
X126829846Y-105810500D01*
X126923032Y-105717314D01*
X126947977Y-105674108D01*
X132849500Y-105674108D01*
X132849500Y-105805892D01*
X132866554Y-105869539D01*
X132883608Y-105933187D01*
X132900983Y-105963280D01*
X132949500Y-106047314D01*
X133042686Y-106140500D01*
X133156814Y-106206392D01*
X133284108Y-106240500D01*
X133284110Y-106240500D01*
X133415890Y-106240500D01*
X133415892Y-106240500D01*
X133543186Y-106206392D01*
X133657314Y-106140500D01*
X133750500Y-106047314D01*
X133816392Y-105933186D01*
X133850500Y-105805892D01*
X133850500Y-105674108D01*
X133816392Y-105546814D01*
X133750500Y-105432686D01*
X133657314Y-105339500D01*
X133597558Y-105305000D01*
X133543187Y-105273608D01*
X133438635Y-105245594D01*
X133415892Y-105239500D01*
X133284108Y-105239500D01*
X133156812Y-105273608D01*
X133042686Y-105339500D01*
X133042683Y-105339502D01*
X132949502Y-105432683D01*
X132949500Y-105432686D01*
X132883608Y-105546812D01*
X132864456Y-105618291D01*
X132849500Y-105674108D01*
X126947977Y-105674108D01*
X126988467Y-105603978D01*
X126988921Y-105603193D01*
X126988921Y-105603190D01*
X126988924Y-105603186D01*
X127023032Y-105475892D01*
X127023032Y-105344108D01*
X127013905Y-105310045D01*
X127015568Y-105240199D01*
X127054730Y-105182337D01*
X127075352Y-105169936D01*
X127074938Y-105169219D01*
X127081977Y-105165155D01*
X127196105Y-105099263D01*
X127289291Y-105006077D01*
X127355183Y-104891949D01*
X127389291Y-104764655D01*
X127389291Y-104632871D01*
X127372644Y-104570742D01*
X127374307Y-104500893D01*
X127413470Y-104443031D01*
X127477699Y-104415527D01*
X127492419Y-104414650D01*
X127518181Y-104414650D01*
X127518183Y-104414650D01*
X127645477Y-104380542D01*
X127759605Y-104314650D01*
X127852791Y-104221464D01*
X127918683Y-104107336D01*
X127931168Y-104060739D01*
X127967530Y-104001081D01*
X128030377Y-103970550D01*
X128083030Y-103973057D01*
X128204108Y-104005500D01*
X128204111Y-104005500D01*
X128335890Y-104005500D01*
X128335892Y-104005500D01*
X128463186Y-103971392D01*
X128577314Y-103905500D01*
X128670500Y-103812314D01*
X128736392Y-103698186D01*
X128770500Y-103570892D01*
X128770500Y-103494500D01*
X128790185Y-103427461D01*
X128842989Y-103381706D01*
X128894500Y-103370500D01*
X128970890Y-103370500D01*
X128970892Y-103370500D01*
X129098186Y-103336392D01*
X129212314Y-103270500D01*
X129305500Y-103177314D01*
X129371392Y-103063186D01*
X129405500Y-102935892D01*
X129405500Y-102804108D01*
X129371392Y-102676814D01*
X129305500Y-102562686D01*
X129216922Y-102474108D01*
X130309500Y-102474108D01*
X130309500Y-102605892D01*
X130314971Y-102626310D01*
X130343608Y-102733187D01*
X130376554Y-102790250D01*
X130409500Y-102847314D01*
X130502686Y-102940500D01*
X130616814Y-103006392D01*
X130744108Y-103040500D01*
X130744110Y-103040500D01*
X130875890Y-103040500D01*
X130875892Y-103040500D01*
X131003186Y-103006392D01*
X131117314Y-102940500D01*
X131126910Y-102930904D01*
X131188233Y-102897419D01*
X131257925Y-102902403D01*
X131302272Y-102930904D01*
X131311868Y-102940500D01*
X131425996Y-103006392D01*
X131553290Y-103040500D01*
X131553292Y-103040500D01*
X131685072Y-103040500D01*
X131685074Y-103040500D01*
X131812368Y-103006392D01*
X131926496Y-102940500D01*
X131931496Y-102935499D01*
X131992814Y-102902010D01*
X132062506Y-102906988D01*
X132106864Y-102935493D01*
X132111871Y-102940500D01*
X132225999Y-103006392D01*
X132353293Y-103040500D01*
X132353295Y-103040500D01*
X132485075Y-103040500D01*
X132485077Y-103040500D01*
X132612371Y-103006392D01*
X132726499Y-102940500D01*
X132731499Y-102935499D01*
X132792817Y-102902010D01*
X132862509Y-102906988D01*
X132906867Y-102935493D01*
X132911874Y-102940500D01*
X133026002Y-103006392D01*
X133153296Y-103040500D01*
X133153298Y-103040500D01*
X133285078Y-103040500D01*
X133285080Y-103040500D01*
X133412374Y-103006392D01*
X133526502Y-102940500D01*
X133531502Y-102935499D01*
X133592820Y-102902010D01*
X133662512Y-102906988D01*
X133706870Y-102935493D01*
X133711877Y-102940500D01*
X133826005Y-103006392D01*
X133953299Y-103040500D01*
X133953301Y-103040500D01*
X134085081Y-103040500D01*
X134085083Y-103040500D01*
X134212377Y-103006392D01*
X134326505Y-102940500D01*
X134419691Y-102847314D01*
X134485583Y-102733186D01*
X134519691Y-102605892D01*
X134519691Y-102474108D01*
X134485583Y-102346814D01*
X134419691Y-102232686D01*
X134326505Y-102139500D01*
X134247595Y-102093941D01*
X134212378Y-102073608D01*
X134148730Y-102056554D01*
X134085083Y-102039500D01*
X133953299Y-102039500D01*
X133826004Y-102073608D01*
X133790787Y-102093941D01*
X133711877Y-102139500D01*
X133711875Y-102139501D01*
X133711873Y-102139503D01*
X133706866Y-102144510D01*
X133645541Y-102177992D01*
X133575850Y-102173005D01*
X133531508Y-102144506D01*
X133526504Y-102139502D01*
X133526502Y-102139500D01*
X133447592Y-102093941D01*
X133412375Y-102073608D01*
X133348727Y-102056554D01*
X133285080Y-102039500D01*
X133153296Y-102039500D01*
X133026001Y-102073608D01*
X132990784Y-102093941D01*
X132911874Y-102139500D01*
X132911872Y-102139501D01*
X132911870Y-102139503D01*
X132906863Y-102144510D01*
X132845538Y-102177992D01*
X132775847Y-102173005D01*
X132731505Y-102144506D01*
X132726501Y-102139502D01*
X132726499Y-102139500D01*
X132647589Y-102093941D01*
X132612372Y-102073608D01*
X132548724Y-102056554D01*
X132485077Y-102039500D01*
X132353293Y-102039500D01*
X132225998Y-102073608D01*
X132190781Y-102093941D01*
X132111871Y-102139500D01*
X132111869Y-102139501D01*
X132111867Y-102139503D01*
X132106860Y-102144510D01*
X132045535Y-102177992D01*
X131975844Y-102173005D01*
X131931502Y-102144506D01*
X131926498Y-102139502D01*
X131926496Y-102139500D01*
X131847586Y-102093941D01*
X131812369Y-102073608D01*
X131748721Y-102056554D01*
X131685074Y-102039500D01*
X131553290Y-102039500D01*
X131425994Y-102073608D01*
X131311868Y-102139500D01*
X131311865Y-102139502D01*
X131302272Y-102149096D01*
X131240949Y-102182581D01*
X131171257Y-102177597D01*
X131126910Y-102149096D01*
X131117316Y-102139502D01*
X131117314Y-102139500D01*
X131038404Y-102093941D01*
X131003187Y-102073608D01*
X130939539Y-102056554D01*
X130875892Y-102039500D01*
X130744108Y-102039500D01*
X130616812Y-102073608D01*
X130502686Y-102139500D01*
X130502683Y-102139502D01*
X130409502Y-102232683D01*
X130409500Y-102232686D01*
X130343608Y-102346812D01*
X130332096Y-102389776D01*
X130309500Y-102474108D01*
X129216922Y-102474108D01*
X129212314Y-102469500D01*
X129127238Y-102420381D01*
X129098187Y-102403608D01*
X128994762Y-102375896D01*
X128970892Y-102369500D01*
X128839108Y-102369500D01*
X128711812Y-102403608D01*
X128597686Y-102469500D01*
X128597683Y-102469502D01*
X128504502Y-102562683D01*
X128504500Y-102562686D01*
X128438608Y-102676812D01*
X128404500Y-102804108D01*
X128404500Y-102880500D01*
X128384815Y-102947539D01*
X128332011Y-102993294D01*
X128280500Y-103004500D01*
X128204108Y-103004500D01*
X128076812Y-103038608D01*
X127962686Y-103104500D01*
X127962683Y-103104502D01*
X127869502Y-103197683D01*
X127869500Y-103197686D01*
X127803608Y-103311814D01*
X127791123Y-103358410D01*
X127754758Y-103418070D01*
X127691910Y-103448599D01*
X127639255Y-103446091D01*
X127518183Y-103413650D01*
X127386399Y-103413650D01*
X127259103Y-103447758D01*
X127144977Y-103513650D01*
X127144974Y-103513652D01*
X127051793Y-103606833D01*
X127051791Y-103606836D01*
X126985899Y-103720962D01*
X126958419Y-103823522D01*
X126951791Y-103848258D01*
X126951791Y-103980042D01*
X126967406Y-104038319D01*
X126968438Y-104042170D01*
X126966775Y-104112020D01*
X126927612Y-104169882D01*
X126863383Y-104197386D01*
X126848663Y-104198263D01*
X126822899Y-104198263D01*
X126695603Y-104232371D01*
X126581477Y-104298263D01*
X126581474Y-104298265D01*
X126488293Y-104391446D01*
X126488291Y-104391449D01*
X126422399Y-104505575D01*
X126388291Y-104632871D01*
X126388291Y-104764656D01*
X126397417Y-104798715D01*
X126395754Y-104868565D01*
X126356591Y-104926427D01*
X126335972Y-104938828D01*
X126336385Y-104939544D01*
X126215218Y-105009500D01*
X126215215Y-105009502D01*
X126122034Y-105102683D01*
X126122032Y-105102686D01*
X126056140Y-105216812D01*
X126027015Y-105325512D01*
X126022032Y-105344108D01*
X126022032Y-105475892D01*
X126034954Y-105524121D01*
X126033292Y-105593968D01*
X125994130Y-105651831D01*
X125929902Y-105679335D01*
X125915180Y-105680212D01*
X125893140Y-105680212D01*
X125765844Y-105714320D01*
X125651718Y-105780212D01*
X125651715Y-105780214D01*
X125558534Y-105873395D01*
X125558532Y-105873398D01*
X125492640Y-105987524D01*
X125491190Y-105992937D01*
X125458532Y-106114820D01*
X124678197Y-106114820D01*
X124717320Y-106104337D01*
X124797244Y-106058192D01*
X124862501Y-105992935D01*
X124908646Y-105913011D01*
X124932532Y-105823867D01*
X124932532Y-105731579D01*
X124908646Y-105642435D01*
X124908643Y-105642429D01*
X124862505Y-105562517D01*
X124862502Y-105562514D01*
X124862501Y-105562511D01*
X124799097Y-105499107D01*
X124765612Y-105437784D01*
X124767003Y-105379334D01*
X124775048Y-105349313D01*
X124775048Y-105257025D01*
X124751162Y-105167881D01*
X124750805Y-105167262D01*
X124705021Y-105087963D01*
X124705018Y-105087960D01*
X124705017Y-105087957D01*
X124639760Y-105022700D01*
X124639757Y-105022698D01*
X124639753Y-105022695D01*
X124559841Y-104976557D01*
X124559838Y-104976556D01*
X124559837Y-104976555D01*
X124559836Y-104976555D01*
X124470692Y-104952669D01*
X124378404Y-104952669D01*
X124289260Y-104976555D01*
X124289259Y-104976555D01*
X124289257Y-104976556D01*
X124289254Y-104976557D01*
X124209342Y-105022695D01*
X124209333Y-105022702D01*
X124144081Y-105087954D01*
X124144077Y-105087960D01*
X124133762Y-105105826D01*
X124083194Y-105154040D01*
X124014587Y-105167262D01*
X123964374Y-105151210D01*
X123934890Y-105134186D01*
X123875458Y-105118262D01*
X123845744Y-105110300D01*
X123753456Y-105110300D01*
X123664312Y-105134186D01*
X123664311Y-105134186D01*
X123664309Y-105134187D01*
X123664306Y-105134188D01*
X123584394Y-105180326D01*
X123584385Y-105180333D01*
X123519133Y-105245585D01*
X123519126Y-105245594D01*
X123472988Y-105325506D01*
X123472987Y-105325509D01*
X123472986Y-105325511D01*
X123472986Y-105325512D01*
X123449100Y-105414656D01*
X105410000Y-105414656D01*
X105410000Y-105269611D01*
X113958941Y-105269611D01*
X114091012Y-105305000D01*
X114248989Y-105305000D01*
X114381058Y-105269611D01*
X115358941Y-105269611D01*
X115491012Y-105305000D01*
X115648989Y-105305000D01*
X115717083Y-105286754D01*
X115781058Y-105269611D01*
X115570001Y-105058554D01*
X115358941Y-105269611D01*
X114381058Y-105269611D01*
X114170001Y-105058554D01*
X113958941Y-105269611D01*
X105410000Y-105269611D01*
X105410000Y-104626009D01*
X113570000Y-104626009D01*
X113570000Y-104783990D01*
X113605386Y-104916057D01*
X113816445Y-104704999D01*
X113796555Y-104685109D01*
X114070000Y-104685109D01*
X114070000Y-104724891D01*
X114085224Y-104761645D01*
X114113355Y-104789776D01*
X114150109Y-104805000D01*
X114189891Y-104805000D01*
X114226645Y-104789776D01*
X114254776Y-104761645D01*
X114270000Y-104724891D01*
X114270000Y-104705000D01*
X114523554Y-104705000D01*
X114523554Y-104705001D01*
X114734611Y-104916058D01*
X114750224Y-104857791D01*
X114786589Y-104798130D01*
X114849436Y-104767601D01*
X114918812Y-104775896D01*
X114972689Y-104820381D01*
X114989774Y-104857790D01*
X115005386Y-104916057D01*
X115216445Y-104704999D01*
X115196555Y-104685109D01*
X115470000Y-104685109D01*
X115470000Y-104724891D01*
X115485224Y-104761645D01*
X115513355Y-104789776D01*
X115550109Y-104805000D01*
X115589891Y-104805000D01*
X115626645Y-104789776D01*
X115654776Y-104761645D01*
X115670000Y-104724891D01*
X115670000Y-104705000D01*
X115923554Y-104705000D01*
X115923554Y-104705001D01*
X116134611Y-104916058D01*
X116170000Y-104783989D01*
X116170000Y-104779656D01*
X120578900Y-104779656D01*
X120578900Y-104871944D01*
X120600530Y-104952669D01*
X120602787Y-104961090D01*
X120602788Y-104961093D01*
X120648926Y-105041005D01*
X120648929Y-105041009D01*
X120648931Y-105041012D01*
X120714188Y-105106269D01*
X120714191Y-105106270D01*
X120714194Y-105106273D01*
X120794106Y-105152411D01*
X120794107Y-105152411D01*
X120794112Y-105152414D01*
X120883256Y-105176300D01*
X120883258Y-105176300D01*
X120975542Y-105176300D01*
X120975544Y-105176300D01*
X121064688Y-105152414D01*
X121144612Y-105106269D01*
X121209869Y-105041012D01*
X121256014Y-104961088D01*
X121279900Y-104871944D01*
X121279900Y-104779656D01*
X121278637Y-104774942D01*
X121278645Y-104774585D01*
X121278459Y-104774276D01*
X121279476Y-104739652D01*
X121280298Y-104705097D01*
X121280500Y-104704797D01*
X121280511Y-104704436D01*
X121300077Y-104675870D01*
X121319458Y-104647233D01*
X121319859Y-104646989D01*
X121319995Y-104646792D01*
X121321229Y-104646160D01*
X121350233Y-104628591D01*
X121358078Y-104625283D01*
X121420288Y-104608614D01*
X121481700Y-104573156D01*
X121488822Y-104570154D01*
X121516158Y-104567039D01*
X121542898Y-104560552D01*
X121551341Y-104563031D01*
X121558243Y-104562245D01*
X121572375Y-104569207D01*
X121598999Y-104577025D01*
X121620811Y-104589618D01*
X121653708Y-104608612D01*
X121653712Y-104608614D01*
X121742856Y-104632500D01*
X121742858Y-104632500D01*
X121835142Y-104632500D01*
X121835144Y-104632500D01*
X121924288Y-104608614D01*
X122004212Y-104562469D01*
X122069469Y-104497212D01*
X122115614Y-104417288D01*
X122139500Y-104328144D01*
X122139500Y-104235856D01*
X122115614Y-104146712D01*
X122111962Y-104140386D01*
X122069473Y-104066794D01*
X122069470Y-104066791D01*
X122069469Y-104066788D01*
X122004212Y-104001531D01*
X122004209Y-104001529D01*
X122004205Y-104001526D01*
X121965222Y-103979019D01*
X122724663Y-103979019D01*
X122724663Y-104071307D01*
X122742290Y-104137093D01*
X122748550Y-104160453D01*
X122748551Y-104160456D01*
X122794689Y-104240368D01*
X122794692Y-104240372D01*
X122794694Y-104240375D01*
X122859951Y-104305632D01*
X122859954Y-104305633D01*
X122859957Y-104305636D01*
X122939869Y-104351774D01*
X122939870Y-104351774D01*
X122939875Y-104351777D01*
X123029019Y-104375663D01*
X123029021Y-104375663D01*
X123121305Y-104375663D01*
X123121307Y-104375663D01*
X123210451Y-104351777D01*
X123290375Y-104305632D01*
X123355632Y-104240375D01*
X123401777Y-104160451D01*
X123425663Y-104071307D01*
X123425663Y-103979019D01*
X123401777Y-103889875D01*
X123401776Y-103889874D01*
X123401776Y-103889872D01*
X123363467Y-103823522D01*
X123346993Y-103755622D01*
X123369844Y-103689595D01*
X123390215Y-103668485D01*
X123390187Y-103668457D01*
X123391762Y-103666881D01*
X123395374Y-103663139D01*
X123395926Y-103662714D01*
X123395934Y-103662710D01*
X123461191Y-103597453D01*
X123507336Y-103517529D01*
X123531222Y-103428385D01*
X123531222Y-103336097D01*
X123507336Y-103246953D01*
X123507333Y-103246947D01*
X123461195Y-103167035D01*
X123461192Y-103167032D01*
X123461191Y-103167029D01*
X123395934Y-103101772D01*
X123395931Y-103101770D01*
X123395927Y-103101767D01*
X123316015Y-103055629D01*
X123316012Y-103055628D01*
X123316011Y-103055627D01*
X123316010Y-103055627D01*
X123226866Y-103031741D01*
X123134578Y-103031741D01*
X123045434Y-103055627D01*
X123045433Y-103055627D01*
X123045431Y-103055628D01*
X123045428Y-103055629D01*
X122965516Y-103101767D01*
X122965507Y-103101774D01*
X122900255Y-103167026D01*
X122900248Y-103167035D01*
X122854110Y-103246947D01*
X122854109Y-103246950D01*
X122854108Y-103246952D01*
X122854108Y-103246953D01*
X122830222Y-103336097D01*
X122830222Y-103428385D01*
X122853069Y-103513652D01*
X122854109Y-103517531D01*
X122854110Y-103517534D01*
X122892417Y-103583882D01*
X122908891Y-103651782D01*
X122886039Y-103717809D01*
X122865670Y-103738919D01*
X122865698Y-103738947D01*
X122864174Y-103740470D01*
X122860526Y-103744252D01*
X122859954Y-103744690D01*
X122794696Y-103809948D01*
X122794689Y-103809957D01*
X122748551Y-103889869D01*
X122748550Y-103889872D01*
X122748549Y-103889874D01*
X122748549Y-103889875D01*
X122724663Y-103979019D01*
X121965222Y-103979019D01*
X121924293Y-103955388D01*
X121924290Y-103955387D01*
X121924289Y-103955386D01*
X121924288Y-103955386D01*
X121835144Y-103931500D01*
X121742856Y-103931500D01*
X121653711Y-103955386D01*
X121599001Y-103986974D01*
X121531101Y-104003447D01*
X121474999Y-103986974D01*
X121420288Y-103955386D01*
X121331144Y-103931500D01*
X121238856Y-103931500D01*
X121149712Y-103955386D01*
X121149711Y-103955386D01*
X121149709Y-103955387D01*
X121149706Y-103955388D01*
X121069794Y-104001526D01*
X121069785Y-104001533D01*
X121004533Y-104066785D01*
X121004526Y-104066794D01*
X120958388Y-104146706D01*
X120958387Y-104146709D01*
X120934500Y-104235856D01*
X120934500Y-104328148D01*
X120935763Y-104332859D01*
X120934099Y-104402708D01*
X120894936Y-104460570D01*
X120848082Y-104484724D01*
X120829396Y-104489731D01*
X120794107Y-104499187D01*
X120794106Y-104499188D01*
X120714194Y-104545326D01*
X120714185Y-104545333D01*
X120648933Y-104610585D01*
X120648926Y-104610594D01*
X120602788Y-104690506D01*
X120602787Y-104690509D01*
X120602786Y-104690511D01*
X120602786Y-104690512D01*
X120578900Y-104779656D01*
X116170000Y-104779656D01*
X116170000Y-104626011D01*
X116134611Y-104493941D01*
X115923554Y-104705000D01*
X115670000Y-104705000D01*
X115670000Y-104685109D01*
X115654776Y-104648355D01*
X115626645Y-104620224D01*
X115589891Y-104605000D01*
X115550109Y-104605000D01*
X115513355Y-104620224D01*
X115485224Y-104648355D01*
X115470000Y-104685109D01*
X115196555Y-104685109D01*
X115005387Y-104493941D01*
X115005386Y-104493941D01*
X114989774Y-104552209D01*
X114953409Y-104611869D01*
X114890562Y-104642398D01*
X114821186Y-104634103D01*
X114767308Y-104589618D01*
X114750224Y-104552208D01*
X114734611Y-104493941D01*
X114523554Y-104705000D01*
X114270000Y-104705000D01*
X114270000Y-104685109D01*
X114254776Y-104648355D01*
X114226645Y-104620224D01*
X114189891Y-104605000D01*
X114150109Y-104605000D01*
X114113355Y-104620224D01*
X114085224Y-104648355D01*
X114070000Y-104685109D01*
X113796555Y-104685109D01*
X113605387Y-104493941D01*
X113570000Y-104626009D01*
X105410000Y-104626009D01*
X105410000Y-104069612D01*
X113958940Y-104069612D01*
X113959823Y-104072907D01*
X113959823Y-104137091D01*
X113958940Y-104140386D01*
X114169999Y-104351445D01*
X114381057Y-104140386D01*
X114380175Y-104137093D01*
X114380175Y-104121057D01*
X114375985Y-104107950D01*
X114380175Y-104072905D01*
X114381056Y-104069612D01*
X115358940Y-104069612D01*
X115359823Y-104072907D01*
X115359823Y-104137091D01*
X115358940Y-104140386D01*
X115569999Y-104351445D01*
X115781057Y-104140386D01*
X115780175Y-104137093D01*
X115780175Y-104072905D01*
X115781057Y-104069610D01*
X115570001Y-103858554D01*
X115358940Y-104069612D01*
X114381056Y-104069612D01*
X114381057Y-104069610D01*
X114170001Y-103858554D01*
X113958940Y-104069612D01*
X105410000Y-104069612D01*
X105410000Y-103426009D01*
X113570000Y-103426009D01*
X113570000Y-103583990D01*
X113605386Y-103716057D01*
X113816445Y-103504999D01*
X113796555Y-103485109D01*
X114070000Y-103485109D01*
X114070000Y-103524891D01*
X114085224Y-103561645D01*
X114113355Y-103589776D01*
X114150109Y-103605000D01*
X114189891Y-103605000D01*
X114226645Y-103589776D01*
X114254776Y-103561645D01*
X114270000Y-103524891D01*
X114270000Y-103505000D01*
X114523554Y-103505000D01*
X114523554Y-103505001D01*
X114734611Y-103716058D01*
X114750224Y-103657791D01*
X114786589Y-103598130D01*
X114849436Y-103567601D01*
X114918812Y-103575896D01*
X114972689Y-103620381D01*
X114989774Y-103657790D01*
X115005386Y-103716057D01*
X115216445Y-103504999D01*
X115196555Y-103485109D01*
X115470000Y-103485109D01*
X115470000Y-103524891D01*
X115485224Y-103561645D01*
X115513355Y-103589776D01*
X115550109Y-103605000D01*
X115589891Y-103605000D01*
X115626645Y-103589776D01*
X115654776Y-103561645D01*
X115670000Y-103524891D01*
X115670000Y-103505000D01*
X115923554Y-103505000D01*
X115923554Y-103505001D01*
X116134611Y-103716058D01*
X116170000Y-103583989D01*
X116170000Y-103426011D01*
X116134611Y-103293941D01*
X115923554Y-103505000D01*
X115670000Y-103505000D01*
X115670000Y-103485109D01*
X115654776Y-103448355D01*
X115626645Y-103420224D01*
X115589891Y-103405000D01*
X115550109Y-103405000D01*
X115513355Y-103420224D01*
X115485224Y-103448355D01*
X115470000Y-103485109D01*
X115196555Y-103485109D01*
X115005387Y-103293941D01*
X115005386Y-103293941D01*
X114989774Y-103352209D01*
X114953409Y-103411869D01*
X114890562Y-103442398D01*
X114821186Y-103434103D01*
X114767308Y-103389618D01*
X114750224Y-103352208D01*
X114734611Y-103293941D01*
X114523554Y-103505000D01*
X114270000Y-103505000D01*
X114270000Y-103485109D01*
X114254776Y-103448355D01*
X114226645Y-103420224D01*
X114189891Y-103405000D01*
X114150109Y-103405000D01*
X114113355Y-103420224D01*
X114085224Y-103448355D01*
X114070000Y-103485109D01*
X113796555Y-103485109D01*
X113605387Y-103293941D01*
X113570000Y-103426009D01*
X105410000Y-103426009D01*
X105410000Y-102869612D01*
X113958940Y-102869612D01*
X113959823Y-102872907D01*
X113959823Y-102937091D01*
X113958940Y-102940386D01*
X114169999Y-103151445D01*
X114381057Y-102940386D01*
X114380175Y-102937093D01*
X114380175Y-102921057D01*
X114375985Y-102907950D01*
X114380175Y-102872905D01*
X114381056Y-102869612D01*
X115358940Y-102869612D01*
X115359823Y-102872907D01*
X115359823Y-102937091D01*
X115358940Y-102940386D01*
X115569999Y-103151445D01*
X115781057Y-102940386D01*
X115780175Y-102937093D01*
X115780175Y-102872905D01*
X115781057Y-102869610D01*
X115570001Y-102658554D01*
X115358940Y-102869612D01*
X114381056Y-102869612D01*
X114381057Y-102869610D01*
X114170001Y-102658554D01*
X113958940Y-102869612D01*
X105410000Y-102869612D01*
X105410000Y-102626308D01*
X121292500Y-102626308D01*
X121292500Y-102758091D01*
X121326608Y-102885387D01*
X121352888Y-102930904D01*
X121392500Y-102999514D01*
X121485686Y-103092700D01*
X121599814Y-103158592D01*
X121727108Y-103192700D01*
X121727110Y-103192700D01*
X121858890Y-103192700D01*
X121858892Y-103192700D01*
X121986186Y-103158592D01*
X122100314Y-103092700D01*
X122193500Y-102999514D01*
X122259392Y-102885386D01*
X122293500Y-102758092D01*
X122293500Y-102626308D01*
X122259392Y-102499014D01*
X122193500Y-102384886D01*
X122100314Y-102291700D01*
X122043250Y-102258754D01*
X121986187Y-102225808D01*
X121908529Y-102205000D01*
X121858892Y-102191700D01*
X121727108Y-102191700D01*
X121599812Y-102225808D01*
X121485686Y-102291700D01*
X121485683Y-102291702D01*
X121392502Y-102384883D01*
X121392500Y-102384886D01*
X121326608Y-102499012D01*
X121292500Y-102626308D01*
X105410000Y-102626308D01*
X105410000Y-102226009D01*
X113570000Y-102226009D01*
X113570000Y-102383990D01*
X113605386Y-102516057D01*
X113816445Y-102304999D01*
X113796555Y-102285109D01*
X114070000Y-102285109D01*
X114070000Y-102324891D01*
X114085224Y-102361645D01*
X114113355Y-102389776D01*
X114150109Y-102405000D01*
X114189891Y-102405000D01*
X114226645Y-102389776D01*
X114254776Y-102361645D01*
X114270000Y-102324891D01*
X114270000Y-102305000D01*
X114523554Y-102305000D01*
X114523554Y-102305001D01*
X114734611Y-102516058D01*
X114750224Y-102457791D01*
X114786589Y-102398130D01*
X114849436Y-102367601D01*
X114918812Y-102375896D01*
X114972689Y-102420381D01*
X114989774Y-102457790D01*
X115005386Y-102516057D01*
X115216445Y-102304999D01*
X115196555Y-102285109D01*
X115470000Y-102285109D01*
X115470000Y-102324891D01*
X115485224Y-102361645D01*
X115513355Y-102389776D01*
X115550109Y-102405000D01*
X115589891Y-102405000D01*
X115626645Y-102389776D01*
X115654776Y-102361645D01*
X115670000Y-102324891D01*
X115670000Y-102305000D01*
X115923554Y-102305000D01*
X115923554Y-102305001D01*
X116134611Y-102516058D01*
X116170000Y-102383989D01*
X116170000Y-102226011D01*
X116134611Y-102093941D01*
X115923554Y-102305000D01*
X115670000Y-102305000D01*
X115670000Y-102285109D01*
X115654776Y-102248355D01*
X115626645Y-102220224D01*
X115589891Y-102205000D01*
X115550109Y-102205000D01*
X115513355Y-102220224D01*
X115485224Y-102248355D01*
X115470000Y-102285109D01*
X115196555Y-102285109D01*
X115005387Y-102093941D01*
X115005386Y-102093941D01*
X114989774Y-102152209D01*
X114953409Y-102211869D01*
X114890562Y-102242398D01*
X114821186Y-102234103D01*
X114767308Y-102189618D01*
X114750224Y-102152208D01*
X114734611Y-102093941D01*
X114523554Y-102305000D01*
X114270000Y-102305000D01*
X114270000Y-102285109D01*
X114254776Y-102248355D01*
X114226645Y-102220224D01*
X114189891Y-102205000D01*
X114150109Y-102205000D01*
X114113355Y-102220224D01*
X114085224Y-102248355D01*
X114070000Y-102285109D01*
X113796555Y-102285109D01*
X113605387Y-102093941D01*
X113570000Y-102226009D01*
X105410000Y-102226009D01*
X105410000Y-101740387D01*
X113958941Y-101740387D01*
X114169999Y-101951445D01*
X114381056Y-101740387D01*
X115358941Y-101740387D01*
X115569999Y-101951445D01*
X115781057Y-101740386D01*
X115648990Y-101705000D01*
X115491009Y-101705000D01*
X115358941Y-101740387D01*
X114381056Y-101740387D01*
X114381057Y-101740386D01*
X114248990Y-101705000D01*
X114091009Y-101705000D01*
X113958941Y-101740387D01*
X105410000Y-101740387D01*
X105410000Y-100934108D01*
X113240700Y-100934108D01*
X113240700Y-101065891D01*
X113274808Y-101193187D01*
X113280353Y-101202791D01*
X113340700Y-101307314D01*
X113433886Y-101400500D01*
X113548014Y-101466392D01*
X113675308Y-101500500D01*
X113675310Y-101500500D01*
X113807090Y-101500500D01*
X113807092Y-101500500D01*
X113934386Y-101466392D01*
X114048514Y-101400500D01*
X114141700Y-101307314D01*
X114207592Y-101193186D01*
X114241700Y-101065892D01*
X114241700Y-100934108D01*
X114207592Y-100806814D01*
X114141700Y-100692686D01*
X114119522Y-100670508D01*
X120886100Y-100670508D01*
X120886100Y-100802291D01*
X120920208Y-100929587D01*
X120953154Y-100986650D01*
X120986100Y-101043714D01*
X121079286Y-101136900D01*
X121193414Y-101202792D01*
X121320708Y-101236900D01*
X121320710Y-101236900D01*
X121452490Y-101236900D01*
X121452492Y-101236900D01*
X121579786Y-101202792D01*
X121693914Y-101136900D01*
X121787100Y-101043714D01*
X121852992Y-100929586D01*
X121887100Y-100802292D01*
X121887100Y-100670508D01*
X121852992Y-100543214D01*
X121787100Y-100429086D01*
X121693914Y-100335900D01*
X121636850Y-100302954D01*
X121579787Y-100270008D01*
X121516139Y-100252954D01*
X121452492Y-100235900D01*
X121320708Y-100235900D01*
X121193412Y-100270008D01*
X121079286Y-100335900D01*
X121079283Y-100335902D01*
X120986102Y-100429083D01*
X120986100Y-100429086D01*
X120920208Y-100543212D01*
X120886100Y-100670508D01*
X114119522Y-100670508D01*
X114048514Y-100599500D01*
X113991450Y-100566554D01*
X113934387Y-100533608D01*
X113870739Y-100516554D01*
X113807092Y-100499500D01*
X113675308Y-100499500D01*
X113548012Y-100533608D01*
X113433886Y-100599500D01*
X113433883Y-100599502D01*
X113340702Y-100692683D01*
X113340700Y-100692686D01*
X113274808Y-100806812D01*
X113240700Y-100934108D01*
X105410000Y-100934108D01*
X105410000Y-99916756D01*
X105429685Y-99849717D01*
X105482489Y-99803962D01*
X105534000Y-99792756D01*
X105650034Y-99792756D01*
X105650036Y-99792756D01*
X105777330Y-99758648D01*
X105891458Y-99692756D01*
X105984644Y-99599570D01*
X106050536Y-99485442D01*
X106084644Y-99358148D01*
X106084644Y-99226364D01*
X106059924Y-99134108D01*
X106589450Y-99134108D01*
X106589450Y-99265891D01*
X106623558Y-99393187D01*
X106656504Y-99450250D01*
X106689450Y-99507314D01*
X106782636Y-99600500D01*
X106896764Y-99666392D01*
X107024058Y-99700500D01*
X107024060Y-99700500D01*
X107155840Y-99700500D01*
X107155842Y-99700500D01*
X107283136Y-99666392D01*
X107397264Y-99600500D01*
X107490450Y-99507314D01*
X107556342Y-99393186D01*
X107590450Y-99265892D01*
X107590450Y-99134108D01*
X107556342Y-99006814D01*
X107490450Y-98892686D01*
X107397264Y-98799500D01*
X107340200Y-98766554D01*
X107283137Y-98733608D01*
X107219489Y-98716554D01*
X107155842Y-98699500D01*
X107024058Y-98699500D01*
X106896762Y-98733608D01*
X106782636Y-98799500D01*
X106782633Y-98799502D01*
X106689452Y-98892683D01*
X106689450Y-98892686D01*
X106623558Y-99006812D01*
X106589450Y-99134108D01*
X106059924Y-99134108D01*
X106050536Y-99099070D01*
X105984644Y-98984942D01*
X105891458Y-98891756D01*
X105834394Y-98858810D01*
X105777331Y-98825864D01*
X105713683Y-98808810D01*
X105650036Y-98791756D01*
X105534000Y-98791756D01*
X105466961Y-98772071D01*
X105421206Y-98719267D01*
X105410000Y-98667756D01*
X105410000Y-98004108D01*
X112326300Y-98004108D01*
X112326300Y-98135891D01*
X112360408Y-98263187D01*
X112393354Y-98320250D01*
X112426300Y-98377314D01*
X112519486Y-98470500D01*
X112633614Y-98536392D01*
X112760908Y-98570500D01*
X112760910Y-98570500D01*
X112892690Y-98570500D01*
X112892692Y-98570500D01*
X113019986Y-98536392D01*
X113134114Y-98470500D01*
X113227300Y-98377314D01*
X113293192Y-98263186D01*
X113327300Y-98135892D01*
X113327300Y-98004108D01*
X113293192Y-97876814D01*
X113227300Y-97762686D01*
X113134114Y-97669500D01*
X113077050Y-97636554D01*
X113019987Y-97603608D01*
X112956339Y-97586554D01*
X112892692Y-97569500D01*
X112760908Y-97569500D01*
X112633612Y-97603608D01*
X112519486Y-97669500D01*
X112519483Y-97669502D01*
X112426302Y-97762683D01*
X112426300Y-97762686D01*
X112360408Y-97876812D01*
X112326300Y-98004108D01*
X105410000Y-98004108D01*
X105410000Y-97790000D01*
X99184000Y-97790000D01*
X99116961Y-97770315D01*
X99071206Y-97717511D01*
X99060000Y-97666000D01*
X99060000Y-94234108D01*
X126804300Y-94234108D01*
X126804300Y-94365891D01*
X126838408Y-94493187D01*
X126871354Y-94550250D01*
X126904300Y-94607314D01*
X126997486Y-94700500D01*
X127111614Y-94766392D01*
X127238908Y-94800500D01*
X127238910Y-94800500D01*
X127370690Y-94800500D01*
X127370692Y-94800500D01*
X127497986Y-94766392D01*
X127612114Y-94700500D01*
X127705300Y-94607314D01*
X127771192Y-94493186D01*
X127805300Y-94365892D01*
X127805300Y-94234108D01*
X127771192Y-94106814D01*
X127705300Y-93992686D01*
X127612114Y-93899500D01*
X127555050Y-93866554D01*
X127497987Y-93833608D01*
X127434339Y-93816554D01*
X127370692Y-93799500D01*
X127238908Y-93799500D01*
X127111612Y-93833608D01*
X126997486Y-93899500D01*
X126997483Y-93899502D01*
X126904302Y-93992683D01*
X126904300Y-93992686D01*
X126838408Y-94106812D01*
X126804300Y-94234108D01*
X99060000Y-94234108D01*
X99060000Y-93074108D01*
X134170300Y-93074108D01*
X134170300Y-93205891D01*
X134204408Y-93333187D01*
X134237354Y-93390250D01*
X134270300Y-93447314D01*
X134363486Y-93540500D01*
X134477614Y-93606392D01*
X134604908Y-93640500D01*
X134604910Y-93640500D01*
X134736690Y-93640500D01*
X134736692Y-93640500D01*
X134863986Y-93606392D01*
X134978114Y-93540500D01*
X135071300Y-93447314D01*
X135137192Y-93333186D01*
X135171300Y-93205892D01*
X135171300Y-93074108D01*
X135137192Y-92946814D01*
X135071300Y-92832686D01*
X134978114Y-92739500D01*
X134921050Y-92706554D01*
X134863987Y-92673608D01*
X134800339Y-92656554D01*
X134736692Y-92639500D01*
X134604908Y-92639500D01*
X134477612Y-92673608D01*
X134363486Y-92739500D01*
X134363483Y-92739502D01*
X134270302Y-92832683D01*
X134270300Y-92832686D01*
X134204408Y-92946812D01*
X134170300Y-93074108D01*
X99060000Y-93074108D01*
X99060000Y-85526608D01*
X101336361Y-85526608D01*
X101336361Y-85658391D01*
X101370469Y-85785687D01*
X101403415Y-85842750D01*
X101436361Y-85899814D01*
X101529547Y-85993000D01*
X101643675Y-86058892D01*
X101770969Y-86093000D01*
X101770971Y-86093000D01*
X101902751Y-86093000D01*
X101902753Y-86093000D01*
X102030047Y-86058892D01*
X102144175Y-85993000D01*
X102237361Y-85899814D01*
X102303253Y-85785686D01*
X102337361Y-85658392D01*
X102337361Y-85526608D01*
X102303253Y-85399314D01*
X102237361Y-85285186D01*
X102144175Y-85192000D01*
X102087111Y-85159054D01*
X102030048Y-85126108D01*
X101966400Y-85109054D01*
X101902753Y-85092000D01*
X101770969Y-85092000D01*
X101643673Y-85126108D01*
X101529547Y-85192000D01*
X101529544Y-85192002D01*
X101436363Y-85285183D01*
X101436361Y-85285186D01*
X101370469Y-85399312D01*
X101336361Y-85526608D01*
X99060000Y-85526608D01*
X99060000Y-80579108D01*
X109989500Y-80579108D01*
X109989500Y-80710891D01*
X110023608Y-80838187D01*
X110047461Y-80879500D01*
X110089500Y-80952314D01*
X110182686Y-81045500D01*
X110296814Y-81111392D01*
X110424108Y-81145500D01*
X110424110Y-81145500D01*
X110500500Y-81145500D01*
X110567539Y-81165185D01*
X110613294Y-81217989D01*
X110624500Y-81269500D01*
X110624500Y-81345891D01*
X110658608Y-81473187D01*
X110682461Y-81514500D01*
X110724500Y-81587314D01*
X110817686Y-81680500D01*
X110931814Y-81746392D01*
X111059108Y-81780500D01*
X111059110Y-81780500D01*
X111135500Y-81780500D01*
X111202539Y-81800185D01*
X111248294Y-81852989D01*
X111259500Y-81904500D01*
X111259500Y-81980891D01*
X111293608Y-82108187D01*
X111295059Y-82110700D01*
X111359500Y-82222314D01*
X111452686Y-82315500D01*
X111566814Y-82381392D01*
X111694108Y-82415500D01*
X111694110Y-82415500D01*
X111770500Y-82415500D01*
X111837539Y-82435185D01*
X111883294Y-82487989D01*
X111894500Y-82539500D01*
X111894500Y-82615891D01*
X111928608Y-82743187D01*
X111961554Y-82800250D01*
X111994500Y-82857314D01*
X112087686Y-82950500D01*
X112201814Y-83016392D01*
X112329108Y-83050500D01*
X112329110Y-83050500D01*
X112460890Y-83050500D01*
X112460892Y-83050500D01*
X112588186Y-83016392D01*
X112702314Y-82950500D01*
X112795500Y-82857314D01*
X112861392Y-82743186D01*
X112895500Y-82615892D01*
X112895500Y-82484108D01*
X112861392Y-82356814D01*
X112795500Y-82242686D01*
X112702314Y-82149500D01*
X112630756Y-82108186D01*
X112588187Y-82083608D01*
X112524539Y-82066554D01*
X112460892Y-82049500D01*
X112384500Y-82049500D01*
X112317461Y-82029815D01*
X112271706Y-81977011D01*
X112260500Y-81925500D01*
X112260500Y-81849110D01*
X112260500Y-81849108D01*
X112226392Y-81721814D01*
X112160500Y-81607686D01*
X112097122Y-81544308D01*
X115044100Y-81544308D01*
X115044100Y-81676092D01*
X115045281Y-81680499D01*
X115078208Y-81803387D01*
X115104606Y-81849108D01*
X115144100Y-81917514D01*
X115237286Y-82010700D01*
X115351414Y-82076592D01*
X115478708Y-82110700D01*
X115478710Y-82110700D01*
X115610490Y-82110700D01*
X115610492Y-82110700D01*
X115737786Y-82076592D01*
X115851914Y-82010700D01*
X115945100Y-81917514D01*
X116010992Y-81803386D01*
X116045100Y-81676092D01*
X116045100Y-81544308D01*
X116010992Y-81417014D01*
X115945100Y-81302886D01*
X115851914Y-81209700D01*
X115774812Y-81165185D01*
X115737787Y-81143808D01*
X115674139Y-81126754D01*
X115610492Y-81109700D01*
X115478708Y-81109700D01*
X115351412Y-81143808D01*
X115237286Y-81209700D01*
X115237283Y-81209702D01*
X115144102Y-81302883D01*
X115144100Y-81302886D01*
X115078208Y-81417012D01*
X115052087Y-81514500D01*
X115044100Y-81544308D01*
X112097122Y-81544308D01*
X112067314Y-81514500D01*
X111995756Y-81473186D01*
X111953187Y-81448608D01*
X111835274Y-81417014D01*
X111825892Y-81414500D01*
X111749500Y-81414500D01*
X111682461Y-81394815D01*
X111636706Y-81342011D01*
X111625500Y-81290500D01*
X111625500Y-81214110D01*
X111625500Y-81214108D01*
X111591392Y-81086814D01*
X111525500Y-80972686D01*
X111432314Y-80879500D01*
X111360756Y-80838186D01*
X111318187Y-80813608D01*
X111254539Y-80796554D01*
X111190892Y-80779500D01*
X111114500Y-80779500D01*
X111047461Y-80759815D01*
X111001706Y-80707011D01*
X110990500Y-80655500D01*
X110990500Y-80579110D01*
X110990500Y-80579108D01*
X110956392Y-80451814D01*
X110948730Y-80438543D01*
X121051999Y-80438543D01*
X121090447Y-80631829D01*
X121090450Y-80631839D01*
X121165864Y-80813907D01*
X121165871Y-80813920D01*
X121275360Y-80977781D01*
X121275363Y-80977785D01*
X121414714Y-81117136D01*
X121414718Y-81117139D01*
X121578579Y-81226628D01*
X121578592Y-81226635D01*
X121682079Y-81269500D01*
X121760665Y-81302051D01*
X121760669Y-81302051D01*
X121760670Y-81302052D01*
X121953956Y-81340500D01*
X121953959Y-81340500D01*
X122151043Y-81340500D01*
X122281082Y-81314632D01*
X122344335Y-81302051D01*
X122526414Y-81226632D01*
X122690282Y-81117139D01*
X122829639Y-80977782D01*
X122939132Y-80813914D01*
X123014551Y-80631835D01*
X123050360Y-80451814D01*
X123053000Y-80438543D01*
X123551999Y-80438543D01*
X123590447Y-80631829D01*
X123590450Y-80631839D01*
X123665864Y-80813907D01*
X123665871Y-80813920D01*
X123775360Y-80977781D01*
X123775363Y-80977785D01*
X123914714Y-81117136D01*
X123914718Y-81117139D01*
X124078579Y-81226628D01*
X124078592Y-81226635D01*
X124182079Y-81269500D01*
X124260665Y-81302051D01*
X124260669Y-81302051D01*
X124260670Y-81302052D01*
X124453956Y-81340500D01*
X124453959Y-81340500D01*
X124651043Y-81340500D01*
X124781082Y-81314632D01*
X124844335Y-81302051D01*
X125026414Y-81226632D01*
X125190282Y-81117139D01*
X125329639Y-80977782D01*
X125439132Y-80813914D01*
X125514551Y-80631835D01*
X125550360Y-80451814D01*
X125553000Y-80438543D01*
X126051999Y-80438543D01*
X126090447Y-80631829D01*
X126090450Y-80631839D01*
X126165864Y-80813907D01*
X126165871Y-80813920D01*
X126275360Y-80977781D01*
X126275363Y-80977785D01*
X126414714Y-81117136D01*
X126414718Y-81117139D01*
X126578579Y-81226628D01*
X126578592Y-81226635D01*
X126682079Y-81269500D01*
X126760665Y-81302051D01*
X126760669Y-81302051D01*
X126760670Y-81302052D01*
X126953956Y-81340500D01*
X126953959Y-81340500D01*
X127151043Y-81340500D01*
X127281082Y-81314632D01*
X127344335Y-81302051D01*
X127526414Y-81226632D01*
X127690282Y-81117139D01*
X127829639Y-80977782D01*
X127939132Y-80813914D01*
X128014551Y-80631835D01*
X128050360Y-80451814D01*
X128053000Y-80438543D01*
X128053000Y-80241456D01*
X128014552Y-80048170D01*
X128014551Y-80048169D01*
X128014551Y-80048165D01*
X128014549Y-80048160D01*
X127939135Y-79866092D01*
X127939128Y-79866079D01*
X127829639Y-79702218D01*
X127829636Y-79702214D01*
X127690285Y-79562863D01*
X127690281Y-79562860D01*
X127526420Y-79453371D01*
X127526407Y-79453364D01*
X127344339Y-79377950D01*
X127344329Y-79377947D01*
X127151043Y-79339500D01*
X127151041Y-79339500D01*
X126953959Y-79339500D01*
X126953957Y-79339500D01*
X126760670Y-79377947D01*
X126760660Y-79377950D01*
X126578592Y-79453364D01*
X126578579Y-79453371D01*
X126414718Y-79562860D01*
X126414714Y-79562863D01*
X126275363Y-79702214D01*
X126275360Y-79702218D01*
X126165871Y-79866079D01*
X126165864Y-79866092D01*
X126090450Y-80048160D01*
X126090447Y-80048170D01*
X126052000Y-80241456D01*
X126052000Y-80241459D01*
X126052000Y-80438541D01*
X126052000Y-80438543D01*
X126051999Y-80438543D01*
X125553000Y-80438543D01*
X125553000Y-80241456D01*
X125514552Y-80048170D01*
X125514551Y-80048169D01*
X125514551Y-80048165D01*
X125514549Y-80048160D01*
X125439135Y-79866092D01*
X125439128Y-79866079D01*
X125329639Y-79702218D01*
X125329636Y-79702214D01*
X125190285Y-79562863D01*
X125190281Y-79562860D01*
X125026420Y-79453371D01*
X125026407Y-79453364D01*
X124844339Y-79377950D01*
X124844329Y-79377947D01*
X124651043Y-79339500D01*
X124651041Y-79339500D01*
X124453959Y-79339500D01*
X124453957Y-79339500D01*
X124260670Y-79377947D01*
X124260660Y-79377950D01*
X124078592Y-79453364D01*
X124078579Y-79453371D01*
X123914718Y-79562860D01*
X123914714Y-79562863D01*
X123775363Y-79702214D01*
X123775360Y-79702218D01*
X123665871Y-79866079D01*
X123665864Y-79866092D01*
X123590450Y-80048160D01*
X123590447Y-80048170D01*
X123552000Y-80241456D01*
X123552000Y-80241459D01*
X123552000Y-80438541D01*
X123552000Y-80438543D01*
X123551999Y-80438543D01*
X123053000Y-80438543D01*
X123053000Y-80241456D01*
X123014552Y-80048170D01*
X123014551Y-80048169D01*
X123014551Y-80048165D01*
X123014549Y-80048160D01*
X122939135Y-79866092D01*
X122939128Y-79866079D01*
X122829639Y-79702218D01*
X122829636Y-79702214D01*
X122690285Y-79562863D01*
X122690281Y-79562860D01*
X122526420Y-79453371D01*
X122526407Y-79453364D01*
X122344339Y-79377950D01*
X122344329Y-79377947D01*
X122151043Y-79339500D01*
X122151041Y-79339500D01*
X121953959Y-79339500D01*
X121953957Y-79339500D01*
X121760670Y-79377947D01*
X121760660Y-79377950D01*
X121578592Y-79453364D01*
X121578579Y-79453371D01*
X121414718Y-79562860D01*
X121414714Y-79562863D01*
X121275363Y-79702214D01*
X121275360Y-79702218D01*
X121165871Y-79866079D01*
X121165864Y-79866092D01*
X121090450Y-80048160D01*
X121090447Y-80048170D01*
X121052000Y-80241456D01*
X121052000Y-80241459D01*
X121052000Y-80438541D01*
X121052000Y-80438543D01*
X121051999Y-80438543D01*
X110948730Y-80438543D01*
X110890500Y-80337686D01*
X110797314Y-80244500D01*
X110740250Y-80211554D01*
X110683187Y-80178608D01*
X110619539Y-80161554D01*
X110555892Y-80144500D01*
X110424108Y-80144500D01*
X110296812Y-80178608D01*
X110182686Y-80244500D01*
X110182683Y-80244502D01*
X110089502Y-80337683D01*
X110089500Y-80337686D01*
X110023608Y-80451812D01*
X109989500Y-80579108D01*
X99060000Y-80579108D01*
X99060000Y-78674108D01*
X112529500Y-78674108D01*
X112529500Y-78805891D01*
X112563608Y-78933187D01*
X112596554Y-78990250D01*
X112629500Y-79047314D01*
X112722686Y-79140500D01*
X112836814Y-79206392D01*
X112964108Y-79240500D01*
X112964110Y-79240500D01*
X113095890Y-79240500D01*
X113095892Y-79240500D01*
X113223186Y-79206392D01*
X113337314Y-79140500D01*
X113430500Y-79047314D01*
X113496392Y-78933186D01*
X113530500Y-78805892D01*
X113530500Y-78674108D01*
X113496392Y-78546814D01*
X113430500Y-78432686D01*
X113428695Y-78429559D01*
X113412222Y-78361659D01*
X113435074Y-78295632D01*
X113448390Y-78279889D01*
X113525633Y-78202647D01*
X113591525Y-78088519D01*
X113625633Y-77961225D01*
X113625633Y-77829441D01*
X113591525Y-77702147D01*
X113525633Y-77588019D01*
X113432447Y-77494833D01*
X113372253Y-77460080D01*
X113318320Y-77428941D01*
X113244991Y-77409293D01*
X113191025Y-77394833D01*
X113059241Y-77394833D01*
X112931945Y-77428941D01*
X112817819Y-77494833D01*
X112817816Y-77494835D01*
X112724635Y-77588016D01*
X112724633Y-77588019D01*
X112658741Y-77702145D01*
X112638475Y-77777781D01*
X112624633Y-77829441D01*
X112624633Y-77961225D01*
X112657678Y-78084552D01*
X112658742Y-78088521D01*
X112658742Y-78088522D01*
X112726437Y-78205772D01*
X112742910Y-78273672D01*
X112720058Y-78339699D01*
X112706732Y-78355452D01*
X112629503Y-78432682D01*
X112629500Y-78432686D01*
X112563608Y-78546812D01*
X112529500Y-78674108D01*
X99060000Y-78674108D01*
X99060000Y-76320247D01*
X121052000Y-76320247D01*
X121052000Y-77959752D01*
X121063631Y-78018229D01*
X121063632Y-78018230D01*
X121107947Y-78084552D01*
X121174269Y-78128867D01*
X121174270Y-78128868D01*
X121232747Y-78140499D01*
X121232750Y-78140500D01*
X121232752Y-78140500D01*
X122872250Y-78140500D01*
X122872251Y-78140499D01*
X122887068Y-78137552D01*
X122930729Y-78128868D01*
X122930729Y-78128867D01*
X122930731Y-78128867D01*
X122997052Y-78084552D01*
X123041367Y-78018231D01*
X123041367Y-78018229D01*
X123041368Y-78018229D01*
X123052706Y-77961224D01*
X123053000Y-77959748D01*
X123053000Y-77238543D01*
X123551999Y-77238543D01*
X123590447Y-77431829D01*
X123590450Y-77431839D01*
X123665864Y-77613907D01*
X123665871Y-77613920D01*
X123775360Y-77777781D01*
X123775363Y-77777785D01*
X123914714Y-77917136D01*
X123914718Y-77917139D01*
X124078579Y-78026628D01*
X124078592Y-78026635D01*
X124260660Y-78102049D01*
X124260665Y-78102051D01*
X124260669Y-78102051D01*
X124260670Y-78102052D01*
X124453956Y-78140500D01*
X124453959Y-78140500D01*
X124651043Y-78140500D01*
X124793891Y-78112085D01*
X124844335Y-78102051D01*
X125026414Y-78026632D01*
X125038987Y-78018231D01*
X125123556Y-77961724D01*
X125123557Y-77961723D01*
X125190282Y-77917139D01*
X125329639Y-77777782D01*
X125439132Y-77613914D01*
X125514551Y-77431835D01*
X125553000Y-77238541D01*
X125553000Y-77049493D01*
X125902500Y-77049493D01*
X125902500Y-77230506D01*
X125930817Y-77409293D01*
X125986751Y-77581444D01*
X125986752Y-77581447D01*
X126068931Y-77742730D01*
X126080413Y-77758532D01*
X126080413Y-77758533D01*
X126652500Y-77186446D01*
X126652500Y-77192661D01*
X126679759Y-77294394D01*
X126732420Y-77385606D01*
X126806894Y-77460080D01*
X126898106Y-77512741D01*
X126999839Y-77540000D01*
X127006053Y-77540000D01*
X126433966Y-78112085D01*
X126433966Y-78112086D01*
X126449767Y-78123566D01*
X126449775Y-78123571D01*
X126611052Y-78205747D01*
X126611055Y-78205748D01*
X126783206Y-78261682D01*
X126961994Y-78290000D01*
X127143006Y-78290000D01*
X127321793Y-78261682D01*
X127493944Y-78205748D01*
X127493952Y-78205745D01*
X127655230Y-78123568D01*
X127671032Y-78112085D01*
X127671033Y-78112085D01*
X127098948Y-77540000D01*
X127105161Y-77540000D01*
X127206894Y-77512741D01*
X127298106Y-77460080D01*
X127372580Y-77385606D01*
X127425241Y-77294394D01*
X127452500Y-77192661D01*
X127452500Y-77186447D01*
X128024585Y-77758532D01*
X128036068Y-77742730D01*
X128118245Y-77581452D01*
X128118248Y-77581444D01*
X128174182Y-77409293D01*
X128202500Y-77230506D01*
X128202500Y-77049493D01*
X128174182Y-76870706D01*
X128118248Y-76698555D01*
X128118247Y-76698552D01*
X128036071Y-76537275D01*
X128036066Y-76537267D01*
X128024585Y-76521466D01*
X127452500Y-77093551D01*
X127452500Y-77087339D01*
X127425241Y-76985606D01*
X127372580Y-76894394D01*
X127298106Y-76819920D01*
X127206894Y-76767259D01*
X127105161Y-76740000D01*
X127098947Y-76740000D01*
X127671033Y-76167913D01*
X127655230Y-76156431D01*
X127493947Y-76074252D01*
X127493944Y-76074251D01*
X127321793Y-76018317D01*
X127143006Y-75990000D01*
X126961994Y-75990000D01*
X126783206Y-76018317D01*
X126611055Y-76074251D01*
X126611047Y-76074254D01*
X126449769Y-76156432D01*
X126433966Y-76167912D01*
X126433966Y-76167913D01*
X127006054Y-76740000D01*
X126999839Y-76740000D01*
X126898106Y-76767259D01*
X126806894Y-76819920D01*
X126732420Y-76894394D01*
X126679759Y-76985606D01*
X126652500Y-77087339D01*
X126652500Y-77093553D01*
X126080412Y-76521466D01*
X126068932Y-76537269D01*
X125986754Y-76698547D01*
X125986751Y-76698555D01*
X125930817Y-76870706D01*
X125902500Y-77049493D01*
X125553000Y-77049493D01*
X125553000Y-77041459D01*
X125553000Y-77041456D01*
X125514552Y-76848170D01*
X125514551Y-76848169D01*
X125514551Y-76848165D01*
X125502852Y-76819920D01*
X125439135Y-76666092D01*
X125439128Y-76666079D01*
X125329639Y-76502218D01*
X125329636Y-76502214D01*
X125190285Y-76362863D01*
X125190277Y-76362857D01*
X125123603Y-76318307D01*
X125123553Y-76318274D01*
X125026420Y-76253371D01*
X125026407Y-76253364D01*
X124844339Y-76177950D01*
X124844329Y-76177947D01*
X124651043Y-76139500D01*
X124651041Y-76139500D01*
X124453959Y-76139500D01*
X124453957Y-76139500D01*
X124260670Y-76177947D01*
X124260660Y-76177950D01*
X124078592Y-76253364D01*
X124078579Y-76253371D01*
X123914718Y-76362860D01*
X123914714Y-76362863D01*
X123775363Y-76502214D01*
X123775360Y-76502218D01*
X123665871Y-76666079D01*
X123665864Y-76666092D01*
X123590450Y-76848160D01*
X123590447Y-76848170D01*
X123552000Y-77041456D01*
X123552000Y-77041459D01*
X123552000Y-77238541D01*
X123552000Y-77238543D01*
X123551999Y-77238543D01*
X123053000Y-77238543D01*
X123053000Y-76320252D01*
X123053000Y-76320249D01*
X123052999Y-76320247D01*
X123041368Y-76261770D01*
X123041367Y-76261769D01*
X122997052Y-76195447D01*
X122930730Y-76151132D01*
X122930729Y-76151131D01*
X122872252Y-76139500D01*
X122872248Y-76139500D01*
X121232752Y-76139500D01*
X121232747Y-76139500D01*
X121174270Y-76151131D01*
X121174269Y-76151132D01*
X121107947Y-76195447D01*
X121063632Y-76261769D01*
X121063631Y-76261770D01*
X121052000Y-76320247D01*
X99060000Y-76320247D01*
X99060000Y-74533908D01*
X114589500Y-74533908D01*
X114589500Y-74665691D01*
X114623608Y-74792987D01*
X114656554Y-74850050D01*
X114689500Y-74907114D01*
X114782686Y-75000300D01*
X114896814Y-75066192D01*
X115024108Y-75100300D01*
X115024110Y-75100300D01*
X115155890Y-75100300D01*
X115155892Y-75100300D01*
X115283186Y-75066192D01*
X115397314Y-75000300D01*
X115490500Y-74907114D01*
X115556392Y-74792986D01*
X115590500Y-74665692D01*
X115590500Y-74533908D01*
X115556392Y-74406614D01*
X115490500Y-74292486D01*
X115397314Y-74199300D01*
X115340250Y-74166354D01*
X115283187Y-74133408D01*
X115219539Y-74116354D01*
X115155892Y-74099300D01*
X115024108Y-74099300D01*
X114896812Y-74133408D01*
X114782686Y-74199300D01*
X114782683Y-74199302D01*
X114689502Y-74292483D01*
X114689500Y-74292486D01*
X114623608Y-74406612D01*
X114589500Y-74533908D01*
X99060000Y-74533908D01*
X99060000Y-73949708D01*
X105620700Y-73949708D01*
X105620700Y-74081491D01*
X105654808Y-74208787D01*
X105687754Y-74265850D01*
X105720700Y-74322914D01*
X105813886Y-74416100D01*
X105912721Y-74473163D01*
X105928010Y-74481990D01*
X105928014Y-74481992D01*
X106055308Y-74516100D01*
X106055310Y-74516100D01*
X106187090Y-74516100D01*
X106187092Y-74516100D01*
X106314386Y-74481992D01*
X106428514Y-74416100D01*
X106521700Y-74322914D01*
X106587592Y-74208786D01*
X106621700Y-74081492D01*
X106621700Y-73949708D01*
X106587592Y-73822414D01*
X106521700Y-73708286D01*
X106428514Y-73615100D01*
X106371450Y-73582154D01*
X106314387Y-73549208D01*
X106250739Y-73532154D01*
X106187092Y-73515100D01*
X106055308Y-73515100D01*
X105928012Y-73549208D01*
X105813886Y-73615100D01*
X105813883Y-73615102D01*
X105720702Y-73708283D01*
X105720700Y-73708286D01*
X105654808Y-73822412D01*
X105620700Y-73949708D01*
X99060000Y-73949708D01*
X99060000Y-72953456D01*
X104602300Y-72953456D01*
X104602300Y-73045743D01*
X104626187Y-73134890D01*
X104626188Y-73134893D01*
X104672326Y-73214805D01*
X104672329Y-73214809D01*
X104672331Y-73214812D01*
X104737588Y-73280069D01*
X104737591Y-73280070D01*
X104737594Y-73280073D01*
X104817506Y-73326211D01*
X104817507Y-73326211D01*
X104817512Y-73326214D01*
X104906656Y-73350100D01*
X104906658Y-73350100D01*
X104998942Y-73350100D01*
X104998944Y-73350100D01*
X105088088Y-73326214D01*
X105168012Y-73280069D01*
X105233269Y-73214812D01*
X105279414Y-73134888D01*
X105303300Y-73045744D01*
X105303300Y-72953456D01*
X105279414Y-72864312D01*
X105279188Y-72863920D01*
X105233273Y-72784394D01*
X105233270Y-72784391D01*
X105233269Y-72784388D01*
X105168012Y-72719131D01*
X105168009Y-72719129D01*
X105168005Y-72719126D01*
X105088093Y-72672988D01*
X105088090Y-72672987D01*
X105088089Y-72672986D01*
X105088088Y-72672986D01*
X104998944Y-72649100D01*
X104906656Y-72649100D01*
X104817512Y-72672986D01*
X104817511Y-72672986D01*
X104817509Y-72672987D01*
X104817506Y-72672988D01*
X104737594Y-72719126D01*
X104737585Y-72719133D01*
X104672333Y-72784385D01*
X104672326Y-72784394D01*
X104626188Y-72864306D01*
X104626187Y-72864309D01*
X104602300Y-72953456D01*
X99060000Y-72953456D01*
X99060000Y-72488543D01*
X128619499Y-72488543D01*
X128657947Y-72681829D01*
X128657950Y-72681839D01*
X128733364Y-72863907D01*
X128733371Y-72863920D01*
X128842860Y-73027781D01*
X128842863Y-73027785D01*
X128982214Y-73167136D01*
X128982218Y-73167139D01*
X129146079Y-73276628D01*
X129146092Y-73276635D01*
X129265788Y-73326214D01*
X129328165Y-73352051D01*
X129328169Y-73352051D01*
X129328170Y-73352052D01*
X129521456Y-73390500D01*
X129521459Y-73390500D01*
X129718543Y-73390500D01*
X129848582Y-73364632D01*
X129911835Y-73352051D01*
X130093914Y-73276632D01*
X130257782Y-73167139D01*
X130397139Y-73027782D01*
X130506632Y-72863914D01*
X130582051Y-72681835D01*
X130620500Y-72488543D01*
X131119499Y-72488543D01*
X131157947Y-72681829D01*
X131157950Y-72681839D01*
X131233364Y-72863907D01*
X131233371Y-72863920D01*
X131342860Y-73027781D01*
X131342863Y-73027785D01*
X131482214Y-73167136D01*
X131482218Y-73167139D01*
X131646079Y-73276628D01*
X131646092Y-73276635D01*
X131765788Y-73326214D01*
X131828165Y-73352051D01*
X131828169Y-73352051D01*
X131828170Y-73352052D01*
X132021456Y-73390500D01*
X132021459Y-73390500D01*
X132218543Y-73390500D01*
X132348582Y-73364632D01*
X132411835Y-73352051D01*
X132593914Y-73276632D01*
X132757782Y-73167139D01*
X132897139Y-73027782D01*
X133006632Y-72863914D01*
X133082051Y-72681835D01*
X133120500Y-72488543D01*
X133619499Y-72488543D01*
X133657947Y-72681829D01*
X133657950Y-72681839D01*
X133733364Y-72863907D01*
X133733371Y-72863920D01*
X133842860Y-73027781D01*
X133842863Y-73027785D01*
X133982214Y-73167136D01*
X133982218Y-73167139D01*
X134146079Y-73276628D01*
X134146092Y-73276635D01*
X134265788Y-73326214D01*
X134328165Y-73352051D01*
X134328169Y-73352051D01*
X134328170Y-73352052D01*
X134521456Y-73390500D01*
X134521459Y-73390500D01*
X134718543Y-73390500D01*
X134848582Y-73364632D01*
X134911835Y-73352051D01*
X135093914Y-73276632D01*
X135257782Y-73167139D01*
X135397139Y-73027782D01*
X135506632Y-72863914D01*
X135582051Y-72681835D01*
X135620500Y-72488541D01*
X135620500Y-72291459D01*
X135620500Y-72291456D01*
X135582052Y-72098170D01*
X135582051Y-72098169D01*
X135582051Y-72098165D01*
X135582049Y-72098160D01*
X135506635Y-71916092D01*
X135506628Y-71916079D01*
X135397139Y-71752218D01*
X135397136Y-71752214D01*
X135257785Y-71612863D01*
X135257781Y-71612860D01*
X135093920Y-71503371D01*
X135093907Y-71503364D01*
X134911839Y-71427950D01*
X134911829Y-71427947D01*
X134718543Y-71389500D01*
X134718541Y-71389500D01*
X134521459Y-71389500D01*
X134521457Y-71389500D01*
X134328170Y-71427947D01*
X134328160Y-71427950D01*
X134146092Y-71503364D01*
X134146079Y-71503371D01*
X133982218Y-71612860D01*
X133982214Y-71612863D01*
X133842863Y-71752214D01*
X133842860Y-71752218D01*
X133733371Y-71916079D01*
X133733364Y-71916092D01*
X133657950Y-72098160D01*
X133657947Y-72098170D01*
X133619500Y-72291456D01*
X133619500Y-72291459D01*
X133619500Y-72488541D01*
X133619500Y-72488543D01*
X133619499Y-72488543D01*
X133120500Y-72488543D01*
X133120500Y-72488541D01*
X133120500Y-72291459D01*
X133120500Y-72291456D01*
X133082052Y-72098170D01*
X133082051Y-72098169D01*
X133082051Y-72098165D01*
X133082049Y-72098160D01*
X133006635Y-71916092D01*
X133006628Y-71916079D01*
X132897139Y-71752218D01*
X132897136Y-71752214D01*
X132757785Y-71612863D01*
X132757781Y-71612860D01*
X132593920Y-71503371D01*
X132593907Y-71503364D01*
X132411839Y-71427950D01*
X132411829Y-71427947D01*
X132218543Y-71389500D01*
X132218541Y-71389500D01*
X132021459Y-71389500D01*
X132021457Y-71389500D01*
X131828170Y-71427947D01*
X131828160Y-71427950D01*
X131646092Y-71503364D01*
X131646079Y-71503371D01*
X131482218Y-71612860D01*
X131482214Y-71612863D01*
X131342863Y-71752214D01*
X131342860Y-71752218D01*
X131233371Y-71916079D01*
X131233364Y-71916092D01*
X131157950Y-72098160D01*
X131157947Y-72098170D01*
X131119500Y-72291456D01*
X131119500Y-72291459D01*
X131119500Y-72488541D01*
X131119500Y-72488543D01*
X131119499Y-72488543D01*
X130620500Y-72488543D01*
X130620500Y-72488541D01*
X130620500Y-72291459D01*
X130620500Y-72291456D01*
X130582052Y-72098170D01*
X130582051Y-72098169D01*
X130582051Y-72098165D01*
X130582049Y-72098160D01*
X130506635Y-71916092D01*
X130506628Y-71916079D01*
X130397139Y-71752218D01*
X130397136Y-71752214D01*
X130257785Y-71612863D01*
X130257781Y-71612860D01*
X130093920Y-71503371D01*
X130093907Y-71503364D01*
X129911839Y-71427950D01*
X129911829Y-71427947D01*
X129718543Y-71389500D01*
X129718541Y-71389500D01*
X129521459Y-71389500D01*
X129521457Y-71389500D01*
X129328170Y-71427947D01*
X129328160Y-71427950D01*
X129146092Y-71503364D01*
X129146079Y-71503371D01*
X128982218Y-71612860D01*
X128982214Y-71612863D01*
X128842863Y-71752214D01*
X128842860Y-71752218D01*
X128733371Y-71916079D01*
X128733364Y-71916092D01*
X128657950Y-72098160D01*
X128657947Y-72098170D01*
X128619500Y-72291456D01*
X128619500Y-72291459D01*
X128619500Y-72488541D01*
X128619500Y-72488543D01*
X128619499Y-72488543D01*
X99060000Y-72488543D01*
X99060000Y-70689108D01*
X101048700Y-70689108D01*
X101048700Y-70820891D01*
X101082808Y-70948187D01*
X101115754Y-71005250D01*
X101148700Y-71062314D01*
X101241886Y-71155500D01*
X101356014Y-71221392D01*
X101483308Y-71255500D01*
X101483310Y-71255500D01*
X101615090Y-71255500D01*
X101615092Y-71255500D01*
X101742386Y-71221392D01*
X101856514Y-71155500D01*
X101949700Y-71062314D01*
X102015592Y-70948186D01*
X102049700Y-70820892D01*
X102049700Y-70689108D01*
X102015592Y-70561814D01*
X101949700Y-70447686D01*
X101870322Y-70368308D01*
X123959500Y-70368308D01*
X123959500Y-70500091D01*
X123993608Y-70627387D01*
X124026554Y-70684450D01*
X124059500Y-70741514D01*
X124152686Y-70834700D01*
X124266814Y-70900592D01*
X124394108Y-70934700D01*
X124394110Y-70934700D01*
X124525890Y-70934700D01*
X124525892Y-70934700D01*
X124653186Y-70900592D01*
X124767314Y-70834700D01*
X124860500Y-70741514D01*
X124926392Y-70627386D01*
X124960500Y-70500092D01*
X124960500Y-70368308D01*
X124926392Y-70241014D01*
X124860500Y-70126886D01*
X124767314Y-70033700D01*
X124710250Y-70000754D01*
X124653187Y-69967808D01*
X124589539Y-69950754D01*
X124525892Y-69933700D01*
X124394108Y-69933700D01*
X124266812Y-69967808D01*
X124152686Y-70033700D01*
X124152683Y-70033702D01*
X124059502Y-70126883D01*
X124059500Y-70126886D01*
X123993608Y-70241012D01*
X123959500Y-70368308D01*
X101870322Y-70368308D01*
X101856514Y-70354500D01*
X101799450Y-70321554D01*
X101742387Y-70288608D01*
X101678739Y-70271554D01*
X101615092Y-70254500D01*
X101483308Y-70254500D01*
X101356012Y-70288608D01*
X101241886Y-70354500D01*
X101241883Y-70354502D01*
X101148702Y-70447683D01*
X101148700Y-70447686D01*
X101082808Y-70561812D01*
X101048700Y-70689108D01*
X99060000Y-70689108D01*
X99060000Y-69682508D01*
X108109900Y-69682508D01*
X108109900Y-69814292D01*
X108126954Y-69877939D01*
X108144008Y-69941587D01*
X108159147Y-69967808D01*
X108209900Y-70055714D01*
X108303086Y-70148900D01*
X108417214Y-70214792D01*
X108544508Y-70248900D01*
X108544510Y-70248900D01*
X108676290Y-70248900D01*
X108676292Y-70248900D01*
X108803586Y-70214792D01*
X108917714Y-70148900D01*
X109010900Y-70055714D01*
X109076792Y-69941586D01*
X109110900Y-69814292D01*
X109110900Y-69682508D01*
X109076792Y-69555214D01*
X109010900Y-69441086D01*
X108917714Y-69347900D01*
X108860650Y-69314954D01*
X108803587Y-69282008D01*
X108739939Y-69264954D01*
X108676292Y-69247900D01*
X108544508Y-69247900D01*
X108417212Y-69282008D01*
X108303086Y-69347900D01*
X108303083Y-69347902D01*
X108209902Y-69441083D01*
X108209900Y-69441086D01*
X108144008Y-69555212D01*
X108123580Y-69631452D01*
X108109900Y-69682508D01*
X99060000Y-69682508D01*
X99060000Y-68370247D01*
X128619500Y-68370247D01*
X128619500Y-70009752D01*
X128631131Y-70068229D01*
X128631132Y-70068230D01*
X128675447Y-70134552D01*
X128741769Y-70178867D01*
X128741770Y-70178868D01*
X128800247Y-70190499D01*
X128800250Y-70190500D01*
X128800252Y-70190500D01*
X130439750Y-70190500D01*
X130439751Y-70190499D01*
X130454568Y-70187552D01*
X130498229Y-70178868D01*
X130498229Y-70178867D01*
X130498231Y-70178867D01*
X130564552Y-70134552D01*
X130608867Y-70068231D01*
X130608867Y-70068229D01*
X130608868Y-70068229D01*
X130620499Y-70009752D01*
X130620500Y-70009750D01*
X130620500Y-69288543D01*
X131119499Y-69288543D01*
X131157947Y-69481829D01*
X131157950Y-69481839D01*
X131233364Y-69663907D01*
X131233371Y-69663920D01*
X131342860Y-69827781D01*
X131342863Y-69827785D01*
X131482214Y-69967136D01*
X131482218Y-69967139D01*
X131646079Y-70076628D01*
X131646092Y-70076635D01*
X131820555Y-70148899D01*
X131828165Y-70152051D01*
X131828169Y-70152051D01*
X131828170Y-70152052D01*
X132021456Y-70190500D01*
X132021459Y-70190500D01*
X132218543Y-70190500D01*
X132361391Y-70162085D01*
X132411835Y-70152051D01*
X132593914Y-70076632D01*
X132606487Y-70068231D01*
X132691056Y-70011724D01*
X132691057Y-70011723D01*
X132694013Y-70009748D01*
X132757782Y-69967139D01*
X132897139Y-69827782D01*
X133006632Y-69663914D01*
X133082051Y-69481835D01*
X133120500Y-69288541D01*
X133120500Y-69099493D01*
X133470000Y-69099493D01*
X133470000Y-69280506D01*
X133498317Y-69459293D01*
X133554251Y-69631444D01*
X133554252Y-69631447D01*
X133636431Y-69792730D01*
X133647913Y-69808532D01*
X133647913Y-69808533D01*
X134220000Y-69236446D01*
X134220000Y-69242661D01*
X134247259Y-69344394D01*
X134299920Y-69435606D01*
X134374394Y-69510080D01*
X134465606Y-69562741D01*
X134567339Y-69590000D01*
X134573553Y-69590000D01*
X134001466Y-70162085D01*
X134001466Y-70162086D01*
X134017267Y-70173566D01*
X134017275Y-70173571D01*
X134178552Y-70255747D01*
X134178555Y-70255748D01*
X134350706Y-70311682D01*
X134529494Y-70340000D01*
X134710506Y-70340000D01*
X134889293Y-70311682D01*
X135061444Y-70255748D01*
X135061452Y-70255745D01*
X135222730Y-70173568D01*
X135238532Y-70162085D01*
X135238533Y-70162085D01*
X134666448Y-69590000D01*
X134672661Y-69590000D01*
X134774394Y-69562741D01*
X134865606Y-69510080D01*
X134940080Y-69435606D01*
X134992741Y-69344394D01*
X135020000Y-69242661D01*
X135020000Y-69236448D01*
X135592085Y-69808533D01*
X135592085Y-69808532D01*
X135603568Y-69792730D01*
X135685745Y-69631452D01*
X135685748Y-69631444D01*
X135741682Y-69459293D01*
X135770000Y-69280506D01*
X135770000Y-69099493D01*
X135741682Y-68920706D01*
X135685748Y-68748555D01*
X135685747Y-68748552D01*
X135603571Y-68587275D01*
X135603566Y-68587267D01*
X135592085Y-68571466D01*
X135020000Y-69143551D01*
X135020000Y-69137339D01*
X134992741Y-69035606D01*
X134940080Y-68944394D01*
X134865606Y-68869920D01*
X134774394Y-68817259D01*
X134672661Y-68790000D01*
X134666447Y-68790000D01*
X135238533Y-68217913D01*
X135222730Y-68206431D01*
X135061447Y-68124252D01*
X135061444Y-68124251D01*
X134889293Y-68068317D01*
X134710506Y-68040000D01*
X134529494Y-68040000D01*
X134350706Y-68068317D01*
X134178555Y-68124251D01*
X134178547Y-68124254D01*
X134017269Y-68206432D01*
X134001466Y-68217912D01*
X134001466Y-68217913D01*
X134573554Y-68790000D01*
X134567339Y-68790000D01*
X134465606Y-68817259D01*
X134374394Y-68869920D01*
X134299920Y-68944394D01*
X134247259Y-69035606D01*
X134220000Y-69137339D01*
X134220000Y-69143553D01*
X133647912Y-68571466D01*
X133636432Y-68587269D01*
X133554254Y-68748547D01*
X133554251Y-68748555D01*
X133498317Y-68920706D01*
X133470000Y-69099493D01*
X133120500Y-69099493D01*
X133120500Y-69091459D01*
X133120500Y-69091456D01*
X133082052Y-68898170D01*
X133082051Y-68898169D01*
X133082051Y-68898165D01*
X133070352Y-68869920D01*
X133006635Y-68716092D01*
X133006628Y-68716079D01*
X132897139Y-68552218D01*
X132897136Y-68552214D01*
X132757785Y-68412863D01*
X132757777Y-68412857D01*
X132691103Y-68368307D01*
X132691053Y-68368274D01*
X132593920Y-68303371D01*
X132593907Y-68303364D01*
X132411839Y-68227950D01*
X132411829Y-68227947D01*
X132218543Y-68189500D01*
X132218541Y-68189500D01*
X132021459Y-68189500D01*
X132021457Y-68189500D01*
X131828170Y-68227947D01*
X131828160Y-68227950D01*
X131646092Y-68303364D01*
X131646079Y-68303371D01*
X131482218Y-68412860D01*
X131482214Y-68412863D01*
X131342863Y-68552214D01*
X131342860Y-68552218D01*
X131233371Y-68716079D01*
X131233364Y-68716092D01*
X131157950Y-68898160D01*
X131157947Y-68898170D01*
X131119500Y-69091456D01*
X131119500Y-69091459D01*
X131119500Y-69288541D01*
X131119500Y-69288543D01*
X131119499Y-69288543D01*
X130620500Y-69288543D01*
X130620500Y-68370249D01*
X130620499Y-68370247D01*
X130608868Y-68311770D01*
X130608867Y-68311769D01*
X130564552Y-68245447D01*
X130498230Y-68201132D01*
X130498229Y-68201131D01*
X130439752Y-68189500D01*
X130439748Y-68189500D01*
X128800252Y-68189500D01*
X128800247Y-68189500D01*
X128741770Y-68201131D01*
X128741769Y-68201132D01*
X128675447Y-68245447D01*
X128631132Y-68311769D01*
X128631131Y-68311770D01*
X128619500Y-68370247D01*
X99060000Y-68370247D01*
X99060000Y-66609108D01*
X119514500Y-66609108D01*
X119514500Y-66740891D01*
X119548608Y-66868187D01*
X119581554Y-66925250D01*
X119614500Y-66982314D01*
X119707686Y-67075500D01*
X119821814Y-67141392D01*
X119949108Y-67175500D01*
X119949110Y-67175500D01*
X120080890Y-67175500D01*
X120080892Y-67175500D01*
X120208186Y-67141392D01*
X120322314Y-67075500D01*
X120415500Y-66982314D01*
X120481392Y-66868186D01*
X120515500Y-66740892D01*
X120515500Y-66609108D01*
X120481392Y-66481814D01*
X120415500Y-66367686D01*
X120322314Y-66274500D01*
X120265250Y-66241554D01*
X120208187Y-66208608D01*
X120144539Y-66191554D01*
X120080892Y-66174500D01*
X119949108Y-66174500D01*
X119821812Y-66208608D01*
X119707686Y-66274500D01*
X119707683Y-66274502D01*
X119614502Y-66367683D01*
X119614500Y-66367686D01*
X119548608Y-66481812D01*
X119514500Y-66609108D01*
X99060000Y-66609108D01*
X99060000Y-63916708D01*
X114205900Y-63916708D01*
X114205900Y-64048491D01*
X114240008Y-64175787D01*
X114272954Y-64232850D01*
X114305900Y-64289914D01*
X114399086Y-64383100D01*
X114513214Y-64448992D01*
X114640508Y-64483100D01*
X114640510Y-64483100D01*
X114772290Y-64483100D01*
X114772292Y-64483100D01*
X114899586Y-64448992D01*
X115013714Y-64383100D01*
X115106900Y-64289914D01*
X115172792Y-64175786D01*
X115206900Y-64048492D01*
X115206900Y-63916708D01*
X115172792Y-63789414D01*
X115106900Y-63675286D01*
X115013714Y-63582100D01*
X114956650Y-63549154D01*
X114899587Y-63516208D01*
X114835939Y-63499154D01*
X114772292Y-63482100D01*
X114640508Y-63482100D01*
X114513212Y-63516208D01*
X114399086Y-63582100D01*
X114399083Y-63582102D01*
X114305902Y-63675283D01*
X114305900Y-63675286D01*
X114240008Y-63789412D01*
X114205900Y-63916708D01*
X99060000Y-63916708D01*
X99060000Y-62545108D01*
X119409500Y-62545108D01*
X119409500Y-62676891D01*
X119443608Y-62804187D01*
X119476554Y-62861250D01*
X119509500Y-62918314D01*
X119602686Y-63011500D01*
X119716814Y-63077392D01*
X119844108Y-63111500D01*
X119844110Y-63111500D01*
X119975890Y-63111500D01*
X119975892Y-63111500D01*
X120103186Y-63077392D01*
X120217314Y-63011500D01*
X120310500Y-62918314D01*
X120376392Y-62804186D01*
X120410500Y-62676892D01*
X120410500Y-62545108D01*
X120376392Y-62417814D01*
X120310500Y-62303686D01*
X120217314Y-62210500D01*
X120160250Y-62177554D01*
X120103187Y-62144608D01*
X120039539Y-62127554D01*
X119975892Y-62110500D01*
X119844108Y-62110500D01*
X119716812Y-62144608D01*
X119602686Y-62210500D01*
X119602683Y-62210502D01*
X119509502Y-62303683D01*
X119509500Y-62303686D01*
X119443608Y-62417812D01*
X119409500Y-62545108D01*
X99060000Y-62545108D01*
X99060000Y-58718389D01*
X103784500Y-58718389D01*
X103784500Y-58891611D01*
X103811598Y-59062701D01*
X103855627Y-59198208D01*
X103865128Y-59227447D01*
X103931282Y-59357283D01*
X103943768Y-59381788D01*
X104045586Y-59521928D01*
X104168072Y-59644414D01*
X104308212Y-59746232D01*
X104462555Y-59824873D01*
X104627299Y-59878402D01*
X104798389Y-59905500D01*
X104798390Y-59905500D01*
X104971610Y-59905500D01*
X104971611Y-59905500D01*
X105142701Y-59878402D01*
X105307445Y-59824873D01*
X105461788Y-59746232D01*
X105601928Y-59644414D01*
X105647634Y-59598708D01*
X113955100Y-59598708D01*
X113955100Y-59730492D01*
X113972154Y-59794139D01*
X113989208Y-59857787D01*
X114016756Y-59905500D01*
X114055100Y-59971914D01*
X114148286Y-60065100D01*
X114262414Y-60130992D01*
X114389708Y-60165100D01*
X114389710Y-60165100D01*
X114521490Y-60165100D01*
X114521492Y-60165100D01*
X114648786Y-60130992D01*
X114762914Y-60065100D01*
X114856100Y-59971914D01*
X114921992Y-59857786D01*
X114956100Y-59730492D01*
X114956100Y-59598708D01*
X114921992Y-59471414D01*
X114856100Y-59357286D01*
X114762914Y-59264100D01*
X114699426Y-59227445D01*
X114648787Y-59198208D01*
X114585139Y-59181154D01*
X114521492Y-59164100D01*
X114389708Y-59164100D01*
X114262412Y-59198208D01*
X114148286Y-59264100D01*
X114148283Y-59264102D01*
X114055102Y-59357283D01*
X114055100Y-59357286D01*
X113989208Y-59471412D01*
X113975672Y-59521930D01*
X113955100Y-59598708D01*
X105647634Y-59598708D01*
X105724414Y-59521928D01*
X105826232Y-59381788D01*
X105904873Y-59227445D01*
X105958402Y-59062701D01*
X105985500Y-58891611D01*
X105985500Y-58718389D01*
X105958402Y-58547299D01*
X105904873Y-58382555D01*
X105866491Y-58307226D01*
X118825982Y-58307226D01*
X118825982Y-58439009D01*
X118860090Y-58566305D01*
X118887157Y-58613186D01*
X118925982Y-58680432D01*
X119019168Y-58773618D01*
X119133296Y-58839510D01*
X119260590Y-58873618D01*
X119260592Y-58873618D01*
X119392372Y-58873618D01*
X119392374Y-58873618D01*
X119519668Y-58839510D01*
X119633796Y-58773618D01*
X119726982Y-58680432D01*
X119792874Y-58566304D01*
X119826982Y-58439010D01*
X119826982Y-58354108D01*
X120149500Y-58354108D01*
X120149500Y-58485891D01*
X120183608Y-58613187D01*
X120216554Y-58670250D01*
X120249500Y-58727314D01*
X120342686Y-58820500D01*
X120456814Y-58886392D01*
X120584108Y-58920500D01*
X120584110Y-58920500D01*
X120715890Y-58920500D01*
X120715892Y-58920500D01*
X120843186Y-58886392D01*
X120957314Y-58820500D01*
X121050500Y-58727314D01*
X121116392Y-58613186D01*
X121150500Y-58485892D01*
X121150500Y-58354108D01*
X121116392Y-58226814D01*
X121050500Y-58112686D01*
X120957314Y-58019500D01*
X120876116Y-57972620D01*
X120843187Y-57953608D01*
X120779539Y-57936554D01*
X120715892Y-57919500D01*
X120584108Y-57919500D01*
X120456812Y-57953608D01*
X120342686Y-58019500D01*
X120342683Y-58019502D01*
X120249502Y-58112683D01*
X120249500Y-58112686D01*
X120183608Y-58226812D01*
X120149500Y-58354108D01*
X119826982Y-58354108D01*
X119826982Y-58307226D01*
X119792874Y-58179932D01*
X119726982Y-58065804D01*
X119633796Y-57972618D01*
X119576732Y-57939672D01*
X119519669Y-57906726D01*
X119456021Y-57889672D01*
X119392374Y-57872618D01*
X119260590Y-57872618D01*
X119133294Y-57906726D01*
X119019168Y-57972618D01*
X119019165Y-57972620D01*
X118925984Y-58065801D01*
X118925982Y-58065804D01*
X118860090Y-58179930D01*
X118825982Y-58307226D01*
X105866491Y-58307226D01*
X105826232Y-58228212D01*
X105724414Y-58088072D01*
X105601928Y-57965586D01*
X105461788Y-57863768D01*
X105307445Y-57785127D01*
X105142701Y-57731598D01*
X105142699Y-57731597D01*
X105142698Y-57731597D01*
X105011271Y-57710781D01*
X104971611Y-57704500D01*
X104798389Y-57704500D01*
X104758728Y-57710781D01*
X104627302Y-57731597D01*
X104462552Y-57785128D01*
X104308211Y-57863768D01*
X104231504Y-57919500D01*
X104168072Y-57965586D01*
X104168070Y-57965588D01*
X104168069Y-57965588D01*
X104045588Y-58088069D01*
X104045588Y-58088070D01*
X104045586Y-58088072D01*
X104027705Y-58112683D01*
X103943768Y-58228211D01*
X103865128Y-58382552D01*
X103811597Y-58547302D01*
X103801162Y-58613187D01*
X103784500Y-58718389D01*
X99060000Y-58718389D01*
X99060000Y-56849108D01*
X120149500Y-56849108D01*
X120149500Y-56980891D01*
X120183608Y-57108187D01*
X120216554Y-57165250D01*
X120249500Y-57222314D01*
X120342686Y-57315500D01*
X120456814Y-57381392D01*
X120584108Y-57415500D01*
X120584110Y-57415500D01*
X120715890Y-57415500D01*
X120715892Y-57415500D01*
X120843186Y-57381392D01*
X120957314Y-57315500D01*
X121050500Y-57222314D01*
X121116392Y-57108186D01*
X121150500Y-56980892D01*
X121150500Y-56849108D01*
X121116392Y-56721814D01*
X121050500Y-56607686D01*
X120957314Y-56514500D01*
X120900250Y-56481554D01*
X120843187Y-56448608D01*
X120779539Y-56431554D01*
X120715892Y-56414500D01*
X120584108Y-56414500D01*
X120456812Y-56448608D01*
X120342686Y-56514500D01*
X120342683Y-56514502D01*
X120249502Y-56607683D01*
X120249500Y-56607686D01*
X120183608Y-56721812D01*
X120149500Y-56849108D01*
X99060000Y-56849108D01*
X99060000Y-51718389D01*
X103784500Y-51718389D01*
X103784500Y-51891611D01*
X103811598Y-52062701D01*
X103865127Y-52227445D01*
X103943768Y-52381788D01*
X104045586Y-52521928D01*
X104168072Y-52644414D01*
X104308212Y-52746232D01*
X104462555Y-52824873D01*
X104627299Y-52878402D01*
X104798389Y-52905500D01*
X104798390Y-52905500D01*
X104971610Y-52905500D01*
X104971611Y-52905500D01*
X105142701Y-52878402D01*
X105307445Y-52824873D01*
X105461788Y-52746232D01*
X105539311Y-52689908D01*
X117114500Y-52689908D01*
X117114500Y-52821692D01*
X117129695Y-52878402D01*
X117148608Y-52948987D01*
X117181554Y-53006050D01*
X117214500Y-53063114D01*
X117307686Y-53156300D01*
X117421814Y-53222192D01*
X117549108Y-53256300D01*
X117549110Y-53256300D01*
X117680890Y-53256300D01*
X117680892Y-53256300D01*
X117808186Y-53222192D01*
X117922314Y-53156300D01*
X118015500Y-53063114D01*
X118081392Y-52948986D01*
X118115500Y-52821692D01*
X118115500Y-52689908D01*
X118081392Y-52562614D01*
X118015500Y-52448486D01*
X117922314Y-52355300D01*
X117865250Y-52322354D01*
X117808187Y-52289408D01*
X117744539Y-52272354D01*
X117680892Y-52255300D01*
X117549108Y-52255300D01*
X117421812Y-52289408D01*
X117307686Y-52355300D01*
X117307683Y-52355302D01*
X117214502Y-52448483D01*
X117214500Y-52448486D01*
X117148608Y-52562612D01*
X117140171Y-52594100D01*
X117114500Y-52689908D01*
X105539311Y-52689908D01*
X105601928Y-52644414D01*
X105724414Y-52521928D01*
X105826232Y-52381788D01*
X105904873Y-52227445D01*
X105958402Y-52062701D01*
X105985500Y-51891611D01*
X105985500Y-51718389D01*
X105958402Y-51547299D01*
X105904873Y-51382555D01*
X105826232Y-51228212D01*
X105724414Y-51088072D01*
X105601928Y-50965586D01*
X105461788Y-50863768D01*
X105307445Y-50785127D01*
X105142701Y-50731598D01*
X105142699Y-50731597D01*
X105142698Y-50731597D01*
X105011271Y-50710781D01*
X104971611Y-50704500D01*
X104798389Y-50704500D01*
X104758728Y-50710781D01*
X104627302Y-50731597D01*
X104462552Y-50785128D01*
X104308211Y-50863768D01*
X104228256Y-50921859D01*
X104168072Y-50965586D01*
X104168070Y-50965588D01*
X104168069Y-50965588D01*
X104045588Y-51088069D01*
X104045588Y-51088070D01*
X104045586Y-51088072D01*
X104001859Y-51148256D01*
X103943768Y-51228211D01*
X103865128Y-51382552D01*
X103811597Y-51547302D01*
X103784500Y-51718389D01*
X99060000Y-51718389D01*
X99060000Y-45709500D01*
X99079685Y-45642461D01*
X99132489Y-45596706D01*
X99184000Y-45585500D01*
X112970293Y-45585500D01*
X113037332Y-45605185D01*
G37*
%TD.AperFunction*%
%TA.AperFunction,Conductor*%
G36*
X128821866Y-127090775D02*
G01*
X128899225Y-127168134D01*
X129000299Y-127210000D01*
X129109701Y-127210000D01*
X129210775Y-127168134D01*
X129288134Y-127090775D01*
X129305000Y-127050056D01*
X129305000Y-127766000D01*
X129303895Y-127769762D01*
X129304768Y-127773586D01*
X129294129Y-127803021D01*
X129285390Y-127832782D01*
X129245516Y-127792908D01*
X129139483Y-127731689D01*
X129021218Y-127700000D01*
X128898782Y-127700000D01*
X128780517Y-127731689D01*
X128710000Y-127772402D01*
X128710000Y-127144000D01*
X128729685Y-127076961D01*
X128782489Y-127031206D01*
X128795976Y-127028271D01*
X128821866Y-127090775D01*
G37*
%TD.AperFunction*%
%TA.AperFunction,Conductor*%
G36*
X137907055Y-127032055D02*
G01*
X137933039Y-127039685D01*
X137978794Y-127092489D01*
X137990000Y-127144000D01*
X137990000Y-127772402D01*
X137919483Y-127731689D01*
X137801218Y-127700000D01*
X137678782Y-127700000D01*
X137560517Y-127731689D01*
X137454484Y-127792908D01*
X137417196Y-127830195D01*
X137406206Y-127817511D01*
X137395000Y-127766000D01*
X137395000Y-127050056D01*
X137411866Y-127090775D01*
X137489225Y-127168134D01*
X137590299Y-127210000D01*
X137699701Y-127210000D01*
X137800775Y-127168134D01*
X137878134Y-127090775D01*
X137903803Y-127028803D01*
X137907055Y-127032055D01*
G37*
%TD.AperFunction*%
%TD*%
M02*
